<?xml version="1.0" encoding="utf-8"?>
<!-- Generator: Adobe Illustrator 23.0.5, SVG Export Plug-In . SVG Version: 6.00 Build 0)  -->
<svg version="1.1" id="Layer_1" xmlns="http://www.w3.org/2000/svg" xmlns:xlink="http://www.w3.org/1999/xlink" x="0px" y="0px"
	 viewBox="0 0 88.3 88.3" style="enable-background:new 0 0 88.3 88.3;" xml:space="preserve">
<style type="text/css">
	.st0{fill:url(#SVGID_1_);}
	.st1{fill-rule:evenodd;clip-rule:evenodd;fill:#151717;}
</style>
<g>
	
		<linearGradient id="SVGID_1_" gradientUnits="userSpaceOnUse" x1="14.4472" y1="28.1898" x2="86.65" y2="28.1898" gradientTransform="matrix(1 0 0 -1 0 87.8898)">
		<stop  offset="0" style="stop-color:#244E9D"/>
		<stop  offset="0.1789" style="stop-color:#24509E"/>
		<stop  offset="0.3121" style="stop-color:#25569E"/>
		<stop  offset="0.4306" style="stop-color:#255F9F"/>
		<stop  offset="0.5405" style="stop-color:#286D9E"/>
		<stop  offset="0.6444" style="stop-color:#317E9A"/>
		<stop  offset="0.7439" style="stop-color:#409390"/>
		<stop  offset="0.8381" style="stop-color:#56A97C"/>
		<stop  offset="0.8883" style="stop-color:#63B76B"/>
		<stop  offset="0.8959" style="stop-color:#63B76B"/>
		<stop  offset="0.9972" style="stop-color:#63B76B"/>
	</linearGradient>
	<path class="st0" d="M43.4,63.1H86L83.3,72v-0.3h-1.7v0.9h1.5l-2.4,8.1H37.6c-6,0-11.4-2.5-15.4-6.6s-6.3-9.6-6.2-15.8
		c0-3.6,1-7.1,2.6-10.2c1.2-2.3,2.8-4.5,4.8-6.3c0.6-0.5,1.2-1.1,1.8-1.6c-0.3,1-0.5,2.3-0.5,3.5c-0.1,5.3,2,10.1,5.4,13.6
		C33.5,61,38.2,63.1,43.4,63.1z M22.2,45l0.8,0.3c0.2-0.5,0.4-1,0.6-1.5l0,0l-0.7-0.4l0,0C22.6,43.9,22.4,44.4,22.2,45z M21.2,48.3
		l0.8,0.2v-0.1c0.1-0.5,0.2-1,0.4-1.6l-0.8-0.2C21.5,47.2,21.3,47.8,21.2,48.3z M20.8,51.8h0.8c0-0.6,0.1-1.1,0.1-1.7h-0.8v0.1l0,0
		C20.9,50.7,20.8,51.2,20.8,51.8z M21,55.3l0.8-0.1c-0.1-0.6-0.1-1.1-0.2-1.7h-0.7C20.9,54.1,21,54.7,21,55.3z M22.7,58.4
		c-0.2-0.5-0.3-1-0.5-1.6l0,0L21.4,57l0,0c0.1,0.6,0.3,1.1,0.5,1.7L22.7,58.4z M24,61.4L24,61.4c-0.3-0.5-0.5-1-0.7-1.5l-0.8,0.4
		c0.2,0.5,0.5,1,0.8,1.5l0,0l0,0L24,61.4z M25.8,64.1c-0.3-0.4-0.7-0.9-1-1.3l-0.7,0.5c0.3,0.5,0.7,0.9,1,1.4L25.8,64.1z M28.1,66.5
		c-0.4-0.4-0.8-0.7-1.2-1.1L26.3,66l0,0c0.4,0.4,0.8,0.8,1.2,1.2L28.1,66.5z M30.7,68.5c-0.5-0.3-0.9-0.6-1.3-0.9l-0.5,0.7
		c0.5,0.3,0.9,0.7,1.4,1L30.7,68.5z M33.6,70c-0.5-0.2-1-0.4-1.5-0.7l-0.4,0.8c0.5,0.3,1,0.5,1.5,0.7L33.6,70z M36.7,71
		c-0.5-0.1-1.1-0.3-1.6-0.5l-0.3,0.8c0.5,0.2,1.1,0.3,1.6,0.5L36.7,71z M39.9,71.6c-0.5-0.1-1.1-0.1-1.6-0.2l-0.2,0.8
		c0.6,0.1,1.1,0.2,1.7,0.2L39.9,71.6z M43.2,71.8c-0.6,0-1.1,0-1.7,0v0.9c0.6,0,1.1,0,1.7,0V71.8z M78.3,72.6H80v-0.9h-1.7V72.6z
		 M75,72.6h1.7v-0.9H75V72.6z M71.6,72.6h1.7v-0.9h-1.7V72.6z M68.3,72.6H70v-0.9h-1.7V72.6z M64.9,72.6h1.7v-0.9h-1.7V72.6z
		 M61.6,72.6h1.7v-0.9h-1.7V72.6z M58.2,72.6h1.7v-0.9h-1.7V72.6z M54.9,72.6h1.7v-0.9h-1.7V72.6z M51.6,72.6h1.7v-0.9h-1.7V72.6z
		 M48.2,72.6h1.7v-0.9h-1.7V72.6z M44.9,72.6h1.7v-0.9h-1.7V72.6z M43.4,61.5c-9.5,0-17.1-7.9-17-17.6c0-2.5,0.6-4.8,1.5-7
		C20,40.8,14.5,49,14.4,58.5c-0.2,13.2,10.3,24,23.2,24h42.7l0.4-1.2h-43c-6.1,0-11.7-2.6-15.7-6.7s-6.4-9.8-6.3-16.1
		c0-3.7,1-7.3,2.6-10.4c1.5-3,3.7-5.6,6.4-7.6l0,0c0.2-0.2,0.4-0.3,0.6-0.5l0.3,0.2c-0.1,0.6-0.2,1.2-0.3,1.9
		c-0.1,0.6-0.1,1.2-0.1,1.9c-0.1,5.2,2,9.9,5.3,13.3s7.9,5.5,13,5.5h42.7l0.4-1.2H43.4V61.5z"/>
	<path class="st1" d="M54.9,46.3L54.9,46.3L54.9,46.3L54.9,46.3L54.9,46.3z"/>
	<path class="st1" d="M54.7,45.3L54.7,45.3L54.7,45.3L54.7,45.3C54.7,45.4,54.7,45.4,54.7,45.3C54.7,45.4,54.7,45.4,54.7,45.3
		L54.7,45.3L54.7,45.3z"/>
	<path class="st1" d="M55.8,47.7L55.8,47.7C55.8,47.6,55.8,47.6,55.8,47.7C55.7,47.6,55.7,47.6,55.8,47.7
		C55.7,47.6,55.7,47.6,55.8,47.7C55.7,47.7,55.7,47.7,55.8,47.7C55.7,47.7,55.7,47.7,55.8,47.7z"/>
	<path class="st1" d="M54.7,45.5C54.6,45.5,54.7,45.5,54.7,45.5L54.7,45.5L54.7,45.5L54.7,45.5z"/>
	<path class="st1" d="M55.5,47.3L55.5,47.3C55.5,47.2,55.5,47.2,55.5,47.3L55.5,47.3C55.5,47.2,55.5,47.2,55.5,47.3L55.5,47.3
		L55.5,47.3z"/>
	<path class="st1" d="M55.2,47L55.2,47L55.2,47z"/>
	<path class="st1" d="M52.7,45.8L52.7,45.8C52.7,45.9,52.7,45.9,52.7,45.8c-0.1,0.1,0,0.2-0.1,0.3c0,0.1,0,0.2,0.1,0.3l0.1,0.1
		c0.1,0,0.2-0.1,0.2-0.3C53,46.1,52.9,46,52.7,45.8C52.8,45.8,52.8,45.8,52.7,45.8z"/>
	<path class="st1" d="M54.7,45.7L54.7,45.7L54.7,45.7L54.7,45.7L54.7,45.7z"/>
	<path class="st1" d="M43.6,41.1L43.6,41.1L43.6,41.1C43.5,41.1,43.5,41.2,43.6,41.1C43.5,41.2,43.5,41.2,43.6,41.1
		C43.6,41.2,43.6,41.2,43.6,41.1C43.6,41.2,43.6,41.2,43.6,41.1C43.6,41.2,43.6,41.1,43.6,41.1z"/>
	<path class="st1" d="M43.6,41.3C43.6,41.3,43.6,41.2,43.6,41.3C43.6,41.2,43.6,41.2,43.6,41.3L43.6,41.3z"/>
	<path class="st1" d="M43.6,41.2L43.6,41.2L43.6,41.2z"/>
	<path class="st1" d="M43.1,36.6C43.2,36.6,43.2,36.6,43.1,36.6C43.2,36.5,43.1,36.5,43.1,36.6C43.1,36.5,43.1,36.5,43.1,36.6
		C43.1,36.5,43.1,36.6,43.1,36.6L43.1,36.6L43.1,36.6z"/>
	<path class="st1" d="M43.6,36.9L43.6,36.9C43.6,36.9,43.5,36.9,43.6,36.9C43.5,36.9,43.5,36.9,43.6,36.9
		C43.5,36.9,43.5,36.9,43.6,36.9C43.5,36.9,43.5,36.9,43.6,36.9z"/>
	<path class="st1" d="M43.1,37.2L43.1,37.2C43,37.2,43,37.2,43.1,37.2L43.1,37.2L43.1,37.2L43.1,37.2z"/>
	<path class="st1" d="M43.5,37.1L43.5,37.1L43.5,37.1L43.5,37.1L43.5,37.1z"/>
	<path class="st1" d="M42,40.3L42,40.3L42,40.3L42,40.3C42,40.2,42,40.2,42,40.3z"/>
	<path class="st1" d="M56.6,46.5L56.6,46.5c-0.1,0-0.1-0.1-0.2-0.1l-0.1-0.1v-0.1l-0.1-0.1c-0.1,0-0.1,0-0.1-0.1v-0.1
		c0-0.1,0.1-0.3,0.1-0.4l0,0l0,0l0,0l0,0c0,0.1,0.1,0.1,0.1,0.1s0,0,0.1,0s0.1,0.1,0.2,0.2l0.1,0.1C56.7,46,56.6,46.2,56.6,46.5z
		 M46.3,45.5L46.3,45.5C46.4,45.5,46.4,45.5,46.3,45.5C46.4,45.6,46.4,45.6,46.3,45.5C46.4,45.6,46.3,45.5,46.3,45.5z M40.4,46.1
		L40.4,46.1L40.4,46.1L40.4,46.1z M40.5,46.1L40.5,46.1L40.5,46.1L40.5,46.1L40.5,46.1z M40.6,46.2C40.6,46.3,40.6,46.3,40.6,46.2
		C40.6,46.3,40.6,46.2,40.6,46.2L40.6,46.2L40.6,46.2z M44.4,52.4L44.4,52.4L44.4,52.4L44.4,52.4z M44.9,50.1L44.9,50.1L44.9,50.1
		L44.9,50.1z M45,48.9L45,48.9L45,48.9L45,48.9L45,48.9L45,48.9z M45.1,47.8L45.1,47.8L45.1,47.8L45.1,47.8z M45.1,49.2L45.1,49.2
		L45.1,49.2L45.1,49.2L45.1,49.2L45.1,49.2L45.1,49.2L45.1,49.2L45.1,49.2z M45.1,48.4c0-0.1,0-0.2,0-0.3l0,0l0,0
		C45.1,48.2,45.1,48.2,45.1,48.4c0,0,0,0,0.1,0.1v0.1v0.1l0,0l0,0c0,0,0,0,0,0.1l0,0l0,0v-0.1l0,0l0,0c0,0,0-0.1-0.1-0.1
		C45.2,48.6,45.2,48.6,45.1,48.4C45.1,48.5,45.1,48.5,45.1,48.4L45.1,48.4z M45.4,47.2L45.4,47.2L45.4,47.2L45.4,47.2L45.4,47.2z
		 M45.6,42.9C45.6,42.9,45.6,42.8,45.6,42.9C45.6,42.8,45.6,42.8,45.6,42.9L45.6,42.9L45.6,42.9L45.6,42.9z M45.5,42.8L45.5,42.8
		L45.5,42.8L45.5,42.8z M45.9,49.6C45.9,49.6,45.9,49.7,45.9,49.6C45.9,49.7,45.9,49.7,45.9,49.6c-0.1-0.1-0.1-0.1-0.1-0.2v-0.1
		c0-0.1,0-0.1,0-0.2V49l0,0l0,0c0,0,0,0,0,0.1v0.1c0,0.1,0,0.1,0,0.1v0.1C45.9,49.6,45.9,49.6,45.9,49.6z M45.7,47.2L45.7,47.2
		L45.7,47.2L45.7,47.2L45.7,47.2z M45.7,47.4C45.8,47.4,45.8,47.4,45.7,47.4L45.7,47.4c0.1,0.2,0,0.2,0,0.3c0,0,0,0,0,0.1l0,0
		c0,0,0,0-0.1,0l0,0l0,0h-0.1l0,0l0,0c0-0.1,0-0.1,0-0.2c0,0,0,0,0-0.1l0,0C45.6,47.5,45.7,47.4,45.7,47.4z M44.2,37L44.2,37
		L44.2,37C44.2,36.9,44.2,36.9,44.2,37C44.2,36.9,44.2,36.9,44.2,37C44.2,36.9,44.2,36.9,44.2,37z M44.3,37.1L44.3,37.1L44.3,37.1
		L44.3,37.1L44.3,37.1z M42.8,36.8L42.8,36.8L42.8,36.8L42.8,36.8L42.8,36.8C42.8,36.8,42.7,36.8,42.8,36.8z M41.8,35.8L41.8,35.8
		L41.8,35.8L41.8,35.8z M42.3,36.9L42.3,36.9C42.3,37,42.3,37,42.3,36.9L42.2,37l0,0l0,0l0,0l0,0C42.2,37,42.2,36.9,42.3,36.9
		C42.2,36.9,42.3,36.9,42.3,36.9C42.3,36.8,42.3,36.8,42.3,36.9L42.3,36.9z M42.5,37L42.5,37C42.4,37.1,42.4,37.1,42.5,37
		C42.4,37.1,42.4,37.1,42.5,37C42.4,37.1,42.4,37.1,42.5,37C42.4,37.1,42.4,37.1,42.5,37C42.4,37.1,42.4,37.1,42.5,37
		C42.4,37,42.4,37,42.5,37L42.5,37L42.5,37z M43,33.9L43,33.9L43,33.9L43,33.9L43,33.9C43,33.9,43.1,33.9,43,33.9z M43.2,33.8
		L43.2,33.8L43.2,33.8L43.2,33.8L43.2,33.8L43.2,33.8L43.2,33.8L43.2,33.8L43.2,33.8z M43.5,33.7L43.5,33.7L43.5,33.7
		C43.5,33.8,43.5,33.8,43.5,33.7C43.5,33.8,43.5,33.8,43.5,33.7C43.5,33.8,43.5,33.8,43.5,33.7C43.5,33.8,43.5,33.8,43.5,33.7
		L43.5,33.7L43.5,33.7z M43.8,36.2L43.8,36.2L43.8,36.2L43.8,36.2z M43.9,35.9L43.9,35.9L43.9,35.9L43.9,35.9L43.9,35.9L43.9,35.9
		L43.9,35.9L43.9,35.9z M43.9,34.1L43.9,34.1L43.9,34.1L43.9,34.1C43.9,34.2,43.9,34.2,43.9,34.1C43.9,34.2,43.9,34.2,43.9,34.1
		C43.9,34.2,43.9,34.2,43.9,34.1C43.9,34.2,43.9,34.2,43.9,34.1C43.9,34.2,43.9,34.2,43.9,34.1L43.9,34.1z M44,35.5L44,35.5L44,35.5
		L44,35.5L44,35.5L44,35.5z M44.2,36.1L44.2,36.1L44.2,36.1L44.2,36.1L44.2,36.1z M44.2,36.2C44.2,36.2,44.3,36.2,44.2,36.2
		C44.3,36.2,44.3,36.2,44.2,36.2C44.3,36.2,44.3,36.2,44.2,36.2L44.2,36.2C44.2,36.3,44.2,36.3,44.2,36.2
		C44.2,36.3,44.2,36.3,44.2,36.2C44.2,36.3,44.2,36.2,44.2,36.2L44.2,36.2z M44.4,35.8C44.3,35.8,44.3,35.8,44.4,35.8
		C44.3,35.8,44.3,35.8,44.4,35.8C44.3,35.8,44.3,35.8,44.4,35.8L44.4,35.8L44.4,35.8z M44.4,36L44.4,36L44.4,36L44.4,36L44.4,36z
		 M45.7,36.9C45.7,36.9,45.7,37,45.7,36.9C45.7,37,45.7,37,45.7,36.9C45.6,36.9,45.6,36.9,45.7,36.9C45.6,36.9,45.6,36.9,45.7,36.9
		C45.6,36.9,45.6,36.9,45.7,36.9C45.6,36.8,45.6,36.8,45.7,36.9C45.6,36.8,45.6,36.8,45.7,36.9L45.7,36.9L45.7,36.9L45.7,36.9
		C45.6,36.8,45.6,36.8,45.7,36.9C45.6,36.8,45.6,36.8,45.7,36.9L45.7,36.9z M45.5,39.3L45.5,39.3L45.5,39.3L45.5,39.3L45.5,39.3z
		 M45.5,36.5L45.5,36.5L45.5,36.5L45.5,36.5L45.5,36.5z M45.2,39L45.2,39L45.2,39L45.2,39L45.2,39L45.2,39z M45.1,36.2
		C45.1,36.2,45.1,36.1,45.1,36.2C45,36.1,45,36.1,45,36h0.1l0,0l0,0C45.1,36.1,45.2,36.1,45.1,36.2C45.2,36.2,45.2,36.2,45.1,36.2
		c0.1,0.1,0.1,0.1,0.1,0.2l0,0l0,0C45.2,36.2,45.2,36.2,45.1,36.2z M45,35.6L45,35.6L45,35.6L45,35.6C45,35.7,45,35.7,45,35.6
		C45,35.7,45,35.6,45,35.6z M44.6,40.4L44.6,40.4C44.6,40.3,44.6,40.3,44.6,40.4v-0.2l0.1-0.1V40c0,0,0,0,0-0.1l0.1-0.1
		c0,0,0,0,0-0.1s0.1-0.1,0.1-0.2H45l0,0c0.1,0.1,0.1,0.1,0.2,0.1l0,0c0,0,0,0-0.1,0.1l0,0l0,0c0,0,0.1,0,0.1,0.1s0.1,0.1,0.1,0.1
		s0,0,0.1,0c0,0,0.1,0,0.1-0.1h0.1l0,0c0,0,0,0,0-0.1l0,0l0,0c-0.1,0-0.1,0-0.2-0.1l0,0l0,0l0,0c0.1-0.1,0.1-0.1,0.2-0.1
		c0,0,0.1,0,0.1-0.1c0.1-0.1,0.1-0.1,0.2-0.1l0,0l0,0l0,0l0,0l0,0l-0.1,0.1c0,0,0,0,0,0.1c0,0,0,0,0,0.1s-0.1,0.1-0.1,0.1l0,0
		l0.1,0.1c0.1,0,0.2,0.1,0.2,0.1c0.1,0.1,0.2,0.1,0.3,0.2c0.1,0,0.1,0.1,0.1,0.2v0.1c0,0,0,0-0.1,0h-0.1c-0.1,0-0.1,0-0.2,0h-0.1
		c-0.1,0-0.1,0-0.2-0.1l0,0l0,0c-0.1,0-0.1,0-0.2,0c-0.1,0-0.3,0-0.4,0L45,40.4h-0.1C44.8,40.4,44.8,40.4,44.6,40.4
		C44.7,40.5,44.7,40.5,44.6,40.4z M44.6,40.6c0.1,0,0.1,0,0.2,0c0,0,0,0,0,0.1l0,0C44.7,40.7,44.7,40.7,44.6,40.6
		C44.7,40.7,44.6,40.7,44.6,40.6C44.6,40.7,44.6,40.7,44.6,40.6C44.6,40.7,44.5,40.7,44.6,40.6C44.5,40.7,44.6,40.7,44.6,40.6z
		 M44.6,34.8L44.6,34.8L44.6,34.8L44.6,34.8L44.6,34.8z M44.6,34.6L44.6,34.6L44.6,34.6C44.6,34.5,44.6,34.5,44.6,34.6
		C44.6,34.5,44.6,34.5,44.6,34.6z M44.5,35.1L44.5,35.1L44.5,35.1L44.5,35.1L44.5,35.1z M44.6,36.2L44.6,36.2L44.6,36.2
		c0.1,0,0.1,0.1,0.2,0.1l0,0c0.1,0.1,0.1,0.2,0,0.2l0,0c0,0,0,0-0.1,0C44.7,36.4,44.7,36.4,44.6,36.2L44.6,36.2
		C44.5,36.2,44.5,36.2,44.6,36.2z M47.3,37.6L47.3,37.6L47.3,37.6L47.3,37.6L47.3,37.6z M47.9,40.6L47.9,40.6
		c-0.1,0-0.1-0.1-0.2-0.1c0-0.1-0.1-0.1-0.1-0.2c-0.1-0.1-0.1-0.1-0.2-0.2c0-0.1-0.1-0.2-0.1-0.2v-0.1v-0.1c0,0,0-0.1,0.1-0.1
		s0.1-0.1,0.2-0.1l0,0c0.1,0,0.1-0.1,0.2-0.1c0,0,0,0,0.1,0s0.1,0,0.2,0h0.1v0.1v0.1l0,0h-0.1c-0.1,0-0.1,0-0.1,0.1c0,0,0,0,0,0.1
		l0,0c-0.1,0-0.1,0,0,0.1l0.1,0.1c0,0.1,0.1,0.1,0.2,0.2c0,0,0,0,0,0.1l0,0c0,0.1,0,0.1,0,0.2c0,0.1,0.1,0.1,0,0.2c0,0,0,0,0,0.1
		c0,0,0,0.1,0.1,0.1c0,0,0,0,0.1,0c0,0,0,0,0,0.1l0,0l0,0l0.1,0.1c0,0.1,0,0.2,0.1,0.3l0,0c-0.1,0-0.2,0-0.2,0s0,0-0.1,0
		s-0.2,0-0.2-0.1h-0.1c0,0,0,0-0.1,0l0,0c0-0.1-0.1-0.2,0-0.3v-0.1C47.9,40.7,47.9,40.7,47.9,40.6C48,40.6,48,40.6,47.9,40.6
		L47.9,40.6z M49,33.3L49,33.3L49,33.3L49,33.3z M49.4,39.6C49.4,39.7,49.4,39.7,49.4,39.6l-0.1,0.2h-0.1c0,0,0,0,0-0.1
		s0.1-0.2,0.2-0.2C49.3,39.5,49.3,39.5,49.4,39.6L49.4,39.6z M56.5,47.2L56.5,47.2C56.4,47.2,56.4,47.1,56.5,47.2
		c-0.1-0.1-0.2-0.1-0.2-0.2l-0.1-0.1c-0.1-0.1-0.2-0.1-0.3-0.2l-0.1-0.1c-0.1,0-0.2,0-0.2-0.1c0,0,0,0-0.1,0c0,0,0,0,0,0.1v0.1
		c0,0.1,0.1,0.1,0.2,0.1l0.1,0.1L56,47c0,0.1,0.1,0.1,0.1,0.2c0,0,0,0,0,0.1c0,0,0,0.1,0.1,0.1c0,0,0,0,0,0.1
		c0.1,0.1,0.1,0.1,0.1,0.2l0,0c-0.1,0.4-0.3,0.8-0.4,1.2c-0.7,1.6-1.6,3-2.8,4.2s-2.6,2.2-4.2,2.8c-1.5,0.6-3.2,1-4.9,1
		c-1.8,0-3.4-0.3-5-1s-3-1.6-4.2-2.8c-0.5-0.5-1-1.1-1.4-1.7l0,0c0.1-0.1,0.1-0.1,0.2-0.1c0,0,0.1,0,0.1-0.1c0,0,0.1,0,0.1-0.1l0,0
		h0.1h0.1c0.1,0,0.1,0,0.2-0.1c0,0,0.1,0,0.1-0.1c0,0,0,0,0-0.1v-0.1c0-0.1,0.1-0.1,0.1-0.2c0,0,0.1-0.1,0-0.2v-0.1
		c0.1-0.1,0.1-0.2,0.1-0.2c0-0.1,0-0.2,0-0.3s0-0.1,0-0.2v-0.1c0.1,0,0.1-0.1,0.2-0.2c0,0,0,0,0-0.1s0.1-0.1,0.1-0.1
		c0.1,0,0.1-0.1,0.1-0.1c0-0.1,0.1-0.1,0.1-0.2c0-0.1,0-0.2,0-0.3s-0.1-0.2-0.1-0.2l0,0h-0.1c-0.1,0-0.1,0-0.1,0s-0.1-0.1-0.2-0.1
		c-0.1-0.1-0.2-0.1-0.2-0.2h-0.1c-0.2,0-0.3,0-0.4-0.1c0,0,0,0-0.1,0c0,0,0,0-0.1,0l0,0v-0.1c0,0,0,0-0.1,0s-0.2-0.1-0.2-0.1
		c-0.1,0-0.1,0-0.2,0c-0.1,0-0.1,0-0.1,0.1l0,0l0,0l0,0c0-0.1,0-0.1,0-0.1h-0.1l0,0l0,0l0,0l0,0c-0.1,0-0.1,0-0.1,0s0,0-0.1,0
		l0.1-0.1v-0.1v-0.1c0,0,0-0.1-0.1-0.1c-0.1-0.1-0.1-0.1-0.1-0.2c0,0,0-0.1-0.1-0.1c-0.1-0.1-0.2-0.2-0.4-0.2c0,0,0,0-0.1,0
		s-0.1,0-0.2,0c-0.1,0-0.1,0-0.2,0c0,0,0,0-0.1,0s-0.1-0.1-0.2-0.1l0,0v-0.1l-0.1-0.1c0,0-0.1,0-0.1-0.1h-0.1l0,0l0,0l0,0v-0.2l0,0
		V46c-0.1-0.6-0.1-1.2-0.1-1.8c0-1.6,0.3-3.1,0.8-4.4l0,0c0,0,0,0,0.1,0l0,0c0,0,0,0,0-0.1c0,0,0,0,0-0.1c0.1-0.3,0.3-0.7,0.4-1
		c0,0,0,0,0.1,0h0.1c0.1,0,0.2-0.1,0.2-0.1s0.1-0.1,0-0.1v-0.1c0,0,0,0,0-0.1c0,0,0,0,0-0.1L32.4,38l0,0l0,0l0,0l0,0c0,0,0,0,0-0.1
		c0.4-0.7,0.9-1.4,1.4-2l0,0c0,0,0,0.1,0.1,0.1v0.1l0,0c0,0,0,0.1,0.1,0.1s0.1,0,0.1,0.1l0,0h0.1c0,0,0,0,0.1,0h0.1
		c0,0.1,0,0.1,0.1,0.1l0,0l0,0h0.1h0.1c0-0.1,0-0.2,0.1-0.2c0-0.1,0-0.1,0.1-0.2c0,0,0-0.1,0.1-0.1v-0.1l0,0l0,0l0,0l0,0l0,0l0,0
		l0,0l0,0c0,0,0.1,0,0.1-0.1s0.1-0.1,0.1-0.2c0.1,0,0.1-0.1,0-0.2c0,0,0,0,0-0.1l0,0c0,0,0,0,0-0.1l0,0c0,0,0,0,0-0.1h0.1
		c0,0,0-0.1,0.1-0.1s0.1,0,0.2,0l0,0l0,0c0.1,0,0.2,0,0.3-0.1l0,0c0.1,0,0.1-0.1,0.1-0.1c0-0.1,0.1-0.1,0.1-0.2
		c0-0.1,0.1-0.1,0.2-0.2h0.1c0,0,0,0,0.1,0c0,0,0,0,0.1,0h0.1c0.1,0,0.1,0,0.2-0.1c0.1,0,0.2-0.1,0.3-0.1c0.1-0.1,0.2-0.2,0.4-0.3
		l0,0l0,0c-0.1,0-0.2,0-0.2-0.1c-0.1,0-0.1,0-0.2,0l0,0l0,0l0,0h0.1l0.1-0.1v-0.1l0,0l0,0c0,0.1,0,0.1,0.1,0.2l0.1,0.1
		c0,0,0,0,0.1,0s0.1,0,0.1-0.1s0-0.1,0-0.2c0-0.1-0.1-0.1,0-0.2l0,0c0-0.1-0.1-0.1-0.1-0.2c0,0,0,0-0.1-0.1l0,0v-0.1l0,0l0,0l0,0
		c0,0.1,0,0.1,0.1,0.2l0.1,0.1l0,0v-0.1V33v-0.1l-0.1-0.1l0,0l0,0l0,0h-0.1l0,0l0,0l0,0c0,0,0,0,0.1,0.1l0,0l0,0l0,0h0.1h0.1l0,0
		v-0.1v-0.1c-0.1,0-0.1,0-0.1-0.1l0,0l0,0c0.1,0,0.1,0.1,0.2,0c0,0,0,0,0.1,0s0.1-0.1,0.1-0.1l0,0c0.2-0.1,0.4-0.2,0.7-0.3
		c1-0.4,2-0.7,3-0.8l0,0l0,0l0,0l0,0l0,0l0,0l0,0l0,0l0,0c0,0,0,0-0.1,0v0.1c0.1,0.1,0.1,0.2,0.2,0.2l0,0l0,0l0,0l0,0l0,0
		c0,0.1,0,0.1,0.1,0.1h0.1l0,0c0-0.1,0-0.2,0-0.2v-0.1c0,0,0,0,0-0.1s0,0,0-0.1c0.1,0,0.2,0,0.3,0c0,0,0,0,0,0.1v0.1c0,0,0,0.1,0,0
		h0.1l0,0l0,0c0,0,0,0,0.1,0c0.1-0.1,0.1-0.1,0.1-0.2l0,0c0.3,0,0.6,0,0.9,0c1,0,2.1,0.1,3,0.4l0,0c0,0,0,0,0,0.1v0.1V32l0,0l0,0
		c0,0,0,0-0.1,0.1c0,0,0,0-0.1,0l0,0l0.1,0.1v0.1v0.1c0,0,0,0.1-0.1,0.1v0.1c0,0.1,0.1,0.1,0,0.1c0,0.1,0,0.1-0.1,0.2V33l0,0v0.1
		c0,0-0.1,0-0.1,0.1v0.1c0,0,0,0.1,0.1,0.1c0,0,0,0,0.1,0c0,0,0,0,0.1,0h0.1c0,0,0,0,0,0.1s0,0.1,0.1,0.1h0.1H47h0.1l0,0h0.1l0,0
		l0,0v-0.1c0,0-0.1,0-0.1-0.1c-0.1-0.1-0.2-0.2-0.2-0.3s0-0.1,0-0.2c0-0.1,0-0.2,0-0.2v-0.1c0,0,0,0,0-0.1s0-0.2,0-0.3
		c0,0,0-0.1,0.1-0.1s0.1-0.1,0.1-0.1c0-0.1,0.1-0.1,0.1-0.2l0,0c0.5,0.1,1,0.3,1.4,0.5c0.2,0.1,0.4,0.2,0.7,0.3c0,0,0,0,0,0.1l0,0
		c0,0,0,0,0.1,0l0,0l0,0l0,0l0,0c0,0,0,0,0.1,0c0,0,0,0,0,0.1l0,0c0,0,0,0-0.1,0l0,0h-0.1c0,0,0,0,0,0.1s0.1,0.1,0.2,0.1h0.1
		c0,0,0,0,0.1,0l0,0l0,0h-0.1c-0.1,0-0.1,0-0.2,0h-0.1l0,0c0-0.1-0.1-0.1-0.1-0.2c0-0.1,0-0.1-0.1-0.2l0,0l0,0l0,0v0.1v0.1l0,0v0.1
		V33l0.1,0.1c0,0,0,0,0.1,0.1l0.1,0.1c0,0.1,0,0.1,0,0.1c0,0.1,0.1,0.2,0.1,0.3c0,0,0,0,0.1,0s0.1,0,0.1-0.1s0.1,0,0.1,0l0,0l0,0
		c-0.1,0-0.1,0.1-0.1,0.1s-0.1,0.1,0,0.2c0,0,0,0,0.1,0.1v0.1c0,0.1,0,0.1,0,0.2v0.1c0,0.1-0.1,0.1-0.1,0.2l0,0c-0.1,0-0.2,0-0.2,0
		l0,0c0,0,0,0,0-0.1l0,0l0,0l0,0l0,0l0,0c0.1,0,0.1,0,0.1-0.1s0.1-0.2,0.1-0.3c0,0,0,0,0-0.1v-0.1v-0.1c0,0-0.1,0-0.1-0.1l-0.1-0.1
		c-0.1-0.1-0.1-0.3-0.1-0.4c0-0.1-0.1-0.2-0.1-0.2l-0.1-0.1c0-0.1,0-0.3-0.1-0.4c0,0,0,0,0-0.1c-0.1,0-0.2-0.1-0.3,0h-0.1l0,0v0.1
		c0,0.1,0,0.2,0,0.3s0,0.1,0,0.1s-0.1,0.1,0,0.2v0.1l0.1,0.1c0,0.1,0.1,0.1,0,0.2l0,0l0.1,0.1l0,0H49c0.1,0.1,0.1,0.1,0.2,0.1l0,0
		v0.1l0,0l-0.1-0.1H49c0,0-0.1,0-0.1-0.1c0,0-0.1,0-0.1-0.1c-0.1,0-0.1,0-0.1-0.1c-0.1,0-0.2-0.1-0.3,0l0,0c-0.1,0-0.2,0-0.3-0.1
		L48,33.2l0,0l0,0c0,0.1,0,0.1,0,0.1c0.1,0,0.1,0,0.2,0.1l0,0c0,0,0,0,0.1,0l0.1,0.1v0.1l-0.1,0.1l0,0l0,0v-0.1h-0.1
		c0,0-0.1,0.1-0.1,0l0,0c0,0.1-0.1,0.1-0.1,0.1h-0.1l-0.1,0.1c0,0,0,0-0.1,0l0,0c0-0.1,0-0.1,0-0.1s-0.1,0-0.1,0.1l0,0
		c0,0,0,0-0.1,0.1h-0.1c0,0-0.1,0-0.1,0.1c-0.1,0.1-0.1,0.2-0.2,0.2c0,0,0,0,0,0.1v0.1l0,0c-0.1,0.1-0.2,0.1-0.2,0l-0.1-0.1v-0.1
		c0,0,0.1,0,0.1-0.1V34l-0.1-0.1c0-0.1-0.1-0.1-0.2-0.1c-0.1,0-0.1,0-0.1,0l0,0l0,0c0.1,0.1,0.1,0.2,0.1,0.3v0.1v0.1l0.1,0.1v0.1
		c0,0,0,0.1-0.1,0h-0.1c-0.1,0-0.1,0-0.1,0s0,0.1-0.1,0.1l-0.1,0.1c-0.1,0.1-0.1,0.1,0,0.2l0,0V35c0,0,0,0-0.1,0s-0.2-0.1-0.3-0.1
		c0,0,0,0-0.1,0l0,0c0,0,0,0,0,0.1v0.1l0.1,0.1l0,0l0,0c0,0,0,0.1-0.1,0.1s-0.1,0-0.2-0.1c0,0-0.1,0-0.1-0.1c0,0,0,0-0.1,0
		c0-0.1,0-0.1-0.1-0.2v-0.1c0-0.1,0-0.1-0.1-0.2c0,0-0.1,0-0.1-0.1c0,0-0.1,0-0.1-0.1l0,0l0,0l0,0l0,0c0.1,0,0.1,0,0.2,0
		c0.1,0.1,0.3,0.1,0.4,0.1c0.1,0,0.2,0,0.3,0l0,0c0.1-0.1,0.1-0.1,0.1-0.2v-0.1c0-0.1-0.1-0.1-0.1-0.2c0,0,0,0-0.1-0.1h-0.1
		c-0.1,0-0.1,0-0.2-0.1c0,0-0.1-0.1-0.2-0.1C44.9,34,44.8,34,44.6,34h-0.1h-0.1l0,0c0,0,0,0,0-0.1c0,0,0,0-0.1,0c0,0,0,0-0.1,0h-0.1
		h-0.1c0,0,0,0-0.1,0l0,0l0,0h0.1c0,0,0,0,0.1-0.1l0,0c-0.1-0.1-0.2-0.1-0.3-0.1l0,0l0,0l0,0l0,0c0,0,0,0,0-0.1c0,0,0-0.1-0.1-0.1
		h-0.1c0,0,0,0,0,0.1c0,0,0,0,0,0.1l0,0l0,0c0,0,0-0.1-0.1-0.1l0,0c0,0-0.1-0.1-0.1,0l-0.1,0.1c-0.1,0-0.1,0-0.1,0.1l0,0l0,0l0,0
		l0,0l0,0l0,0l0,0c-0.1,0-0.1,0-0.1,0.1l0,0l0,0l0,0l0,0l0,0c-0.1,0-0.1,0-0.2,0.1l0,0c0,0,0,0,0,0.1l0,0h-0.1l0,0l0,0
		c0,0,0,0,0-0.1l0,0l0,0c0,0,0,0,0,0.1l0,0l0,0c-0.1,0-0.1,0-0.1,0.1l0,0l0,0l0,0c0,0,0,0-0.1,0c0,0-0.1,0-0.1,0.1v0.1l0,0l0,0
		c0,0,0,0-0.1,0h-0.1l0,0v-0.1l0,0l0,0l-0.1,0.1l0,0c0,0,0,0,0,0.1l0,0c0,0,0,0,0.1,0h0.1c0,0,0,0,0.1,0l0,0l0,0c0,0,0,0-0.1,0l0,0
		c0,0,0,0,0,0.1c0,0,0,0-0.1,0v0.1l0,0l0,0v0.1c0,0-0.1,0-0.1,0.1V35v0.1l0,0v0.1v0.1c0,0,0,0-0.1,0.1c0,0,0,0-0.1,0l0,0v0.1
		c-0.1,0-0.1,0.1-0.1,0.2c0,0,0,0,0,0.1c0,0,0,0-0.1,0h-0.1l0,0l0,0l0,0l0,0c-0.1,0-0.1,0.1-0.2,0.1L41.5,36l0,0c0,0,0,0.1-0.1,0.1
		h-0.1l0,0v0.1c0,0.1,0,0.1,0,0.2l0,0l0.1,0.1v0.1c0,0,0,0,0,0.1c0,0,0,0,0,0.1c0,0,0,0,0,0.1c0,0,0,0,0.1,0l0,0c0,0,0,0,0,0.1v0.1
		c0.1,0.1,0.1,0.1,0.2,0.1l0,0c0.1,0,0.2,0,0.2-0.1c0,0,0-0.1,0.1-0.1s0.1,0,0.1-0.1l0,0c0,0,0,0,0.1,0V37v0.1c0,0.1,0,0.1,0.1,0.2
		c0,0.1,0.1,0.1,0.1,0.2c0,0,0,0,0,0.1c0,0,0,0,0,0.1l0,0l0,0l0,0c0,0.1,0.1,0.1,0.2,0.1c0,0,0,0,0-0.1c0,0,0-0.1,0.1-0.1
		c0,0,0,0,0.1,0s0.1,0,0.1-0.1c0.1,0,0.1-0.1,0.1-0.1l0,0l0,0l0,0l0,0c0-0.1,0-0.1,0-0.2v-0.1c0-0.1,0-0.1,0.1-0.1
		c0,0,0.1,0,0.1-0.1l0.1-0.1v-0.1c0,0,0,0,0-0.1s-0.1-0.1-0.2-0.2L43,36.3c0-0.1,0-0.2,0-0.3c0,0,0,0,0-0.1c0.1-0.1,0.1-0.2,0.2-0.2
		l0.1-0.1c0.1-0.1,0.1-0.1,0.1-0.2v-0.1c0-0.1,0-0.2,0-0.2c0-0.1,0.1-0.1,0.1-0.1c0.1,0,0.2,0,0.3,0v0.1c0,0,0,0,0,0.1v0.1
		c-0.1,0.1-0.1,0.2-0.2,0.3c0,0,0,0-0.1,0.1c0,0,0,0.1-0.1,0.1l0,0v0.1V36c0,0,0,0,0,0.1s0.1,0.2,0,0.3c0,0,0,0,0,0.1
		c0,0,0,0.1,0.1,0.1c0,0,0,0,0.1,0l0,0l0,0l0,0l0,0l0,0h0.1h0.1h0.1c0.1-0.1,0.2-0.1,0.4-0.1h0.1l0,0c0,0.1,0.1,0,0.1,0.1l0,0l0,0
		c0,0,0,0-0.1,0c0,0-0.1,0-0.1,0.1s-0.1,0.1-0.2,0H44c0,0,0,0-0.1,0s-0.1,0-0.2,0.1c-0.1,0-0.1,0.1-0.1,0.1s0,0.1-0.1,0.1h-0.1
		c0,0-0.1,0,0,0.1l0,0c0.1,0,0.1,0,0.1-0.1c0,0,0,0,0.1,0c0,0,0,0,0.1,0l0,0c0,0.1,0,0.1,0,0.1v0.1l0,0l-0.1-0.1c0,0,0,0-0.1,0
		s-0.1,0-0.1,0.1v0.1c0,0,0,0.1,0,0.2c0,0.1,0,0.1,0,0.2l0,0h-0.1c0,0,0,0-0.1,0.1c0,0.1-0.1,0.1-0.2,0l0,0c0,0,0,0-0.1,0
		s-0.1,0-0.2,0.1c-0.1,0-0.1,0.1-0.2,0.1c0,0,0,0-0.1,0.1c0,0,0,0-0.1,0L42.2,38c0,0,0,0,0-0.1l0,0h-0.1c-0.1,0-0.1,0-0.2,0.1l0,0
		c0,0,0,0-0.1-0.1h-0.1v-0.1l0,0l0,0c0.1,0,0.1,0,0.2,0.1c0.1,0,0.1,0,0.1,0c0-0.1,0.1-0.2,0.1-0.2l0,0l0,0c-0.1,0-0.1,0-0.2,0.1
		c0,0,0,0,0,0.1c0,0,0,0,0,0.1l0,0l0,0l0,0l-0.1-0.1l0,0c0,0,0-0.1,0.1-0.1l0,0l0,0c-0.1,0-0.1-0.1-0.1-0.1v-0.1l0,0l0,0
		c-0.1,0-0.1,0.1-0.2,0.1l0,0c0,0.1-0.1,0.1,0,0.2l0,0V38l0,0c0,0.1,0,0.2,0.1,0.2l-0.1,0.1c-0.1,0-0.1,0-0.1,0h-0.1
		c-0.1,0-0.1,0-0.2,0.1l-0.1,0.1c-0.1,0.2-0.1,0.2-0.2,0.3c0,0-0.1,0-0.1,0.1l0,0V39c0,0,0,0.1-0.1,0.1c0,0,0,0-0.1,0
		c0,0-0.1,0-0.1,0.1h-0.1h-0.1c0,0,0,0-0.1,0l0,0v0.1l0,0h-0.1c0,0,0,0-0.1,0s-0.1,0-0.1,0l0,0c0,0.1,0,0.1,0.1,0.1h0.1
		c0.1,0,0.1,0.1,0.1,0.1c0,0.1,0.1,0.1,0.1,0.1v0.1c0,0.1,0,0.2,0,0.3v0.1l-0.1,0.1c-0.1,0-0.1,0-0.2,0c0,0,0,0-0.1,0s-0.1,0-0.2,0
		c-0.1,0-0.1,0-0.2,0c0,0,0,0-0.1,0s-0.1,0-0.2,0c0,0,0,0-0.1,0l0,0c0,0,0,0,0,0.1s0.1,0.1,0,0.2l0,0c0,0.1,0,0.3-0.1,0.4V41
		c0,0,0,0,0,0.1c0.1,0.1,0.1,0.1,0.1,0.2l0,0l0,0h0.1h0.1h0.1c0,0,0,0.1,0.1,0.1h0.1c0,0,0.1,0,0.1-0.1c0.1,0,0.1-0.1,0.2-0.1
		c0.1,0,0.1,0,0.2,0h0.1l0.1-0.1c0,0,0.1,0,0.1-0.1s0-0.1,0.1-0.1c0,0,0,0,0-0.1c-0.1-0.1,0-0.2,0-0.2s0,0,0-0.1
		c0.1-0.1,0.1-0.1,0.2-0.1c0.1,0,0.1-0.1,0.2-0.2v-0.1c0,0,0,0,0-0.1l0.1-0.1c0.1,0,0.2,0,0.3,0.1h0.1c0-0.1,0.1-0.1,0.2-0.1
		c0,0,0,0,0.1,0c0-0.1,0.1-0.1,0.2,0C42,39.9,42,40,42,40s0,0.1,0.1,0.1c0.1,0.1,0.2,0.1,0.2,0.2c0.1,0.1,0.1,0.1,0.2,0.1
		c0.1,0,0.1,0.1,0.2,0.1l0.1,0.1l0,0c0,0,0,0.1,0.1,0.1l0,0c0,0.1,0,0.1-0.1,0.1s-0.2,0-0.3,0c0,0,0,0-0.1,0l0,0l0,0
		c0,0,0.1,0,0.1,0.1c0.1,0,0.2,0.1,0.2,0.1l0,0c0,0,0,0,0-0.1v-0.1c0,0,0-0.1,0.1-0.1h0.1c0-0.1,0.1-0.1,0.1-0.2v-0.1l0,0v-0.1
		c0,0,0.1-0.1,0.1,0c0,0,0.1,0,0.1,0.1l0,0v-0.1c-0.1-0.1-0.2-0.1-0.3-0.2c0,0,0,0,0-0.1l0,0h-0.1c-0.1,0-0.1,0-0.1-0.1l-0.1-0.1
		c0-0.1-0.1-0.1-0.1-0.2c0,0-0.1,0-0.1-0.1v-0.1v-0.1l0,0h0.1l0,0v0.1c0,0,0,0,0.1,0h0.1h0.1c0,0.1,0.1,0.1,0.2,0.2
		c0.1,0,0.1,0.1,0.2,0.1l0.1,0.1c0,0,0.1,0,0.1,0.1l0.1,0.1c0,0,0,0,0,0.1v0.1c0,0.1,0,0.1,0.1,0.2l0,0c0,0.1,0,0.1,0.1,0.1
		c0,0,0.1,0,0.1,0.1s0.1,0.1,0.1,0.1l0,0l0,0l0,0l0,0l0,0l0,0c0.1,0,0.1,0.1,0.1,0.1l0,0h0.1l0,0c0-0.1,0-0.1,0-0.2l0,0
		c0.1,0,0.1,0,0.1,0l0,0c0-0.1,0-0.1-0.1-0.1c0,0,0,0-0.1,0c0-0.1-0.1-0.1-0.1-0.2l0,0l0,0l0,0l0,0c0.1,0,0.1,0,0.1,0s0,0,0-0.1l0,0
		c0,0,0,0,0.1,0h0.1c0.1,0,0.1,0.1,0.1,0.1c0,0.1,0,0.2,0,0.2l0,0c0,0,0,0,0.1,0l0,0l0,0l0,0c0,0-0.1,0-0.1,0.1l0,0l0,0
		c0,0,0,0,0.1,0c0,0,0,0,0.1,0c0,0,0,0,0,0.1c0,0,0.1,0,0.1,0.1l0.1,0.1c0,0,0,0,0.1,0s0.1,0,0.1,0l0,0l0,0c0.1,0,0.1,0,0.2-0.1h0.1
		c0,0,0.1,0,0.1,0.1c0.1,0.1,0.1,0.1,0.2,0c0.1,0,0.1,0,0.2-0.1c0,0,0,0,0.1,0h0.1l0,0l0,0l0,0l0,0c0,0.1,0,0.1,0,0.2
		c0,0.1,0,0.1,0,0.2c0,0.1,0,0.1,0,0.1c0,0.1-0.1,0.1-0.1,0.2c0,0.1,0,0.1-0.1,0.2c0,0,0,0-0.1,0s-0.2,0-0.3,0h-0.1
		c-0.1,0-0.2,0-0.2,0.1h-0.1c-0.1,0-0.3-0.1-0.4-0.1c-0.1,0-0.1,0-0.1,0c-0.1,0-0.1,0-0.2-0.1c-0.1,0-0.1,0-0.2-0.1c0,0,0,0-0.1,0
		s-0.2,0-0.3,0s-0.1,0.1-0.1,0.2c0,0,0,0,0,0.1v0.1l0,0h-0.1c0,0,0,0-0.1,0c0,0-0.1,0-0.1-0.1c-0.1,0-0.2-0.1-0.3-0.1
		c0,0-0.1,0-0.1-0.1c0,0,0,0,0-0.1c0,0,0-0.1-0.1-0.1s-0.2-0.1-0.3-0.1s-0.1,0-0.2,0l0,0c0-0.1-0.1-0.1-0.2-0.1v-0.1l0.1-0.1v-0.1
		c0,0,0,0-0.1-0.1l0,0v-0.1l0,0h-0.1h-0.1h-0.1h-0.1h-0.1c-0.1,0-0.1,0-0.1,0h-0.1c-0.1,0-0.2,0-0.3,0s-0.1,0-0.2,0h-0.1
		c-0.1,0-0.1,0.1-0.2,0.1c-0.1,0-0.1,0-0.1,0.1c-0.1,0-0.1,0.1-0.2,0c-0.1,0-0.1,0-0.1,0H40c0,0,0,0-0.1,0l0,0c-0.1-0.1-0.1,0-0.1,0
		V41c0,0.1-0.1,0.1-0.1,0.2c-0.1,0-0.1,0.1-0.2,0.1c-0.1,0-0.1,0.1-0.1,0.2v0.1v0.1v0.1v0.1c0,0,0,0.1-0.1,0.1c0,0,0,0-0.1,0.1
		c0,0-0.1,0-0.1,0.1L39,42.3c0,0-0.1,0-0.1,0.1c0,0,0,0,0,0.1l-0.1,0.1c-0.1,0-0.1,0.1-0.1,0.1c0,0.1-0.1,0.2-0.2,0.3c0,0,0,0,0,0.1
		s-0.1,0.2-0.2,0.3v0.1c0,0.1,0,0.1,0.1,0.1c0,0,0.1,0.1,0,0.1v0.1c0,0.1,0,0.2,0,0.3l0,0c0,0.1-0.1,0.2-0.1,0.3l0,0
		c0,0,0,0.1,0.1,0.1v0.1c0,0.1,0,0.1,0,0.2l0.1,0.1h0.1l0,0l0,0l0,0l0,0V45c0,0,0.1,0,0.1,0.1c0,0,0,0,0.1,0.1
		c0.1,0,0.1,0.1,0.1,0.1s0,0,0,0.1s0,0.1,0.1,0.2c0,0.1,0.1,0.1,0.2,0.2c0.1,0,0.1,0.1,0.1,0.1c0.1,0.1,0.2,0.2,0.3,0.2
		s0.1,0.1,0.2,0.1c0,0,0,0,0.1,0c0,0,0.1,0,0.1-0.1c0.1,0,0.1-0.1,0.2-0.1c0.1,0,0.1,0,0.2,0c0.1,0,0.1,0,0.2,0c0,0,0,0,0.1,0h0.1
		h0.1H41c0.1,0,0.1-0.1,0.2-0.1c0.1,0,0.1,0,0.2,0c0.1,0,0.2,0,0.2,0s0,0,0.1,0s0.1,0.1,0.2,0.2v0.1c0,0.1,0.1,0.1,0.2,0.1
		c0,0,0,0,0.1,0s0.2,0,0.2,0h0.1c0,0,0,0,0.1,0.1c0.1,0,0.1,0.1,0.1,0.2v0.1c0,0,0,0.1-0.1,0.1v0.1c0,0.1,0,0.1-0.1,0.2l0,0l0,0
		c0.1,0.2,0.1,0.3,0.3,0.4l0.1,0.1c0.1,0,0.1,0.1,0.1,0.2v0.1c0,0.1,0.1,0.1,0.1,0.2c0,0.1,0.1,0.2,0.1,0.3c0,0,0,0,0,0.1
		c0,0,0,0,0,0.1s0,0.1,0.1,0.2c0,0,0,0,0,0.1s0,0.2-0.1,0.3l-0.1,0.1L43,49.4c0,0.1,0,0.2-0.1,0.2v0.1c0,0.1,0,0.2,0,0.2V50
		c0.1,0.1,0.1,0.2,0.2,0.3c0,0.1,0.1,0.2,0.1,0.3s0.1,0.1,0.1,0.2c0,0.1,0,0.2,0,0.2v0.1c0,0.1,0,0.2,0,0.3s0.1,0.2,0.1,0.3l0.1,0.1
		l0.1,0.1c0,0.1,0.1,0.2,0.1,0.3c0,0,0,0,0,0.1s0,0.1,0,0.2c0,0,0,0,0,0.1s0,0.1,0,0.2l0,0c0.1,0,0.1,0.1,0.2,0.1c0,0,0,0,0.1,0
		s0.1-0.1,0.2-0.1h0.1c0.1,0,0.1,0,0.2,0c0.1,0,0.1,0,0.2,0c0,0,0,0,0.1,0s0.1,0,0.2-0.1c0,0,0,0,0.1,0s0.2,0,0.2-0.1
		c0.1-0.1,0.2-0.2,0.3-0.3s0.1-0.1,0.2-0.2c0-0.1,0.1-0.1,0.1-0.2l0.1-0.1c0.1-0.1,0.1-0.1,0.1-0.2c0-0.1,0-0.1,0.1-0.2v-0.1v-0.1
		l0.1-0.1c0.1,0,0.1,0,0.2-0.1l0.1-0.1c0-0.1,0-0.1,0-0.2v-0.1c0-0.1-0.1-0.2-0.1-0.3v-0.1c0.1-0.1,0.3-0.2,0.4-0.3l0.1-0.1
		c0.1,0,0.1-0.1,0.2-0.1c0.1-0.1,0.2-0.2,0.2-0.3s0-0.1,0-0.2c0-0.1,0-0.1,0-0.2v-0.1c0-0.1,0-0.1,0-0.2v-0.1
		c-0.1,0-0.1-0.1-0.1-0.2c0-0.1,0-0.2,0-0.3c0,0,0,0,0-0.1v-0.1c-0.1-0.1-0.1-0.1,0-0.2c0-0.1,0-0.1,0.1-0.2
		c0.1-0.1,0.1-0.1,0.1-0.2c0,0,0-0.1,0.1-0.1s0.1-0.1,0.2-0.1c0.1-0.1,0.2-0.3,0.4-0.4c0.1-0.1,0.1-0.2,0.3-0.2l0,0
		c0.2-0.2,0.4-0.4,0.5-0.7c0-0.1,0.1-0.2,0.2-0.3c0-0.1,0.1-0.1,0.1-0.2c0-0.1,0-0.2,0-0.3c0,0-0.1-0.1-0.1,0l0,0
		c-0.1,0.1-0.2,0.1-0.2,0.1c-0.1,0-0.3,0-0.4,0.1c0,0,0,0-0.1,0s-0.1,0-0.2,0c0,0,0,0-0.1,0h-0.1l0,0L48,45.1l0,0c0-0.1,0-0.1,0-0.1
		l-0.1-0.1c-0.1-0.1-0.1-0.1-0.2-0.2l-0.1-0.1c-0.1,0-0.2-0.1-0.2-0.2c0-0.1,0-0.1,0-0.2c0-0.1-0.1-0.1-0.1-0.1L47.2,44
		c0,0,0-0.1-0.1-0.1c0-0.1,0-0.2-0.1-0.3c0-0.1-0.1-0.2-0.2-0.2c0,0,0,0-0.1,0l0,0c0,0,0,0,0-0.1s0-0.1-0.1-0.2c0,0,0-0.1-0.1-0.1
		c-0.1-0.1-0.2-0.2-0.2-0.4c0,0,0,0,0-0.1l0,0c0,0,0,0,0.1,0c0,0,0,0,0.1,0h0.1c0,0,0,0,0,0.1c0.1,0.1,0.1,0.2,0.2,0.3
		c0,0.1,0.1,0.1,0.1,0.2c0,0,0,0.1,0.1,0.1s0.1,0.1,0.2,0.2c0,0,0,0,0,0.1v0.1c0,0,0,0,0,0.1s0.1,0.2,0.1,0.2s0.1,0,0.1,0.1
		c0.1,0,0.1,0.1,0.1,0.1c0,0.1,0.1,0.1,0.1,0.2l0.1,0.1c0,0.1,0.1,0.1,0.1,0.2v0.1c0,0.1,0.1,0.2,0.1,0.3v0.1c0,0,0,0,0.1,0H48
		c0,0,0.1,0,0.1-0.1s0.1-0.1,0.1-0.1c0.1,0,0.1,0,0.2-0.1h0.1c0,0,0.1,0,0.1-0.1c0,0,0.1,0,0.1-0.1c0.1,0,0.1,0,0.2-0.1
		c0.1,0,0.1,0,0.2-0.1c0,0,0,0,0-0.1s0.1-0.1,0.1-0.1c0.1,0,0.2,0,0.2-0.1c0.1,0,0.1,0,0.1-0.1c0,0,0-0.1,0.1-0.1s0.1,0,0.1-0.1
		c0,0,0,0,0.1-0.1h0.1l0,0v-0.1v-0.1c0.1-0.1,0.1-0.2,0.2-0.2c0-0.1,0-0.1,0-0.1L50,43.1L49.9,43h-0.1h-0.1c0,0-0.1-0.1-0.1-0.2
		c0-0.1,0-0.1,0-0.2l0,0l0,0c-0.1,0.1-0.2,0.1-0.2,0.2c0,0.1-0.1,0.1-0.2,0.1c-0.1,0-0.1,0-0.2,0h-0.1c0,0,0,0,0-0.1s0-0.1,0-0.2
		l0,0l0,0l0,0c0,0,0,0,0,0.1c0,0,0,0-0.1,0v-0.1c0-0.1,0-0.1-0.1-0.2l-0.1-0.1l0,0c0-0.1-0.1-0.1-0.1-0.2c0,0,0,0,0-0.1
		c0,0,0,0,0-0.1l0,0h0.1h0.1c0,0,0,0,0.1,0.1s0.1,0.2,0.1,0.2s0,0.1,0.1,0.1c0,0,0,0,0.1,0c0,0,0.1,0,0.1,0.1c0,0,0.1,0,0.1,0.1
		c0.1,0,0.1,0.1,0.2,0.1h0.1l0.1-0.1c0.1,0,0.1,0,0.1,0s0,0.1,0.1,0.1c0,0,0,0.1,0.1,0.1c0.2,0,0.4,0.1,0.5,0.1s0.1,0,0.2,0
		c0.1,0,0.2,0,0.3,0h0.1c0.1,0,0.1,0,0.2,0c0,0,0,0,0.1,0c0,0,0,0,0.1,0.1c0,0,0.1,0,0.1,0.1s0,0.1,0.1,0.1c0,0,0.1,0,0.1,0.1
		s0.1,0.1,0.2,0.1c0,0,0,0,0.1,0l0,0l0,0l0,0l0,0c0,0-0.1,0.1-0.1,0l0,0l0,0c0.1,0.1,0.1,0.1,0.2,0.2c0.1,0.1,0.2,0.1,0.3,0
		c0.1,0,0.1-0.1,0.1-0.1l0,0l0,0l0,0l0,0l0,0c0,0.1,0.1,0.2,0.1,0.3v0.1c0,0.1,0,0.2,0.1,0.3c0,0.1,0.1,0.2,0.1,0.3l0,0
		c0,0.1,0.1,0.1,0.1,0.2c0,0.1,0.1,0.1,0.1,0.2v0.1c0,0.1,0.1,0.1,0.1,0.2l0.1,0.1c0,0.1,0.1,0.2,0.1,0.3s0,0.1,0.1,0.2
		c0,0,0,0,0.1,0.1c0,0,0.1,0,0.2,0c0,0,0,0,0-0.1c0,0,0-0.1,0.1-0.1c0,0,0.1,0,0.1-0.1c0,0,0-0.1,0.1-0.1c0,0,0,0,0-0.1v-0.1v-0.1
		c0,0,0,0,0-0.1s0-0.1,0-0.2v-0.1c0-0.1,0-0.1,0-0.2c0,0,0-0.1,0.1-0.1l0,0c0-0.1,0.1-0.1,0.1-0.1s0,0,0-0.1v-0.1
		c0.1,0,0.1-0.1,0.2-0.2l0.1-0.1l0.1-0.1c0,0,0,0,0.1,0s0.2-0.1,0.2-0.2c0,0,0-0.1,0.1-0.1h0.1c0.1,0,0.2,0,0.3-0.1
		c0,0,0.1,0,0.1-0.1l0,0v0.1c0,0.1,0.1,0.2,0.2,0.3c0,0,0,0,0.1,0c0,0,0,0,0,0.1s0,0.1,0.1,0.1c0,0,0.1,0,0.1,0.1l0,0
		c0,0.1,0.1,0.2,0,0.3v0.1c0,0,0,0.1,0.1,0.1s0.1,0,0.2-0.1l0.1-0.1l0,0l0.1,0.1v0.1c0,0.1,0.1,0.2,0.1,0.3c0,0,0,0,0,0.1v0.1
		c0,0.1,0,0.2,0,0.3v0.1c0,0.1,0,0.1,0,0.2c0,0.1,0,0.1,0.1,0.2l0,0c0.1,0.1,0.1,0.2,0.2,0.3c0,0,0,0.1,0,0.2l0,0v0.1v0.1l0.1,0.1
		l0,0L56.5,47.2L56.5,47.2z M33.1,50.4L33.1,50.4L33.1,50.4L33.1,50.4z M32.9,47.8L32.9,47.8L32.9,47.8L32.9,47.8L32.9,47.8
		L32.9,47.8z M33,48.2L33,48.2C32.9,48.2,32.9,48.2,33,48.2C32.9,48.1,32.9,48.1,33,48.2C32.9,48.1,32.9,48.1,33,48.2
		C32.9,48.1,32.9,48.2,33,48.2L33,48.2z M32.7,47.6L32.7,47.6C32.6,47.6,32.6,47.5,32.7,47.6C32.6,47.5,32.7,47.5,32.7,47.6
		C32.7,47.5,32.7,47.5,32.7,47.6C32.7,47.5,32.7,47.5,32.7,47.6C32.7,47.5,32.7,47.5,32.7,47.6C32.7,47.5,32.7,47.6,32.7,47.6z
		 M32,46.7L32,46.7L32,46.7L32,46.7L32,46.7z M35.7,35L35.7,35L35.7,35L35.7,35L35.7,35z M37.2,33.6L37.2,33.6L37.2,33.6L37.2,33.6z
		 M37.3,33.3L37.3,33.3L37.3,33.3L37.3,33.3L37.3,33.3z M50,33.6L50,33.6C50.1,33.7,50.1,33.7,50,33.6l0.1,0.2l0,0
		C50.1,33.7,50,33.7,50,33.6L50,33.6L50,33.6z M50.2,33.9L50.2,33.9L50.2,33.9L50.2,33.9z M50.4,32.8L50.4,32.8L50.4,32.8
		C50.4,32.9,50.4,32.9,50.4,32.8C50.4,32.9,50.4,32.9,50.4,32.8C50.4,32.9,50.4,32.9,50.4,32.8L50.4,32.8L50.4,32.8L50.4,32.8
		L50.4,32.8z M50.5,40.4L50.5,40.4L50.5,40.4L50.5,40.4z M50.6,33L50.6,33L50.6,33C50.5,33,50.5,33,50.6,33C50.5,33,50.5,33,50.6,33
		C50.5,33,50.5,33,50.6,33z M51.3,39.3C51.3,39.3,51.3,39.2,51.3,39.3C51.4,39.2,51.4,39.2,51.3,39.3L51.3,39.3
		C51.4,39.2,51.4,39.3,51.3,39.3c0.1,0.1,0,0.1,0,0.2l0,0l0,0l0,0C51.2,39.4,51.3,39.3,51.3,39.3z M51.3,37.4
		C51.3,37.4,51.4,37.4,51.3,37.4L51.3,37.4L51.3,37.4L51.3,37.4L51.3,37.4z M52.6,38.7L52.6,38.7C52.7,38.8,52.7,38.8,52.6,38.7
		l0.2,0.1l0,0l0,0C52.8,38.8,52.8,38.8,52.6,38.7c0,0.1,0,0.1-0.1,0C52.6,38.8,52.6,38.8,52.6,38.7C52.6,38.8,52.6,38.7,52.6,38.7z
		 M53.8,38.2L53.8,38.2L53.8,38.2C53.8,38.3,53.8,38.3,53.8,38.2C53.8,38.3,53.8,38.3,53.8,38.2C53.8,38.3,53.8,38.2,53.8,38.2
		L53.8,38.2z M53.9,38.7L53.9,38.7L53.9,38.7C53.9,38.8,53.9,38.8,53.9,38.7C53.9,38.8,53.9,38.8,53.9,38.7
		C53.9,38.8,53.9,38.8,53.9,38.7L53.9,38.7z M54,38.5L54,38.5L54,38.5L54,38.5L54,38.5z M54.9,37.9L54.9,37.9
		C54.9,37.9,54.9,38,54.9,37.9C54.9,38,54.9,38,54.9,37.9C54.9,38,54.9,38,54.9,37.9C54.8,38,54.8,37.9,54.9,37.9
		C54.8,37.9,54.8,37.9,54.9,37.9z M57.5,38.4c-0.7-1.8-1.8-3.4-3.2-4.8c-1.3-1.4-3-2.4-4.8-3.2c-1.7-0.7-3.6-1.1-5.6-1.1
		s-3.9,0.4-5.6,1.1c-1.8,0.7-3.4,1.8-4.8,3.2c-2.7,2.7-4.3,6.3-4.3,10.4c0,2,0.4,3.9,1.1,5.6c0.7,1.8,1.8,3.4,3.2,4.8
		c1.3,1.3,3,2.4,4.8,3.2c1.7,0.7,3.6,1.1,5.6,1.1s3.9-0.4,5.6-1.1c1.8-0.7,3.4-1.8,4.8-3.2c1.3-1.4,2.4-3,3.2-4.8
		c0.7-1.7,1.1-3.6,1.1-5.6C58.6,42,58.2,40.1,57.5,38.4z"/>
	<path class="st1" d="M42.5,37.8L42.5,37.8L42.5,37.8L42.5,37.8L42.5,37.8L42.5,37.8L42.5,37.8z"/>
	<path class="st1" d="M43,37.4L43,37.4c0.1-0.1,0.1-0.1,0.1-0.2H43C42.9,37.2,42.9,37.3,43,37.4C42.9,37.3,42.9,37.3,43,37.4
		L43,37.4z"/>
	<path class="st1" d="M43.6,41.2L43.6,41.2L43.6,41.2L43.6,41.2L43.6,41.2z"/>
	<path class="st1" d="M31.4,45.3C31.4,45.4,31.4,45.4,31.4,45.3C31.4,45.4,31.4,45.4,31.4,45.3L31.4,45.3L31.4,45.3z"/>
	<path class="st1" d="M31.1,45.1L31.1,45.1L31.1,45.1C31.1,45.2,31.2,45.1,31.1,45.1C31.2,45.1,31.2,45.1,31.1,45.1L31.1,45.1z"/>
	<path class="st1" d="M31.1,45.3L31.1,45.3C31.1,45.3,31.2,45.3,31.1,45.3C31.2,45.2,31.1,45.2,31.1,45.3
		C31.1,45.2,31.1,45.2,31.1,45.3z"/>
	<path class="st1" d="M32.9,39.1C32.9,39.2,32.9,39.2,32.9,39.1C32.9,39.2,32.9,39.2,32.9,39.1C32.9,39.2,32.9,39.2,32.9,39.1
		L32.9,39.1L32.9,39.1C32.8,39.1,32.8,39.1,32.9,39.1C32.8,39,32.8,39,32.9,39.1c-0.1-0.1-0.1-0.1,0-0.2l0,0l0,0l0,0c0,0,0,0,0-0.1
		l0,0l0,0l0,0l0,0c0,0,0,0-0.1,0h-0.1c0,0,0,0,0-0.1l0,0c0,0,0-0.1-0.1-0.1c0,0,0,0-0.1,0l0,0l0,0l0,0l0,0c0-0.1,0.1-0.1,0.1-0.1
		l0.1-0.1l0,0c0,0,0,0-0.1,0s-0.1,0-0.2,0.1c-0.1,0.1-0.2,0.2-0.2,0.3s-0.1,0.1-0.1,0.1l0,0c0,0,0,0,0,0.1c0,0,0,0-0.1,0.1
		c0,0,0,0,0,0.1c0,0,0,0,0.1,0s0.1,0,0.2,0c0.1,0,0.1,0,0.1,0c0.1,0,0.1,0,0.1,0l0,0c0,0,0,0-0.1,0.1l0,0l0,0h0.1
		c0-0.1,0.1-0.1,0.1-0.1l0,0v0.1l0,0l0.1,0.1h0.1C32.9,39.3,32.9,39.3,32.9,39.1C33,39.2,33,39.2,32.9,39.1L32.9,39.1L32.9,39.1z"/>
	<path class="st1" d="M38.4,42.9L38.4,42.9L38.4,42.9L38.4,42.9L38.4,42.9L38.4,42.9z"/>
	<path class="st1" d="M31.1,45L31.1,45L31.1,45L31.1,45L31.1,45z"/>
	<path class="st1" d="M32.9,39.1L32.9,39.1L32.9,39.1z"/>
	<path class="st1" d="M39.6,37.2L39.6,37.2C39.7,37.2,39.7,37.1,39.6,37.2L39.6,37.2L39.6,37.2C39.6,37.1,39.6,37.1,39.6,37.2
		L39.6,37.2L39.6,37.2L39.6,37.2L39.6,37.2L39.6,37.2L39.6,37.2z"/>
	<path class="st1" d="M39.7,37.5L39.7,37.5C39.8,37.6,39.7,37.6,39.7,37.5c0,0.1,0,0.1,0,0.2l0,0l0,0c0,0,0,0,0.1,0l0,0l0,0v0.1
		c0,0,0,0.1,0.1,0.1l0,0H40V38l0,0c0,0,0,0,0,0.1s0,0.1-0.1,0.1l0,0l0,0v0.1v0.1c0,0,0,0-0.1,0l0,0l0,0l0,0c0.1,0,0.1,0,0.2,0.1l0,0
		l0,0c-0.1,0-0.1,0-0.1,0.1s-0.1,0.1-0.1,0.2l0,0l0,0c0,0,0,0,0.1,0H40c0.1,0,0.1,0,0.1-0.1c0,0,0,0,0.1,0s0.1,0,0.2,0
		c0.1,0,0.1,0,0.2,0c0.1,0,0.1,0,0.2-0.1c0,0,0,0,0-0.1l0,0l0,0l0.1-0.1c0-0.1,0-0.2-0.1-0.2h-0.1l0,0l0,0l0,0c0,0,0,0,0-0.1
		s-0.1-0.1-0.1-0.2c0,0,0-0.1-0.1-0.1s-0.1-0.1-0.1-0.1c0-0.1-0.1-0.2-0.2-0.2l0,0v-0.1c0-0.1,0.1-0.1,0.1-0.2v-0.1l0,0h-0.1l0,0
		l0,0c0,0,0-0.1,0.1-0.1l0,0l0,0c0,0-0.1,0-0.2,0c0,0,0,0-0.1,0c0,0.1-0.1,0.1-0.1,0.2l0,0c-0.1,0-0.1,0,0,0.1
		C39.7,37.4,39.7,37.4,39.7,37.5z"/>
	<path class="st1" d="M39.7,37.6L39.7,37.6L39.7,37.6L39.7,37.6z"/>
	<path class="st1" d="M42.2,34.5C42.2,34.5,42.2,34.4,42.2,34.5C42.2,34.4,42.2,34.4,42.2,34.5C42.2,34.4,42.2,34.4,42.2,34.5
		L42.2,34.5L42.2,34.5z"/>
	<path class="st1" d="M39.6,37.6C39.6,37.7,39.7,37.7,39.6,37.6C39.7,37.7,39.7,37.6,39.6,37.6C39.7,37.6,39.7,37.6,39.6,37.6
		L39.6,37.6z"/>
	<path class="st1" d="M39.3,38.5C39.3,38.5,39.4,38.5,39.3,38.5c0.2-0.1,0.2-0.2,0.3-0.2c0,0,0,0,0.1,0c0-0.1,0.1-0.1,0-0.2
		c0,0,0,0,0-0.1v-0.1l0,0v-0.1c0,0,0,0,0-0.1l0,0c-0.1,0-0.1,0-0.1,0l0,0c0,0-0.1,0-0.1,0.1v0.1l0,0h-0.1l0,0V38v0.1v0.1
		c0,0,0,0.1-0.1,0.1l0,0v0.1C39.2,38.6,39.2,38.6,39.3,38.5z"/>
	<path class="st1" d="M38.1,35.8c0.1,0,0.2-0.1,0.3-0.1l0,0c0,0,0.1-0.1,0.2-0.1c0,0,0,0,0.1,0c0,0,0,0,0.1-0.1l0,0
		c0-0.1,0-0.1,0-0.1l0,0l0,0c0,0,0,0-0.1,0v-0.1v-0.1l0,0h-0.1h-0.1c-0.1,0-0.1,0.1-0.2,0h-0.1c-0.1,0-0.1,0-0.1,0.1l0,0l0,0l0,0
		c0,0,0,0,0,0.1v0.1l0,0l0,0l0,0l0,0v-0.1v-0.1l0,0h-0.1l0,0l0,0l0,0l0,0H38l-0.1,0.1v0.1c0,0,0,0,0.1,0h0.1l0,0c0,0,0,0.1-0.1,0.1
		h-0.1l0,0l0,0H38l0,0v0.1l0,0l0,0l0,0C38,35.7,38,35.8,38.1,35.8C38.1,35.8,38.1,35.8,38.1,35.8c0.1,0,0.1,0,0.2,0
		C37.9,35.7,38,35.8,38.1,35.8C38,35.8,38.1,35.8,38.1,35.8z"/>
	<path class="st1" d="M39.9,38L39.9,38L39.9,38L39.9,38L39.9,38z"/>
	<path class="st1" d="M55.2,46.4L55.2,46.4C55.2,46.4,55.3,46.3,55.2,46.4C55.3,46.3,55.2,46.3,55.2,46.4
		C55.2,46.3,55.2,46.3,55.2,46.4z"/>
	<path class="st1" d="M55.1,45.3C55.1,45.3,55,45.3,55.1,45.3C55,45.4,55,45.4,55.1,45.3C55,45.4,55,45.4,55.1,45.3
		C55.1,45.4,55.1,45.4,55.1,45.3C55.1,45.4,55.1,45.4,55.1,45.3C55.1,45.4,55.1,45.4,55.1,45.3L55.1,45.3z"/>
	<path class="st1" d="M56.1,47.8L56.1,47.8C56.1,47.7,56.1,47.7,56.1,47.8C56.1,47.7,56,47.7,56.1,47.8C56,47.7,56,47.7,56.1,47.8
		C56,47.7,56.1,47.8,56.1,47.8L56.1,47.8z"/>
	<path class="st1" d="M55,45.6L55,45.6L55,45.6L55,45.6L55,45.6z"/>
	<path class="st1" d="M55.9,47.4L55.9,47.4C55.9,47.3,55.9,47.3,55.9,47.4L55.9,47.4C55.8,47.3,55.8,47.3,55.9,47.4
		C55.8,47.3,55.8,47.4,55.9,47.4L55.9,47.4z"/>
	<polygon class="st1" points="55.6,47.1 55.6,47.1 55.6,47 	"/>
	<path class="st1" d="M47.6,49.5L47.6,49.5L47.6,49.5C47.5,49.5,47.5,49.5,47.6,49.5C47.5,49.5,47.5,49.5,47.6,49.5z"/>
	<path class="st1" d="M48.2,49.4L48.2,49.4C48.1,49.4,48.1,49.5,48.2,49.4c-0.1,0.1-0.1,0.2-0.2,0.2l0,0c0,0-0.1,0-0.1,0.1
		s0,0.1-0.1,0.1l-0.1,0.1c-0.1,0-0.1,0-0.2,0.1l0,0c-0.1,0-0.1,0-0.2,0.1c0,0,0,0.1-0.1,0.1c0,0.1,0,0.2,0,0.2s0,0,0,0.1
		s0,0.1,0,0.2c0,0.1-0.1,0.1-0.1,0.2c-0.1,0.1-0.1,0.2,0,0.2v0.1v0.1c0,0,0,0,0,0.1s0.1,0.1,0.2,0.1h0.1h0.1c0.1,0,0.1,0,0.1-0.1
		c0,0,0-0.1,0.1-0.1c0-0.1,0.1-0.2,0.1-0.3c0.1-0.2,0.1-0.3,0.2-0.5v-0.1c0-0.1,0-0.1,0.1-0.2c0-0.1,0-0.1,0.1-0.1V50
		c0-0.1,0-0.1,0-0.2C48.3,49.6,48.3,49.5,48.2,49.4z"/>
	<path class="st1" d="M48.1,49.6L48.1,49.6L48.1,49.6L48.1,49.6z"/>
	<path class="st1" d="M47.3,49.3L47.3,49.3C47.3,49.3,47.2,49.3,47.3,49.3C47.2,49.3,47.2,49.3,47.3,49.3L47.3,49.3z"/>
	<path class="st1" d="M53.1,45.9L53.1,45.9C53.1,45.9,53.1,46,53.1,45.9c-0.1,0.1,0,0.2-0.1,0.3c0,0.1,0,0.2,0.1,0.3l0.1,0.1
		c0.1,0,0.2-0.1,0.2-0.3C53.3,46.1,53.2,46,53.1,45.9L53.1,45.9z"/>
	<path class="st1" d="M49,45.4C48.9,45.4,48.9,45.4,49,45.4C48.9,45.5,48.9,45.5,49,45.4C48.9,45.5,48.9,45.5,49,45.4
		C49,45.5,49,45.5,49,45.4C49,45.5,49,45.5,49,45.4L49,45.4z"/>
	<path class="st1" d="M55,45.8L55,45.8L55,45.8C55,45.8,55,45.7,55,45.8C55,45.7,55,45.8,55,45.8z"/>
	<path class="st1" d="M31.1,44.8C31.1,44.8,31,44.8,31.1,44.8C31,44.9,31,44.9,31.1,44.8C31.1,44.9,31.1,44.9,31.1,44.8L31.1,44.8z"
		/>
	<polygon class="st1" points="44.3,41.4 44.3,41.4 44.3,41.4 	"/>
	<path class="st1" d="M40,36.9L40,36.9C40,36.9,40,37,40,36.9C40,37,40,36.9,40,36.9z"/>
	<path class="st1" d="M44.3,40.7L44.3,40.7L44.3,40.7L44.3,40.7z"/>
	<path class="st1" d="M44.7,41.6C44.7,41.5,44.7,41.5,44.7,41.6C44.7,41.5,44.7,41.5,44.7,41.6C44.7,41.5,44.7,41.5,44.7,41.6
		L44.7,41.6L44.7,41.6z"/>
	<path class="st1" d="M44.2,41.8C44.2,41.8,44.3,41.8,44.2,41.8c0.1,0,0.1,0,0.2,0l0,0l0,0h-0.1C44.3,41.8,44.3,41.8,44.2,41.8
		L44.2,41.8L44.2,41.8L44.2,41.8C44.1,41.7,44.2,41.7,44.2,41.8L44.2,41.8z"/>
	<path class="st1" d="M42.7,41.6L42.7,41.6L42.7,41.6z"/>
	<path class="st1" d="M47.1,33.9L47.1,33.9L47.1,33.9C47.1,34,47.1,34,47.1,33.9C47.2,33.9,47.2,33.9,47.1,33.9z"/>
	<path class="st1" d="M45.6,41.8C45.7,41.8,45.7,41.7,45.6,41.8L45.6,41.8C45.6,41.7,45.6,41.7,45.6,41.8
		C45.6,41.7,45.5,41.7,45.6,41.8C45.5,41.8,45.5,41.8,45.6,41.8L45.6,41.8C45.5,41.8,45.6,41.8,45.6,41.8z"/>
	<path class="st1" d="M42,40.3L42,40.3L42,40.3L42,40.3z"/>
	<path class="st1" d="M43.2,33.7L43.2,33.7L43.2,33.7L43.2,33.7L43.2,33.7z"/>
	<path class="st1" d="M47.1,34L47.1,34L47.1,34L47.1,34z"/>
	<path class="st1" d="M32.9,47.5L32.9,47.5L32.9,47.5L32.9,47.5L32.9,47.5L32.9,47.5z"/>
	<path class="st1" d="M32.8,47.4L32.8,47.4L32.8,47.4L32.8,47.4L32.8,47.4z"/>
	<path class="st1" d="M44.2,40.8L44.2,40.8L44.2,40.8L44.2,40.8C44.3,40.8,44.2,40.8,44.2,40.8z"/>
	<path class="st1" d="M41.8,40.5C41.9,40.5,41.9,40.5,41.8,40.5C41.8,40.4,41.8,40.4,41.8,40.5c0-0.1,0-0.1,0-0.2l0,0c0,0,0,0-0.1,0
		c0,0,0,0-0.1,0c0,0,0,0,0,0.1C41.7,40.4,41.7,40.5,41.8,40.5L41.8,40.5z"/>
	<path class="st1" d="M48.7,32.2L48.7,32.2C48.7,32.1,48.7,32.1,48.7,32.2L48.7,32.2c-0.2-0.1-0.2,0-0.2,0l0,0
		C48.6,32.3,48.7,32.3,48.7,32.2z"/>
	<path class="st1" d="M46.5,34.1C46.6,34.1,46.6,34,46.5,34.1L46.5,34.1v-0.2C46.5,33.9,46.4,33.9,46.5,34.1
		C46.4,34,46.4,34,46.5,34.1C46.4,34,46.4,34,46.5,34.1C46.4,34.1,46.5,34.1,46.5,34.1z"/>
	<path class="st1" d="M42.9,33.9C42.9,33.9,42.8,33.9,42.9,33.9C42.8,33.9,42.8,33.9,42.9,33.9C42.8,33.9,42.9,33.9,42.9,33.9z"/>
	<path class="st1" d="M49.1,32.3L49.1,32.3C49.1,32.2,49.1,32.2,49.1,32.3C49.1,32.2,49.1,32.2,49.1,32.3
		C49.1,32.2,49.1,32.2,49.1,32.3C49.1,32.2,49.1,32.3,49.1,32.3L49.1,32.3z"/>
	<path class="st1" d="M42.2,34.5L42.2,34.5L42.2,34.5L42.2,34.5L42.2,34.5z"/>
	<path class="st1" d="M46.8,33.3L46.8,33.3C46.8,33.3,46.8,33.2,46.8,33.3C46.8,33.2,46.8,33.2,46.8,33.3
		C46.8,33.2,46.8,33.2,46.8,33.3C46.7,33.2,46.7,33.2,46.8,33.3C46.8,33.2,46.8,33.3,46.8,33.3z"/>
	<path class="st1" d="M41.1,40.8L41.1,40.8L41.1,40.8L41.1,40.8L41.1,40.8L41.1,40.8z"/>
	<path class="st1" d="M41,40.9C41,40.9,40.9,40.9,41,40.9C40.9,40.9,40.9,40.9,41,40.9C40.9,40.9,40.9,40.9,41,40.9
		C40.9,40.9,41,40.9,41,40.9z"/>
	<path class="st1" d="M41.9,41L41.9,41c0-0.1,0-0.1,0-0.2l0,0c0,0,0,0,0-0.1c0,0,0,0,0-0.1s-0.1-0.1-0.1-0.1s0,0-0.1,0l0,0
		c0,0.1,0,0.1,0,0.2C41.7,41,41.8,41.1,41.9,41z"/>
	<path class="st1" d="M45,35.2L45,35.2L45,35.2L45,35.2L45,35.2L45,35.2z"/>
	<polygon class="st1" points="40.8,41 40.8,41 40.8,41 	"/>
	<polygon class="st1" points="47.7,33.8 47.7,33.7 47.7,33.7 	"/>
	<path class="st1" d="M69.9,24.1l-1.8,6.1c0.2-2.4,0.1-4.7-0.4-6.8L69,19c-0.5-1.6-1.1-3.1-1.9-4.5L66,18.2
		c-0.1-0.2-0.2-0.4-0.3-0.6c-0.4-0.7-0.8-1.4-1.3-2l1-3.5c-0.8-0.9-1.6-1.7-2.6-2.4l-1,3.2c-0.6-0.5-1.3-1-2-1.4l1.1-3.1
		C60,7.9,59,7.5,58,7.1l-0.9,3c-0.3-0.1-0.7-0.2-1-0.3c-0.4-0.1-0.8-0.2-1.2-0.3l0.9-2.9c-1-0.2-2.1-0.3-3.2-0.4L51.8,9
		c-0.6,0-1.2-0.1-1.8-0.1h-0.6l0.8-2.8H47l-0.8,2.8h-2.4l0.8-2.8h-3.3l-0.8,2.8H38l0.8-2.8h-3.3l-0.6,2.8h-2.4l0.8-2.8H30l-0.8,2.8
		h-2.4l0.8-2.8h-3.3l-0.8,2.8h-2.4l0.8-2.8h-3.3l-0.7,2.8h-2.4l0.8-2.8H13l-0.8,2.8H9.9l0.8-2.8H7.4l-1,3.3h43.5
		c2.1,0,4.1,0.3,6,0.9c4.1,1.3,7.3,3.9,9.4,7.7c2.1,3.9,2.8,8.6,2.3,13.2c-0.3,2.9-1.1,5.8-2.1,8.5c-0.2,0.5-0.4,1.1-0.7,1.6
		c-0.7,1.6-1.3,2.9-2.3,4.4c0,0.2-0.1,0.4-0.1,0.5c2.8-3.7,5-7.9,6.4-12.3c0.5-1.8,0.9-3.6,1.1-5.3v-0.1c0-0.2,0-0.3,0.1-0.5v-0.2
		c0-0.1,0-0.3,0-0.4s0-0.3,0-0.4v-0.2C70,25.9,70,25,69.9,24.1z"/>
	<path class="st1" d="M61.3,30.1c-1.5-3.1-3.9-5.3-7-6.6c-2.1-0.9-4.4-1.2-6.7-1.2H2.6l-1.3,4.3h3.3l1.1-3.8h2.4L7,26.6h3.3l1.1-3.8
		h2.4l-1.1,3.8H16l1.1-3.8h2.4l-1.1,3.8h3.3l1.1-3.8h2.4l-1.1,3.8h3.3l1.1-3.8h2.4l-1.1,3.8h3.1l1.1-3.8h2.4l-1.1,3.8h3.3l1.1-3.8
		h2.4l-1.2,3.7h1.7c0.4,0,0.7,0,1.1,0c0.2,0,0.4,0,0.5,0l1.1-3.8h2.1h0.3l-1.2,4c1.1,0.2,2.1,0.4,3.1,0.7l1.3-4.4
		c0.8,0.1,1.5,0.3,2.2,0.6l-1.4,4.8c1,0.5,1.9,1,2.8,1.7L56,25c0.7,0.4,1.4,0.9,1.9,1.5l-1.5,5.3c0.2,0.2,0.4,0.4,0.6,0.7
		c0.6,0.7,1.2,1.5,1.8,2.4l1.5-5.3c0.2,0.3,0.4,0.6,0.5,1c0.4,0.7,0.6,1.5,0.9,2.3L60.2,38c1,2.6,1.4,5.6,1,8.7
		c-0.1,0.5-0.1,1-0.2,1.5c0.1-0.1,0.2-0.2,0.3-0.3c0.7-2.2,1.3-4.5,1.5-6.7C63.3,37.1,62.8,33.3,61.3,30.1z"/>
	<path class="st1" d="M49,10.5h0.9c0.5,0,1,0,1.5,0.1l-3.2,10.7c-0.2,0-0.4,0-0.6,0h-1.8L49,10.5z M42.5,21.2h-2.4l3.2-10.7h2.4
		L42.5,21.2z M36.9,21.2h-2.4l3.2-10.7h2.4L36.9,21.2z M31.2,21.2h-2.3l3.2-10.7h2.4L31.2,21.2z M25.6,21.2h-2.4l3.2-10.7h2.4
		L25.6,21.2z M19.9,21.2h-2.4l3.2-10.7h2.4L19.9,21.2z M14.3,21.2h-2.4l3.2-10.7h2.4L14.3,21.2z M8.6,21.2H6.2l3.2-10.7h2.4
		L8.6,21.2z M54.5,11c0.4,0.1,0.7,0.2,1.1,0.3c0.4,0.1,0.8,0.2,1.1,0.4L53.6,22c-0.7-0.2-1.4-0.4-2.2-0.6L54.5,11z M61.4,14.6
		l-3,10.1c-0.6-0.5-1.3-1-2-1.4l3-10.2C60.3,13.6,60.8,14.1,61.4,14.6z M63.9,17.5c0.2,0.3,0.4,0.6,0.6,1c0.3,0.6,0.7,1.3,0.9,2
		l-2.9,9.6c-0.1-0.2-0.2-0.4-0.3-0.6c-0.4-0.8-0.8-1.5-1.3-2.1L63.9,17.5z M66.6,31.1c-0.3,2.6-1,5.4-2,8.2
		c-0.2,0.6-0.5,1.2-0.7,1.7v-0.3c0.2-1.6,0.2-3.1,0.1-4.6l2.8-9.3C66.8,28.3,66.8,29.7,66.6,31.1z M54.5,22.9
		c3.2,1.3,5.7,3.7,7.3,6.9c1.6,3.3,2,7.2,1.6,11.1c-0.1,1-0.3,1.9-0.5,2.9c0.8-1.5,1.5-3.1,2.1-4.6l0,0l0,0c0.9-2.6,1.6-5.3,1.9-7.9
		c0.5-4.5-0.1-9.1-2.2-12.9c-2-3.6-5.1-6.2-9.1-7.4c-1.7-0.7-3.7-1-5.7-1H6.3L2.8,21.6h44.7C50,21.6,52.4,22,54.5,22.9z"/>
</g>
</svg>
