<svg width="71" height="71" viewBox="0 0 71 71" fill="none" xmlns="http://www.w3.org/2000/svg">
<g clip-path="url(#clip0_359_1534)">
<path d="M71 35.5C71 15.8939 55.1061 0 35.5 0C15.8939 0 0 15.8939 0 35.5C0 55.1061 15.8939 71 35.5 71C55.1061 71 71 55.1061 71 35.5Z" fill="white"/>
<path fill-rule="evenodd" clip-rule="evenodd" d="M35.5 7C51.219 7 63.9894 19.7879 64 35.4965L63.9617 36.9612C63.1965 52.0026 50.7266 64 35.5 64C20.2835 64 7.8041 52.003 7.03827 36.9612L7 35.4965C7 19.7854 19.7925 7 35.5 7ZM35.5 12.2081C29.692 12.2081 24.3808 14.3402 20.2863 17.8475C19.5792 18.4851 19.7088 18.9956 19.7088 18.9956C19.6895 19.064 19.6982 19.1039 19.6984 19.1626C19.6984 19.521 19.8984 19.8618 20.2167 20.0115C21.0336 20.3801 21.9128 20.6873 22.6799 21.1456C23.815 21.8325 25.0291 21.5444 26.2041 21.584C26.3237 21.584 26.5155 21.5364 26.6251 21.4866C27.2623 21.1681 27.8298 21.1573 28.3576 21.7649C28.5369 21.9736 28.8653 22.072 29.1439 22.1615C29.771 22.3606 30.3195 22.6604 30.7477 23.1878C30.7975 23.2476 30.8684 23.3089 30.9182 23.3687C31.167 23.6273 31.5827 23.8765 31.6035 24.155C31.6533 24.6727 31.477 25.2216 31.3774 25.7692C31.3675 25.8089 31.345 25.8588 31.3252 25.9084C30.7575 27.1636 30.9164 27.8136 32.0314 28.6603C32.41 28.9393 32.8207 29.1867 33.2491 29.3561C33.5379 29.4656 33.8479 29.4967 34.1467 29.5266C34.4049 29.5465 34.6243 29.5758 34.8529 29.7249C35.0521 29.8643 35.2124 30.056 35.3817 30.2154C35.7402 30.5734 36.1988 30.8231 36.6863 30.9425C37.2937 31.0918 37.9011 31.142 38.4885 31.3113C39.3548 31.5602 40.2608 31.379 41.0873 30.9112C41.2566 30.8215 41.4586 30.7507 41.6578 30.7407C42.5936 30.7308 43.5196 30.7537 44.4654 30.7338C44.9037 30.7238 45.1728 30.862 45.3421 31.2904C45.4715 31.6288 45.6912 31.937 45.9301 32.2158C46.2688 32.6243 46.7181 32.8629 47.266 32.8629C47.5945 32.8728 47.9141 32.8639 48.2227 32.8838C48.8098 32.9337 49.2674 33.1537 49.576 33.6909C50.0144 34.4581 50.5247 35.205 51.0129 35.9523C51.0826 36.0519 51.1608 36.1425 51.2703 36.1923C51.4293 36.2718 51.5879 36.3425 51.7469 36.4219C52.2546 36.651 52.6544 37.0887 52.7941 37.6361C53.093 38.782 53.142 39.9493 53.142 41.1151C53.1417 41.5231 52.6243 41.5042 52.2758 41.136C51.8576 40.7078 51.4405 40.2779 51.0024 39.8696C50.4748 39.4016 49.8961 39.0829 49.1794 38.9233C47.9146 38.6245 46.6681 38.3346 45.3734 38.6033C45.0248 38.683 44.6662 38.8835 44.4271 39.1425C43.8594 39.7403 43.0823 39.749 42.6041 39.1216C42.126 38.4939 41.4672 38.226 40.6802 38.2658C40.0429 38.2958 39.5646 38.8229 39.5844 39.56C39.5943 39.8384 39.5452 40.1075 39.3965 40.3463C39.2073 40.6251 38.8777 40.836 38.5789 40.9655C38.4399 41.0152 38.2901 41.0454 38.151 40.9864C38.0118 40.9267 37.9109 40.8073 37.7718 40.7672C37.5726 40.7074 37.3219 40.7152 37.1525 40.8646C36.9832 41.034 36.8929 41.2435 36.7037 41.383C36.4053 41.5818 36.0787 41.7139 35.7505 41.8631C35.5114 41.9627 35.2798 42.0805 35.0408 42.1901C34.583 42.3991 34.106 42.6197 33.6283 42.799C32.403 43.2473 31.446 44.0259 30.7686 45.1021C30.5301 45.4707 30.5593 46.0292 30.5494 46.4971C30.5395 46.9645 30.5663 47.2813 29.9197 47.3808C29.3331 47.471 29.0146 48.0294 28.9247 48.6263C28.8351 49.1442 28.9738 49.5853 29.4813 49.8544C29.6208 49.9241 29.7619 50.0335 29.8814 50.1431C30.3889 50.5913 30.3789 50.9405 29.8014 51.319C29.1941 51.7275 28.8662 52.3061 28.8064 53.0133C28.7867 53.2418 28.8059 53.5092 28.9247 53.6882C29.3826 54.3554 29.254 54.9942 28.9456 55.6713C28.826 55.9004 28.7861 56.1706 28.7264 56.4297C28.6667 56.6686 28.6349 56.907 28.5455 57.1359C28.4659 57.335 28.3981 57.6042 28.5072 57.7935C28.5172 57.8232 28.635 57.9621 28.6951 58.0126C30.8366 58.6602 33.1184 59.011 35.4791 59.0111C48.4101 59.0111 58.8829 48.5377 58.8928 35.6044C58.8927 22.691 48.4209 12.2081 35.5 12.2081Z" fill="url(#paint0_linear_359_1534)"/>
</g>
<defs>
<linearGradient id="paint0_linear_359_1534" x1="15.359" y1="55.6382" x2="55.6437" y2="15.3611" gradientUnits="userSpaceOnUse">
<stop stop-color="#00FF78"/>
<stop offset="0.1209" stop-color="#01D485"/>
<stop offset="0.2844" stop-color="#01A094"/>
<stop offset="0.4454" stop-color="#0276A1"/>
<stop offset="0.6004" stop-color="#0254AB"/>
<stop offset="0.7478" stop-color="#033CB2"/>
<stop offset="0.8845" stop-color="#032EB7"/>
<stop offset="1" stop-color="#0329B8"/>
</linearGradient>
<clipPath id="clip0_359_1534">
<rect width="71" height="71" fill="white"/>
</clipPath>
</defs>
</svg>
