<svg width="97" height="35" viewBox="0 0 97 35" fill="none" xmlns="http://www.w3.org/2000/svg">
<path d="M20.6807 30.7812H20.7432L22.3994 26H23.3994L20.8525 32.875C20.738 33.1849 20.596 33.4414 20.4268 33.6445C20.2575 33.8503 20.0609 34.0026 19.8369 34.1016C19.6156 34.2005 19.3656 34.25 19.0869 34.25C18.9307 34.25 18.7913 34.237 18.6689 34.2109C18.5465 34.1875 18.4619 34.1641 18.415 34.1406L18.6494 33.3281C18.8734 33.3854 19.0713 33.4063 19.2432 33.3906C19.415 33.375 19.5674 33.2982 19.7002 33.1602C19.8356 33.0247 19.9593 32.8047 20.0713 32.5L20.2432 32.0312L18.0244 26H19.0244L20.6807 30.7812Z" fill="#0346B8"/>
<path fill-rule="evenodd" clip-rule="evenodd" d="M10.3164 25.9219C10.5091 25.9219 10.7305 25.9453 10.9805 25.9922C11.2331 26.0365 11.4766 26.1289 11.7109 26.2695C11.9479 26.4102 12.1445 26.6224 12.3008 26.9062C12.457 27.1901 12.5352 27.5703 12.5352 28.0469V32H11.6133V31.1875H11.5664C11.5039 31.3177 11.3997 31.457 11.2539 31.6055C11.1081 31.7539 10.9141 31.8802 10.6719 31.9844C10.4297 32.0885 10.1341 32.1406 9.78516 32.1406C9.40495 32.1406 9.0599 32.069 8.75 31.9258C8.4401 31.7799 8.19401 31.5703 8.01172 31.2969C7.82943 31.0208 7.73828 30.6875 7.73828 30.2969C7.73828 29.9531 7.80599 29.6745 7.94141 29.4609C8.07682 29.2448 8.25781 29.0755 8.48438 28.9531C8.71094 28.8307 8.96094 28.7396 9.23438 28.6797C9.51042 28.6172 9.78776 28.5677 10.0664 28.5312C10.431 28.4844 10.7266 28.4492 10.9531 28.4258C11.1823 28.3997 11.349 28.3568 11.4531 28.2969C11.5599 28.237 11.6133 28.1328 11.6133 27.9844V27.9531C11.6133 27.5677 11.5078 27.2682 11.2969 27.0547C11.0885 26.8411 10.7721 26.7344 10.3477 26.7344C9.90755 26.7344 9.5625 26.8307 9.3125 27.0234C9.0625 27.2161 8.88672 27.4219 8.78516 27.6406L7.91016 27.3281C8.06641 26.9635 8.27474 26.6797 8.53516 26.4766C8.79818 26.2708 9.08464 26.1276 9.39453 26.0469C9.70703 25.9635 10.0143 25.9219 10.3164 25.9219ZM11.6133 28.9844C11.5742 29.0313 11.4883 29.0742 11.3555 29.1133C11.2253 29.1497 11.0742 29.1823 10.9023 29.2109C10.7331 29.237 10.5677 29.2604 10.4062 29.2812C10.2474 29.2995 10.1185 29.3151 10.0195 29.3281C9.77995 29.3594 9.55599 29.4102 9.34766 29.4805C9.14193 29.5482 8.97526 29.651 8.84766 29.7891C8.72266 29.9245 8.66016 30.1094 8.66016 30.3438C8.66016 30.6641 8.77865 30.9062 9.01562 31.0703C9.25521 31.2318 9.55859 31.3125 9.92578 31.3125C10.2904 31.3125 10.5977 31.2409 10.8477 31.0977C11.1003 30.9544 11.2904 30.7695 11.418 30.543C11.5482 30.3164 11.6133 30.0781 11.6133 29.8281V28.9844Z" fill="#0346B8"/>
<path fill-rule="evenodd" clip-rule="evenodd" d="M37.1934 25.9219C37.3861 25.9219 37.6074 25.9453 37.8574 25.9922C38.11 26.0365 38.3535 26.1289 38.5879 26.2695C38.8249 26.4102 39.0215 26.6224 39.1777 26.9062C39.334 27.1901 39.4121 27.5703 39.4121 28.0469V32H38.4902V31.1875H38.4434C38.3809 31.3177 38.2767 31.457 38.1309 31.6055C37.985 31.7539 37.791 31.8802 37.5488 31.9844C37.3066 32.0885 37.0111 32.1406 36.6621 32.1406C36.2819 32.1406 35.9368 32.069 35.627 31.9258C35.3171 31.7799 35.071 31.5703 34.8887 31.2969C34.7064 31.0208 34.6152 30.6875 34.6152 30.2969C34.6152 29.9531 34.6829 29.6745 34.8184 29.4609C34.9538 29.2448 35.1348 29.0755 35.3613 28.9531C35.5879 28.8307 35.8379 28.7396 36.1113 28.6797C36.3874 28.6172 36.6647 28.5677 36.9434 28.5312C37.3079 28.4844 37.6035 28.4492 37.8301 28.4258C38.0592 28.3997 38.2259 28.3568 38.3301 28.2969C38.4368 28.237 38.4902 28.1328 38.4902 27.9844V27.9531C38.4902 27.5677 38.3848 27.2682 38.1738 27.0547C37.9655 26.8411 37.6491 26.7344 37.2246 26.7344C36.7845 26.7344 36.4395 26.8307 36.1895 27.0234C35.9395 27.2161 35.7637 27.4219 35.6621 27.6406L34.7871 27.3281C34.9434 26.9635 35.1517 26.6797 35.4121 26.4766C35.6751 26.2708 35.9616 26.1276 36.2715 26.0469C36.584 25.9635 36.8913 25.9219 37.1934 25.9219ZM38.4902 28.9844C38.4512 29.0313 38.3652 29.0742 38.2324 29.1133C38.1022 29.1497 37.9512 29.1823 37.7793 29.2109C37.61 29.237 37.4447 29.2604 37.2832 29.2812C37.1243 29.2995 36.9954 29.3151 36.8965 29.3281C36.6569 29.3594 36.4329 29.4102 36.2246 29.4805C36.0189 29.5482 35.8522 29.651 35.7246 29.7891C35.5996 29.9245 35.5371 30.1094 35.5371 30.3438C35.5371 30.6641 35.6556 30.9062 35.8926 31.0703C36.1322 31.2318 36.4355 31.3125 36.8027 31.3125C37.1673 31.3125 37.4746 31.2409 37.7246 31.0977C37.9772 30.9544 38.1673 30.7695 38.2949 30.543C38.4251 30.3164 38.4902 30.0781 38.4902 29.8281V28.9844Z" fill="#0346B8"/>
<path fill-rule="evenodd" clip-rule="evenodd" d="M26.8232 25.9219C27.1357 25.9219 27.4443 25.974 27.749 26.0781C28.0537 26.1823 28.3311 26.3516 28.5811 26.5859C28.8311 26.8177 29.0303 27.125 29.1787 27.5078C29.3271 27.8906 29.4014 28.362 29.4014 28.9219V29.3125H25.0449C25.0581 29.7117 25.1347 30.0541 25.2764 30.3398C25.4352 30.6523 25.6553 30.8906 25.9365 31.0547C26.2178 31.2161 26.5446 31.2969 26.917 31.2969C27.1592 31.2969 27.3779 31.263 27.5732 31.1953C27.7712 31.125 27.9417 31.0208 28.085 30.8828C28.2282 30.7422 28.3389 30.5677 28.417 30.3594L29.3076 30.6094C29.2139 30.9115 29.0563 31.1771 28.835 31.4062C28.6136 31.6328 28.3402 31.8099 28.0146 31.9375C27.6891 32.0625 27.3232 32.125 26.917 32.125C26.3389 32.125 25.8402 31.9974 25.4209 31.7422C25.0042 31.4844 24.6826 31.125 24.4561 30.6641C24.2321 30.2005 24.1201 29.6615 24.1201 29.0469C24.1201 28.4323 24.2321 27.8906 24.4561 27.4219C24.6826 26.9505 24.9977 26.5833 25.4014 26.3203C25.8076 26.0547 26.2816 25.9219 26.8232 25.9219ZM26.8232 26.75C26.4561 26.75 26.1383 26.8411 25.8701 27.0234C25.6045 27.2031 25.4001 27.4375 25.2568 27.7266C25.1341 27.9742 25.0674 28.2374 25.0498 28.5156H28.4639C28.4639 28.1771 28.3962 27.875 28.2607 27.6094C28.1279 27.3437 27.9378 27.1341 27.6904 26.9805C27.4456 26.8268 27.1566 26.75 26.8232 26.75Z" fill="#0346B8"/>
<path fill-rule="evenodd" clip-rule="evenodd" d="M56.1777 25.875C56.7559 25.875 57.2533 26.0039 57.6699 26.2617C58.0892 26.5169 58.4108 26.8763 58.6348 27.3398C58.8613 27.8008 58.9746 28.3385 58.9746 28.9531C58.9746 29.5677 58.8613 30.1107 58.6348 30.582C58.4108 31.0508 58.0957 31.418 57.6895 31.6836C57.2858 31.9466 56.8132 32.0781 56.2715 32.0781C55.959 32.0781 55.6504 32.026 55.3457 31.9219C55.041 31.8177 54.7637 31.6497 54.5137 31.418C54.2637 31.1836 54.0645 30.875 53.916 30.4922C53.7676 30.1068 53.6934 29.6354 53.6934 29.0781V28.6875H58.0498C58.0364 28.2861 57.9586 27.9437 57.8145 27.6602C57.6582 27.3477 57.4395 27.1107 57.1582 26.9492C56.877 26.7852 56.5501 26.7031 56.1777 26.7031C55.9382 26.7031 55.7194 26.7383 55.5215 26.8086C55.3236 26.8763 55.153 26.9805 55.0098 27.1211C54.8665 27.2591 54.7559 27.4323 54.6777 27.6406L53.7871 27.3906C53.8809 27.0885 54.0384 26.8242 54.2598 26.5977C54.4811 26.3685 54.7546 26.1914 55.0801 26.0664C55.4056 25.9388 55.7715 25.875 56.1777 25.875ZM54.6309 29.4844C54.6309 29.8229 54.6973 30.125 54.8301 30.3906C54.9655 30.6562 55.1556 30.8659 55.4004 31.0195C55.6478 31.1732 55.9382 31.25 56.2715 31.25C56.6413 31.25 56.959 31.1602 57.2246 30.9805C57.4902 30.7982 57.6947 30.5625 57.8379 30.2734C57.9605 30.0238 58.0272 29.7607 58.0449 29.4844H54.6309Z" fill="#0346B8"/>
<path fill-rule="evenodd" clip-rule="evenodd" d="M72.4092 25.875C72.9873 25.875 73.4847 26.0039 73.9014 26.2617C74.3206 26.5169 74.6423 26.8763 74.8662 27.3398C75.0928 27.8008 75.2061 28.3385 75.2061 28.9531C75.2061 29.5677 75.0928 30.1107 74.8662 30.582C74.6423 31.0508 74.3271 31.418 73.9209 31.6836C73.5173 31.9466 73.0446 32.0781 72.5029 32.0781C72.1904 32.0781 71.8818 32.026 71.5771 31.9219C71.2725 31.8177 70.9951 31.6497 70.7451 31.418C70.4951 31.1836 70.2959 30.875 70.1475 30.4922C69.999 30.1068 69.9248 29.6354 69.9248 29.0781V28.6875H74.2812C74.2679 28.2861 74.19 27.9437 74.0459 27.6602C73.8896 27.3477 73.6709 27.1107 73.3896 26.9492C73.1084 26.7852 72.7816 26.7031 72.4092 26.7031C72.1696 26.7031 71.9508 26.7383 71.7529 26.8086C71.555 26.8763 71.3844 26.9805 71.2412 27.1211C71.098 27.2591 70.9873 27.4323 70.9092 27.6406L70.0186 27.3906C70.1123 27.0885 70.2699 26.8242 70.4912 26.5977C70.7126 26.3685 70.986 26.1914 71.3115 26.0664C71.637 25.9388 72.0029 25.875 72.4092 25.875ZM70.8623 29.4844C70.8623 29.8229 70.9287 30.125 71.0615 30.3906C71.1969 30.6562 71.387 30.8659 71.6318 31.0195C71.8792 31.1732 72.1696 31.25 72.5029 31.25C72.8727 31.25 73.1904 31.1602 73.4561 30.9805C73.7217 30.7982 73.9261 30.5625 74.0693 30.2734C74.1919 30.0238 74.2587 29.7607 74.2764 29.4844H70.8623Z" fill="#0346B8"/>
<path d="M1.9375 27.9688H2.03125L5.625 24H6.89062L3.53125 27.6094L6.89062 32H5.71875L2.9375 28.2812L1.9375 29.4062V32H0.96875V24H1.9375V27.9688Z" fill="#0346B8"/>
<path d="M16.9873 25.9102C17.0889 25.9128 17.1657 25.9167 17.2178 25.9219V26.8594C17.1865 26.8516 17.1149 26.8398 17.0029 26.8242C16.8936 26.806 16.7777 26.7969 16.6553 26.7969C16.3636 26.7969 16.1032 26.8581 15.874 26.9805C15.6475 27.1003 15.4678 27.2669 15.335 27.4805C15.2048 27.6914 15.1396 27.9323 15.1396 28.2031V32H14.2178V26H15.1084V26.9062H15.1709C15.2803 26.6094 15.4782 26.3685 15.7646 26.1836C16.0511 25.9987 16.374 25.9063 16.7334 25.9062C16.8011 25.9062 16.8857 25.9076 16.9873 25.9102Z" fill="#0346B8"/>
<path d="M33.5732 25.9102C33.6748 25.9128 33.7516 25.9167 33.8037 25.9219V26.8594C33.7725 26.8516 33.7008 26.8398 33.5889 26.8242C33.4795 26.806 33.3636 26.7969 33.2412 26.7969C32.9495 26.7969 32.6891 26.8581 32.46 26.9805C32.2334 27.1003 32.0537 27.2669 31.9209 27.4805C31.7907 27.6914 31.7256 27.9323 31.7256 28.2031V32H30.8037V26H31.6943V26.9062H31.7568C31.8662 26.6094 32.0641 26.3685 32.3506 26.1836C32.637 25.9987 32.96 25.9063 33.3193 25.9062C33.387 25.9062 33.4717 25.9076 33.5732 25.9102Z" fill="#0346B8"/>
<path d="M48.1885 30.6406H48.2822L51.001 24H52.1572V32H51.251V25.9219H51.1729L48.6729 32H47.7979L45.2979 25.9219H45.2197V32H44.3135V24H45.4697L48.1885 30.6406Z" fill="#0346B8"/>
<path d="M63.1465 25.9102C63.248 25.9128 63.3249 25.9167 63.377 25.9219V26.8594C63.3457 26.8516 63.2741 26.8398 63.1621 26.8242C63.0527 26.806 62.9368 26.7969 62.8145 26.7969C62.5228 26.7969 62.2624 26.8581 62.0332 26.9805C61.8066 27.1003 61.627 27.2669 61.4941 27.4805C61.3639 27.6914 61.2988 27.9323 61.2988 28.2031V32H60.377V26H61.2676V26.9062H61.3301C61.4395 26.6094 61.6374 26.3685 61.9238 26.1836C62.2103 25.9987 62.5332 25.9063 62.8926 25.9062C62.9603 25.9062 63.0449 25.9076 63.1465 25.9102Z" fill="#0346B8"/>
<path d="M65.3916 28.6719H65.501L68.126 26H69.2666L66.7314 28.5625L69.4541 32H68.2822L66.0371 29.1562L65.3916 29.7539V32H64.4697V24H65.3916V28.6719Z" fill="#0346B8"/>
<path d="M81.0303 26.7344L77.7178 31.0781V31.1406H81.1396V32H76.4365V31.2969L79.8428 26.9219V26.8594H76.5459V26H81.0303V26.7344Z" fill="#0346B8"/>
<path d="M83.4814 32H82.5596V26H83.4814V32Z" fill="#0346B8"/>
<path d="M83.0283 23.75C83.208 23.75 83.3617 23.8112 83.4893 23.9336C83.6195 24.056 83.6846 24.2031 83.6846 24.375C83.6846 24.5469 83.6195 24.694 83.4893 24.8164C83.3617 24.9388 83.208 25 83.0283 25C82.8486 25 82.6937 24.9388 82.5635 24.8164C82.4359 24.694 82.3721 24.5469 82.3721 24.375C82.3721 24.2031 82.4359 24.056 82.5635 23.9336C82.6937 23.8112 82.8486 23.75 83.0283 23.75Z" fill="#0346B8"/>
<path d="M34.1895 1.28223C35.2196 1.28223 36.1224 1.46127 36.8975 1.82031C37.6773 2.17479 38.2901 2.6694 38.7344 3.30273C39.1785 3.93122 39.4077 4.65423 39.4219 5.47168H36.8906C36.8244 4.85273 36.546 4.37036 36.0547 4.02539C35.5679 3.68038 34.9341 3.50783 34.1543 3.50781C33.606 3.50781 33.1355 3.59043 32.7432 3.75586C32.3509 3.92128 32.0507 4.14611 31.8428 4.42969C31.6348 4.71326 31.5291 5.03746 31.5244 5.40137C31.5245 5.70354 31.5926 5.96552 31.7295 6.1875C31.8712 6.40958 32.0628 6.59894 32.3037 6.75488C32.5446 6.90604 32.8116 7.03375 33.1045 7.1377C33.3975 7.24168 33.6934 7.32949 33.9912 7.40039L35.3525 7.74023C35.9008 7.86785 36.4279 8.04041 36.9336 8.25781C37.4439 8.47519 37.9001 8.74931 38.3018 9.08008C38.7081 9.41084 39.0293 9.81056 39.2656 10.2783C39.5019 10.7462 39.6201 11.2952 39.6201 11.9238C39.6201 12.7744 39.4025 13.5235 38.9678 14.1709C38.5329 14.8136 37.9044 15.3168 37.082 15.6807C36.4062 15.9775 35.6126 16.1497 34.7012 16.2012L34.6367 16.5459C35.0808 16.6121 35.4565 16.7826 35.7637 17.0566C36.0755 17.3355 36.2314 17.7351 36.2314 18.2549C36.2361 18.9259 35.9359 19.4647 35.3311 19.8711C34.7261 20.2775 33.8633 20.4805 32.7432 20.4805L32.7148 19.2188C33.2584 19.2188 33.6913 19.1455 34.0127 18.999C34.3339 18.8572 34.4972 18.6302 34.502 18.3184C34.5114 18.0159 34.3974 17.7941 34.1611 17.6523C33.9296 17.5153 33.5612 17.4202 33.0557 17.3682L33.3076 16.1875C32.5103 16.1228 31.7977 15.9592 31.1699 15.6953C30.3428 15.3456 29.6945 14.8352 29.2266 14.1641C28.7634 13.4929 28.5134 12.6751 28.4756 11.7109H31.0635C31.1013 12.2166 31.2572 12.6371 31.5312 12.9727C31.8054 13.3082 32.162 13.5592 32.6016 13.7246C33.0458 13.89 33.5426 13.9727 34.0908 13.9727C34.6625 13.9726 35.1638 13.8869 35.5938 13.7168C36.0283 13.542 36.3686 13.3012 36.6143 12.9941C36.86 12.6822 36.9855 12.3182 36.9902 11.9023C36.9855 11.5245 36.8744 11.2125 36.6572 10.9668C36.4398 10.7163 36.1345 10.5082 35.7422 10.3428C35.3546 10.1726 34.9008 10.021 34.3809 9.88867L32.7295 9.46289C31.5337 9.15567 30.5883 8.69029 29.8936 8.06641C29.2036 7.43787 28.8585 6.60407 28.8584 5.56445C28.8584 4.70897 29.0895 3.9592 29.5527 3.31641C30.0206 2.67363 30.6565 2.17479 31.46 1.82031C32.2634 1.46113 33.1734 1.28225 34.1895 1.28223Z" fill="#0346B8"/>
<path fill-rule="evenodd" clip-rule="evenodd" d="M13.9668 16H11.1592L9.95605 12.4199H4.49805L3.29688 16H0.489258L5.60059 1.48047H8.84766L13.9668 16ZM5.20605 10.3066H9.24609L7.28125 4.45801H7.16797L5.20605 10.3066Z" fill="#0346B8"/>
<path fill-rule="evenodd" clip-rule="evenodd" d="M21.4375 1.48047C22.4866 1.4805 23.359 1.64574 24.0537 1.97656C24.753 2.30264 25.2751 2.7494 25.6201 3.31641C25.9699 3.88358 26.1445 4.5267 26.1445 5.24512C26.1445 5.83589 26.0315 6.34206 25.8047 6.7627C25.5778 7.17851 25.2724 7.51646 24.8896 7.77637C24.5069 8.03622 24.079 8.22253 23.6064 8.33594V8.47754C24.1215 8.50589 24.6153 8.66491 25.0879 8.95312C25.5652 9.23669 25.9553 9.63835 26.2578 10.1582C26.5603 10.6781 26.7119 11.3066 26.7119 12.0439C26.7119 12.7953 26.5298 13.4711 26.166 14.0713C25.8021 14.6667 25.254 15.1374 24.5215 15.4824C23.7889 15.8274 22.8666 16 21.7559 16H15.8789V1.48047H21.4375ZM18.5088 13.8018H21.3379C22.2926 13.8018 22.9807 13.6198 23.4014 13.2559C23.8264 12.8874 24.0389 12.4151 24.0391 11.8389C24.0391 11.4088 23.9324 11.0208 23.7197 10.6758C23.507 10.3261 23.2048 10.052 22.8125 9.85352C22.4203 9.65032 21.9526 9.54887 21.4092 9.54883H18.5088V13.8018ZM18.5088 7.65527H21.1113C21.565 7.65524 21.974 7.57262 22.3379 7.40723C22.7016 7.2371 22.9874 6.99849 23.1953 6.69141C23.408 6.37946 23.5146 6.01034 23.5146 5.58496C23.5146 5.0227 23.3159 4.55916 22.9189 4.19531C22.5267 3.83155 21.9429 3.64944 21.168 3.64941H18.5088V7.65527Z" fill="#0346B8"/>
<path d="M51.4082 3.68555H44.5957V7.62695H50.9189V9.83203H44.5957V13.7949H51.4648V16H41.9648V1.48047H51.4082V3.68555Z" fill="#0346B8"/>
<path fill-rule="evenodd" clip-rule="evenodd" d="M59.5371 1.48047C60.6524 1.48051 61.5886 1.67399 62.3447 2.06152C63.1056 2.44908 63.6799 2.99295 64.0674 3.69238C64.4596 4.38711 64.6553 5.19775 64.6553 6.12402C64.6553 7.05513 64.4566 7.8635 64.0596 8.54883C63.6673 9.2293 63.0888 9.75653 62.3232 10.1299C62.2334 10.1731 62.1405 10.2128 62.0459 10.251L65.1875 16H62.252L59.3984 10.6826H56.7227V16H54.0918V1.48047H59.5371ZM56.7227 8.49902H59.1465C59.7987 8.49902 60.3331 8.4091 60.749 8.22949C61.1649 8.04516 61.4724 7.77846 61.6709 7.42871C61.8741 7.07423 61.9756 6.63919 61.9756 6.12402C61.9756 5.60899 61.874 5.16953 61.6709 4.80566C61.4677 4.43702 61.1581 4.15781 60.7422 3.96875C60.3263 3.77498 59.7897 3.67872 59.1328 3.67871H56.7227V8.49902Z" fill="#0346B8"/>
<path d="M93.7256 11.3779H93.8525V1.48047H96.4688V16H94.1299L87.2881 6.11035H87.168V16H84.5371V1.48047H86.8906L93.7256 11.3779Z" fill="#0346B8"/>
<path fill-rule="evenodd" clip-rule="evenodd" d="M74.5 0.799805C78.9124 0.799805 82.497 4.38938 82.5 8.79883L82.4893 9.20996C82.2744 13.4321 78.7741 16.7998 74.5 16.7998C70.2287 16.7998 66.7257 13.4322 66.5107 9.20996L66.5 8.79883C66.5 4.38869 70.0909 0.799805 74.5 0.799805ZM74.5 2.26172C72.8697 2.26172 71.3788 2.86021 70.2295 3.84473C70.031 4.0237 70.0674 4.16699 70.0674 4.16699C70.062 4.1862 70.0644 4.19739 70.0645 4.21387C70.0645 4.31448 70.1206 4.41015 70.21 4.45215C70.4393 4.55563 70.686 4.64185 70.9014 4.77051C71.22 4.96332 71.5608 4.88243 71.8906 4.89355C71.9242 4.89355 71.978 4.88019 72.0088 4.86621C72.1877 4.77682 72.347 4.77379 72.4951 4.94434C72.5454 5.00292 72.6376 5.03053 72.7158 5.05566C72.8919 5.11156 73.0458 5.19571 73.166 5.34375C73.18 5.36053 73.1999 5.37775 73.2139 5.39453C73.2837 5.46712 73.4004 5.53708 73.4062 5.61523C73.4202 5.76058 73.3707 5.91463 73.3428 6.06836C73.34 6.07949 73.3337 6.09351 73.3281 6.10742C73.1688 6.45976 73.2134 6.64222 73.5264 6.87988C73.6326 6.95819 73.7479 7.02765 73.8682 7.0752C73.9492 7.10594 74.0362 7.11466 74.1201 7.12305C74.1926 7.12864 74.2542 7.13686 74.3184 7.17871C74.3743 7.21787 74.4193 7.27166 74.4668 7.31641C74.5674 7.41689 74.6962 7.48699 74.833 7.52051C75.0035 7.5624 75.174 7.5765 75.3389 7.62402C75.582 7.69389 75.8364 7.64304 76.0684 7.51172C76.1159 7.48655 76.1726 7.46666 76.2285 7.46387C76.4912 7.46108 76.7511 7.4675 77.0166 7.46191C77.1396 7.45912 77.2152 7.4979 77.2627 7.61816C77.299 7.71317 77.3607 7.79968 77.4277 7.87793C77.5228 7.9926 77.6489 8.05957 77.8027 8.05957C77.895 8.06236 77.9847 8.05984 78.0713 8.06543C78.2361 8.07945 78.3645 8.14119 78.4512 8.29199C78.5742 8.50735 78.7175 8.71699 78.8545 8.92676C78.8741 8.95472 78.896 8.98016 78.9268 8.99414C78.9714 9.01646 79.0159 9.03628 79.0605 9.05859C79.203 9.12288 79.3153 9.24575 79.3545 9.39941C79.4384 9.72106 79.4521 10.0487 79.4521 10.376C79.4521 10.4905 79.3068 10.4852 79.209 10.3818C79.0916 10.2616 78.9745 10.141 78.8516 10.0264C78.7035 9.895 78.541 9.80552 78.3398 9.76074C77.9848 9.67686 77.6349 9.59548 77.2715 9.6709C77.1736 9.69327 77.073 9.74957 77.0059 9.82227C76.8465 9.99005 76.6284 9.99251 76.4941 9.81641C76.3599 9.64021 76.175 9.56499 75.9541 9.57617C75.7752 9.58459 75.6409 9.73255 75.6465 9.93945C75.6493 10.0176 75.6355 10.0931 75.5938 10.1602C75.5406 10.2384 75.4481 10.2976 75.3643 10.334C75.3252 10.3479 75.2832 10.3564 75.2441 10.3398C75.2051 10.3231 75.1767 10.2896 75.1377 10.2783C75.0818 10.2615 75.0114 10.2637 74.9639 10.3057C74.9163 10.3532 74.891 10.412 74.8379 10.4512C74.7541 10.507 74.6624 10.5441 74.5703 10.5859C74.5032 10.6139 74.4382 10.647 74.3711 10.6777C74.2426 10.7364 74.1087 10.7983 73.9746 10.8486C73.6307 10.9745 73.362 11.1931 73.1719 11.4951C73.1049 11.5986 73.1131 11.7554 73.1104 11.8867C73.1076 12.0179 73.1151 12.1068 72.9336 12.1348C72.7689 12.1601 72.6795 12.3168 72.6543 12.4844C72.6291 12.6297 72.6681 12.7536 72.8105 12.8291C72.8497 12.8487 72.8893 12.8794 72.9229 12.9102C73.0653 13.0359 73.0625 13.134 72.9004 13.2402C72.7299 13.3549 72.6379 13.5173 72.6211 13.7158C72.6156 13.78 72.621 13.855 72.6543 13.9053C72.7828 14.0926 72.7467 14.2718 72.6602 14.4619C72.6266 14.5262 72.6154 14.6021 72.5986 14.6748C72.5819 14.7419 72.573 14.8088 72.5479 14.873C72.5255 14.9289 72.5065 15.0045 72.5371 15.0576C72.5399 15.066 72.573 15.105 72.5898 15.1191C73.191 15.3009 73.8315 15.3994 74.4941 15.3994C78.1239 15.3994 81.0636 12.4595 81.0664 8.8291C81.0664 5.20431 78.1269 2.26173 74.5 2.26172Z" fill="url(#paint0_linear_359_1491)"/>
<defs>
<linearGradient id="paint0_linear_359_1491" x1="68.8464" y1="14.4526" x2="80.1544" y2="3.14678" gradientUnits="userSpaceOnUse">
<stop stop-color="#00FF78"/>
<stop offset="0.1209" stop-color="#01D485"/>
<stop offset="0.2844" stop-color="#01A094"/>
<stop offset="0.4454" stop-color="#0276A1"/>
<stop offset="0.6004" stop-color="#0254AB"/>
<stop offset="0.7478" stop-color="#033CB2"/>
<stop offset="0.8845" stop-color="#032EB7"/>
<stop offset="1" stop-color="#0329B8"/>
</linearGradient>
</defs>
</svg>
