<svg width="42" height="42" viewBox="0 0 42 42" fill="none" xmlns="http://www.w3.org/2000/svg">
<path fill-rule="evenodd" clip-rule="evenodd" d="M21 0C32.5824 0 41.9922 9.42264 42 20.9974L41.9718 22.0767C41.4079 33.1598 32.2196 42 21 42C9.78782 42 0.592497 33.1601 0.0281982 22.0767L0 20.9974C0 9.42082 9.42603 0 21 0ZM21 3.83752C16.7204 3.83752 12.8069 5.40857 9.78992 7.99292C9.26892 8.46274 9.36438 8.83887 9.36438 8.83887C9.35017 8.8893 9.35659 8.91865 9.35669 8.96191C9.35669 9.22603 9.50405 9.47715 9.73865 9.5874C10.3406 9.85904 10.9884 10.0854 11.5536 10.4231C12.39 10.9292 13.2846 10.7169 14.1504 10.7461C14.2385 10.7461 14.3798 10.711 14.4606 10.6743C14.9301 10.4397 15.3483 10.4317 15.7372 10.8794C15.8693 11.0332 16.1113 11.1057 16.3165 11.1716C16.7786 11.3184 17.1828 11.5393 17.4983 11.9279C17.535 11.9719 17.5872 12.0171 17.6239 12.0612C17.8072 12.2517 18.1136 12.4353 18.1289 12.6405C18.1656 13.022 18.0357 13.4264 17.9623 13.83C17.955 13.8592 17.9384 13.896 17.9238 13.9325C17.5055 14.8574 17.6226 15.3363 18.4442 15.9602C18.7231 16.1658 19.0258 16.3481 19.3414 16.4729C19.5543 16.5536 19.7826 16.5765 20.0028 16.5985C20.1931 16.6132 20.3547 16.6348 20.5232 16.7446C20.67 16.8474 20.7881 16.9886 20.9128 17.1061C21.177 17.3699 21.5149 17.5539 21.8741 17.6418C22.3216 17.7518 22.7692 17.7888 23.202 17.9136C23.8403 18.097 24.5079 17.9635 25.1169 17.6188C25.2417 17.5527 25.3906 17.5005 25.5374 17.4932C26.2269 17.4858 26.9092 17.5027 27.6061 17.488C27.929 17.4807 28.1273 17.5825 28.2521 17.8982C28.3474 18.1476 28.5093 18.3747 28.6853 18.5801C28.9349 18.8811 29.266 19.0569 29.6697 19.0569C29.9118 19.0642 30.1472 19.0576 30.3746 19.0723C30.8072 19.1091 31.1444 19.2711 31.3718 19.667C31.6948 20.2323 32.0709 20.7826 32.4305 21.3333C32.4819 21.4066 32.5395 21.4734 32.6202 21.5101C32.7374 21.5687 32.8543 21.6208 32.9714 21.6793C33.3455 21.8481 33.6401 22.1706 33.743 22.574C33.9633 23.4183 33.9994 24.2784 33.9994 25.1375C33.9992 25.4381 33.6179 25.4241 33.3611 25.1528C33.053 24.8373 32.7456 24.5206 32.4229 24.2197C32.0341 23.8749 31.6076 23.64 31.0796 23.5225C30.1476 23.3023 29.2292 23.0886 28.2751 23.2866C28.0183 23.3453 27.7541 23.4931 27.5779 23.684C27.1595 24.1244 26.587 24.1309 26.2346 23.6686C25.8823 23.2061 25.3969 23.0086 24.817 23.038C24.3474 23.0601 23.995 23.4485 24.0095 23.9916C24.0168 24.1967 23.9807 24.395 23.8711 24.5709C23.7317 24.7764 23.4888 24.9318 23.2687 25.0272C23.1662 25.0638 23.0558 25.0861 22.9534 25.0426C22.8508 24.9986 22.7764 24.9106 22.674 24.8811C22.5272 24.8371 22.3424 24.8428 22.2177 24.9529C22.0929 25.0777 22.0264 25.2321 21.887 25.3348C21.6671 25.4813 21.4264 25.5787 21.1846 25.6886C21.0084 25.762 20.8378 25.8488 20.6616 25.9296C20.3243 26.0836 19.9728 26.2461 19.6208 26.3782C18.718 26.7086 18.0128 27.2823 17.5137 28.0752C17.3379 28.3469 17.3595 28.7583 17.3522 29.1031C17.3449 29.4475 17.3647 29.6809 16.8882 29.7543C16.456 29.8207 16.2213 30.2322 16.155 30.672C16.089 31.0536 16.1912 31.3786 16.5652 31.5769C16.6679 31.6283 16.7719 31.7089 16.86 31.7897C17.2339 32.1199 17.2266 32.3772 16.801 32.6561C16.3535 32.9571 16.1119 33.3834 16.0679 33.9045C16.0534 34.0729 16.0675 34.2699 16.155 34.4019C16.4925 34.8935 16.3977 35.3641 16.1704 35.863C16.0823 36.0319 16.0529 36.231 16.0089 36.4219C15.9649 36.5979 15.9415 36.7736 15.8756 36.9423C15.817 37.0889 15.767 37.2873 15.8474 37.4268C15.8548 37.4487 15.9416 37.551 15.9858 37.5883C17.5638 38.0654 19.2452 38.3239 20.9846 38.324C30.5127 38.3239 38.2295 30.6068 38.2368 21.0769C38.2367 11.5618 30.5207 3.83756 21 3.83752Z" fill="url(#paint0_linear_359_1529)"/>
<defs>
<linearGradient id="paint0_linear_359_1529" x1="6.1593" y1="35.8387" x2="35.8427" y2="6.16081" gradientUnits="userSpaceOnUse">
<stop stop-color="#00FF78"/>
<stop offset="0.1209" stop-color="#01D485"/>
<stop offset="0.2844" stop-color="#01A094"/>
<stop offset="0.4454" stop-color="#0276A1"/>
<stop offset="0.6004" stop-color="#0254AB"/>
<stop offset="0.7478" stop-color="#033CB2"/>
<stop offset="0.8845" stop-color="#032EB7"/>
<stop offset="1" stop-color="#0329B8"/>
</linearGradient>
</defs>
</svg>
