<svg width="112" height="33" viewBox="0 0 112 33" fill="none" xmlns="http://www.w3.org/2000/svg">
<path fill-rule="evenodd" clip-rule="evenodd" d="M11.1436 25.9219C11.3363 25.9219 11.5576 25.9453 11.8076 25.9922C12.0602 26.0365 12.3037 26.1289 12.5381 26.2695C12.775 26.4102 12.9717 26.6224 13.1279 26.9062C13.2841 27.1901 13.3623 27.5704 13.3623 28.0469V32H12.4404V31.1875H12.3936C12.331 31.3177 12.2268 31.4571 12.0811 31.6055C11.9352 31.7539 11.7411 31.8802 11.499 31.9844C11.2569 32.0885 10.9612 32.1406 10.6123 32.1406C10.2321 32.1406 9.88702 32.069 9.57715 31.9258C9.26731 31.78 9.02115 31.5702 8.83887 31.2969C8.65661 31.0209 8.56546 30.6874 8.56543 30.2969C8.56543 29.9532 8.63321 29.6745 8.76855 29.4609C8.90395 29.2448 9.08501 29.0755 9.31152 28.9531C9.53807 28.8307 9.78811 28.7396 10.0615 28.6797C10.3376 28.6172 10.6149 28.5677 10.8936 28.5312C11.2581 28.4844 11.5537 28.4492 11.7803 28.4258C12.0094 28.3997 12.1761 28.3567 12.2803 28.2969C12.387 28.237 12.4404 28.1327 12.4404 27.9844V27.9531C12.4404 27.5678 12.3349 27.2682 12.124 27.0547C11.9157 26.8411 11.5993 26.7344 11.1748 26.7344C10.7347 26.7344 10.3896 26.8307 10.1396 27.0234C9.88971 27.2161 9.71385 27.4219 9.6123 27.6406L8.7373 27.3281C8.89353 26.9636 9.10194 26.6797 9.3623 26.4766C9.62531 26.2708 9.91181 26.1276 10.2217 26.0469C10.5342 25.9635 10.8415 25.9219 11.1436 25.9219ZM12.4404 28.9844C12.4013 29.0312 12.3153 29.0743 12.1826 29.1133C12.0524 29.1497 11.9013 29.1823 11.7295 29.2109C11.5602 29.237 11.3948 29.2604 11.2334 29.2812C11.0746 29.2995 10.9456 29.3151 10.8467 29.3281C10.6071 29.3594 10.3831 29.4102 10.1748 29.4805C9.96911 29.5482 9.80239 29.6511 9.6748 29.7891C9.54988 29.9245 9.4873 30.1094 9.4873 30.3438C9.48736 30.6639 9.60585 30.9063 9.84277 31.0703C10.0823 31.2317 10.3858 31.3125 10.7529 31.3125C11.1175 31.3125 11.4248 31.2408 11.6748 31.0977C11.9273 30.9545 12.1175 30.7695 12.2451 30.543C12.3753 30.3165 12.4404 30.078 12.4404 29.8281V28.9844Z" fill="#0346B8"/>
<path fill-rule="evenodd" clip-rule="evenodd" d="M21.377 25.9219C21.6895 25.9219 21.998 25.974 22.3027 26.0781C22.6074 26.1823 22.8848 26.3516 23.1348 26.5859C23.3847 26.8177 23.584 27.1251 23.7324 27.5078C23.8808 27.8906 23.9551 28.3621 23.9551 28.9219V29.3125H19.5986C19.6119 29.7116 19.6884 30.0542 19.8301 30.3398C19.9889 30.6523 20.209 30.8907 20.4902 31.0547C20.7715 31.2161 21.0984 31.2969 21.4707 31.2969C21.7129 31.2969 21.9317 31.263 22.127 31.1953C22.3248 31.125 22.4955 31.0208 22.6387 30.8828C22.7819 30.7422 22.8926 30.5676 22.9707 30.3594L23.8613 30.6094C23.7676 30.9114 23.61 31.1771 23.3887 31.4062C23.1673 31.6328 22.8938 31.8099 22.5684 31.9375C22.2429 32.0625 21.8769 32.125 21.4707 32.125C20.8926 32.125 20.3939 31.9974 19.9746 31.7422C19.558 31.4844 19.2363 31.1249 19.0098 30.6641C18.7858 30.2006 18.6739 29.6614 18.6738 29.0469C18.6738 28.4324 18.7859 27.8906 19.0098 27.4219C19.2363 26.9506 19.5515 26.5833 19.9551 26.3203C20.3613 26.0547 20.8353 25.9219 21.377 25.9219ZM21.377 26.75C21.0098 26.75 20.6921 26.8411 20.4238 27.0234C20.1583 27.2031 19.9538 27.4375 19.8105 27.7266C19.6879 27.9742 19.6211 28.2374 19.6035 28.5156H23.0176C23.0176 28.1772 22.9498 27.875 22.8145 27.6094C22.6817 27.3438 22.4915 27.1341 22.2441 26.9805C21.9993 26.8268 21.7103 26.75 21.377 26.75Z" fill="#0346B8"/>
<path fill-rule="evenodd" clip-rule="evenodd" d="M27.7793 25.9219C28.0918 25.9219 28.4004 25.974 28.7051 26.0781C29.0097 26.1823 29.2871 26.3516 29.5371 26.5859C29.7871 26.8177 29.9863 27.1251 30.1348 27.5078C30.2832 27.8906 30.3574 28.3621 30.3574 28.9219V29.3125H26.001C26.0142 29.7116 26.0908 30.0542 26.2324 30.3398C26.3913 30.6523 26.6114 30.8907 26.8926 31.0547C27.1738 31.2161 27.5007 31.2969 27.873 31.2969C28.1152 31.2969 28.334 31.263 28.5293 31.1953C28.7272 31.125 28.8978 31.0208 29.041 30.8828C29.1842 30.7422 29.2949 30.5676 29.373 30.3594L30.2637 30.6094C30.1699 30.9114 30.0123 31.1771 29.791 31.4062C29.5697 31.6328 29.2962 31.8099 28.9707 31.9375C28.6452 32.0625 28.2793 32.125 27.873 32.125C27.295 32.125 26.7962 31.9974 26.377 31.7422C25.9603 31.4844 25.6387 31.1249 25.4121 30.6641C25.1882 30.2006 25.0762 29.6614 25.0762 29.0469C25.0762 28.4324 25.1882 27.8906 25.4121 27.4219C25.6387 26.9506 25.9538 26.5833 26.3574 26.3203C26.7637 26.0547 27.2376 25.9219 27.7793 25.9219ZM27.7793 26.75C27.4121 26.75 27.0944 26.8411 26.8262 27.0234C26.5606 27.2031 26.3561 27.4375 26.2129 27.7266C26.0902 27.9742 26.0234 28.2374 26.0059 28.5156H29.4199C29.4199 28.1772 29.3522 27.875 29.2168 27.6094C29.084 27.3438 28.8938 27.1341 28.6465 26.9805C28.4017 26.8268 28.1126 26.75 27.7793 26.75Z" fill="#0346B8"/>
<path fill-rule="evenodd" clip-rule="evenodd" d="M49.3711 25.9219C49.6836 25.9219 49.9922 25.974 50.2969 26.0781C50.6015 26.1823 50.8789 26.3516 51.1289 26.5859C51.3789 26.8177 51.5781 27.1251 51.7266 27.5078C51.875 27.8906 51.9492 28.3621 51.9492 28.9219V29.3125H47.5928C47.606 29.7116 47.6826 30.0542 47.8242 30.3398C47.9831 30.6523 48.2032 30.8907 48.4844 31.0547C48.7656 31.2161 49.0925 31.2969 49.4648 31.2969C49.707 31.2969 49.9258 31.263 50.1211 31.1953C50.319 31.125 50.4896 31.0208 50.6328 30.8828C50.776 30.7422 50.8867 30.5676 50.9648 30.3594L51.8555 30.6094C51.7617 30.9114 51.6041 31.1771 51.3828 31.4062C51.1615 31.6328 50.888 31.8099 50.5625 31.9375C50.237 32.0625 49.8711 32.125 49.4648 32.125C48.8868 32.125 48.388 31.9974 47.9688 31.7422C47.5521 31.4844 47.2305 31.1249 47.0039 30.6641C46.78 30.2006 46.668 29.6614 46.668 29.0469C46.668 28.4324 46.78 27.8906 47.0039 27.4219C47.2304 26.9506 47.5456 26.5833 47.9492 26.3203C48.3555 26.0547 48.8294 25.9219 49.3711 25.9219ZM49.3711 26.75C49.0039 26.75 48.6862 26.8411 48.418 27.0234C48.1524 27.2031 47.9479 27.4375 47.8047 27.7266C47.682 27.9742 47.6152 28.2374 47.5977 28.5156H51.0117C51.0117 28.1772 50.944 27.875 50.8086 27.6094C50.6758 27.3438 50.4856 27.1341 50.2383 26.9805C49.9935 26.8268 49.7044 26.75 49.3711 26.75Z" fill="#0346B8"/>
<path fill-rule="evenodd" clip-rule="evenodd" d="M66.1396 25.9219C66.4521 25.9219 66.7607 25.974 67.0654 26.0781C67.3701 26.1823 67.6475 26.3516 67.8975 26.5859C68.1474 26.8177 68.3467 27.1251 68.4951 27.5078C68.6435 27.8906 68.7178 28.3621 68.7178 28.9219V29.3125H64.3613C64.3746 29.7116 64.4511 30.0542 64.5928 30.3398C64.7516 30.6523 64.9717 30.8907 65.2529 31.0547C65.5342 31.2161 65.861 31.2969 66.2334 31.2969C66.4756 31.2969 66.6944 31.263 66.8896 31.1953C67.0875 31.125 67.2582 31.0208 67.4014 30.8828C67.5445 30.7422 67.6553 30.5676 67.7334 30.3594L68.624 30.6094C68.5303 30.9114 68.3727 31.1771 68.1514 31.4062C67.93 31.6328 67.6565 31.8099 67.3311 31.9375C67.0056 32.0625 66.6396 32.125 66.2334 32.125C65.6553 32.125 65.1566 31.9974 64.7373 31.7422C64.3207 31.4844 63.999 31.1249 63.7725 30.6641C63.5485 30.2006 63.4366 29.6614 63.4365 29.0469C63.4365 28.4324 63.5486 27.8906 63.7725 27.4219C63.999 26.9506 64.3142 26.5833 64.7178 26.3203C65.124 26.0547 65.598 25.9219 66.1396 25.9219ZM66.1396 26.75C65.7725 26.75 65.4547 26.8411 65.1865 27.0234C64.921 27.2031 64.7165 27.4375 64.5732 27.7266C64.4506 27.9742 64.3838 28.2374 64.3662 28.5156H67.7803C67.7803 28.1772 67.7125 27.875 67.5771 27.6094C67.4444 27.3438 67.2542 27.1341 67.0068 26.9805C66.762 26.8268 66.473 26.75 66.1396 26.75Z" fill="#0346B8"/>
<path d="M4.1875 23.8906C4.59115 23.8906 4.97005 23.9492 5.32422 24.0664C5.68097 24.1836 6.00262 24.3555 6.28906 24.582C6.57548 24.806 6.81513 25.0795 7.00781 25.4023C7.20047 25.7226 7.33335 26.0886 7.40625 26.5H6.4375C6.38022 26.2214 6.27989 25.9765 6.13672 25.7656C5.99612 25.5547 5.82418 25.3776 5.62109 25.2344C5.42059 25.0886 5.1979 24.9792 4.95312 24.9062C4.70833 24.8333 4.45313 24.7969 4.1875 24.7969C3.70313 24.7969 3.26432 24.9193 2.87109 25.1641C2.48052 25.4089 2.16925 25.7696 1.9375 26.2461C1.70839 26.7226 1.59375 27.3074 1.59375 28C1.59378 28.6926 1.70836 29.2774 1.9375 29.7539C2.16926 30.2304 2.48052 30.5912 2.87109 30.8359C3.2643 31.0807 3.70317 31.2031 4.1875 31.2031C4.4531 31.2031 4.70836 31.1667 4.95312 31.0938C5.19787 31.0208 5.4206 30.9127 5.62109 30.7695C5.82417 30.6237 5.99611 30.4452 6.13672 30.2344C6.27991 30.0209 6.3802 29.776 6.4375 29.5H7.40625C7.33332 29.9088 7.20049 30.2748 7.00781 30.5977C6.81512 30.9205 6.57547 31.1954 6.28906 31.4219C6.00263 31.6458 5.68094 31.8164 5.32422 31.9336C4.97007 32.0508 4.59112 32.1094 4.1875 32.1094C3.50525 32.1094 2.89841 31.9427 2.36719 31.6094C1.83599 31.2761 1.41796 30.802 1.11328 30.1875C0.808621 29.573 0.656277 28.8437 0.65625 28C0.65625 27.1563 0.808656 26.427 1.11328 25.8125C1.41795 25.198 1.83599 24.724 2.36719 24.3906C2.89843 24.0573 3.50521 23.8906 4.1875 23.8906Z" fill="#0346B8"/>
<path d="M42.29 23.8906C42.6937 23.8906 43.0726 23.9492 43.4268 24.0664C43.7835 24.1836 44.1052 24.3555 44.3916 24.582C44.678 24.806 44.9177 25.0795 45.1104 25.4023C45.303 25.7226 45.4359 26.0886 45.5088 26.5H44.54C44.4828 26.2214 44.3824 25.9765 44.2393 25.7656C44.0987 25.5547 43.9267 25.3776 43.7236 25.2344C43.5231 25.0886 43.3004 24.9792 43.0557 24.9062C42.8109 24.8333 42.5557 24.7969 42.29 24.7969C41.8057 24.7969 41.3669 24.9193 40.9736 25.1641C40.5831 25.4089 40.2718 25.7696 40.04 26.2461C39.8109 26.7226 39.6963 27.3074 39.6963 28C39.6963 28.6926 39.8109 29.2774 40.04 29.7539C40.2718 30.2304 40.5831 30.5912 40.9736 30.8359C41.3668 31.0807 41.8057 31.2031 42.29 31.2031C42.5556 31.2031 42.8109 31.1667 43.0557 31.0938C43.3004 31.0208 43.5231 30.9127 43.7236 30.7695C43.9267 30.6237 44.0987 30.4452 44.2393 30.2344C44.3824 30.0209 44.4827 29.776 44.54 29.5H45.5088C45.4359 29.9088 45.303 30.2748 45.1104 30.5977C44.9177 30.9205 44.678 31.1954 44.3916 31.4219C44.1052 31.6458 43.7835 31.8164 43.4268 31.9336C43.0726 32.0508 42.6937 32.1094 42.29 32.1094C41.6078 32.1094 41.001 31.9427 40.4697 31.6094C39.9385 31.2761 39.5205 30.802 39.2158 30.1875C38.9112 29.573 38.7588 28.8437 38.7588 28C38.7588 27.1563 38.9112 26.427 39.2158 25.8125C39.5205 25.198 39.9385 24.724 40.4697 24.3906C41.001 24.0573 41.6078 23.8906 42.29 23.8906Z" fill="#0346B8"/>
<path d="M61.1143 26H62.3955V26.7812H61.1143V30.2812C61.1143 30.5416 61.152 30.737 61.2275 30.8672C61.3056 30.9947 61.4047 31.0807 61.5244 31.125C61.6468 31.1667 61.7757 31.1875 61.9111 31.1875C62.0127 31.1875 62.096 31.1823 62.1611 31.1719L62.3174 31.1406L62.5049 31.9688C62.4424 31.9922 62.3551 32.0156 62.2432 32.0391C62.1312 32.0651 61.9892 32.0781 61.8174 32.0781C61.557 32.0781 61.3017 32.0221 61.0518 31.9102C60.8044 31.7982 60.5986 31.6275 60.4346 31.3984C60.2731 31.1693 60.1924 30.8801 60.1924 30.5312V26.7812H59.2861V26H60.1924V24.5625H61.1143V26Z" fill="#0346B8"/>
<path d="M17.8145 25.9102C17.916 25.9128 17.9928 25.9167 18.0449 25.9219V26.8594C18.0137 26.8516 17.942 26.8398 17.8301 26.8242C17.7207 26.806 17.6048 26.7969 17.4824 26.7969C17.1908 26.7969 16.9303 26.8581 16.7012 26.9805C16.4747 27.1003 16.2949 27.267 16.1621 27.4805C16.032 27.6914 15.9668 27.9324 15.9668 28.2031V32H15.0449V26H15.9355V26.9062H15.998C16.1074 26.6094 16.3054 26.3685 16.5918 26.1836C16.8783 25.9987 17.2012 25.9063 17.5605 25.9062C17.6283 25.9062 17.7129 25.9076 17.8145 25.9102Z" fill="#0346B8"/>
<path d="M34.5293 25.9102C34.6309 25.9128 34.7077 25.9167 34.7598 25.9219V26.8594C34.7285 26.8516 34.6569 26.8398 34.5449 26.8242C34.4355 26.806 34.3197 26.7969 34.1973 26.7969C33.9056 26.7969 33.6452 26.8581 33.416 26.9805C33.1895 27.1003 33.0097 27.267 32.877 27.4805C32.7468 27.6914 32.6816 27.9324 32.6816 28.2031V32H31.7598V26H32.6504V26.9062H32.7129C32.8223 26.6094 33.0202 26.3685 33.3066 26.1836C33.5931 25.9987 33.916 25.9063 34.2754 25.9062C34.3431 25.9062 34.4277 25.9076 34.5293 25.9102Z" fill="#0346B8"/>
<path d="M56.0703 25.9219C56.4766 25.9219 56.832 26.0052 57.1367 26.1719C57.4414 26.3359 57.6784 26.586 57.8477 26.9219C58.0169 27.2552 58.1016 27.6772 58.1016 28.1875V32H57.1797V28.25C57.1797 27.7787 57.0572 27.4115 56.8125 27.1484C56.5677 26.8828 56.2318 26.75 55.8047 26.75C55.5104 26.75 55.2474 26.8138 55.0156 26.9414C54.7865 27.069 54.6054 27.2552 54.4727 27.5C54.3399 27.7448 54.2734 28.0418 54.2734 28.3906V32H53.3516V26H54.2422V26.9375H54.3203C54.4609 26.6329 54.6745 26.388 54.9609 26.2031C55.2474 26.0156 55.6172 25.9219 56.0703 25.9219Z" fill="#0346B8"/>
<path d="M72.8896 25.9102C72.9912 25.9128 73.068 25.9167 73.1201 25.9219V26.8594C73.0889 26.8516 73.0172 26.8398 72.9053 26.8242C72.7959 26.806 72.68 26.7969 72.5576 26.7969C72.266 26.7969 72.0055 26.8581 71.7764 26.9805C71.5499 27.1003 71.3701 27.267 71.2373 27.4805C71.1072 27.6914 71.042 27.9324 71.042 28.2031V32H70.1201V26H71.0107V26.9062H71.0732C71.1826 26.6094 71.3806 26.3685 71.667 26.1836C71.9534 25.9987 72.2764 25.9063 72.6357 25.9062C72.7034 25.9062 72.7881 25.9076 72.8896 25.9102Z" fill="#0346B8"/>
<path d="M34.1895 1.28125C35.2196 1.28125 36.1224 1.46125 36.8975 1.82031C37.6773 2.17479 38.2901 2.6694 38.7344 3.30273C39.1785 3.93124 39.4077 4.6542 39.4219 5.47168H36.8906C36.8245 4.85266 36.546 4.3704 36.0547 4.02539C35.5679 3.68037 34.9341 3.50782 34.1543 3.50781C33.606 3.50781 33.1355 3.59043 32.7432 3.75586C32.3509 3.92128 32.0507 4.14614 31.8428 4.42969C31.635 4.71311 31.5292 5.03672 31.5244 5.40039C31.5244 5.70278 31.5925 5.9654 31.7295 6.1875C31.8713 6.40961 32.0627 6.59892 32.3037 6.75488C32.5446 6.90605 32.8116 7.03374 33.1045 7.1377C33.3975 7.24168 33.6934 7.32949 33.9912 7.40039L35.3525 7.74023C35.9008 7.86784 36.4279 8.04042 36.9336 8.25781C37.444 8.47521 37.9001 8.74928 38.3018 9.08008C38.7082 9.41088 39.0293 9.81049 39.2656 10.2783C39.5019 10.7461 39.6201 11.2944 39.6201 11.9229C39.6201 12.7736 39.4026 13.5234 38.9678 14.1709C38.533 14.8135 37.9043 15.3168 37.082 15.6807C36.2644 16.0398 35.274 16.2197 34.1113 16.2197C32.9821 16.2197 32.0016 16.0449 31.1699 15.6953C30.3428 15.3456 29.6945 14.8342 29.2266 14.1631C28.7637 13.4921 28.5134 12.6747 28.4756 11.7109H31.0635C31.1013 12.2165 31.2572 12.6372 31.5312 12.9727C31.8053 13.3081 32.1622 13.5582 32.6016 13.7236C33.0458 13.8891 33.5426 13.9717 34.0908 13.9717C34.6625 13.9716 35.1637 13.8869 35.5938 13.7168C36.0283 13.542 36.3686 13.3012 36.6143 12.9941C36.86 12.6823 36.9854 12.3181 36.9902 11.9023C36.9855 11.5242 36.8746 11.2116 36.6572 10.9658C36.4398 10.7153 36.1345 10.5072 35.7422 10.3418C35.3547 10.1717 34.9006 10.021 34.3809 9.88867L32.7295 9.46289C31.5337 9.15568 30.5883 8.69026 29.8936 8.06641C29.2035 7.43779 28.8584 6.60329 28.8584 5.56348C28.8585 4.70821 29.0897 3.95907 29.5527 3.31641C30.0206 2.67364 30.6565 2.17479 31.46 1.82031C32.2634 1.46113 33.1734 1.28128 34.1895 1.28125Z" fill="#0346B8"/>
<path fill-rule="evenodd" clip-rule="evenodd" d="M13.9668 16H11.1592L9.95605 12.4199H4.49805L3.29688 16H0.489258L5.60059 1.48047H8.84766L13.9668 16ZM5.20605 10.3066H9.24609L7.28125 4.45801H7.16797L5.20605 10.3066Z" fill="#0346B8"/>
<path fill-rule="evenodd" clip-rule="evenodd" d="M21.4375 1.48047C22.4866 1.4805 23.359 1.64574 24.0537 1.97656C24.753 2.30266 25.2751 2.74935 25.6201 3.31641C25.9699 3.88358 26.1445 4.5267 26.1445 5.24512C26.1445 5.83564 26.0314 6.3412 25.8047 6.76172C25.5778 7.17762 25.2725 7.51544 24.8896 7.77539C24.5068 8.03534 24.0791 8.2225 23.6064 8.33594V8.47754C24.1216 8.5059 24.6162 8.66481 25.0889 8.95312C25.566 9.23669 25.9554 9.6385 26.2578 10.1582C26.5603 10.6781 26.7119 11.3066 26.7119 12.0439C26.7119 12.7953 26.5299 13.4711 26.166 14.0713C25.8021 14.6668 25.254 15.1374 24.5215 15.4824C23.7889 15.8274 22.8666 16 21.7559 16H15.8789V1.48047H21.4375ZM18.5088 13.8018H21.3379C22.2926 13.8018 22.9807 13.6198 23.4014 13.2559C23.8265 12.8872 24.0391 12.4144 24.0391 11.8379C24.039 11.4079 23.9323 11.0207 23.7197 10.6758C23.5071 10.3261 23.2048 10.052 22.8125 9.85352C22.4203 9.65032 21.9526 9.54789 21.4092 9.54785H18.5088V13.8018ZM18.5088 7.65527H21.1113C21.565 7.65525 21.974 7.57262 22.3379 7.40723C22.7016 7.23713 22.9874 6.99844 23.1953 6.69141C23.408 6.37946 23.5146 6.01034 23.5146 5.58496C23.5146 5.0226 23.3159 4.55921 22.9189 4.19531C22.5267 3.83149 21.9429 3.64944 21.168 3.64941H18.5088V7.65527Z" fill="#0346B8"/>
<path d="M44.5957 7.62695H51.3232V1.48047H53.9609V16H51.3232V9.83203H44.5957V16H41.9648V1.48047H44.5957V7.62695Z" fill="#0346B8"/>
<path d="M66.2646 3.68555H59.4521V7.62695H65.7754V9.83203H59.4521V13.7949H66.3213V16H56.8213V1.48047H66.2646V3.68555Z" fill="#0346B8"/>
<path fill-rule="evenodd" clip-rule="evenodd" d="M89.4082 0.799805C93.8206 0.799805 97.4052 4.38938 97.4082 8.79883L97.3975 9.20996C97.1827 13.4321 93.6823 16.7998 89.4082 16.7998C85.1369 16.7998 81.6339 13.4322 81.4189 9.20996L81.4082 8.79883C81.4082 4.38869 84.9991 0.799805 89.4082 0.799805ZM89.4082 2.26172C87.7779 2.26172 86.287 2.86021 85.1377 3.84473C84.9392 4.0237 84.9756 4.16699 84.9756 4.16699C84.9702 4.1862 84.9726 4.19739 84.9727 4.21387C84.9727 4.31448 85.0288 4.41015 85.1182 4.45215C85.3475 4.55563 85.5943 4.64185 85.8096 4.77051C86.1282 4.96332 86.469 4.88243 86.7988 4.89355C86.8324 4.89355 86.8862 4.88019 86.917 4.86621C87.0959 4.77682 87.2552 4.77379 87.4033 4.94434C87.4536 5.00292 87.5458 5.03053 87.624 5.05566C87.8001 5.11156 87.954 5.19571 88.0742 5.34375C88.0882 5.36053 88.1081 5.37775 88.1221 5.39453C88.1919 5.46712 88.3086 5.53708 88.3145 5.61523C88.3284 5.76058 88.279 5.91463 88.251 6.06836C88.2482 6.07949 88.2419 6.09351 88.2363 6.10742C88.077 6.45976 88.1216 6.64222 88.4346 6.87988C88.5408 6.95819 88.6561 7.02765 88.7764 7.0752C88.8574 7.10594 88.9444 7.11466 89.0283 7.12305C89.1008 7.12864 89.1624 7.13686 89.2266 7.17871C89.2825 7.21787 89.3275 7.27166 89.375 7.31641C89.4756 7.41689 89.6044 7.48699 89.7412 7.52051C89.9117 7.5624 90.0822 7.5765 90.2471 7.62402C90.4902 7.69389 90.7446 7.64304 90.9766 7.51172C91.0241 7.48655 91.0808 7.46666 91.1367 7.46387C91.3994 7.46108 91.6593 7.4675 91.9248 7.46191C92.0478 7.45912 92.1234 7.4979 92.1709 7.61816C92.2072 7.71317 92.2689 7.79968 92.3359 7.87793C92.431 7.9926 92.5571 8.05957 92.7109 8.05957C92.8032 8.06236 92.8929 8.05984 92.9795 8.06543C93.1443 8.07945 93.2727 8.14119 93.3594 8.29199C93.4824 8.50735 93.6257 8.71699 93.7627 8.92676C93.7823 8.95472 93.8042 8.98016 93.835 8.99414C93.8796 9.01646 93.9241 9.03628 93.9688 9.05859C94.1113 9.12288 94.2235 9.24575 94.2627 9.39941C94.3466 9.72106 94.3604 10.0487 94.3604 10.376C94.3603 10.4905 94.215 10.4852 94.1172 10.3818C93.9998 10.2616 93.8827 10.141 93.7598 10.0264C93.6117 9.895 93.4492 9.80552 93.248 9.76074C92.893 9.67686 92.5431 9.59548 92.1797 9.6709C92.0818 9.69327 91.9812 9.74957 91.9141 9.82227C91.7547 9.99005 91.5366 9.99251 91.4023 9.81641C91.2681 9.64021 91.0832 9.56499 90.8623 9.57617C90.6834 9.58459 90.5491 9.73255 90.5547 9.93945C90.5575 10.0176 90.5437 10.0931 90.502 10.1602C90.4489 10.2384 90.3563 10.2976 90.2725 10.334C90.2334 10.3479 90.1914 10.3564 90.1523 10.3398C90.1133 10.3231 90.0849 10.2896 90.0459 10.2783C89.99 10.2615 89.9196 10.2637 89.8721 10.3057C89.8246 10.3532 89.7992 10.412 89.7461 10.4512C89.6623 10.507 89.5706 10.5441 89.4785 10.5859C89.4114 10.6139 89.3464 10.647 89.2793 10.6777C89.1508 10.7364 89.0169 10.7983 88.8828 10.8486C88.5389 10.9745 88.2702 11.1931 88.0801 11.4951C88.0131 11.5986 88.0213 11.7554 88.0186 11.8867C88.0158 12.0179 88.0233 12.1068 87.8418 12.1348C87.6772 12.1601 87.5877 12.3168 87.5625 12.4844C87.5373 12.6297 87.5763 12.7536 87.7188 12.8291C87.7579 12.8487 87.7975 12.8794 87.8311 12.9102C87.9735 13.0359 87.9707 13.134 87.8086 13.2402C87.6381 13.3549 87.5461 13.5173 87.5293 13.7158C87.5238 13.78 87.5292 13.855 87.5625 13.9053C87.6911 14.0926 87.6549 14.2718 87.5684 14.4619C87.5348 14.5262 87.5236 14.6021 87.5068 14.6748C87.4901 14.7419 87.4812 14.8088 87.4561 14.873C87.4337 14.9289 87.4147 15.0045 87.4453 15.0576C87.4481 15.066 87.4812 15.105 87.498 15.1191C88.0992 15.3009 88.7397 15.3994 89.4023 15.3994C93.0321 15.3994 95.9718 12.4595 95.9746 8.8291C95.9746 5.20431 93.0351 2.26173 89.4082 2.26172Z" fill="url(#paint0_linear_359_1490)"/>
<path fill-rule="evenodd" clip-rule="evenodd" d="M74.4453 1.48047C75.5606 1.48051 76.4968 1.67399 77.2529 2.06152C78.0138 2.44908 78.5881 2.99295 78.9756 3.69238C79.3678 4.38711 79.5635 5.19775 79.5635 6.12402C79.5635 7.05513 79.3648 7.8635 78.9678 8.54883C78.5755 9.2293 77.997 9.75653 77.2314 10.1299C77.1416 10.1731 77.0487 10.2128 76.9541 10.251L80.0957 16H77.1602L74.3066 10.6826H71.6309V16H69V1.48047H74.4453ZM71.6309 8.49902H74.0547C74.7069 8.49902 75.2413 8.4091 75.6572 8.22949C76.0731 8.04516 76.3806 7.77846 76.5791 7.42871C76.7823 7.07423 76.8838 6.63919 76.8838 6.12402C76.8838 5.60899 76.7823 5.16953 76.5791 4.80566C76.3759 4.43702 76.0663 4.15781 75.6504 3.96875C75.2345 3.77498 74.6979 3.67872 74.041 3.67871H71.6309V8.49902Z" fill="#0346B8"/>
<path d="M108.634 11.3779H108.761V1.48047H111.377V16H109.038L102.196 6.11035H102.076V16H99.4453V1.48047H101.799L108.634 11.3779Z" fill="#0346B8"/>
<defs>
<linearGradient id="paint0_linear_359_1490" x1="83.7546" y1="14.4526" x2="95.0626" y2="3.14678" gradientUnits="userSpaceOnUse">
<stop stop-color="#00FF78"/>
<stop offset="0.1209" stop-color="#01D485"/>
<stop offset="0.2844" stop-color="#01A094"/>
<stop offset="0.4454" stop-color="#0276A1"/>
<stop offset="0.6004" stop-color="#0254AB"/>
<stop offset="0.7478" stop-color="#033CB2"/>
<stop offset="0.8845" stop-color="#032EB7"/>
<stop offset="1" stop-color="#0329B8"/>
</linearGradient>
</defs>
</svg>
