<?xml version="1.0" encoding="utf-8"?>
<!-- Generator: Adobe Illustrator 23.0.5, SVG Export Plug-In . SVG Version: 6.00 Build 0)  -->
<svg version="1.1" id="Layer_1" xmlns="http://www.w3.org/2000/svg" xmlns:xlink="http://www.w3.org/1999/xlink" x="0px" y="0px"
	 viewBox="0 0 258.8 100.2" style="enable-background:new 0 0 258.8 100.2;" xml:space="preserve">
<style type="text/css">
	.st0{fill:#FFFFFF;}
	.st1{fill:url(#SVGID_1_);}
	.st2{fill-rule:evenodd;clip-rule:evenodd;fill:#151616;}
</style>
<rect x="-1182" y="-216.1" class="st0" width="725.5" height="467.6"/>
<g>
	<linearGradient id="SVGID_1_" gradientUnits="userSpaceOnUse" x1="22.4634" y1="65.3607" x2="242.9153" y2="65.3607">
		<stop  offset="0" style="stop-color:#0247B8"/>
		<stop  offset="0.1855" style="stop-color:#024AB7"/>
		<stop  offset="0.3235" style="stop-color:#0253B4"/>
		<stop  offset="0.4463" style="stop-color:#0264AE"/>
		<stop  offset="0.5601" style="stop-color:#017AA6"/>
		<stop  offset="0.6678" style="stop-color:#01989B"/>
		<stop  offset="0.7709" style="stop-color:#01BC8E"/>
		<stop  offset="0.8686" style="stop-color:#00E67F"/>
		<stop  offset="0.8883" style="stop-color:#00EF7C"/>
		<stop  offset="0.8959" style="stop-color:#00EF7C"/>
		<stop  offset="0.9972" style="stop-color:#00EF7C"/>
	</linearGradient>
	<path class="st1" d="M90.6,86.9l-0.4,1.2h146.3l0.4-1.2H90.6z M214.6,75l-2.4,3.8h3L214.6,75z M214.6,75l-2.4,3.8h3L214.6,75z
		 M198.9,74.8c-0.2-0.1-0.6-0.2-1.2-0.2h-2.3l-0.6,2.6h1.1c1.1,0,1.8-0.1,2.2-0.2c0.4-0.1,0.6-0.3,0.9-0.6c0.2-0.3,0.3-0.6,0.3-0.8
		C199.3,75.2,199.2,74.9,198.9,74.8z M214.6,75l-2.4,3.8h3L214.6,75z M214.6,75l-2.4,3.8h3L214.6,75z M198.9,74.8
		c-0.2-0.1-0.6-0.2-1.2-0.2h-2.3l-0.6,2.6h1.1c1.1,0,1.8-0.1,2.2-0.2c0.4-0.1,0.6-0.3,0.9-0.6c0.2-0.3,0.3-0.6,0.3-0.8
		C199.3,75.2,199.2,74.9,198.9,74.8z M178.5,75c-0.1-0.1-0.3-0.3-0.4-0.3c-0.2-0.1-0.6-0.1-1.3-0.1h-1.5l-0.6,2.8h0.6
		c1.1,0,1.8-0.1,2.2-0.2c0.4-0.1,0.7-0.3,0.9-0.6c0.2-0.3,0.3-0.6,0.3-0.9C178.7,75.3,178.7,75.1,178.5,75z M188.5,75.1
		c-0.4-0.4-1-0.6-1.6-0.6c-1,0-1.8,0.4-2.4,1.3c-0.6,0.9-0.9,1.9-0.9,2.9c0,0.7,0.2,1.2,0.6,1.7s1,0.7,1.6,0.7
		c0.6,0,1.1-0.2,1.6-0.5c0.5-0.3,0.9-0.9,1.3-1.6c0.3-0.7,0.5-1.4,0.5-2.1C189.1,76.1,188.9,75.5,188.5,75.1z M198.9,74.8
		c-0.2-0.1-0.6-0.2-1.2-0.2h-2.3l-0.6,2.6h1.1c1.1,0,1.8-0.1,2.2-0.2c0.4-0.1,0.6-0.3,0.9-0.6c0.2-0.3,0.3-0.6,0.3-0.8
		C199.3,75.2,199.2,74.9,198.9,74.8z M214.6,75l-2.4,3.8h3L214.6,75z M214.6,75l-2.4,3.8h3L214.6,75z M198.9,74.8
		c-0.2-0.1-0.6-0.2-1.2-0.2h-2.3l-0.6,2.6h1.1c1.1,0,1.8-0.1,2.2-0.2c0.4-0.1,0.6-0.3,0.9-0.6c0.2-0.3,0.3-0.6,0.3-0.8
		C199.3,75.2,199.2,74.9,198.9,74.8z M188.5,75.1c-0.4-0.4-1-0.6-1.6-0.6c-1,0-1.8,0.4-2.4,1.3c-0.6,0.9-0.9,1.9-0.9,2.9
		c0,0.7,0.2,1.2,0.6,1.7s1,0.7,1.6,0.7c0.6,0,1.1-0.2,1.6-0.5c0.5-0.3,0.9-0.9,1.3-1.6c0.3-0.7,0.5-1.4,0.5-2.1
		C189.1,76.1,188.9,75.5,188.5,75.1z M178.5,75c-0.1-0.1-0.3-0.3-0.4-0.3c-0.2-0.1-0.6-0.1-1.3-0.1h-1.5l-0.6,2.8h0.6
		c1.1,0,1.8-0.1,2.2-0.2c0.4-0.1,0.7-0.3,0.9-0.6c0.2-0.3,0.3-0.6,0.3-0.9C178.7,75.3,178.7,75.1,178.5,75z M155.4,74.8
		c-0.2-0.1-0.6-0.2-1.2-0.2H152l-0.6,2.6h1.1c1.1,0,1.8-0.1,2.2-0.2c0.4-0.1,0.6-0.3,0.8-0.6c0.2-0.3,0.3-0.6,0.3-0.8
		C155.8,75.2,155.7,74.9,155.4,74.8z M163.9,75l-2.4,3.8h3L163.9,75z M178.5,75c-0.1-0.1-0.3-0.3-0.4-0.3c-0.2-0.1-0.6-0.1-1.3-0.1
		h-1.5l-0.6,2.8h0.6c1.1,0,1.8-0.1,2.2-0.2c0.4-0.1,0.7-0.3,0.9-0.6c0.2-0.3,0.3-0.6,0.3-0.9C178.7,75.3,178.7,75.1,178.5,75z
		 M188.5,75.1c-0.4-0.4-1-0.6-1.6-0.6c-1,0-1.8,0.4-2.4,1.3c-0.6,0.9-0.9,1.9-0.9,2.9c0,0.7,0.2,1.2,0.6,1.7s1,0.7,1.6,0.7
		c0.6,0,1.1-0.2,1.6-0.5c0.5-0.3,0.9-0.9,1.3-1.6c0.3-0.7,0.5-1.4,0.5-2.1C189.1,76.1,188.9,75.5,188.5,75.1z M198.9,74.8
		c-0.2-0.1-0.6-0.2-1.2-0.2h-2.3l-0.6,2.6h1.1c1.1,0,1.8-0.1,2.2-0.2c0.4-0.1,0.6-0.3,0.9-0.6c0.2-0.3,0.3-0.6,0.3-0.8
		C199.3,75.2,199.2,74.9,198.9,74.8z M214.6,75l-2.4,3.8h3L214.6,75z M214.6,75l-2.4,3.8h3L214.6,75z M198.9,74.8
		c-0.2-0.1-0.6-0.2-1.2-0.2h-2.3l-0.6,2.6h1.1c1.1,0,1.8-0.1,2.2-0.2c0.4-0.1,0.6-0.3,0.9-0.6c0.2-0.3,0.3-0.6,0.3-0.8
		C199.3,75.2,199.2,74.9,198.9,74.8z M188.5,75.1c-0.4-0.4-1-0.6-1.6-0.6c-1,0-1.8,0.4-2.4,1.3c-0.6,0.9-0.9,1.9-0.9,2.9
		c0,0.7,0.2,1.2,0.6,1.7s1,0.7,1.6,0.7c0.6,0,1.1-0.2,1.6-0.5c0.5-0.3,0.9-0.9,1.3-1.6c0.3-0.7,0.5-1.4,0.5-2.1
		C189.1,76.1,188.9,75.5,188.5,75.1z M178.5,75c-0.1-0.1-0.3-0.3-0.4-0.3c-0.2-0.1-0.6-0.1-1.3-0.1h-1.5l-0.6,2.8h0.6
		c1.1,0,1.8-0.1,2.2-0.2c0.4-0.1,0.7-0.3,0.9-0.6c0.2-0.3,0.3-0.6,0.3-0.9C178.7,75.3,178.7,75.1,178.5,75z M163.9,75l-2.4,3.8h3
		L163.9,75z M155.4,74.8c-0.2-0.1-0.6-0.2-1.2-0.2H152l-0.6,2.6h1.1c1.1,0,1.8-0.1,2.2-0.2c0.4-0.1,0.6-0.3,0.8-0.6
		c0.2-0.3,0.3-0.6,0.3-0.8C155.8,75.2,155.7,74.9,155.4,74.8z M155.4,74.8c-0.2-0.1-0.6-0.2-1.2-0.2H152l-0.6,2.6h1.1
		c1.1,0,1.8-0.1,2.2-0.2c0.4-0.1,0.6-0.3,0.8-0.6c0.2-0.3,0.3-0.6,0.3-0.8C155.8,75.2,155.7,74.9,155.4,74.8z M163.9,75l-2.4,3.8h3
		L163.9,75z M178.5,75c-0.1-0.1-0.3-0.3-0.4-0.3c-0.2-0.1-0.6-0.1-1.3-0.1h-1.5l-0.6,2.8h0.6c1.1,0,1.8-0.1,2.2-0.2
		c0.4-0.1,0.7-0.3,0.9-0.6c0.2-0.3,0.3-0.6,0.3-0.9C178.7,75.3,178.7,75.1,178.5,75z M188.5,75.1c-0.4-0.4-1-0.6-1.6-0.6
		c-1,0-1.8,0.4-2.4,1.3c-0.6,0.9-0.9,1.9-0.9,2.9c0,0.7,0.2,1.2,0.6,1.7s1,0.7,1.6,0.7c0.6,0,1.1-0.2,1.6-0.5
		c0.5-0.3,0.9-0.9,1.3-1.6c0.3-0.7,0.5-1.4,0.5-2.1C189.1,76.1,188.9,75.5,188.5,75.1z M198.9,74.8c-0.2-0.1-0.6-0.2-1.2-0.2h-2.3
		l-0.6,2.6h1.1c1.1,0,1.8-0.1,2.2-0.2c0.4-0.1,0.6-0.3,0.9-0.6c0.2-0.3,0.3-0.6,0.3-0.8C199.3,75.2,199.2,74.9,198.9,74.8z
		 M214.6,75l-2.4,3.8h3L214.6,75z M214.6,75l-2.4,3.8h3L214.6,75z M198.9,74.8c-0.2-0.1-0.6-0.2-1.2-0.2h-2.3l-0.6,2.6h1.1
		c1.1,0,1.8-0.1,2.2-0.2c0.4-0.1,0.6-0.3,0.9-0.6c0.2-0.3,0.3-0.6,0.3-0.8C199.3,75.2,199.2,74.9,198.9,74.8z M188.5,75.1
		c-0.4-0.4-1-0.6-1.6-0.6c-1,0-1.8,0.4-2.4,1.3c-0.6,0.9-0.9,1.9-0.9,2.9c0,0.7,0.2,1.2,0.6,1.7s1,0.7,1.6,0.7
		c0.6,0,1.1-0.2,1.6-0.5c0.5-0.3,0.9-0.9,1.3-1.6c0.3-0.7,0.5-1.4,0.5-2.1C189.1,76.1,188.9,75.5,188.5,75.1z M178.5,75
		c-0.1-0.1-0.3-0.3-0.4-0.3c-0.2-0.1-0.6-0.1-1.3-0.1h-1.5l-0.6,2.8h0.6c1.1,0,1.8-0.1,2.2-0.2c0.4-0.1,0.7-0.3,0.9-0.6
		c0.2-0.3,0.3-0.6,0.3-0.9C178.7,75.3,178.7,75.1,178.5,75z M163.9,75l-2.4,3.8h3L163.9,75z M155.4,74.8c-0.2-0.1-0.6-0.2-1.2-0.2
		H152l-0.6,2.6h1.1c1.1,0,1.8-0.1,2.2-0.2c0.4-0.1,0.6-0.3,0.8-0.6c0.2-0.3,0.3-0.6,0.3-0.8C155.8,75.2,155.7,74.9,155.4,74.8z
		 M115.5,75l-2.4,3.8h3L115.5,75z M155.4,74.8c-0.2-0.1-0.6-0.2-1.2-0.2H152l-0.6,2.6h1.1c1.1,0,1.8-0.1,2.2-0.2
		c0.4-0.1,0.6-0.3,0.8-0.6c0.2-0.3,0.3-0.6,0.3-0.8C155.8,75.2,155.7,74.9,155.4,74.8z M163.9,75l-2.4,3.8h3L163.9,75z M178.5,75
		c-0.1-0.1-0.3-0.3-0.4-0.3c-0.2-0.1-0.6-0.1-1.3-0.1h-1.5l-0.6,2.8h0.6c1.1,0,1.8-0.1,2.2-0.2c0.4-0.1,0.7-0.3,0.9-0.6
		c0.2-0.3,0.3-0.6,0.3-0.9C178.7,75.3,178.7,75.1,178.5,75z M188.5,75.1c-0.4-0.4-1-0.6-1.6-0.6c-1,0-1.8,0.4-2.4,1.3
		c-0.6,0.9-0.9,1.9-0.9,2.9c0,0.7,0.2,1.2,0.6,1.7s1,0.7,1.6,0.7c0.6,0,1.1-0.2,1.6-0.5c0.5-0.3,0.9-0.9,1.3-1.6
		c0.3-0.7,0.5-1.4,0.5-2.1C189.1,76.1,188.9,75.5,188.5,75.1z M198.9,74.8c-0.2-0.1-0.6-0.2-1.2-0.2h-2.3l-0.6,2.6h1.1
		c1.1,0,1.8-0.1,2.2-0.2c0.4-0.1,0.6-0.3,0.9-0.6c0.2-0.3,0.3-0.6,0.3-0.8C199.3,75.2,199.2,74.9,198.9,74.8z M214.6,75l-2.4,3.8h3
		L214.6,75z M214.6,75l-2.4,3.8h3L214.6,75z M198.9,74.8c-0.2-0.1-0.6-0.2-1.2-0.2h-2.3l-0.6,2.6h1.1c1.1,0,1.8-0.1,2.2-0.2
		c0.4-0.1,0.6-0.3,0.9-0.6c0.2-0.3,0.3-0.6,0.3-0.8C199.3,75.2,199.2,74.9,198.9,74.8z M188.5,75.1c-0.4-0.4-1-0.6-1.6-0.6
		c-1,0-1.8,0.4-2.4,1.3c-0.6,0.9-0.9,1.9-0.9,2.9c0,0.7,0.2,1.2,0.6,1.7s1,0.7,1.6,0.7c0.6,0,1.1-0.2,1.6-0.5
		c0.5-0.3,0.9-0.9,1.3-1.6c0.3-0.7,0.5-1.4,0.5-2.1C189.1,76.1,188.9,75.5,188.5,75.1z M178.5,75c-0.1-0.1-0.3-0.3-0.4-0.3
		c-0.2-0.1-0.6-0.1-1.3-0.1h-1.5l-0.6,2.8h0.6c1.1,0,1.8-0.1,2.2-0.2c0.4-0.1,0.7-0.3,0.9-0.6c0.2-0.3,0.3-0.6,0.3-0.9
		C178.7,75.3,178.7,75.1,178.5,75z M163.9,75l-2.4,3.8h3L163.9,75z M155.4,74.8c-0.2-0.1-0.6-0.2-1.2-0.2H152l-0.6,2.6h1.1
		c1.1,0,1.8-0.1,2.2-0.2c0.4-0.1,0.6-0.3,0.8-0.6c0.2-0.3,0.3-0.6,0.3-0.8C155.8,75.2,155.7,74.9,155.4,74.8z M115.5,75l-2.4,3.8h3
		L115.5,75z M96.1,68.8l-5.3,17.7h146.3l5.3-17.7H96.1z M116.7,82.5l-0.3-2.1h-3.9l-1.2,2.1h-2l0-0.1l0,0.1h-2.2l-2.5-4.5l-1.9,1.6
		l-0.6,2.9h-2.1l2.1-9.5h2.1l-0.9,4l4.6-4h2.7l-4.5,3.7l3.3,5.7l5.6-9.5h2.3l1.6,9.5H116.7z M128.8,77.5c-0.5,0.5-1.3,0.9-2.3,1
		c0.3,0.2,0.5,0.5,0.7,0.9c0.5,0.8,1,1.8,1.5,3.2h-2.2c-0.2-0.5-0.5-1.4-1-2.5c-0.3-0.6-0.6-1-0.9-1.2c-0.2-0.1-0.5-0.2-1-0.2h-0.8
		l-0.9,4h-2.1L122,73h4.4c0.8,0,1.3,0.1,1.8,0.2c0.4,0.2,0.8,0.4,1,0.8c0.3,0.4,0.4,0.9,0.4,1.5C129.6,76.3,129.3,77,128.8,77.5z
		 M134.6,82.5h-2l0.8-3.7l-2.7-5.8h2.2l1.2,2.7c0.3,0.7,0.5,1.1,0.6,1.4c0.2-0.3,0.4-0.6,0.6-0.9l1-1.3l1.4-1.9h2.4l-4.6,6
		L134.6,82.5z M147.3,76.8l-0.4,1.6h-5.1l-0.6,2.6h5.8l-0.3,1.6h-7.8L141,73h7.4l-0.4,1.6h-5.3l-0.5,2.2H147.3z M155.6,79.4
		c0.5,0.8,1,1.8,1.5,3.2h-2.2c-0.2-0.5-0.5-1.4-1-2.5c-0.3-0.6-0.6-1-0.9-1.2c-0.2-0.1-0.5-0.2-1-0.2h-0.8l-0.9,4h-2.1l2.1-9.5h4.4
		c0.8,0,1.4,0.1,1.8,0.2c0.4,0.2,0.8,0.4,1,0.8c0.3,0.4,0.4,0.9,0.4,1.5c0,0.8-0.3,1.5-0.8,2c-0.5,0.5-1.3,0.9-2.3,1
		C155.1,78.7,155.3,79,155.6,79.4z M165,82.5l-0.3-2.1h-3.9l-1.2,2.1h-2.1l5.6-9.5h2.3l1.6,9.5H165z M180.5,76.8
		c-0.2,0.5-0.4,0.8-0.7,1.1c-0.3,0.3-0.6,0.5-0.9,0.6c-0.3,0.1-0.8,0.3-1.3,0.3c-0.3,0-0.9,0.1-1.8,0.1h-1.3l-0.8,3.6h-2.1l2.1-9.5
		h4c0.7,0,1.3,0.1,1.7,0.3c0.4,0.2,0.8,0.4,1,0.8c0.3,0.4,0.4,0.8,0.4,1.3C180.8,75.9,180.7,76.3,180.5,76.8z M190.4,79.8
		c-0.5,0.9-1.2,1.7-2,2.2c-0.9,0.5-1.8,0.8-2.9,0.8c-0.9,0-1.7-0.2-2.3-0.6c-0.6-0.4-1.1-0.9-1.3-1.5c-0.3-0.6-0.4-1.2-0.4-1.8
		c0-0.6,0.1-1.1,0.3-1.8c0.2-0.8,0.6-1.6,1.1-2.2c0.5-0.6,1.1-1.1,1.8-1.5c0.7-0.4,1.5-0.5,2.5-0.5c1.2,0,2.2,0.4,3,1.1
		s1.1,1.7,1.1,2.9C191.2,77.9,190.9,78.8,190.4,79.8z M200.6,77.5c-0.5,0.5-1.3,0.9-2.3,1c0.3,0.2,0.5,0.5,0.7,0.9
		c0.5,0.8,1,1.8,1.5,3.2h-2.2c-0.2-0.5-0.5-1.4-1-2.5c-0.3-0.6-0.6-1-0.9-1.2c-0.2-0.1-0.5-0.2-1-0.2h-0.8l-0.9,4h-2l2.1-9.5h4.4
		c0.8,0,1.3,0.1,1.8,0.2c0.4,0.2,0.8,0.4,1,0.8c0.3,0.4,0.4,0.9,0.4,1.5C201.4,76.3,201.1,77,200.6,77.5z M205.8,82.5h-2l1.7-7.9
		h-2.9l0.3-1.6h7.8l-0.4,1.6h-2.9L205.8,82.5z M215.7,82.5l-0.3-2.1h-3.9l-1.2,2.1h-2.1l5.6-9.5h2.3l1.6,9.5H215.7z M226.1,82.5H219
		L221,73h2l-1.7,7.9h5.1L226.1,82.5z M229.4,82.5h-2.1l2.1-9.5h2L229.4,82.5z M212.2,78.8h3l-0.6-3.8L212.2,78.8z M198.9,74.8
		c-0.2-0.1-0.6-0.2-1.2-0.2h-2.3l-0.6,2.6h1.1c1.1,0,1.8-0.1,2.2-0.2c0.4-0.1,0.6-0.3,0.9-0.6c0.2-0.3,0.3-0.6,0.3-0.8
		C199.3,75.2,199.2,74.9,198.9,74.8z M186.9,74.5c-1,0-1.8,0.4-2.4,1.3c-0.6,0.9-0.9,1.9-0.9,2.9c0,0.7,0.2,1.2,0.6,1.7
		s1,0.7,1.6,0.7c0.6,0,1.1-0.2,1.6-0.5c0.5-0.3,0.9-0.9,1.3-1.6c0.3-0.7,0.5-1.4,0.5-2.1c0-0.8-0.2-1.3-0.6-1.8
		C188.1,74.7,187.5,74.5,186.9,74.5z M178.1,74.7c-0.2-0.1-0.6-0.1-1.3-0.1h-1.5l-0.6,2.8h0.6c1.1,0,1.8-0.1,2.2-0.2
		c0.4-0.1,0.7-0.3,0.9-0.6c0.2-0.3,0.3-0.6,0.3-0.9c0-0.2-0.1-0.4-0.2-0.6C178.4,74.8,178.3,74.7,178.1,74.7z M161.5,78.8h3
		l-0.6-3.8L161.5,78.8z M155.4,74.8c-0.2-0.1-0.6-0.2-1.2-0.2H152l-0.6,2.6h1.1c1.1,0,1.8-0.1,2.2-0.2c0.4-0.1,0.6-0.3,0.8-0.6
		c0.2-0.3,0.3-0.6,0.3-0.8C155.8,75.2,155.7,74.9,155.4,74.8z M127.1,74.8c-0.2-0.1-0.6-0.2-1.2-0.2h-2.3l-0.6,2.6h1.1
		c1.1,0,1.8-0.1,2.2-0.2c0.4-0.1,0.6-0.3,0.8-0.6c0.2-0.3,0.3-0.6,0.3-0.8C127.5,75.2,127.4,74.9,127.1,74.8z M113.1,78.8h3
		l-0.6-3.8L113.1,78.8z M155.4,74.8c-0.2-0.1-0.6-0.2-1.2-0.2H152l-0.6,2.6h1.1c1.1,0,1.8-0.1,2.2-0.2c0.4-0.1,0.6-0.3,0.8-0.6
		c0.2-0.3,0.3-0.6,0.3-0.8C155.8,75.2,155.7,74.9,155.4,74.8z M163.9,75l-2.4,3.8h3L163.9,75z M178.5,75c-0.1-0.1-0.3-0.3-0.4-0.3
		c-0.2-0.1-0.6-0.1-1.3-0.1h-1.5l-0.6,2.8h0.6c1.1,0,1.8-0.1,2.2-0.2c0.4-0.1,0.7-0.3,0.9-0.6c0.2-0.3,0.3-0.6,0.3-0.9
		C178.7,75.3,178.7,75.1,178.5,75z M188.5,75.1c-0.4-0.4-1-0.6-1.6-0.6c-1,0-1.8,0.4-2.4,1.3c-0.6,0.9-0.9,1.9-0.9,2.9
		c0,0.7,0.2,1.2,0.6,1.7s1,0.7,1.6,0.7c0.6,0,1.1-0.2,1.6-0.5c0.5-0.3,0.9-0.9,1.3-1.6c0.3-0.7,0.5-1.4,0.5-2.1
		C189.1,76.1,188.9,75.5,188.5,75.1z M198.9,74.8c-0.2-0.1-0.6-0.2-1.2-0.2h-2.3l-0.6,2.6h1.1c1.1,0,1.8-0.1,2.2-0.2
		c0.4-0.1,0.6-0.3,0.9-0.6c0.2-0.3,0.3-0.6,0.3-0.8C199.3,75.2,199.2,74.9,198.9,74.8z M214.6,75l-2.4,3.8h3L214.6,75z M214.6,75
		l-2.4,3.8h3L214.6,75z M198.9,74.8c-0.2-0.1-0.6-0.2-1.2-0.2h-2.3l-0.6,2.6h1.1c1.1,0,1.8-0.1,2.2-0.2c0.4-0.1,0.6-0.3,0.9-0.6
		c0.2-0.3,0.3-0.6,0.3-0.8C199.3,75.2,199.2,74.9,198.9,74.8z M188.5,75.1c-0.4-0.4-1-0.6-1.6-0.6c-1,0-1.8,0.4-2.4,1.3
		c-0.6,0.9-0.9,1.9-0.9,2.9c0,0.7,0.2,1.2,0.6,1.7s1,0.7,1.6,0.7c0.6,0,1.1-0.2,1.6-0.5c0.5-0.3,0.9-0.9,1.3-1.6
		c0.3-0.7,0.5-1.4,0.5-2.1C189.1,76.1,188.9,75.5,188.5,75.1z M178.5,75c-0.1-0.1-0.3-0.3-0.4-0.3c-0.2-0.1-0.6-0.1-1.3-0.1h-1.5
		l-0.6,2.8h0.6c1.1,0,1.8-0.1,2.2-0.2c0.4-0.1,0.7-0.3,0.9-0.6c0.2-0.3,0.3-0.6,0.3-0.9C178.7,75.3,178.7,75.1,178.5,75z M163.9,75
		l-2.4,3.8h3L163.9,75z M155.4,74.8c-0.2-0.1-0.6-0.2-1.2-0.2H152l-0.6,2.6h1.1c1.1,0,1.8-0.1,2.2-0.2c0.4-0.1,0.6-0.3,0.8-0.6
		c0.2-0.3,0.3-0.6,0.3-0.8C155.8,75.2,155.7,74.9,155.4,74.8z M155.4,74.8c-0.2-0.1-0.6-0.2-1.2-0.2H152l-0.6,2.6h1.1
		c1.1,0,1.8-0.1,2.2-0.2c0.4-0.1,0.6-0.3,0.8-0.6c0.2-0.3,0.3-0.6,0.3-0.8C155.8,75.2,155.7,74.9,155.4,74.8z M163.9,75l-2.4,3.8h3
		L163.9,75z M178.5,75c-0.1-0.1-0.3-0.3-0.4-0.3c-0.2-0.1-0.6-0.1-1.3-0.1h-1.5l-0.6,2.8h0.6c1.1,0,1.8-0.1,2.2-0.2
		c0.4-0.1,0.7-0.3,0.9-0.6c0.2-0.3,0.3-0.6,0.3-0.9C178.7,75.3,178.7,75.1,178.5,75z M188.5,75.1c-0.4-0.4-1-0.6-1.6-0.6
		c-1,0-1.8,0.4-2.4,1.3c-0.6,0.9-0.9,1.9-0.9,2.9c0,0.7,0.2,1.2,0.6,1.7s1,0.7,1.6,0.7c0.6,0,1.1-0.2,1.6-0.5
		c0.5-0.3,0.9-0.9,1.3-1.6c0.3-0.7,0.5-1.4,0.5-2.1C189.1,76.1,188.9,75.5,188.5,75.1z M198.9,74.8c-0.2-0.1-0.6-0.2-1.2-0.2h-2.3
		l-0.6,2.6h1.1c1.1,0,1.8-0.1,2.2-0.2c0.4-0.1,0.6-0.3,0.9-0.6c0.2-0.3,0.3-0.6,0.3-0.8C199.3,75.2,199.2,74.9,198.9,74.8z
		 M214.6,75l-2.4,3.8h3L214.6,75z M214.6,75l-2.4,3.8h3L214.6,75z M198.9,74.8c-0.2-0.1-0.6-0.2-1.2-0.2h-2.3l-0.6,2.6h1.1
		c1.1,0,1.8-0.1,2.2-0.2c0.4-0.1,0.6-0.3,0.9-0.6c0.2-0.3,0.3-0.6,0.3-0.8C199.3,75.2,199.2,74.9,198.9,74.8z M188.5,75.1
		c-0.4-0.4-1-0.6-1.6-0.6c-1,0-1.8,0.4-2.4,1.3c-0.6,0.9-0.9,1.9-0.9,2.9c0,0.7,0.2,1.2,0.6,1.7s1,0.7,1.6,0.7
		c0.6,0,1.1-0.2,1.6-0.5c0.5-0.3,0.9-0.9,1.3-1.6c0.3-0.7,0.5-1.4,0.5-2.1C189.1,76.1,188.9,75.5,188.5,75.1z M178.5,75
		c-0.1-0.1-0.3-0.3-0.4-0.3c-0.2-0.1-0.6-0.1-1.3-0.1h-1.5l-0.6,2.8h0.6c1.1,0,1.8-0.1,2.2-0.2c0.4-0.1,0.7-0.3,0.9-0.6
		c0.2-0.3,0.3-0.6,0.3-0.9C178.7,75.3,178.7,75.1,178.5,75z M163.9,75l-2.4,3.8h3L163.9,75z M155.4,74.8c-0.2-0.1-0.6-0.2-1.2-0.2
		H152l-0.6,2.6h1.1c1.1,0,1.8-0.1,2.2-0.2c0.4-0.1,0.6-0.3,0.8-0.6c0.2-0.3,0.3-0.6,0.3-0.8C155.8,75.2,155.7,74.9,155.4,74.8z
		 M163.9,75l-2.4,3.8h3L163.9,75z M178.5,75c-0.1-0.1-0.3-0.3-0.4-0.3c-0.2-0.1-0.6-0.1-1.3-0.1h-1.5l-0.6,2.8h0.6
		c1.1,0,1.8-0.1,2.2-0.2c0.4-0.1,0.7-0.3,0.9-0.6c0.2-0.3,0.3-0.6,0.3-0.9C178.7,75.3,178.7,75.1,178.5,75z M188.5,75.1
		c-0.4-0.4-1-0.6-1.6-0.6c-1,0-1.8,0.4-2.4,1.3c-0.6,0.9-0.9,1.9-0.9,2.9c0,0.7,0.2,1.2,0.6,1.7s1,0.7,1.6,0.7
		c0.6,0,1.1-0.2,1.6-0.5c0.5-0.3,0.9-0.9,1.3-1.6c0.3-0.7,0.5-1.4,0.5-2.1C189.1,76.1,188.9,75.5,188.5,75.1z M198.9,74.8
		c-0.2-0.1-0.6-0.2-1.2-0.2h-2.3l-0.6,2.6h1.1c1.1,0,1.8-0.1,2.2-0.2c0.4-0.1,0.6-0.3,0.9-0.6c0.2-0.3,0.3-0.6,0.3-0.8
		C199.3,75.2,199.2,74.9,198.9,74.8z M214.6,75l-2.4,3.8h3L214.6,75z M214.6,75l-2.4,3.8h3L214.6,75z M198.9,74.8
		c-0.2-0.1-0.6-0.2-1.2-0.2h-2.3l-0.6,2.6h1.1c1.1,0,1.8-0.1,2.2-0.2c0.4-0.1,0.6-0.3,0.9-0.6c0.2-0.3,0.3-0.6,0.3-0.8
		C199.3,75.2,199.2,74.9,198.9,74.8z M188.5,75.1c-0.4-0.4-1-0.6-1.6-0.6c-1,0-1.8,0.4-2.4,1.3c-0.6,0.9-0.9,1.9-0.9,2.9
		c0,0.7,0.2,1.2,0.6,1.7s1,0.7,1.6,0.7c0.6,0,1.1-0.2,1.6-0.5c0.5-0.3,0.9-0.9,1.3-1.6c0.3-0.7,0.5-1.4,0.5-2.1
		C189.1,76.1,188.9,75.5,188.5,75.1z M178.5,75c-0.1-0.1-0.3-0.3-0.4-0.3c-0.2-0.1-0.6-0.1-1.3-0.1h-1.5l-0.6,2.8h0.6
		c1.1,0,1.8-0.1,2.2-0.2c0.4-0.1,0.7-0.3,0.9-0.6c0.2-0.3,0.3-0.6,0.3-0.9C178.7,75.3,178.7,75.1,178.5,75z M163.9,75l-2.4,3.8h3
		L163.9,75z M188.5,75.1c-0.4-0.4-1-0.6-1.6-0.6c-1,0-1.8,0.4-2.4,1.3c-0.6,0.9-0.9,1.9-0.9,2.9c0,0.7,0.2,1.2,0.6,1.7
		s1,0.7,1.6,0.7c0.6,0,1.1-0.2,1.6-0.5c0.5-0.3,0.9-0.9,1.3-1.6c0.3-0.7,0.5-1.4,0.5-2.1C189.1,76.1,188.9,75.5,188.5,75.1z
		 M198.9,74.8c-0.2-0.1-0.6-0.2-1.2-0.2h-2.3l-0.6,2.6h1.1c1.1,0,1.8-0.1,2.2-0.2c0.4-0.1,0.6-0.3,0.9-0.6c0.2-0.3,0.3-0.6,0.3-0.8
		C199.3,75.2,199.2,74.9,198.9,74.8z M214.6,75l-2.4,3.8h3L214.6,75z M214.6,75l-2.4,3.8h3L214.6,75z M198.9,74.8
		c-0.2-0.1-0.6-0.2-1.2-0.2h-2.3l-0.6,2.6h1.1c1.1,0,1.8-0.1,2.2-0.2c0.4-0.1,0.6-0.3,0.9-0.6c0.2-0.3,0.3-0.6,0.3-0.8
		C199.3,75.2,199.2,74.9,198.9,74.8z M188.5,75.1c-0.4-0.4-1-0.6-1.6-0.6c-1,0-1.8,0.4-2.4,1.3c-0.6,0.9-0.9,1.9-0.9,2.9
		c0,0.7,0.2,1.2,0.6,1.7s1,0.7,1.6,0.7c0.6,0,1.1-0.2,1.6-0.5c0.5-0.3,0.9-0.9,1.3-1.6c0.3-0.7,0.5-1.4,0.5-2.1
		C189.1,76.1,188.9,75.5,188.5,75.1z M214.6,75l-2.4,3.8h3L214.6,75z M214.6,75l-2.4,3.8h3L214.6,75z M96.6,67.2l-0.4,1.2h146.3
		l0.4-1.2H96.6z M94.1,68.8H51.5c-5.2,0-9.9-2.2-13.3-5.7c-3.4-3.5-5.4-8.3-5.4-13.6c0-1.1,0.2-2.4,0.5-3.5c-0.6,0.5-1.2,1-1.8,1.6
		c-2,1.8-3.6,3.9-4.8,6.3c-1.6,3.1-2.5,6.6-2.6,10.2c-0.1,6.1,2.3,11.7,6.2,15.8c3.9,4,9.3,6.6,15.4,6.6h43.1l2.4-8.1h-1.5l0-0.9
		h1.7h0.1L94.1,68.8z M30.9,49.1L30.9,49.1l0.8,0.3l0,0c-0.2,0.5-0.5,1-0.7,1.5l-0.8-0.3C30.5,50.1,30.7,49.6,30.9,49.1z M29.7,52.3
		l0.8,0.2c-0.1,0.5-0.3,1-0.4,1.5l0,0.1L29.3,54C29.4,53.5,29.5,52.9,29.7,52.3z M29,55.8L29,55.8l0.8,0c-0.1,0.5-0.1,1.1-0.1,1.7
		l-0.8,0C28.9,56.9,28.9,56.4,29,55.8z M28.9,59.2l0.8-0.1c0,0.6,0.1,1.1,0.2,1.7L29.1,61C29,60.4,29,59.8,28.9,59.2z M29.9,64.3
		c-0.2-0.5-0.3-1.1-0.5-1.7v0l0.8-0.2v0c0.1,0.5,0.3,1.1,0.5,1.6L29.9,64.3z M31.3,67.5L31.3,67.5c-0.3-0.5-0.5-1-0.8-1.5l0.8-0.4
		c0.2,0.5,0.5,1,0.7,1.5L31.3,67.5z M33.2,70.4c-0.4-0.5-0.7-0.9-1-1.4l0.7-0.5c0.3,0.5,0.6,0.9,1,1.3L33.2,70.4z M35.6,72.9
		c-0.4-0.4-0.8-0.8-1.2-1.2l0,0l0.6-0.6c0.4,0.4,0.8,0.8,1.2,1.1L35.6,72.9z M38.3,74.9c-0.5-0.3-1-0.6-1.4-1l0.5-0.7
		c0.4,0.3,0.9,0.6,1.3,0.9L38.3,74.9z M41.3,76.5c-0.5-0.2-1-0.5-1.5-0.7l0.4-0.8c0.5,0.3,1,0.5,1.5,0.7L41.3,76.5z M44.5,77.6
		c-0.5-0.1-1.1-0.3-1.6-0.5l0.3-0.8c0.5,0.2,1,0.3,1.6,0.5L44.5,77.6z M47.9,78.2c-0.6-0.1-1.1-0.1-1.7-0.2l0.2-0.8
		c0.5,0.1,1.1,0.2,1.6,0.2L47.9,78.2z M51.3,78.3c-0.6,0-1.1,0-1.7,0l0-0.8c0.5,0,1.1,0,1.7,0L51.3,78.3z M54.6,78.3h-1.7l0-0.9h1.7
		L54.6,78.3z M58,78.3h-1.7l0-0.9H58L58,78.3z M61.3,78.3h-1.7l0-0.9h1.7L61.3,78.3z M64.6,78.3H63l0-0.9h1.7L64.6,78.3z M68,78.3
		h-1.7v-0.9H68L68,78.3z M71.3,78.3h-1.7l0-0.9h1.7L71.3,78.3z M74.7,78.3H73l0-0.9h1.7L74.7,78.3z M78,78.3h-1.7l0-0.9H78L78,78.3z
		 M81.4,78.3h-1.7l0-0.9h1.7V78.3z M84.7,78.3H83l0-0.9h1.7L84.7,78.3z M88.1,78.3h-1.7l0-0.9h1.7L88.1,78.3z M33.2,49.5
		c-0.1,5.2,2,9.9,5.3,13.3c3.3,3.4,7.9,5.5,13,5.5h42.7l0.4-1.3H51.5c-9.5,0-17.1-7.9-17-17.6c0-2.5,0.6-4.8,1.5-7
		c-7.9,3.9-13.4,12.1-13.5,21.6c-0.2,13.2,10.3,24,23.2,24h42.7l0.4-1.2h-43c-6.1,0-11.7-2.6-15.7-6.7c-4-4.1-6.4-9.8-6.3-16.1
		c0-3.7,1-7.3,2.6-10.4c1.6-3,3.7-5.6,6.4-7.7h0c0.2-0.2,0.4-0.3,0.6-0.5l0.3,0.2c-0.1,0.6-0.2,1.2-0.3,1.8
		C33.3,48.3,33.3,48.9,33.2,49.5z"/>
	<path class="st2" d="M63,52C63,52,63,52,63,52C63,52,63,52,63,52C63,52,63,52,63,52C63,52,62.9,52,63,52z"/>
	<path class="st2" d="M62.8,51C62.8,51,62.8,51,62.8,51C62.8,51,62.8,51,62.8,51C62.8,51,62.8,51,62.8,51c0,0.1,0,0.1,0,0.1
		C62.8,51.1,62.8,51.1,62.8,51C62.8,51,62.8,51,62.8,51C62.8,51,62.8,51,62.8,51z"/>
	<path class="st2" d="M63.8,53.4C63.8,53.4,63.8,53.4,63.8,53.4c0-0.1,0-0.1,0-0.1C63.8,53.3,63.8,53.3,63.8,53.4
		C63.7,53.3,63.7,53.3,63.8,53.4C63.8,53.4,63.8,53.4,63.8,53.4C63.8,53.4,63.8,53.4,63.8,53.4z"/>
	<path class="st2" d="M62.7,51.2C62.7,51.2,62.7,51.2,62.7,51.2C62.7,51.2,62.8,51.2,62.7,51.2C62.8,51.2,62.7,51.2,62.7,51.2
		C62.7,51.2,62.7,51.2,62.7,51.2z"/>
	<path class="st2" d="M63.6,53C63.6,53,63.6,53,63.6,53c0-0.1,0-0.1,0-0.1c0,0,0,0,0,0C63.5,52.9,63.5,52.9,63.6,53
		C63.5,53,63.6,53,63.6,53C63.6,53,63.6,53,63.6,53z"/>
	<polygon class="st2" points="63.3,52.7 63.3,52.7 63.3,52.7 	"/>
	<path class="st2" d="M60.8,51.5C60.8,51.5,60.8,51.5,60.8,51.5C60.8,51.6,60.8,51.6,60.8,51.5c-0.1,0.1,0,0.2-0.1,0.3
		c0,0.1,0,0.2,0.1,0.3c0,0,0.1,0.1,0.1,0.1c0.1,0,0.2-0.1,0.2-0.3C61,51.8,61,51.7,60.8,51.5C60.8,51.5,60.8,51.5,60.8,51.5z"/>
	<path class="st2" d="M62.7,51.4C62.7,51.4,62.7,51.4,62.7,51.4C62.7,51.4,62.8,51.4,62.7,51.4C62.7,51.4,62.7,51.4,62.7,51.4
		C62.7,51.4,62.7,51.4,62.7,51.4z"/>
	<path class="st2" d="M100,18.5h-5L82.8,40h4.6l2.6-4.8h8.6l0.7,4.8h4.2L100,18.5z M92,31.7l4.8-8.7l1.3,8.7H92z M122.3,28.8
		c1.4-0.5,2.4-1.1,3.1-2c0.7-0.9,1-1.9,1-3.1c0-0.9-0.2-1.7-0.6-2.4c-0.4-0.7-0.9-1.3-1.7-1.8s-1.6-0.7-2.7-0.9
		c-0.6-0.1-1.8-0.1-3.4-0.1h-7.4L106.1,40h10.2c2.3,0,4-0.3,5.3-0.8c1.3-0.5,2.3-1.4,3-2.5c0.7-1.2,1.1-2.4,1.1-3.7
		c0-1-0.3-1.9-0.9-2.6C124.2,29.7,123.4,29.1,122.3,28.8z M120.7,35.1c-0.4,0.5-0.9,0.9-1.5,1.1c-0.6,0.2-1.8,0.4-3.6,0.4h-4.3
		l1.2-5.6h5.3c1.2,0,2.1,0.2,2.6,0.7c0.5,0.5,0.8,1.1,0.8,1.8C121.2,34,121,34.6,120.7,35.1z M121.4,25.8c-0.3,0.5-0.8,0.9-1.5,1.1
		c-0.7,0.2-1.8,0.3-3.3,0.3h-3.4l1.1-5.1h3.5c1.2,0,2,0,2.4,0.1c0.6,0.1,1,0.4,1.3,0.7c0.3,0.3,0.5,0.8,0.5,1.3
		C122,24.8,121.8,25.3,121.4,25.8z M167.8,22.1l0.8-3.6h-16L148,40h16.8l0.8-3.6h-12.5l1.3-5.8h11.2l0.8-3.6h-11.2l1.1-4.9H167.8z
		 M189.2,24.1c0-1.3-0.3-2.4-0.8-3.3c-0.6-0.9-1.3-1.5-2.2-1.9c-0.9-0.3-2.2-0.5-3.8-0.5h-9.6L168.2,40h4.4l1.9-8.9h1.8
		c1.1,0,1.8,0.1,2.2,0.4c0.7,0.5,1.3,1.4,1.9,2.8c1.1,2.6,1.9,4.5,2.3,5.7h4.8c-1.2-3.1-2.3-5.5-3.3-7.1c-0.5-0.8-1-1.5-1.6-2
		c2.2-0.3,3.9-1,5-2.2C188.7,27.5,189.2,26,189.2,24.1z M184.1,26.1c-0.5,0.6-1.1,1.1-1.8,1.3c-0.8,0.3-2.4,0.4-4.7,0.4h-2.4
		l1.2-5.8h4.9c1.3,0,2.2,0.1,2.5,0.4c0.6,0.4,1,1,1,1.8C184.8,24.9,184.6,25.5,184.1,26.1z M209.8,20.6c-1.6-1.7-3.8-2.5-6.5-2.5
		c-2,0-3.8,0.4-5.3,1.2s-2.8,1.9-3.9,3.3c-1,1.4-1.8,3-2.3,4.9c-0.4,1.4-0.6,2.8-0.6,4c0,1.4,0.3,2.7,0.9,4.1
		c0.6,1.4,1.5,2.5,2.9,3.4c1.4,0.9,3.1,1.4,5.1,1.4c2.3,0,4.4-0.6,6.2-1.7c1.8-1.2,3.3-2.8,4.4-4.9c1.1-2.1,1.6-4.3,1.6-6.6
		C212.3,24.4,211.4,22.2,209.8,20.6z M206.8,31.9c-0.7,1.6-1.6,2.8-2.7,3.6c-1.1,0.8-2.3,1.2-3.4,1.2c-1.5,0-2.7-0.5-3.6-1.5
		c-0.9-1-1.3-2.3-1.3-3.7c0-2.4,0.7-4.6,2-6.7c1.4-2,3.1-3,5.3-3c1.4,0,2.6,0.5,3.5,1.4c0.9,1,1.4,2.3,1.4,4
		C207.8,28.8,207.5,30.3,206.8,31.9z M230.9,18.5l-3,14.4l-5.8-14.4H218L213.4,40h4.1l3-14.5l5.8,14.5h4.1l4.5-21.6H230.9z
		 M86.3,57.7l1.8-8.5H86l-2.2,10.3h7.3l0.4-1.7H86.3z M102,50.1c-0.8-0.8-1.8-1.2-3.1-1.2c-1,0-1.8,0.2-2.5,0.6
		c-0.7,0.4-1.4,0.9-1.8,1.6c-0.5,0.7-0.8,1.4-1.1,2.3c-0.2,0.7-0.3,1.3-0.3,1.9c0,0.7,0.1,1.3,0.4,2s0.7,1.2,1.4,1.6
		c0.7,0.4,1.5,0.7,2.4,0.7c1.1,0,2.1-0.3,3-0.8s1.6-1.3,2.1-2.3c0.5-1,0.8-2.1,0.8-3.1C103.1,52,102.7,50.9,102,50.1z M100.5,55.5
		c-0.3,0.8-0.8,1.3-1.3,1.7c-0.5,0.4-1.1,0.6-1.6,0.6c-0.7,0-1.3-0.2-1.7-0.7c-0.4-0.5-0.6-1.1-0.6-1.8c0-1.2,0.3-2.2,1-3.2
		c0.7-1,1.5-1.4,2.5-1.4c0.7,0,1.2,0.2,1.7,0.7c0.4,0.5,0.6,1.1,0.6,1.9C101,54,100.9,54.8,100.5,55.5z M108.9,55.6h2.7l-0.3,1.5
		c-0.3,0.2-0.8,0.3-1.2,0.5c-0.5,0.1-0.9,0.2-1.4,0.2c-0.8,0-1.3-0.2-1.7-0.6c-0.4-0.4-0.6-1.1-0.6-1.9c0-0.9,0.2-1.7,0.5-2.4
		c0.3-0.7,0.8-1.3,1.3-1.6c0.6-0.4,1.2-0.5,1.9-0.5c0.6,0,1.1,0.1,1.4,0.4c0.4,0.3,0.7,0.7,0.8,1.3l2-0.2c-0.2-1-0.7-1.8-1.4-2.4
		c-0.7-0.5-1.7-0.8-2.9-0.8c-1.2,0-2.2,0.3-3.1,0.9c-0.9,0.6-1.6,1.5-2,2.6c-0.4,0.9-0.6,1.9-0.6,2.9c0,1.5,0.5,2.6,1.4,3.4
		c0.7,0.6,1.7,0.9,2.9,0.9c0.8,0,1.6-0.1,2.4-0.4c0.8-0.2,1.5-0.5,2-0.9l0.9-4.4h-4.6L108.9,55.6z M116.8,49.1l-2.1,10.3h2.1
		l2.1-10.3H116.8z M117.4,46.4l-0.4,1.8h2l0.4-1.8H117.4z M124.2,53.2c-0.8-0.3-1.3-0.6-1.5-0.8c-0.2-0.2-0.3-0.4-0.3-0.7
		c0-0.3,0.1-0.6,0.4-0.8c0.3-0.2,0.7-0.3,1.3-0.3c0.6,0,1,0.1,1.3,0.4c0.3,0.3,0.5,0.6,0.5,1.1l2-0.1c-0.1-0.9-0.4-1.7-1.1-2.3
		c-0.7-0.6-1.6-0.8-2.8-0.8c-1.2,0-2.1,0.3-2.7,0.8c-0.6,0.6-0.9,1.3-0.9,2.2c0,0.5,0.1,0.9,0.3,1.3c0.2,0.4,0.5,0.7,0.9,0.9
		c0.4,0.2,0.9,0.5,1.7,0.9c0.8,0.3,1.3,0.6,1.5,0.8c0.3,0.2,0.4,0.5,0.4,0.8c0,0.4-0.1,0.7-0.5,0.9c-0.3,0.3-0.8,0.4-1.5,0.4
		c-0.8,0-1.4-0.2-1.7-0.5c-0.2-0.2-0.3-0.7-0.3-1.3l-2,0.1c0,0.7,0.1,1.3,0.4,1.8c0.3,0.5,0.7,0.9,1.4,1.2c0.7,0.3,1.4,0.4,2.3,0.4
		c1.3,0,2.3-0.3,3-1c0.7-0.6,1.1-1.4,1.1-2.3c0-0.7-0.2-1.3-0.7-1.8C126.1,54.2,125.3,53.8,124.2,53.2z M129.8,49.1l-0.3,1.7h3
		l-1.8,8.5h2.1l1.8-8.5h3l0.3-1.7H129.8z M139.1,49.1l-2.1,10.3h2.1l2.1-10.3H139.1z M139.6,46.4l-0.4,1.8h2l0.4-1.8H139.6z
		 M151.9,49.1h-2.8l-4.7,4.4l0.9-4.4h-2.1L141,59.4h2.1l0.6-3.1l2-1.8l2.5,4.9h2.3l0.1-0.1l-3.3-6.1L151.9,49.1z M158.7,49.1h-2.4
		l-5.7,10.2l0.1,0.1h2.1l1.2-2.3h4.1l0.3,2.3h2L158.7,49.1z M154.9,55.4l2.3-4.1l0.6,4.1H154.9z M173.8,49.1l-3.2,7l-0.3-7h-3
		l-2.1,10.3h1.9l1.6-8.6l0.4,8.6h2l3.8-8.5l-1.8,8.5h1.9l1.9-10.3H173.8z M186.2,50.2c-0.8-0.8-1.8-1.2-3.2-1.2
		c-1,0-1.9,0.3-2.7,0.8c-0.9,0.6-1.4,1.3-1.6,2.2l2,0.4c0.1-0.5,0.4-0.9,0.8-1.2c0.4-0.3,0.9-0.4,1.4-0.4c0.7,0,1.3,0.3,1.7,0.8
		c0.4,0.5,0.5,1.1,0.5,1.9h-7.2c-0.1,0.5-0.2,1.1-0.2,1.8c0,1.4,0.4,2.4,1.1,3.2c0.7,0.8,1.7,1.2,2.9,1.2c1.7,0,3.1-0.6,4.1-1.8
		c1-1.2,1.5-2.6,1.5-4.3C187.2,52,186.9,51,186.2,50.2z M183.8,57c-0.6,0.6-1.2,0.8-1.9,0.8c-0.7,0-1.2-0.2-1.5-0.6
		c-0.4-0.5-0.6-1.1-0.6-2h5.1C184.6,55.9,184.3,56.5,183.8,57z M197.8,51.8c0-0.6-0.1-1.1-0.4-1.6s-0.6-0.7-1.1-0.9
		c-0.4-0.2-1.1-0.3-1.8-0.3h-4.6l-2.1,10.3h2.1l0.9-4.2h0.9c0.5,0,0.8,0.1,1.1,0.2c0.3,0.2,0.6,0.7,0.9,1.3c0.5,1.2,0.9,2.1,1.1,2.7
		h2.3c-0.6-1.5-1.1-2.6-1.6-3.4c-0.2-0.4-0.5-0.7-0.8-1c1.1-0.1,1.9-0.5,2.4-1.1C197.5,53.4,197.8,52.7,197.8,51.8z M195.3,52.8
		c-0.2,0.3-0.5,0.5-0.9,0.6c-0.4,0.1-1.1,0.2-2.3,0.2h-1.1l0.6-2.8h2.3c0.6,0,1,0.1,1.2,0.2c0.3,0.2,0.5,0.5,0.5,0.8
		C195.7,52.2,195.5,52.5,195.3,52.8z M208.9,49.1h-2.8l-4.7,4.4l0.9-4.4h-2.1l-2.2,10.3h2.1l0.6-3.1l2-1.8l2.5,4.9h2.4l-3.4-6.2
		L208.9,49.1z M217.5,50.2c-0.8-0.8-1.8-1.2-3.2-1.2c-1,0-1.9,0.3-2.7,0.8c-0.9,0.6-1.4,1.3-1.6,2.2l2,0.4c0.1-0.5,0.4-0.9,0.8-1.2
		c0.4-0.3,0.9-0.4,1.4-0.4c0.7,0,1.3,0.3,1.7,0.8c0.4,0.5,0.5,1.1,0.5,1.9h-7.2c-0.1,0.5-0.2,1.1-0.2,1.8c0,1.4,0.4,2.4,1.1,3.2
		c0.7,0.8,1.7,1.2,2.9,1.2c1.7,0,3.1-0.6,4.1-1.8c1-1.2,1.5-2.6,1.5-4.3C218.6,52,218.2,51,217.5,50.2z M215.2,57
		c-0.6,0.6-1.2,0.8-1.9,0.8c-0.6,0-1.1-0.2-1.5-0.6c-0.4-0.5-0.6-1.1-0.6-2h5.1C216,55.9,215.6,56.5,215.2,57z M228.1,49.1h-7.4
		l-0.4,1.7h4.8l-5.9,6.9l-0.3,1.6h7.9l0.3-1.7h-2.4c-0.8,0-1.4,0-1.9,0c-0.1,0-0.5,0-1.1,0l6-7L228.1,49.1z M229.9,49.1l-2.1,10.3
		h2.1l2.1-10.3H229.9z M230.5,46.4l-0.4,1.8h2l0.4-1.8H230.5z"/>
	<path class="st2" d="M144.1,29.7c1,1,1.5,2.2,1.5,3.8c0,1.9-0.8,3.5-2.3,4.9c-1.5,1.4-3.6,2-6.3,2h-0.2c0.2,0.1,0.3,0.2,0.5,0.3
		c0.6,0.5,0.8,1,0.8,1.7c0,0.8-0.4,1.5-1.3,2.1c-1.2,0.9-2.9,1.3-5.1,1.3c-0.6,0-1.1,0-1.4-0.1l0.7-1.7l0.8,0c0.8,0,1.6-0.1,2.4-0.3
		c0.5-0.2,0.8-0.3,1-0.5c0.2-0.2,0.3-0.4,0.3-0.6c0-0.3-0.1-0.5-0.4-0.7s-0.7-0.3-1.3-0.3c-0.3,0-0.8,0-1.3,0.1l0.5-1.5
		c0.4-0.1,0.7-0.2,1-0.2c-0.6-0.1-1.2-0.4-1.8-0.6c-1.4-0.6-2.3-1.5-2.9-2.6c-0.6-1.1-0.8-2.4-0.8-3.8l4.2-0.2
		c0.1,1.3,0.3,2.2,0.7,2.7c0.6,0.8,1.8,1.1,3.6,1.1c1.5,0,2.5-0.3,3.2-0.8c0.6-0.5,1-1.2,1-1.9c0-0.6-0.3-1.2-0.8-1.6
		c-0.4-0.3-1.4-0.9-3.1-1.6c-1.7-0.7-2.9-1.3-3.7-1.8c-0.8-0.5-1.4-1.1-1.8-1.9c-0.4-0.8-0.7-1.7-0.7-2.7c0-1.8,0.7-3.3,2-4.5
		c1.3-1.2,3.2-1.8,5.7-1.8c2.5,0,4.5,0.6,5.9,1.8c1.4,1.2,2.2,2.8,2.3,4.7l-4.3,0.2c-0.1-1-0.5-1.8-1.1-2.4
		c-0.6-0.5-1.6-0.8-2.8-0.8c-1.2,0-2.1,0.2-2.6,0.7c-0.5,0.4-0.8,1-0.8,1.6c0,0.6,0.2,1.1,0.7,1.5c0.5,0.4,1.6,1,3.2,1.7
		C141.8,28.2,143.4,29.1,144.1,29.7z"/>
	<g>
		<g>
			<path class="st0" d="M109.1,82.5L109.1,82.5L109.1,82.5L109.1,82.5z"/>
			<path class="st0" d="M109.1,82.5L109.1,82.5L109.1,82.5L109.1,82.5z"/>
		</g>
	</g>
	<path class="st2" d="M51.7,46.8C51.7,46.8,51.7,46.8,51.7,46.8C51.6,46.8,51.6,46.8,51.7,46.8C51.6,46.8,51.6,46.8,51.7,46.8
		C51.6,46.9,51.6,46.9,51.7,46.8C51.6,46.9,51.7,46.9,51.7,46.8C51.7,46.9,51.7,46.9,51.7,46.8C51.7,46.8,51.7,46.8,51.7,46.8z"/>
	<path class="st2" d="M51.7,47C51.7,46.9,51.7,46.9,51.7,47C51.7,46.9,51.7,46.9,51.7,47C51.7,46.9,51.7,47,51.7,47z"/>
	<polygon class="st2" points="51.7,46.9 51.7,46.9 51.7,46.9 	"/>
	<path class="st2" d="M51.2,42.3C51.2,42.3,51.2,42.3,51.2,42.3C51.2,42.2,51.2,42.2,51.2,42.3C51.2,42.2,51.2,42.2,51.2,42.3
		C51.2,42.2,51.2,42.3,51.2,42.3C51.2,42.3,51.2,42.3,51.2,42.3C51.2,42.3,51.2,42.3,51.2,42.3z"/>
	<path class="st2" d="M51.6,42.6C51.6,42.6,51.6,42.6,51.6,42.6C51.6,42.6,51.6,42.6,51.6,42.6C51.6,42.6,51.6,42.6,51.6,42.6
		C51.6,42.6,51.6,42.6,51.6,42.6C51.6,42.6,51.6,42.6,51.6,42.6z"/>
	<path class="st2" d="M51.1,42.9L51.1,42.9C51.1,42.9,51.1,42.9,51.1,42.9L51.1,42.9L51.1,42.9L51.1,42.9z"/>
	<path class="st2" d="M51.5,42.8L51.5,42.8C51.5,42.8,51.5,42.8,51.5,42.8L51.5,42.8L51.5,42.8z"/>
	<path class="st2" d="M50.1,45.9C50.1,45.9,50.1,45.9,50.1,45.9L50.1,45.9L50.1,45.9C50.1,45.9,50.1,45.9,50.1,45.9z"/>
	<path class="st2" d="M65.5,44.1c-0.8-1.8-1.8-3.4-3.2-4.8c-1.4-1.3-3-2.4-4.8-3.2C55.9,35.4,54,35,52,35c-2,0-3.9,0.4-5.6,1.1
		c-1.8,0.7-3.4,1.8-4.8,3.2c-2.7,2.7-4.3,6.3-4.3,10.4c0,2,0.4,3.9,1.1,5.6c0.8,1.8,1.8,3.4,3.2,4.8c1.3,1.4,3,2.4,4.8,3.2
		c1.7,0.7,3.6,1.1,5.6,1.1c2,0,3.9-0.4,5.6-1.1c1.8-0.7,3.4-1.8,4.8-3.2c1.3-1.3,2.4-3,3.2-4.8c0.7-1.7,1.1-3.6,1.1-5.6
		S66.3,45.8,65.5,44.1z M62.9,43.6C62.9,43.6,62.9,43.6,62.9,43.6L62.9,43.6C62.9,43.7,62.9,43.7,62.9,43.6
		C62.9,43.7,62.9,43.7,62.9,43.6C62.9,43.6,62.9,43.6,62.9,43.6C62.9,43.6,62.9,43.6,62.9,43.6z M61.9,44.5
		C61.9,44.4,61.9,44.4,61.9,44.5C61.9,44.4,62,44.4,61.9,44.5L61.9,44.5C62,44.5,61.9,44.5,61.9,44.5L61.9,44.5z M61.9,43.9
		C61.9,43.9,61.9,43.9,61.9,43.9C61.9,43.9,61.9,43.9,61.9,43.9C61.9,44,61.9,44,61.9,43.9C61.9,44,61.8,44,61.9,43.9
		C61.8,44,61.8,43.9,61.9,43.9C61.8,43.9,61.8,43.9,61.9,43.9z M60.6,44.4C60.7,44.4,60.7,44.4,60.6,44.4c0.1,0.1,0.1,0.1,0.1,0.1
		c0,0,0.1,0,0.1,0c0,0,0,0,0,0s0,0,0,0c0,0,0,0-0.1,0c-0.1,0-0.1,0-0.2-0.1C60.6,44.5,60.6,44.5,60.6,44.4
		C60.6,44.4,60.6,44.4,60.6,44.4z M59.4,43.1L59.4,43.1C59.4,43.1,59.4,43.1,59.4,43.1C59.4,43.1,59.4,43.1,59.4,43.1
		C59.4,43.1,59.4,43.1,59.4,43.1C59.4,43.1,59.4,43.1,59.4,43.1z M59.3,45.1c0-0.1,0-0.1,0-0.1c0,0,0,0,0.1-0.1c0,0,0,0,0,0
		c0,0,0,0,0,0c0,0,0,0.1,0,0.1C59.4,45,59.4,45.1,59.3,45.1C59.4,45.1,59.4,45.2,59.3,45.1C59.3,45.2,59.3,45.1,59.3,45.1L59.3,45.1
		z M58.6,38.7C58.6,38.7,58.6,38.7,58.6,38.7C58.6,38.7,58.6,38.7,58.6,38.7C58.6,38.7,58.6,38.7,58.6,38.7
		C58.6,38.7,58.6,38.7,58.6,38.7C58.6,38.7,58.6,38.7,58.6,38.7z M58.5,46.1L58.5,46.1L58.5,46.1L58.5,46.1z M58.5,38.5L58.5,38.5
		C58.5,38.6,58.5,38.6,58.5,38.5L58.5,38.5L58.5,38.5C58.5,38.5,58.5,38.5,58.5,38.5C58.4,38.5,58.4,38.5,58.5,38.5L58.5,38.5z
		 M58.2,39.6L58.2,39.6C58.3,39.6,58.3,39.6,58.2,39.6C58.2,39.6,58.2,39.6,58.2,39.6C58.2,39.6,58.2,39.6,58.2,39.6z M58,39.3
		C58.1,39.3,58.1,39.3,58,39.3C58.1,39.3,58.1,39.3,58,39.3c0.1,0,0.1,0.1,0.2,0.1c0,0,0,0.1,0,0.1c0,0,0,0,0,0
		C58.1,39.4,58.1,39.4,58,39.3C58,39.3,58,39.3,58,39.3z M50.1,36.9C50.1,36.9,50.1,36.9,50.1,36.9C50.1,36.9,50.1,36.9,50.1,36.9
		C50.1,36.9,50.1,36.9,50.1,36.9L50.1,36.9z M45.3,39L45.3,39L45.3,39L45.3,39z M43.7,40.6C43.7,40.6,43.7,40.6,43.7,40.6
		C43.7,40.7,43.7,40.7,43.7,40.6C43.7,40.7,43.7,40.7,43.7,40.6C43.7,40.6,43.7,40.6,43.7,40.6z M43,41.5C43,41.5,43,41.5,43,41.5
		C43,41.5,43,41.5,43,41.5C43,41.5,43,41.5,43,41.5L43,41.5z M40.1,52.4C40.1,52.4,40.1,52.4,40.1,52.4L40.1,52.4
		C40.1,52.4,40.1,52.4,40.1,52.4C40.1,52.4,40.1,52.4,40.1,52.4z M41,53.9L41,53.9C41,53.9,41,53.9,41,53.9C41,53.8,41,53.8,41,53.9
		C41,53.8,41,53.8,41,53.9C41,53.8,41,53.9,41,53.9C41,53.9,41,53.9,41,53.9z M41,53.5C41,53.5,41,53.5,41,53.5
		C41,53.5,41,53.5,41,53.5L41,53.5C41,53.5,41,53.5,41,53.5L41,53.5z M64.5,52.8c0,0-0.1-0.1-0.1-0.1c0,0-0.1,0-0.1-0.1
		c0,0-0.1-0.1-0.1-0.1c-0.1-0.1-0.2-0.1-0.3-0.2c0,0-0.1-0.1-0.1-0.1c-0.1,0-0.2,0-0.2,0c0,0,0,0-0.1,0c0,0,0,0,0,0.1
		c0,0,0,0.1,0,0.1c0.1,0,0.1,0.1,0.2,0.1c0,0,0.1,0,0.1,0.1c0,0,0,0.1,0.1,0.1c0,0.1,0.1,0.1,0.1,0.2c0,0,0,0,0,0.1c0,0,0,0.1,0,0.1
		c0,0,0,0.1,0,0.1c0.1,0.1,0.1,0.2,0.2,0.2l0,0c-0.1,0.4-0.3,0.8-0.4,1.2c-0.7,1.6-1.6,3-2.8,4.2c-1.2,1.2-2.6,2.2-4.2,2.8
		c-1.5,0.6-3.2,1-4.9,1c-1.8,0-3.4-0.3-4.9-1c-1.6-0.7-3-1.6-4.2-2.8c-0.5-0.5-1-1.1-1.4-1.7l0,0c0.1-0.1,0.1-0.1,0.2-0.1
		c0,0,0.1,0,0.1-0.1s0.1,0,0.1-0.1c0,0,0,0,0,0c0,0,0.1,0,0.1,0c0,0,0.1,0,0.1,0c0.1,0,0.1,0,0.2-0.1c0,0,0.1,0,0.1-0.1
		c0,0,0,0,0-0.1c0,0,0-0.1,0-0.1c0-0.1,0.1-0.1,0.1-0.2c0-0.1,0.1-0.1,0-0.2c0,0,0-0.1,0-0.1c0.1-0.1,0.1-0.1,0.1-0.2v-0.3
		c0-0.1,0-0.1,0-0.2c0,0,0-0.1,0-0.1c0.1,0,0.1-0.1,0.2-0.2c0,0,0,0,0-0.1c0,0,0.1-0.1,0.1-0.1c0.1,0,0.1-0.1,0.2-0.1
		c0,0,0.1-0.1,0.1-0.2c0-0.1,0-0.2,0-0.3c0-0.1-0.1-0.2-0.1-0.3c0,0,0,0,0,0c0,0-0.1,0-0.1,0c-0.1,0-0.1,0-0.2-0.1
		c0,0-0.1,0-0.2-0.1c-0.1-0.1-0.1-0.1-0.2-0.2c0,0-0.1,0-0.1,0c-0.2,0-0.3,0-0.4-0.1c0,0,0,0-0.1,0c0,0,0,0-0.1,0c0,0,0,0,0,0
		c0,0,0-0.1,0-0.1c0,0,0-0.1,0-0.1c-0.1,0-0.2-0.1-0.2-0.1c-0.1,0-0.1,0-0.2,0c-0.1,0-0.1,0-0.1,0.1c0,0,0,0,0,0c0,0,0,0,0,0
		c0,0,0,0,0,0c0-0.1,0-0.1-0.1-0.1c-0.1,0-0.1,0-0.1,0c0,0,0,0,0,0c0,0-0.1,0-0.2,0c0,0,0,0-0.1,0c0,0,0,0,0,0c0,0,0,0,0.1,0
		c0,0,0,0,0,0c0,0,0,0,0,0c0,0-0.1,0-0.1,0c0,0,0,0,0,0c0,0,0,0,0,0c0,0,0.1-0.1,0.2-0.1c0,0,0-0.1,0-0.1c0,0,0-0.1,0-0.1
		c0,0,0-0.1-0.1-0.1c-0.1-0.1-0.1-0.1-0.1-0.2c0,0,0-0.1,0-0.1c-0.1-0.1-0.2-0.2-0.3-0.2c0,0,0,0-0.1,0c-0.1,0-0.1,0-0.2,0
		c-0.1,0-0.1,0-0.2,0c0,0,0,0-0.1,0c-0.1,0-0.1-0.1-0.2-0.1c0,0,0,0,0,0c0,0,0-0.1-0.1-0.1c0,0-0.1-0.1-0.1-0.1c0,0-0.1,0-0.1,0
		c0,0-0.1,0-0.1,0c0,0,0,0,0,0l0,0l0-0.2c0,0,0,0,0,0c0,0,0,0,0-0.1c-0.1-0.6-0.1-1.2-0.1-1.8c0-1.6,0.3-3,0.8-4.4l0,0
		c0,0,0,0,0.1,0c0,0,0,0,0,0c0,0,0,0,0-0.1c0,0,0,0,0,0c0.1-0.3,0.3-0.7,0.4-1c0,0,0,0,0.1,0c0,0,0.1,0,0.1,0c0.1,0,0.2,0,0.2-0.1
		c0,0,0.1-0.1,0-0.1c0,0,0-0.1,0-0.1c0,0,0,0,0-0.1s0,0,0,0c0,0-0.1-0.1-0.1-0.1c0,0,0,0,0,0c0.4-0.7,0.9-1.4,1.4-2
		c0,0,0,0.1,0.1,0.1c0,0,0,0.1,0,0.1v0c0,0,0.1,0,0.1,0.1c0.1,0,0.1,0,0.1,0.1c0,0,0,0,0,0c0,0,0.1,0,0.1,0c0,0,0,0,0.1,0
		c0,0,0.1,0,0.1,0c0,0.1,0,0.1,0.1,0.1c0,0,0,0,0,0.1c0,0,0,0,0,0c0.1,0,0.1,0,0.1,0c0,0,0.1,0,0.1,0c0-0.1,0-0.1,0.1-0.2
		c0-0.1,0-0.1,0.1-0.2c0,0,0-0.1,0-0.1c0,0,0-0.1,0-0.1c0,0,0.1,0,0.1-0.1c0-0.1,0.1-0.1,0.1-0.2c0.1,0,0.1-0.1,0.1-0.2
		c0,0,0,0,0-0.1c0,0,0,0,0,0c0,0,0,0,0,0c0,0,0,0,0,0c0,0,0,0,0,0c0,0,0.1,0,0.1,0c0,0,0-0.1,0.1-0.1c0.1,0,0.1,0,0.2,0
		c0,0,0,0,0.1,0c0,0,0,0,0,0c0.1,0,0.2,0,0.3-0.1c0,0,0,0,0,0c0.1,0,0.1,0,0.1-0.1c0-0.1,0.1-0.1,0.1-0.2c0-0.1,0.1-0.1,0.2-0.2
		c0.1,0,0.1,0,0.1,0c0,0,0,0,0.1,0c0,0,0,0,0.1,0c0,0,0.1,0,0.1,0c0.1,0,0.1,0,0.2-0.1c0.1,0,0.2-0.1,0.3-0.1
		c0.1-0.1,0.3-0.2,0.4-0.3c0,0,0,0,0,0s0,0,0,0c-0.1,0-0.2,0-0.2-0.1c-0.1,0-0.1,0-0.2,0c0,0,0,0,0,0s0,0,0,0c0,0,0,0,0,0
		c0,0,0.1,0,0.1,0c0,0,0.1,0,0.1-0.1s0-0.1,0-0.1c0,0,0,0,0,0c0,0,0,0,0,0c0,0.1,0.1,0.1,0.1,0.2c0,0,0.1,0.1,0.1,0.1h0.1
		c0.1,0,0.1,0,0.1-0.1v-0.2c0-0.1,0-0.1,0-0.2c0,0,0,0,0,0c0-0.1-0.1-0.1-0.1-0.2c0,0-0.1,0-0.1-0.1c0,0,0,0,0,0c0,0,0-0.1,0-0.1
		c0,0,0,0,0,0c0,0,0,0,0,0c0,0,0,0,0,0c0,0.1,0,0.1,0.1,0.2c0,0,0.1,0.1,0.1,0.1c0,0,0.1,0,0.1,0c0,0,0-0.1,0-0.1c0,0,0-0.1,0-0.1
		c0,0,0,0,0-0.1c0,0-0.1,0-0.1-0.1c0,0,0,0,0,0l0,0c0,0-0.1,0-0.1,0c0,0,0,0,0,0c0,0,0,0,0,0s0,0,0,0c0,0,0,0,0.1,0.1c0,0,0,0,0,0
		c0,0,0,0,0,0c0,0,0,0,0.1,0c0,0,0.1,0,0.1,0c0.1,0,0.1,0,0.1,0c0,0,0,0,0,0c0,0,0,0,0-0.1c0,0,0-0.1,0-0.1c0,0-0.1,0-0.1-0.1
		c0,0,0,0,0,0c0,0,0,0,0,0c0.1,0,0.1,0,0.2,0c0,0,0,0,0.1,0c0.1,0,0.1-0.1,0.1-0.1c0.2-0.1,0.4-0.2,0.7-0.3c0.9-0.4,1.9-0.7,3-0.8
		c0,0,0,0,0,0c0,0-0.1,0-0.1,0c0,0,0,0.1,0,0.1c0.1,0.1,0.1,0.2,0.2,0.2v0c0,0,0,0.1,0.1,0.1c0,0,0.1,0,0.1,0c0,0,0,0,0,0
		c0-0.1,0-0.2,0-0.3c0,0,0-0.1,0-0.1c0,0,0,0,0-0.1c0,0,0,0,0-0.1c0.1,0,0.2,0,0.3,0c0,0,0,0,0,0.1c0,0,0,0,0,0.1c0,0,0,0,0,0
		c0,0,0.1,0,0.1,0c0,0,0,0,0.1,0c0,0,0,0,0,0c0,0,0,0,0.1,0c0.1-0.1,0.1-0.1,0.1-0.2c0,0,0,0,0,0c0.3,0,0.6,0,0.9,0
		c1,0,2.1,0.1,3,0.3l0,0c0,0,0,0,0,0c0,0,0,0.1,0,0.1c0,0,0,0,0,0.1c0,0,0,0,0,0c0,0,0,0,0,0c0,0-0.1,0-0.1,0.1c0,0,0,0-0.1,0
		c0,0,0,0,0,0c0,0,0.1,0.1,0.1,0.1c0,0,0,0.1,0,0.2c0,0,0,0.1,0,0.1c0,0,0,0.1-0.1,0.1c0,0,0,0.1,0,0.1c0,0,0,0.1,0,0.1
		c0,0.1,0,0.1-0.1,0.2c0,0,0,0.1,0,0.1c0,0,0,0,0,0c0,0,0,0.1,0,0.1c0,0,0,0-0.1,0c0,0,0,0.1,0,0.1c0,0,0,0.1,0.1,0.1c0,0,0,0,0,0
		c0,0,0.1,0,0.1,0c0,0,0.1,0,0.1,0c0,0,0,0,0,0.1c0,0.1,0,0.1,0.1,0.1c0,0,0.1,0,0.1,0c0,0,0.1,0,0.1,0h0.1c0,0,0,0,0,0h0.1
		c0,0,0,0,0,0c0,0,0,0,0-0.1c0,0,0,0,0-0.1c0,0-0.1,0-0.1-0.1c-0.1-0.1-0.2-0.2-0.2-0.3c0-0.1,0-0.1,0-0.2c0-0.1,0-0.2,0-0.3
		c0,0,0-0.1,0.1-0.1c0,0,0,0,0-0.1c0-0.1,0-0.2,0-0.3c0,0,0-0.1,0-0.1c0.1,0,0.1-0.1,0.1-0.1c0-0.1,0.1-0.2,0.1-0.2l0,0
		c0.5,0.1,1,0.3,1.4,0.5c0.2,0.1,0.5,0.2,0.7,0.3c0,0,0,0,0,0.1c0,0,0,0,0,0s0,0,0.1,0c0,0,0,0,0,0c0,0,0,0,0,0c0,0,0,0,0,0.1
		c0,0,0,0,0,0c0,0-0.1,0-0.1,0c0,0,0,0-0.1,0c0,0-0.1,0-0.1,0c0,0,0,0,0,0c0,0.1,0.1,0.1,0.2,0.2c0,0,0.1,0,0.1,0c0,0,0,0,0.1,0
		c0,0,0,0,0,0c0,0,0,0,0,0c0,0-0.1,0-0.1,0c-0.1,0-0.1,0-0.2,0c0,0-0.1,0-0.1,0c0,0,0,0,0,0c0-0.1-0.1-0.1-0.1-0.2
		c0-0.1,0-0.1-0.1-0.2c0,0,0,0,0,0c0,0,0,0,0,0c0,0,0,0,0,0c0,0,0,0.1,0.1,0.1c0,0,0,0.1,0,0.1c0,0,0,0,0,0c0,0-0.1,0.1,0,0.1
		c0,0,0,0.1,0,0.1c0,0,0.1,0.1,0.1,0.1c0,0,0,0,0.1,0.1c0,0,0.1,0.1,0.1,0.1c0,0.1,0,0.1,0,0.2c0,0.1,0.1,0.2,0.1,0.3c0,0,0,0,0.1,0
		c0,0,0.1,0,0.1,0c0-0.1,0.1,0,0.1,0l0,0l0,0c0,0-0.1,0.1-0.2,0.1c-0.1,0-0.1,0.1,0,0.1c0,0,0.1,0,0.1,0.1c0,0,0,0.1,0,0.1
		c0,0.1,0,0.1,0,0.2c0,0,0,0.1,0,0.1c0,0.1-0.1,0.1-0.1,0.2c0,0,0,0,0,0c-0.1,0-0.2,0-0.2,0c0,0,0,0,0,0c0,0,0,0,0,0l0,0
		c0,0,0,0,0,0v0c0,0,0,0,0,0c0.1,0,0.1,0,0.1-0.1c0.1-0.1,0.1-0.2,0.1-0.3c0,0,0,0,0-0.1c0,0,0-0.1,0-0.2c0,0,0,0,0-0.1
		c0,0-0.1,0-0.1-0.1c0,0-0.1-0.1-0.1-0.1c-0.1-0.2-0.1-0.3-0.2-0.4c0-0.1-0.1-0.2-0.1-0.2c0,0-0.1-0.1-0.1-0.1c0-0.1,0-0.3-0.1-0.4
		c0,0,0,0-0.1-0.1c-0.1,0-0.2-0.1-0.3,0c0,0,0,0-0.1,0c0,0,0,0,0,0v0.1c0,0.1,0,0.2,0,0.3c0,0,0,0.1-0.1,0.1c0,0-0.1,0.1-0.1,0.2
		c0,0,0,0.1,0.1,0.1c0,0,0.1,0,0.1,0.1c0,0.1,0,0.1,0,0.2c0,0,0,0,0,0c0,0,0.1,0.1,0.1,0.1c0,0,0,0,0,0c0,0,0.1,0,0.1,0
		c0,0.1,0.1,0.1,0.2,0.1c0,0,0,0,0,0v0.1c0,0,0,0,0,0c0,0-0.1-0.1-0.1-0.1c0,0-0.1,0-0.1,0c-0.1,0-0.1,0-0.2-0.1c0,0-0.1,0-0.1,0
		c-0.1,0-0.1,0-0.1-0.1c-0.1,0-0.2-0.1-0.3,0h0c-0.1,0-0.2,0-0.3-0.1c0,0-0.1-0.1-0.1-0.1c0,0,0,0,0,0c0,0,0,0,0,0
		c0,0.1,0,0.1,0,0.1c0.1,0,0.1,0,0.2,0.1c0,0,0,0,0,0c0,0,0.1,0,0.1,0c0,0,0.1,0.1,0.1,0.1c0,0,0,0,0,0.1c0,0-0.1,0.1-0.1,0.1
		c0,0,0,0,0,0c0,0,0,0,0,0c0,0,0,0,0-0.1c0,0-0.1,0-0.1,0c-0.1,0-0.1,0.1-0.1,0c0,0,0,0,0,0c0,0-0.1,0.1-0.1,0.1c-0.1,0-0.1,0-0.1,0
		c0,0-0.1,0.1-0.1,0.1c0,0,0,0-0.1,0v0c0-0.1,0-0.1,0-0.1c0,0-0.1,0-0.1,0c0,0,0,0,0,0c0,0-0.1,0-0.1,0c0,0-0.1,0-0.1,0
		c-0.1,0-0.1,0-0.1,0.1c-0.1,0.1-0.1,0.2-0.2,0.2c0,0,0,0,0,0.1c0,0,0,0.1,0,0.1c0,0,0,0,0,0c0,0-0.2,0.1-0.2,0c0,0-0.1-0.1-0.1-0.1
		c0,0,0-0.1,0-0.1c0,0,0.1,0,0.1-0.1c0,0,0,0,0-0.1c0,0-0.1,0-0.1-0.1c0-0.1-0.1-0.1-0.2-0.1c-0.1,0-0.1,0-0.1,0c0,0,0,0,0,0
		c0,0,0,0,0,0C54,40,54,40,54,40.1v0.1c0,0,0,0,0,0.1c0.1,0,0.1,0.1,0.1,0.1v0.1c0,0,0,0.1-0.1,0c0,0-0.1,0-0.1,0
		c-0.1,0-0.1,0-0.1,0c0,0,0,0-0.1,0.1c0,0-0.1,0.1-0.1,0.1c-0.1,0.1-0.1,0.1,0,0.2c0,0,0,0,0,0c0,0,0,0,0,0.1c0,0,0,0-0.1,0
		c-0.1-0.1-0.2-0.1-0.3-0.1c0,0,0,0-0.1,0c0,0,0,0,0,0c0,0,0,0,0,0.1c0,0,0,0.1,0,0.1c0,0,0.1,0.1,0.2,0.1c0,0,0,0,0,0c0,0,0,0,0,0
		c0,0,0,0.1-0.1,0.1c-0.1,0-0.1,0-0.2-0.1c0,0-0.1,0-0.1,0c0,0,0,0-0.1,0c0,0,0-0.1-0.1-0.2c0,0,0-0.1,0-0.1c0-0.1,0-0.2-0.1-0.2
		c0,0-0.1,0-0.1-0.1c0,0-0.1,0-0.1-0.1c0,0,0.1,0,0.2,0c0.1,0,0.3,0.1,0.4,0.1c0.1,0,0.2,0,0.3,0c0,0,0,0,0,0
		c0.1-0.1,0.1-0.1,0.1-0.2c0,0,0-0.1,0-0.1c0,0-0.1-0.1-0.1-0.2c0,0-0.1,0-0.1-0.1c0,0-0.1,0-0.1,0c-0.1,0-0.1,0-0.2-0.1
		c0,0-0.1-0.1-0.2-0.1c-0.2-0.1-0.2-0.1-0.4-0.1c0,0-0.1,0-0.1,0c0,0-0.1,0-0.1,0c0,0,0,0,0,0c0,0,0,0,0,0c0,0,0,0-0.1,0
		c0,0,0,0-0.1,0c0,0-0.1,0-0.1,0c0,0-0.1,0-0.1,0c0,0,0,0,0,0c0,0,0,0,0,0c0,0,0,0,0,0c0,0,0.1,0,0.1,0c0,0,0,0,0.1-0.1
		c0,0,0,0,0-0.1c-0.1,0-0.2-0.1-0.3-0.1c0,0,0,0-0.1,0c0,0,0,0,0,0s0,0,0,0c0,0,0,0,0,0v-0.1c0,0,0-0.1,0-0.1c0,0-0.1,0-0.1,0
		c0,0,0,0,0,0.1c0,0,0,0,0,0c0,0,0,0,0,0l0,0c0,0,0-0.1-0.1-0.1c0,0,0,0,0,0c0,0-0.1-0.1-0.1,0c0,0-0.1,0-0.1,0.1c0,0-0.1,0-0.1,0.1
		c0,0,0,0,0,0v0c0,0,0,0,0,0c-0.1,0-0.1,0-0.1,0.1c0,0,0,0,0,0c-0.1,0-0.1,0-0.2,0.1v0c0,0,0,0,0,0c0,0,0,0,0,0c0,0-0.1,0-0.1,0v0
		c0,0,0,0,0,0c0,0,0,0,0,0c0,0,0,0,0,0.1c-0.1,0-0.1,0-0.1,0.1c0,0,0,0,0,0c0,0,0,0,0,0h0c0,0-0.1,0-0.1,0c0,0,0,0.1,0,0.1
		c0,0,0,0,0,0s0,0,0,0c0,0,0,0-0.1,0c0,0-0.1,0-0.1,0c0,0,0,0,0,0c0,0,0-0.1,0-0.1c0,0,0,0,0,0s0,0,0,0c0,0-0.1,0.1-0.1,0.1
		c0,0,0,0,0,0c0,0,0,0.1,0,0.1c0,0,0,0,0,0c0,0,0,0,0,0c0,0,0,0,0.1,0c0,0,0.1,0,0.1,0c0,0,0,0,0.1,0c0,0,0,0,0,0c0,0,0,0,0,0
		c0,0-0.1,0-0.1,0c0,0,0,0,0,0c0,0,0,0,0,0.1c0,0,0,0,0,0c0,0,0,0,0,0.1c0,0,0,0,0,0c0,0,0,0,0,0c0,0,0,0.1,0,0.1c0,0-0.1,0-0.1,0.1
		c0,0,0,0.1,0,0.1c0,0,0,0.1,0,0.1c0,0,0,0,0,0c0,0,0,0.1,0,0.1c0,0,0,0.1,0,0.1c0,0,0,0-0.1,0c0,0,0,0-0.1,0c0,0,0,0,0,0
		c0,0,0,0.1,0,0.1c-0.1,0-0.1,0.1-0.1,0.2c0,0,0,0,0,0c0,0,0,0-0.1,0c0,0-0.1,0-0.1,0c0,0,0,0,0,0c0,0,0,0,0,0c0,0,0,0,0,0
		c0,0,0,0,0,0c-0.1,0-0.1,0.1-0.2,0.1c0,0-0.1,0.1-0.1,0.1c0,0,0,0,0,0c0,0,0,0.1-0.1,0.1c0,0-0.1,0-0.1,0c0,0,0,0,0,0
		c0,0,0,0.1,0,0.1c0,0.1,0,0.1,0,0.2c0,0,0,0,0,0c0,0,0,0.1,0.1,0.1c0,0,0,0.1,0,0.1c0,0,0,0,0,0c0,0,0,0-0.1,0.1c0,0,0,0,0,0
		c0,0,0,0,0.1,0c0,0,0,0,0,0c0,0,0,0-0.1,0.1c0,0,0,0.1,0,0.1c0.1,0.1,0.1,0.1,0.2,0.1c0,0,0,0,0,0c0.1,0,0.2,0,0.2-0.1
		c0,0,0-0.1,0.1-0.1c0.1,0,0.1,0,0.2-0.1h0c0,0,0,0,0.1,0.1c0,0,0,0.1,0,0.1c0,0,0,0.1,0,0.1c0,0.1,0,0.1,0.1,0.2
		c0,0,0.1,0.1,0.1,0.2c0,0,0,0,0,0c0,0,0,0,0,0.1c0,0,0,0,0,0v0c0,0,0,0,0,0c0,0.1,0.1,0.1,0.2,0.1c0,0,0,0,0,0c0,0,0-0.1,0.1-0.1
		c0,0,0,0,0.1,0c0,0,0.1,0,0.1-0.1c0.1,0,0.1-0.1,0.1-0.1v0c0,0,0,0,0,0h0c0,0,0,0,0,0c0-0.1,0-0.1,0-0.2c0,0,0-0.1,0-0.1
		c0,0,0-0.1,0.1-0.1c0,0,0.1,0,0.1-0.1c0,0,0.1-0.1,0.1-0.1c0,0,0,0,0-0.1s0,0,0-0.1c0-0.1-0.1-0.1-0.2-0.2c0,0-0.1,0-0.1-0.1v-0.3
		c0,0,0,0,0-0.1c0.1-0.1,0.1-0.2,0.2-0.2c0,0,0.1-0.1,0.1-0.1c0.1-0.1,0.1-0.1,0.1-0.2c0,0,0-0.1,0-0.1c0-0.1,0-0.2,0-0.2
		c0-0.1,0.1-0.1,0.2-0.1c0.1,0,0.2,0,0.3,0c0,0,0,0.1,0,0.1c0,0,0,0,0,0.1c0,0,0,0,0,0.1c-0.1,0.1-0.1,0.2-0.2,0.3c0,0,0,0-0.1,0.1
		c0,0,0,0.1-0.1,0c0,0,0,0,0,0c0,0,0,0.1,0,0.1c0,0,0,0,0,0.1c0,0,0,0,0,0.1c0,0.1,0.1,0.2,0,0.3c0,0,0,0,0,0.1c0,0,0,0.1,0.1,0.1
		c0,0,0,0,0.1,0c0,0,0,0,0,0c0.1,0,0.1,0,0.1,0c0,0,0.1,0.1,0.1,0c0,0,0.1,0,0.1,0c0.1-0.1,0.2-0.1,0.4-0.1c0,0,0.1,0,0.1,0
		c0,0,0,0,0,0c0,0.1,0.1,0,0.1,0.1l0,0c0,0,0,0,0,0c0,0,0,0-0.1,0c0,0-0.1,0-0.1,0.1c0,0.1-0.1,0.1-0.2,0c0,0-0.1,0-0.1,0H52
		c-0.1,0-0.1,0-0.2,0.1c-0.1,0-0.1,0.1-0.1,0.1c0,0,0,0-0.1,0.1c0,0-0.1,0-0.1,0c-0.1,0-0.1,0,0,0.1v0h0c0.1,0,0.1,0,0.1-0.1
		c0,0,0,0,0.1,0c0,0,0,0,0.1,0s0,0,0,0c0,0.1,0,0.1,0,0.2c0,0,0,0,0,0.1s0,0-0.1,0c0,0-0.1-0.1-0.1-0.1c0,0,0,0-0.1,0
		c-0.1,0-0.1,0-0.1,0.1c0,0,0,0.1,0,0.1c0,0,0,0.1,0,0.1l0,0.2c0,0,0,0,0,0c0,0,0,0-0.1,0c0,0,0,0-0.1,0.1c0,0.1-0.1,0.1-0.1,0
		c0,0,0,0,0,0c0,0-0.1,0-0.1,0c-0.1,0-0.1,0-0.2,0.1c-0.1,0-0.2,0.1-0.2,0.1c0,0,0,0-0.1,0.1c0,0,0,0-0.1,0l-0.1-0.1c0,0,0,0,0-0.1
		c0,0,0,0,0,0c0,0-0.1,0-0.1,0c-0.1,0-0.1,0-0.2,0.1c0,0,0,0,0,0c0,0,0-0.1-0.1-0.1c0,0-0.1,0-0.1,0c0,0,0,0,0-0.1c0,0,0,0,0,0
		s0,0,0,0c0.1,0,0.1,0,0.2,0.1s0.1,0,0.1,0c0-0.1,0.1-0.2,0-0.2c0,0,0,0,0,0c0,0,0,0,0,0c0,0-0.1,0-0.1,0.1c0,0,0,0.1,0,0.1
		c0,0,0,0,0,0.1c0,0,0,0,0,0c0,0,0,0,0,0c0,0,0,0,0,0c-0.1,0-0.1-0.1-0.1-0.1c0,0,0,0,0,0c0,0,0-0.1,0.1-0.1c0,0,0,0,0,0
		c0,0,0,0,0,0c-0.1,0-0.1-0.1,0-0.1c0,0,0-0.1,0-0.1c0,0,0,0,0,0c0,0,0,0,0,0c-0.1,0-0.1,0.1-0.2,0.1c0,0,0,0,0,0
		c0,0.1-0.1,0.1,0,0.2c0,0,0,0,0,0c0,0,0,0,0,0.1c0,0,0,0,0,0c0,0.1,0,0.2,0,0.2c0,0,0,0.1-0.1,0.1c-0.1,0-0.1,0-0.1,0
		c0,0-0.1,0-0.1,0c-0.1,0-0.1,0-0.2,0.1c0,0-0.1,0.1-0.1,0.1c-0.1,0.2-0.1,0.2-0.2,0.3c0,0-0.1,0-0.1,0.1c0,0,0,0,0,0
		c0,0,0,0.1,0,0.1c0,0,0,0.1-0.1,0.1c0,0,0,0,0,0c0,0-0.1,0-0.1,0.1c0,0-0.1,0-0.1,0c0,0-0.1,0-0.1,0c0,0,0,0-0.1,0c0,0,0,0,0,0
		c0,0,0,0.1,0,0.1c0,0,0,0,0,0c-0.1,0-0.1,0-0.1,0c0,0,0,0-0.1,0c-0.1,0-0.1,0-0.2,0c0,0,0,0,0,0c0,0.1,0,0.1,0.1,0.1
		c0,0,0.1,0,0.1,0c0.1,0,0.1,0,0.1,0.1c0,0.1,0.1,0.1,0.1,0.1c0,0,0,0,0,0.1c0,0.1,0,0.2,0,0.3c0,0,0,0.1,0,0.1c0,0-0.1,0.1-0.1,0
		c-0.1,0-0.1,0-0.2,0c0,0,0,0-0.1,0c-0.1,0-0.1,0-0.2,0c-0.1,0-0.1,0-0.2,0c0,0,0,0-0.1,0c-0.1,0-0.2,0-0.2,0c0,0,0,0-0.1,0
		c0,0,0,0,0,0c0,0,0,0,0,0.1c0,0.1,0.1,0.1,0,0.2c0,0,0,0,0,0c0,0.1,0,0.3-0.1,0.4c0,0,0,0.1,0,0.1c0,0,0,0.1,0,0.1
		c0,0.1,0.1,0.1,0.1,0.2v0c0,0,0,0,0,0c0,0,0.1,0,0.1,0c0,0,0,0,0.1,0s0.1,0,0.1,0c0,0,0,0.1,0.1,0.1c0,0,0.1,0,0.1,0
		c0,0,0.1,0,0.1,0c0.1,0,0.1-0.1,0.2-0.1c0.1,0,0.1,0,0.2,0c0,0,0.1,0,0.1,0c0,0,0.1-0.1,0.1-0.1s0.1,0,0.1-0.1c0,0,0-0.1,0.1-0.1
		c0,0,0-0.1,0-0.1c-0.1-0.1,0-0.2,0-0.2c0,0,0,0,0-0.1c0,0,0.1-0.1,0.2-0.1c0.1,0,0.1-0.1,0.1-0.2c0,0,0-0.1,0-0.1c0,0,0,0,0-0.1
		c0,0,0.1-0.1,0.1-0.1c0.1,0,0.2,0,0.3,0.1c0,0,0.1,0,0.1,0c0.1-0.1,0.1-0.1,0.2-0.1c0,0,0,0,0.1-0.1c0.1,0,0.1,0,0.2,0
		c0.1,0,0.1,0,0.1,0.1c0,0,0,0.1,0.1,0.1c0.1,0.1,0.2,0.1,0.2,0.2c0.1,0.1,0.1,0.1,0.2,0.1c0.1,0,0.2,0.1,0.2,0.1
		c0,0.1,0.1,0.1,0.1,0.1c0,0,0,0,0,0c0,0,0,0.1,0,0.2c0,0,0,0,0,0c0,0.1,0,0.1-0.1,0.1c-0.1,0-0.2,0-0.3,0c0,0,0,0,0,0s0,0,0,0v0
		c0,0,0.1,0,0.1,0.1c0.1,0,0.2,0.1,0.2,0.1c0,0,0.1,0,0.1,0c0,0,0,0,0,0V47c0,0,0-0.1,0.1-0.1c0,0,0.1,0,0.1,0
		c0-0.1,0.1-0.1,0.1-0.2c0,0,0-0.1,0-0.1c0,0,0,0,0,0v-0.1c0,0,0.1,0,0.1,0c0,0,0,0,0.1,0.1c0,0,0,0,0,0c0,0,0-0.1,0-0.1
		c-0.1-0.1-0.2-0.1-0.3-0.2c0,0,0,0,0-0.1c0,0,0,0,0,0c0,0-0.1,0-0.1,0c-0.1,0-0.1,0-0.1-0.1c0,0-0.1-0.1-0.1-0.1
		c0-0.1-0.1-0.1-0.1-0.2c0,0-0.1,0-0.1-0.1c0,0,0-0.1,0-0.1v-0.1c0,0,0,0,0,0c0,0,0.1,0,0.1,0c0,0,0,0,0,0c0,0,0,0.1,0,0.1
		c0,0,0,0.1,0.1,0.1c0,0,0.1,0,0.1,0c0,0,0.1,0,0.1,0c0,0.1,0.1,0.1,0.2,0.2c0,0,0.1,0.1,0.2,0.1c0,0,0.1,0.1,0.1,0.1
		c0,0,0.1,0,0.1,0.1c0,0,0.1,0.1,0.1,0.1c0,0,0,0,0,0.1v0.1c0,0.1,0,0.1,0.1,0.2c0,0,0,0,0,0c0,0.1,0,0.1,0.1,0.1c0,0,0.1,0,0.1,0.1
		c0,0.1,0.1,0.1,0.1,0.1c0,0,0,0,0,0c0,0,0,0,0,0c0,0,0,0,0,0v0c0,0,0.1,0.1,0.1,0.1c0,0,0,0,0,0c0.1,0,0.1,0,0.1,0c0,0,0,0,0,0
		c0-0.1,0-0.1,0-0.2l0,0c0.1,0,0.1,0,0.1,0c0,0,0,0,0,0c0,0,0-0.1-0.1-0.1c0,0-0.1,0-0.1,0c0-0.1-0.1-0.1-0.1-0.2c0,0,0,0,0,0l0,0
		c0,0,0,0,0,0s0,0,0,0c0.1,0,0.1,0,0.1,0c0,0,0,0,0-0.1c0,0,0,0,0,0c0,0,0,0,0.1,0c0,0,0.1,0,0.1,0c0.1,0,0.1,0,0.1,0.1
		c0,0.1,0,0.2,0,0.2c0,0,0,0,0,0h0.1c0,0,0,0,0,0l0,0v0c0,0-0.1,0-0.1,0c0,0,0,0,0,0c0,0,0,0,0,0s0,0,0.1,0s0,0,0.1,0c0,0,0,0,0,0.1
		c0,0,0.1,0,0.1,0.1c0,0,0,0.1,0.1,0.1c0,0,0,0,0.1,0c0.1,0,0.1,0,0.1,0c0,0,0,0,0.1,0c0,0,0,0,0,0c0.1,0,0.1,0,0.2-0.1
		c0,0,0.1,0,0.1,0c0,0,0.1,0,0.1,0.1c0,0,0.1,0.1,0.2,0c0.1,0,0.1,0,0.2-0.1c0,0,0,0,0.1,0c0.1,0,0.1,0,0.2,0c0,0,0,0.1,0,0.1
		c0,0,0,0,0,0.1c0,0.1,0,0.1,0,0.2c0,0,0,0.1,0,0.1c0,0.1-0.1,0.1-0.1,0.2c0,0.1-0.1,0.1-0.1,0.2c0,0,0,0-0.1,0c-0.1,0-0.2,0-0.3,0
		c0,0-0.1,0-0.1,0c-0.1,0-0.2,0-0.2,0c0,0-0.1,0-0.1,0c-0.1,0-0.3-0.1-0.4-0.1c-0.1,0-0.1,0-0.1,0c-0.1,0-0.1-0.1-0.2-0.1
		c-0.1,0-0.1,0-0.2-0.1c0,0,0,0-0.1,0c-0.1,0-0.2,0-0.3,0c-0.1,0-0.1,0.1-0.1,0.2c0,0,0,0,0,0.1c0,0,0,0,0,0.1c0,0,0,0,0,0
		c0,0-0.1,0-0.1,0c0,0,0,0-0.1,0c0,0-0.1,0-0.1-0.1c-0.1,0-0.2-0.1-0.3-0.1c0,0-0.1,0-0.1-0.1c0,0,0,0,0-0.1c0,0,0-0.1-0.1-0.1
		c-0.1,0-0.2-0.1-0.3-0.1c-0.1,0-0.1,0-0.2,0c0,0,0,0,0,0c0,0-0.1-0.1-0.2-0.1c0,0,0-0.1,0-0.1c0,0,0.1,0,0.1-0.1c0,0,0-0.1,0-0.1
		c0,0,0-0.1,0-0.1c0,0,0,0,0,0c0,0,0-0.1,0-0.1c0,0,0,0,0,0c0,0-0.1,0-0.1,0c0,0-0.1,0-0.1,0c0,0-0.1,0-0.2,0c0,0-0.1,0-0.1,0
		c0,0-0.1,0-0.2,0c-0.1,0-0.1,0-0.1,0h-0.1c-0.1,0-0.2,0-0.3,0c-0.1,0-0.1,0-0.1,0c-0.1,0-0.1,0-0.1,0c-0.1,0-0.1,0.1-0.2,0.1
		c-0.1,0-0.1,0-0.1,0.1c-0.1,0-0.1,0.1-0.2,0c0,0-0.1,0-0.1,0s-0.1,0-0.2,0c0,0,0,0-0.1,0c0,0,0,0,0,0c-0.1,0-0.1,0-0.1,0
		c0,0,0,0.1,0,0.1c0,0.1-0.1,0.1-0.2,0.2c-0.1,0-0.1,0.1-0.2,0.1c-0.1,0-0.1,0.1-0.1,0.2c0,0,0,0.1,0,0.1c0,0,0,0.1,0,0.1v0.1
		c0,0,0,0.1,0,0.1c0,0,0,0.1-0.1,0.1c0,0,0,0-0.1,0c0,0-0.1,0-0.1,0.1c0,0-0.1,0-0.1,0.1c0,0-0.1,0-0.1,0.1c0,0,0,0,0,0.1
		c0,0-0.1,0.1-0.1,0.1c0,0-0.1,0.1-0.1,0.1c-0.1,0.1-0.1,0.2-0.2,0.3c0,0,0,0,0,0.1c0,0.1-0.1,0.2-0.2,0.3c0,0,0,0.1,0,0.1
		c0,0.1,0,0.1,0.1,0.1c0,0,0.1,0.1,0,0.1c0,0,0,0.1,0,0.1c0,0.1,0,0.2,0,0.3v0c0,0.1-0.1,0.2-0.1,0.3c0,0,0,0,0,0c0,0,0,0.1,0.1,0.1
		c0,0,0,0.1,0,0.1c0,0.1,0,0.1,0,0.2c0,0.1,0.1,0.1,0.1,0.1c0,0,0.1,0,0.1,0c0,0,0,0.1,0,0.1c0,0,0.1,0,0.1,0.1c0,0,0,0,0.1,0
		c0,0,0.1,0.1,0.1,0.1c0,0,0,0,0,0.1c0,0.1,0,0.2,0.1,0.2c0,0.1,0.1,0.1,0.2,0.1c0.1,0,0.1,0.1,0.1,0.1c0.1,0.1,0.2,0.2,0.3,0.2
		c0.1,0,0.1,0,0.2,0.1c0,0,0,0,0,0c0,0,0.1,0,0.1,0c0.1,0,0.1-0.1,0.2-0.1c0.1,0,0.1,0,0.1,0c0.1,0,0.2,0,0.2,0c0,0,0,0,0.1,0
		c0,0,0.1,0,0.1,0c0,0,0.1,0,0.1,0c0,0,0.1,0,0.1-0.1c0.1,0,0.1-0.1,0.2-0.1c0.1,0,0.1,0,0.2-0.1c0.1,0,0.2,0,0.2,0h0.1
		c0.1,0,0.1,0.1,0.2,0.2c0,0,0,0.1,0,0.1c0,0.1,0.1,0.1,0.2,0.1h0.1c0.1,0,0.2,0,0.3,0c0,0,0.1,0,0.1,0c0,0,0,0,0.1,0.1
		c0.1,0,0.1,0.1,0.1,0.2c0,0,0,0.1,0,0.1c0,0,0,0.1-0.1,0.1c0,0,0,0.1,0,0.1c0,0.1,0,0.1-0.1,0.2c0,0,0,0,0,0c0,0,0,0,0,0
		c0.1,0.2,0.1,0.3,0.3,0.4c0,0,0.1,0.1,0.1,0.1c0.1,0.1,0.1,0.1,0.1,0.2c0,0,0,0,0,0.1c0,0.1,0,0.1,0.1,0.2c0.1,0.1,0.1,0.2,0.1,0.3
		c0,0,0,0,0,0c0,0,0,0.1,0,0.1c0,0,0,0.1,0.1,0.2c0,0,0,0,0,0.1c0,0.1,0,0.2-0.1,0.3c0,0-0.1,0.1-0.1,0.1c0,0-0.1,0.1-0.1,0.1
		c0,0.1,0,0.2-0.1,0.2c0,0,0,0.1,0,0.1V56c0,0,0,0.1,0,0.1c0.1,0.1,0.1,0.2,0.1,0.3c0,0.1,0.1,0.2,0.1,0.3c0,0.1,0.1,0.1,0.1,0.2
		c0,0.1,0,0.2,0,0.2c0,0,0,0.1,0,0.1c0,0.1,0,0.2,0,0.3c0,0.1,0.1,0.2,0.1,0.3c0,0,0.1,0.1,0.1,0.1c0,0,0.1,0.1,0.1,0.1
		c0,0.1,0,0.2,0.1,0.3c0,0,0,0,0,0.1c0,0.1,0,0.1,0,0.2c0,0,0,0,0,0.1c0,0,0,0.1,0,0.2c0,0,0,0,0,0c0.1,0,0.1,0.1,0.2,0.1h0.1
		c0.1,0,0.1-0.1,0.2,0c0,0,0.1,0,0.1,0c0.1,0,0.1,0,0.2,0c0.1,0,0.1,0,0.2,0c0,0,0,0,0,0c0.1,0,0.1,0,0.2-0.1c0,0,0,0,0.1,0
		c0.1,0,0.2,0,0.3-0.1c0.1-0.1,0.2-0.2,0.3-0.3c0.1-0.1,0.1-0.1,0.2-0.2c0-0.1,0.1-0.1,0.1-0.2c0,0,0.1-0.1,0.1-0.1
		c0.1,0,0.1-0.1,0.1-0.2c0-0.1,0-0.1,0.1-0.2c0,0,0-0.1,0-0.1c0,0,0-0.1,0-0.1c0,0,0.1-0.1,0.1-0.1c0.1,0,0.1,0,0.2-0.1
		c0,0,0.1-0.1,0.1-0.1c0-0.1,0-0.1,0-0.2c0,0,0-0.1,0-0.1c0-0.1-0.1-0.2-0.1-0.3c0,0,0-0.1,0-0.1c0.1-0.1,0.3-0.2,0.4-0.3
		c0,0,0.1-0.1,0.1-0.1c0.1,0,0.1-0.1,0.2-0.1c0.1-0.1,0.2-0.2,0.2-0.3c0,0,0-0.1,0-0.2c0,0,0-0.1,0-0.2c0,0,0-0.1,0-0.1
		c0-0.1,0-0.2,0-0.2c0,0,0-0.1,0-0.1c-0.1,0-0.1-0.1-0.1-0.2c0-0.1,0-0.2,0-0.3c0,0,0,0,0-0.1c0,0,0-0.1,0-0.1c-0.1,0-0.1-0.1,0-0.2
		c0-0.1,0-0.1,0.1-0.2s0.1-0.1,0.1-0.2c0,0,0-0.1,0.1-0.1c0.1,0,0.1-0.1,0.2-0.1c0.1-0.1,0.2-0.3,0.4-0.4c0.1-0.1,0.2-0.2,0.3-0.2
		c0,0,0,0,0,0c0.2-0.2,0.4-0.4,0.6-0.7c0-0.1,0.1-0.2,0.2-0.3c0-0.1,0.1-0.1,0.1-0.2c0-0.1,0-0.2,0-0.3c0,0-0.1,0-0.1,0c0,0,0,0,0,0
		c-0.1,0-0.2,0.1-0.3,0.1c-0.1,0-0.3,0-0.4,0.1h-0.1c-0.1,0-0.1,0-0.2,0c0,0,0,0-0.1,0c0,0-0.1,0-0.1,0s0,0,0,0
		c0-0.1-0.1-0.1-0.1-0.1c0,0,0,0,0,0c0-0.1,0-0.1,0-0.1c0,0-0.1,0-0.1-0.1c0-0.1-0.1-0.1-0.2-0.2c0,0-0.1-0.1-0.1-0.1
		c-0.1,0-0.2-0.1-0.2-0.2c0-0.1,0-0.1,0-0.2c0-0.1-0.1-0.1-0.1-0.1c0,0-0.1-0.1-0.1-0.1c0,0,0-0.1,0-0.1c0-0.1,0-0.2-0.1-0.3
		c0-0.1-0.1-0.2-0.2-0.2c0,0,0,0,0,0c0,0,0,0,0,0c0,0,0,0,0,0c0-0.1,0-0.1-0.1-0.2c0,0,0-0.1,0-0.1c-0.1-0.1-0.2-0.2-0.2-0.4
		c0,0,0,0,0-0.1c0,0,0,0,0,0c0,0,0.1,0,0.1,0c0,0,0,0,0.1,0c0,0,0.1,0,0.1,0c0,0,0,0,0.1,0.1c0.1,0.1,0.1,0.2,0.2,0.3
		c0,0,0.1,0.1,0.1,0.2c0,0,0,0.1,0.1,0.1c0.1,0,0.1,0.1,0.2,0.2c0,0,0,0,0,0.1c0,0,0,0.1,0,0.1v0.1c0,0.1,0.1,0.2,0.1,0.2
		c0,0,0.1,0,0.1,0.1c0.1,0,0.1,0.1,0.1,0.1c0,0.1,0.1,0.1,0.1,0.2c0,0.1,0.1,0.1,0.1,0.2c0,0.1,0.1,0.1,0.1,0.2c0,0,0,0,0,0.1
		c0,0.1,0.1,0.2,0.1,0.3c0,0,0,0.1,0,0.1c0,0,0,0,0.1,0h0.1c0.1,0,0.1,0,0.1-0.1c0,0,0.1-0.1,0.1,0c0.1,0,0.1,0,0.2-0.1
		c0,0,0.1,0,0.1,0c0,0,0.1,0,0.1,0c0,0,0.1,0,0.1-0.1c0.1,0,0.1,0,0.2-0.1c0.1,0,0.1,0,0.2-0.1c0,0,0,0,0,0c0-0.1,0.1-0.1,0.1-0.1
		c0.1,0,0.2,0,0.2-0.1c0.1,0,0.1,0,0.1-0.1c0,0,0-0.1,0.1-0.1c0.1,0,0.1,0,0.1-0.1c0,0,0,0,0.1-0.1c0,0,0,0,0.1,0s0,0,0,0
		c0,0,0-0.1,0-0.1c0,0,0-0.1,0-0.1c0.1-0.1,0.1-0.1,0.2-0.2c0-0.1,0-0.1,0-0.2c0,0-0.1-0.1-0.1-0.1c0,0,0-0.1-0.1-0.1
		c-0.1,0-0.1,0-0.2,0c0,0-0.1,0-0.1-0.1c0,0-0.1-0.1-0.1-0.2s0-0.1,0-0.2c0,0,0,0,0,0c0,0,0,0,0,0C57.1,49,57.1,49,57,49.1
		c0,0.1-0.1,0.1-0.2,0.1c-0.1,0-0.1,0-0.2,0c0,0-0.1,0-0.1,0c0,0,0,0,0-0.1c0-0.1,0-0.1,0-0.2c0,0,0,0,0,0s0,0,0,0s0,0,0,0
		c0,0,0,0,0,0.1c0,0,0,0-0.1,0c0,0-0.1-0.1-0.1-0.1c0-0.1,0-0.1-0.1-0.2c0,0-0.1-0.1-0.1-0.1c0,0,0,0,0,0c0-0.1-0.1-0.1-0.1-0.2
		c0,0,0,0,0,0c0,0,0-0.1,0-0.1c0,0,0,0,0,0c0,0,0.1,0,0.1,0c0,0,0.1,0,0.1,0c0,0,0,0,0.1,0.1c0.1,0.1,0.1,0.2,0.1,0.2
		c0,0,0,0.1,0.1,0.1c0,0,0,0,0.1,0c0,0,0.1,0,0.1,0.1c0,0,0,0,0.1,0c0.1,0,0.2,0.1,0.2,0.1c0,0,0.1,0,0.1,0c0,0,0.1,0,0.1-0.1
		s0.1,0,0.1,0c0,0,0,0.1,0.1,0.1c0,0,0,0.1,0.1,0.1c0.2,0,0.3,0.1,0.5,0.1c0.1,0,0.1,0,0.2,0c0.1,0,0.2,0,0.3,0c0,0,0.1,0,0.1,0
		c0.1,0,0.2,0,0.2,0c0,0,0.1,0,0.1,0c0,0,0,0,0.1,0c0,0,0,0,0.1,0.1c0,0.1,0,0.1,0.1,0.1c0,0,0.1,0,0.1,0.1c0,0.1,0.1,0.1,0.2,0.1
		c0,0,0,0,0,0c0,0-0.1,0.1-0.1,0c0,0,0,0,0,0v0c0.1,0.1,0.1,0.1,0.2,0.2c0.1,0.1,0.2,0.1,0.3,0c0,0,0.1-0.1,0.1-0.1h0
		c0,0.1,0.1,0.2,0.1,0.3c0,0,0,0.1,0,0.1c0,0.1,0,0.2,0.1,0.3c0,0.1,0.1,0.2,0.1,0.3c0,0,0,0,0,0.1c0,0.1,0.1,0.1,0.1,0.2
		c0,0.1,0.1,0.1,0.1,0.2c0,0,0,0.1,0,0.1c0,0.1,0.1,0.1,0.1,0.2c0,0,0.1,0.1,0.1,0.1c0,0.1,0.1,0.2,0.1,0.3c0,0.1,0,0.1,0.1,0.2l0,0
		c0,0,0,0,0.1,0c0,0,0.1,0,0.1,0c0,0,0,0,0,0c0,0,0-0.1,0.1-0.1c0,0,0,0,0,0c0,0,0,0,0-0.1c0,0,0-0.1,0.1-0.1c0,0,0,0,0-0.1
		s0-0.1,0-0.1c0,0,0-0.1,0-0.1c0,0,0,0,0-0.1c0,0,0-0.1,0-0.2c0,0,0-0.1,0-0.1v-0.2c0,0,0-0.1,0.1-0.1c0,0,0,0,0,0
		c0,0,0.1-0.1,0.2-0.1c0,0,0,0,0,0c0,0,0-0.1,0-0.1c0.1,0,0.1-0.1,0.2-0.2c0,0,0.1,0,0.1-0.1c0,0,0.1-0.1,0.1-0.1c0,0,0,0,0.1,0
		c0.1-0.1,0.2-0.1,0.2-0.2c0,0,0-0.1,0.1-0.1c0,0,0.1,0,0.1,0c0.1,0,0.2,0,0.3-0.1c0.1,0,0.1,0,0.1-0.1c0,0,0,0,0,0c0,0,0,0.1,0,0.1
		c0,0.1,0.1,0.2,0.2,0.3c0,0,0,0,0.1,0c0,0,0,0,0,0.1c0,0.1,0,0.1,0,0.1c0,0,0.1,0,0.1,0.1c0,0,0,0,0,0c0,0.1,0.1,0.2,0,0.3
		c0,0,0,0.1,0,0.1c0,0,0,0.1,0.1,0.1c0.1,0,0.1,0,0.2,0c0.1,0,0.1-0.1,0.1-0.1c0,0,0,0,0,0c0,0,0.1,0.1,0.1,0.1c0,0,0,0.1,0,0.1
		c0,0.1,0.1,0.2,0.1,0.3c0,0,0,0,0,0.1c0,0,0,0,0,0.1c0,0.1,0,0.2,0,0.3c0,0,0,0.1,0,0.1c0,0.1,0,0.1,0,0.2c0,0.1,0,0.1,0.1,0.2
		c0,0,0,0,0,0c0.1,0.1,0.1,0.2,0.2,0.3c0,0,0,0.1,0,0.2c0,0,0,0,0,0c0,0,0,0.1,0,0.1c0,0,0,0.1,0,0.1c0,0,0.1,0.1,0.1,0.1
		C64.5,52.7,64.5,52.7,64.5,52.8L64.5,52.8z M57.4,45.3c0,0,0,0.1,0,0.2c0,0-0.1,0.1-0.1,0c-0.1,0-0.1,0-0.1,0c0,0,0,0,0-0.1
		c0-0.1,0.1-0.2,0.2-0.2C57.4,45.2,57.4,45.2,57.4,45.3C57.4,45.3,57.4,45.3,57.4,45.3z M56,46.3c-0.1,0-0.1-0.1-0.1-0.1
		c0-0.1-0.1-0.1-0.1-0.2c-0.1,0-0.1-0.1-0.2-0.2c0-0.1-0.1-0.2-0.1-0.2c0,0,0-0.1,0-0.1c0,0,0-0.1,0-0.1c0,0,0-0.1,0.1-0.1
		c0.1,0,0.1-0.1,0.2-0.1c0,0,0,0,0,0c0.1,0,0.1-0.1,0.2-0.1c0,0,0,0,0,0c0.1,0,0.1,0,0.2,0c0,0,0.1,0,0.1,0c0,0,0,0.1,0,0.1
		c0,0,0,0.1,0,0.1c0,0,0,0,0,0h-0.1c-0.1,0-0.1,0-0.1,0.1c0,0,0,0,0,0c0,0,0,0,0,0c0,0-0.1,0,0,0.1c0,0,0.1,0.1,0.1,0.1
		c0,0.1,0.1,0.1,0.2,0.2c0,0,0,0,0,0v0c0,0.1,0,0.1,0,0.2s0.1,0.1,0,0.2c0,0,0,0,0,0.1c0,0,0,0.1,0.1,0.1c0,0,0,0,0.1,0
		c0,0,0,0,0,0.1v0c0,0,0,0,0,0c0,0,0.1,0.1,0.1,0.1c0,0.1,0,0.2,0.1,0.3c0,0,0,0,0,0c-0.1,0-0.2,0-0.2,0h-0.1c-0.1,0-0.2,0-0.2-0.1
		c0,0-0.1,0-0.1,0c0,0,0,0-0.1,0c0,0,0,0,0,0c0-0.1-0.1-0.2,0-0.3c0,0,0-0.1,0-0.1C55.9,46.4,56,46.4,56,46.3
		C56,46.3,56,46.3,56,46.3L56,46.3C56,46.3,56,46.3,56,46.3z M52.6,41.9C52.6,41.9,52.7,41.9,52.6,41.9
		C52.7,41.9,52.7,41.9,52.6,41.9c0.1,0,0.1,0.1,0.2,0.1c0,0,0,0,0,0c0.1,0.1,0.1,0.2,0,0.2l0,0c0,0-0.1,0-0.1,0
		c-0.1-0.1-0.1-0.1-0.1-0.2c0,0,0,0,0,0C52.6,41.9,52.6,41.9,52.6,41.9z M52.6,40.5L52.6,40.5L52.6,40.5
		C52.6,40.5,52.6,40.5,52.6,40.5C52.6,40.5,52.6,40.5,52.6,40.5z M52.6,46.3c0,0,0.1,0,0.2,0c0,0,0.1,0,0,0.1c0,0,0,0,0,0
		C52.8,46.4,52.8,46.4,52.6,46.3C52.7,46.4,52.7,46.4,52.6,46.3L52.6,46.3C52.6,46.4,52.6,46.4,52.6,46.3
		C52.6,46.4,52.6,46.4,52.6,46.3z M52.7,46.1C52.7,46.1,52.7,46.1,52.7,46.1c0-0.1,0-0.1,0-0.1c0,0,0-0.1,0-0.1c0,0,0-0.1,0-0.1
		c0,0,0-0.1,0-0.1c0,0,0,0,0.1,0c0,0,0.1,0,0.1-0.1c0,0,0,0,0-0.1c0-0.1,0.1-0.1,0.1-0.2c0,0,0.1,0,0.1,0c0,0,0,0,0,0
		c0.1,0.1,0.1,0.1,0.2,0.1c0,0,0,0,0,0c0,0,0,0-0.1,0.1c0,0,0,0,0,0c0,0,0,0,0,0c0,0,0.1,0,0.1,0.1c0,0,0.1,0.1,0.1,0c0,0,0,0,0.1,0
		c0,0,0.1,0,0.1,0c0,0,0.1,0,0.2-0.1c0,0,0,0,0,0c0,0,0,0,0-0.1c0,0,0,0,0,0h0c-0.2,0-0.2,0-0.2-0.1c0.1-0.1,0.1-0.1,0.2-0.1
		c0,0,0.1,0,0.1,0c0.1-0.1,0.1-0.1,0.2-0.1h0c0,0-0.1,0.1-0.1,0.1c0,0,0,0,0,0.1c0,0,0,0,0,0.1c0,0-0.1,0.1-0.1,0.1c0,0,0,0,0,0
		c0,0,0.1,0.1,0.1,0.1c0.1,0,0.1,0.1,0.2,0.1c0.1,0.1,0.2,0.1,0.3,0.2c0.1,0,0.1,0.1,0.1,0.2c0,0,0,0.1,0,0.1c0,0-0.1,0-0.1,0
		c0,0-0.1,0-0.1,0c-0.1,0-0.1,0-0.2,0c0,0-0.1,0-0.1,0c-0.1,0-0.1,0-0.2-0.1c0,0,0,0,0,0l0,0c-0.1,0-0.1,0-0.2,0c-0.1,0-0.3,0-0.4,0
		c-0.1,0-0.1,0-0.1,0.1c0,0,0,0-0.1,0c-0.1,0-0.1,0-0.2,0C52.8,46.2,52.7,46.2,52.7,46.1z M53,41.3L53,41.3
		C53.1,41.3,53.1,41.3,53,41.3C53.1,41.3,53.1,41.3,53,41.3C53.1,41.4,53.1,41.4,53,41.3C53.1,41.3,53,41.3,53,41.3z M53.3,41.9
		C53.3,41.9,53.3,41.9,53.3,41.9c0,0.1,0,0.1,0,0.1c0,0,0,0,0,0c0,0,0,0,0,0c0-0.1,0-0.1-0.1-0.1s-0.1,0-0.1-0.1c0,0,0,0,0,0
		c0,0,0,0,0.1,0c0,0,0,0,0,0c0,0,0,0,0,0C53.3,41.8,53.3,41.8,53.3,41.9z M53.2,44.7L53.2,44.7L53.2,44.7
		C53.2,44.7,53.2,44.7,53.2,44.7C53.2,44.7,53.2,44.7,53.2,44.7z M53.6,42.2C53.6,42.2,53.6,42.2,53.6,42.2L53.6,42.2
		C53.6,42.2,53.6,42.2,53.6,42.2C53.6,42.2,53.6,42.2,53.6,42.2z M53.6,45L53.6,45C53.6,45,53.6,45,53.6,45L53.6,45
		C53.6,45,53.6,45,53.6,45z M53.7,42.5C53.7,42.5,53.7,42.5,53.7,42.5L53.7,42.5C53.7,42.6,53.8,42.6,53.7,42.5
		c0.1,0.1,0.1,0.1,0.1,0.1c0,0-0.1,0-0.1,0C53.7,42.6,53.7,42.6,53.7,42.5C53.7,42.6,53.7,42.6,53.7,42.5
		C53.7,42.6,53.7,42.5,53.7,42.5C53.7,42.5,53.7,42.5,53.7,42.5z M52.4,41.7C52.4,41.7,52.4,41.7,52.4,41.7
		C52.4,41.7,52.4,41.7,52.4,41.7L52.4,41.7C52.4,41.7,52.4,41.7,52.4,41.7z M52.4,41.5C52.4,41.5,52.4,41.4,52.4,41.5
		C52.4,41.4,52.4,41.4,52.4,41.5L52.4,41.5C52.4,41.5,52.4,41.5,52.4,41.5z M52.3,42C52.3,42,52.3,42,52.3,42
		C52.2,42,52.2,41.9,52.3,42c0-0.1,0-0.1,0-0.1c0,0,0,0,0,0l0,0C52.3,41.9,52.3,41.9,52.3,42C52.3,41.9,52.3,41.9,52.3,42
		C52.3,42,52.3,42,52.3,42z M52.3,41.8L52.3,41.8L52.3,41.8L52.3,41.8L52.3,41.8z M52.1,41.2C52.1,41.2,52.1,41.2,52.1,41.2
		C52.1,41.2,52.1,41.2,52.1,41.2C52,41.2,52,41.2,52.1,41.2C52,41.2,52,41.2,52.1,41.2C52.1,41.1,52.1,41.2,52.1,41.2z M52,39.9
		C52,39.9,52,39.9,52,39.9C51.9,39.9,51.9,39.9,52,39.9C51.9,39.9,51.9,39.9,52,39.9C51.9,39.9,51.9,39.9,52,39.9
		C52,39.8,52,39.8,52,39.9L52,39.9L52,39.9C52,39.8,52,39.8,52,39.9C52,39.9,52,39.9,52,39.9z M52,41.6C52,41.6,52,41.6,52,41.6
		C52,41.6,52,41.6,52,41.6C52,41.6,52,41.6,52,41.6C52,41.6,52,41.6,52,41.6C52,41.6,52,41.6,52,41.6C52,41.6,51.9,41.6,52,41.6
		C51.9,41.6,51.9,41.6,52,41.6z M51.6,39.4C51.6,39.4,51.6,39.4,51.6,39.4L51.6,39.4C51.6,39.4,51.6,39.4,51.6,39.4z M51.6,39.4
		L51.6,39.4C51.6,39.5,51.6,39.5,51.6,39.4C51.6,39.5,51.6,39.5,51.6,39.4C51.6,39.5,51.6,39.5,51.6,39.4z M51.3,39.5L51.3,39.5
		C51.3,39.5,51.3,39.5,51.3,39.5C51.3,39.5,51.3,39.5,51.3,39.5C51.3,39.5,51.3,39.5,51.3,39.5L51.3,39.5L51.3,39.5z M51.1,39.6
		C51.1,39.6,51.1,39.6,51.1,39.6C51.1,39.6,51.1,39.6,51.1,39.6C51.1,39.6,51.1,39.6,51.1,39.6C51.1,39.6,51.1,39.6,51.1,39.6
		C51.1,39.6,51.1,39.6,51.1,39.6z M50.4,42.6C50.4,42.6,50.4,42.6,50.4,42.6c0,0.1,0,0.1-0.1,0.1c0,0-0.1,0-0.1,0c0,0,0,0,0,0v0h0
		C50.3,42.7,50.3,42.6,50.4,42.6C50.3,42.6,50.3,42.6,50.4,42.6C50.3,42.5,50.4,42.5,50.4,42.6C50.4,42.6,50.4,42.6,50.4,42.6z
		 M50.8,42.5C50.8,42.5,50.8,42.5,50.8,42.5C50.9,42.5,50.9,42.5,50.8,42.5L50.8,42.5L50.8,42.5C50.8,42.5,50.8,42.5,50.8,42.5z
		 M52.3,42.7L52.3,42.7C52.2,42.7,52.2,42.7,52.3,42.7C52.2,42.6,52.2,42.6,52.3,42.7C52.2,42.6,52.2,42.6,52.3,42.7
		C52.3,42.6,52.3,42.6,52.3,42.7z M53.8,53.1C53.9,53.1,53.9,53.1,53.8,53.1c0.1,0.1,0.1,0.1,0.1,0.1c0,0.1-0.1,0.1-0.1,0.2
		c0,0,0,0,0,0.1c0,0,0,0,0,0c0,0,0,0-0.1,0c0,0,0,0,0,0h-0.1c0,0,0,0,0,0v0c0-0.1,0-0.2,0-0.2c0,0,0,0,0-0.1c0,0,0,0,0,0
		C53.7,53.1,53.8,53.1,53.8,53.1z M53.8,52.9L53.8,52.9L53.8,52.9L53.8,52.9z M54,55.3C54,55.3,54,55.4,54,55.3
		C54,55.4,54,55.4,54,55.3c-0.1,0-0.1-0.1-0.1-0.2v-0.1c0-0.1,0-0.1,0-0.2v-0.1c0,0,0,0,0,0c0,0,0,0,0,0.1c0,0,0,0.1,0,0.1
		c0,0.1,0,0.1,0,0.2c0,0,0,0.1,0,0.1C54,55.3,54,55.3,54,55.3z M53.7,48.6L53.7,48.6C53.7,48.5,53.7,48.5,53.7,48.6
		C53.7,48.6,53.7,48.6,53.7,48.6C53.7,48.6,53.7,48.6,53.7,48.6z M53.4,52.9L53.4,52.9L53.4,52.9L53.4,52.9z M53.4,54.5L53.4,54.5
		C53.4,54.5,53.4,54.5,53.4,54.5C53.4,54.5,53.4,54.4,53.4,54.5C53.4,54.4,53.4,54.4,53.4,54.5z M53.2,54.1c0-0.1,0-0.2,0-0.3
		c0,0,0,0,0,0c0,0,0,0,0,0c0,0.1,0,0.2,0,0.2c0,0.1,0,0.1,0.1,0.2c0,0,0,0.1,0,0.1c0,0,0,0.1,0,0.1c0,0,0-0.1-0.1-0.1
		C53.3,54.3,53.2,54.3,53.2,54.1C53.2,54.2,53.2,54.2,53.2,54.1z M53.2,54.9L53.2,54.9C53.2,54.9,53.2,54.9,53.2,54.9L53.2,54.9z
		 M53.1,53.5L53.1,53.5L53.1,53.5L53.1,53.5z M53.1,54.6C53.1,54.6,53.1,54.6,53.1,54.6C53.1,54.6,53.1,54.6,53.1,54.6L53.1,54.6
		C53,54.6,53.1,54.5,53.1,54.6C53.1,54.6,53.1,54.6,53.1,54.6z M53,55.8L53,55.8L53,55.8C53,55.8,53,55.8,53,55.8z M48.7,51.9
		C48.7,51.9,48.7,51.9,48.7,51.9C48.7,52,48.7,52,48.7,51.9C48.6,52,48.6,51.9,48.7,51.9C48.6,51.9,48.7,51.9,48.7,51.9z M48.6,51.8
		L48.6,51.8L48.6,51.8C48.5,51.8,48.5,51.8,48.6,51.8C48.5,51.8,48.5,51.8,48.6,51.8z M54.4,51.2L54.4,51.2
		C54.4,51.2,54.4,51.2,54.4,51.2C54.4,51.2,54.4,51.3,54.4,51.2C54.4,51.3,54.4,51.2,54.4,51.2z M64.7,52.2L64.7,52.2
		c-0.1,0-0.1-0.1-0.2-0.2c0,0-0.1-0.1-0.1-0.1c0,0,0-0.1,0-0.1c0,0-0.1-0.1-0.1-0.2c-0.1,0-0.1,0-0.1-0.1c0,0,0-0.1,0-0.1
		c0-0.1,0.1-0.3,0.1-0.4c0,0,0,0,0,0c0,0,0,0,0,0s0,0,0,0c0,0,0,0,0,0c0,0.1,0.1,0.1,0.1,0.1h0c0.1,0,0.2,0.1,0.2,0.2
		c0,0,0.1,0.1,0.1,0.1C64.8,51.7,64.7,51.9,64.7,52.2z"/>
	<path class="st2" d="M50.6,43.5C50.6,43.5,50.6,43.5,50.6,43.5C50.6,43.5,50.6,43.5,50.6,43.5C50.6,43.5,50.6,43.5,50.6,43.5
		C50.6,43.5,50.6,43.5,50.6,43.5C50.6,43.5,50.6,43.5,50.6,43.5L50.6,43.5z"/>
	<path class="st2" d="M51,43.1C51,43.1,51.1,43.1,51,43.1c0.1-0.1,0.1-0.1,0.1-0.2c0,0-0.1,0-0.1,0C51,42.9,51,43,51,43.1
		C51,43,51,43,51,43.1C51,43.1,51,43.1,51,43.1z"/>
	<path class="st2" d="M51.7,46.9L51.7,46.9C51.7,46.9,51.7,46.9,51.7,46.9C51.7,46.9,51.7,46.9,51.7,46.9L51.7,46.9z"/>
	<path class="st2" d="M39.4,51C39.4,51.1,39.4,51.1,39.4,51C39.5,51.1,39.5,51.1,39.4,51C39.5,51,39.5,51,39.4,51
		C39.4,51,39.4,51,39.4,51z"/>
	<path class="st2" d="M39.2,50.8C39.2,50.8,39.2,50.8,39.2,50.8C39.2,50.8,39.2,50.8,39.2,50.8C39.2,50.9,39.2,50.8,39.2,50.8
		C39.2,50.8,39.2,50.8,39.2,50.8C39.2,50.8,39.2,50.8,39.2,50.8z"/>
	<path class="st2" d="M39.2,50.9C39.2,51,39.2,51,39.2,50.9C39.2,51,39.2,51,39.2,50.9C39.2,50.9,39.2,50.9,39.2,50.9
		C39.2,50.9,39.2,50.9,39.2,50.9z"/>
	<path class="st2" d="M41,44.8C41,44.8,41,44.9,41,44.8C41,44.9,41,44.8,41,44.8C41,44.8,41,44.8,41,44.8C41,44.8,41,44.8,41,44.8
		C41,44.8,41,44.8,41,44.8C40.9,44.8,40.9,44.8,41,44.8c-0.1-0.1-0.1-0.1-0.1-0.1c0,0,0,0,0.1-0.1c0,0,0,0,0,0c0,0,0,0,0,0
		c0,0,0,0,0,0c0,0,0,0,0-0.1c0,0,0,0,0,0c0,0,0,0,0,0c0,0,0,0,0,0c0,0,0,0,0,0c0,0,0,0-0.1,0c0,0-0.1,0-0.1,0c0,0,0,0,0-0.1
		c0,0,0,0,0,0c0,0,0-0.1-0.1-0.1c0,0,0,0-0.1,0c0,0,0,0,0,0l0,0v0h0c0-0.1,0.1-0.1,0.1-0.1c0,0,0.1-0.1,0.1-0.1c0,0,0,0,0,0
		c0,0,0,0-0.1,0c-0.1,0-0.1,0-0.2,0.1c-0.1,0.1-0.2,0.2-0.2,0.3c0,0.1-0.1,0.1-0.1,0.1c0,0,0,0,0,0c0,0,0,0,0,0.1c0,0,0,0-0.1,0.1
		c0,0,0,0,0,0.1c0,0,0,0,0.1,0c0.1,0,0.1,0,0.2,0c0.1,0,0.1,0,0.1,0c0.1,0,0.1,0,0.1,0c0,0,0,0,0,0c0,0,0,0-0.1,0.1c0,0,0,0,0,0
		c0,0,0,0,0,0c0,0,0.1,0,0.1,0c0-0.1,0.1-0.1,0.1-0.1c0,0,0,0,0,0c0,0,0,0.1,0,0.1c0,0,0,0,0,0c0,0,0.1,0.1,0.1,0.1c0,0,0.1,0,0.1,0
		C41,45,41,45,41,44.8C41,44.9,41,44.9,41,44.8C41,44.8,41,44.8,41,44.8L41,44.8z"/>
	<path class="st2" d="M46.4,48.6C46.4,48.6,46.4,48.6,46.4,48.6C46.5,48.6,46.5,48.6,46.4,48.6C46.5,48.6,46.5,48.6,46.4,48.6
		C46.5,48.6,46.5,48.6,46.4,48.6C46.5,48.6,46.5,48.6,46.4,48.6z"/>
	<path class="st2" d="M39.2,50.7C39.1,50.7,39.2,50.7,39.2,50.7C39.2,50.7,39.2,50.7,39.2,50.7C39.2,50.7,39.2,50.7,39.2,50.7
		L39.2,50.7z"/>
	<path class="st2" d="M41,44.8C41,44.8,41,44.8,41,44.8C41,44.8,41,44.8,41,44.8z"/>
	<path class="st2" d="M47.6,42.9C47.6,42.9,47.7,42.9,47.6,42.9c0.1,0,0.1-0.1,0.1-0.1c0,0,0,0,0,0c0,0,0,0,0,0
		C47.7,42.8,47.6,42.8,47.6,42.9C47.6,42.9,47.6,42.9,47.6,42.9C47.6,42.9,47.6,42.9,47.6,42.9L47.6,42.9L47.6,42.9L47.6,42.9
		L47.6,42.9z"/>
	<path class="st2" d="M47.7,43.2C47.7,43.2,47.7,43.2,47.7,43.2c0.1,0.1,0,0.1,0,0.1c0,0,0,0,0,0.1c0,0,0,0,0,0c0,0,0,0,0,0
		c0,0,0,0,0.1,0c0,0,0,0,0,0c0,0,0,0,0,0c0,0,0,0.1,0,0.1c0,0,0,0.1,0.1,0.1c0,0,0,0,0,0c0,0,0.1,0,0.1,0c0,0,0,0.1,0,0.1
		c0,0,0,0,0,0c0,0,0,0,0,0.1c0,0.1,0,0.1-0.1,0.1c0,0,0,0,0,0c0,0,0,0,0,0c0,0,0,0.1,0,0.1c0,0,0,0.1,0,0.1c0,0,0,0-0.1,0
		c0,0,0,0,0,0c0,0,0,0,0,0c0,0,0,0,0,0c0.1,0,0.1,0,0.2,0.1c0,0,0,0,0,0c0,0,0,0,0,0c-0.1,0-0.1,0-0.1,0.1c0,0.1-0.1,0.1-0.1,0.2
		c0,0,0,0,0,0c0,0,0,0,0,0c0,0,0,0,0.1,0c0,0,0.1,0,0.1,0c0.1,0,0.1,0,0.1-0.1c0,0,0,0,0.1,0c0.1,0,0.1,0,0.2,0c0.1,0,0.1,0,0.2,0
		c0.1,0,0.1,0,0.2-0.1c0,0,0,0,0-0.1c0,0,0,0,0,0c0,0,0,0,0,0c0,0,0.1-0.1,0.1-0.1c0-0.1,0-0.2-0.1-0.2c0,0-0.1,0-0.1,0c0,0,0,0,0,0
		l0,0l0,0c0,0,0,0,0-0.1c0-0.1-0.1-0.1-0.1-0.2c0,0,0-0.1-0.1-0.1c-0.1,0-0.1-0.1-0.1-0.1c0-0.1-0.1-0.2-0.2-0.2c0,0,0,0,0,0
		c0,0,0-0.1,0-0.1c0-0.1,0.1-0.1,0.1-0.2c0,0,0-0.1,0-0.1c0,0,0,0,0,0c0,0-0.1,0-0.1,0c0,0,0,0,0,0c0,0,0,0,0,0c0,0,0-0.1,0.1-0.1
		c0,0,0,0,0,0c0,0,0,0,0,0c0,0-0.1,0-0.2,0c0,0,0,0-0.1,0c0,0.1-0.1,0.1-0.1,0.2c0,0,0,0,0,0c-0.1,0-0.1,0,0,0.1
		C47.8,43.1,47.8,43.1,47.7,43.2z"/>
	<path class="st2" d="M47.7,43.3C47.7,43.3,47.7,43.3,47.7,43.3L47.7,43.3C47.7,43.3,47.7,43.3,47.7,43.3z"/>
	<path class="st2" d="M50.3,40.1C50.3,40.1,50.3,40.1,50.3,40.1C50.3,40.1,50.3,40.1,50.3,40.1C50.3,40.1,50.3,40.1,50.3,40.1
		L50.3,40.1L50.3,40.1z"/>
	<path class="st2" d="M47.7,43.3C47.7,43.4,47.7,43.4,47.7,43.3C47.7,43.4,47.7,43.3,47.7,43.3C47.7,43.3,47.7,43.3,47.7,43.3
		C47.7,43.3,47.7,43.3,47.7,43.3z"/>
	<path class="st2" d="M47.4,44.2c0,0,0.1,0,0.1-0.1c0.1,0,0.1-0.1,0.2-0.1c0,0,0,0,0.1,0c0-0.1,0.1-0.1,0-0.2c0,0,0,0,0-0.1
		c0,0,0-0.1,0-0.1c0,0,0,0,0,0c0,0,0-0.1,0-0.1c0,0,0,0,0-0.1c0,0,0,0,0,0c-0.1,0-0.1,0-0.1,0c0,0,0,0,0,0c0,0-0.1,0-0.1,0.1
		c0,0,0,0.1,0,0.1c0,0,0,0,0,0c0,0-0.1,0-0.1,0c0,0,0,0,0,0c0,0,0,0.1,0,0.1c0,0,0,0.1,0,0.1c0,0,0,0.1,0,0.1c0,0,0,0.1-0.1,0.1
		c0,0,0,0,0,0c0,0,0,0.1,0,0.1C47.2,44.3,47.3,44.3,47.4,44.2z"/>
	<path class="st2" d="M46.2,41.5c0.1,0,0.2-0.1,0.3-0.1c0,0,0,0,0,0c0,0,0.1-0.1,0.2-0.1c0,0,0,0,0.1,0c0,0,0,0,0.1-0.1c0,0,0,0,0,0
		c0-0.1,0-0.1,0-0.1c0,0,0,0,0,0c0,0,0,0,0,0c0,0,0,0-0.1,0c0,0,0-0.1,0-0.1c0,0,0-0.1,0-0.1c0,0,0,0,0,0c0,0-0.1,0-0.1,0
		c0,0-0.1,0-0.1,0c-0.1,0-0.1,0.1-0.2,0c0,0-0.1,0-0.1,0c-0.1,0-0.1,0-0.1,0.1c0,0,0,0,0,0c0,0,0,0,0,0c0,0,0,0,0,0c0,0,0,0,0,0.1
		c0,0,0,0.1,0,0.1c0,0,0,0,0,0c0,0,0,0,0,0c0,0,0,0,0,0c0,0,0,0,0,0c0,0,0-0.1,0-0.1c0,0,0-0.1,0-0.1c0,0,0,0,0,0c0,0-0.1,0-0.1,0v0
		l0,0c0,0,0,0,0,0h0c0,0-0.1,0-0.1,0c0,0-0.1,0.1-0.1,0.1c0,0,0,0.1,0,0.1c0,0,0,0,0.1,0c0,0,0.1,0,0.1,0c0,0,0,0,0,0
		c0,0,0,0.1-0.1,0.1c0,0-0.1,0-0.1,0c0,0,0,0,0,0c0,0,0,0,0,0c0,0,0.1,0,0.1,0c0,0,0,0,0,0c0,0,0,0.1,0,0.1c0,0,0,0,0,0c0,0,0,0,0,0
		c0,0,0,0,0,0c0,0,0,0.1,0.1,0.1c0,0,0,0,0.1,0c0.1,0,0.1,0,0.2,0C46,41.4,46,41.5,46.2,41.5C46.1,41.5,46.1,41.5,46.2,41.5z"/>
	<path class="st2" d="M47.9,43.7C47.9,43.7,47.9,43.7,47.9,43.7C47.9,43.7,47.9,43.7,47.9,43.7C47.9,43.7,48,43.7,47.9,43.7
		C48,43.7,48,43.7,47.9,43.7z"/>
	<path class="st2" d="M63.3,52C63.3,52.1,63.3,52.1,63.3,52C63.3,52.1,63.3,52,63.3,52C63.3,52,63.3,52,63.3,52
		C63.3,52,63.3,52,63.3,52z"/>
	<path class="st2" d="M63.1,51C63.1,51,63.1,51,63.1,51C63.1,51,63.1,51.1,63.1,51C63.1,51.1,63.1,51.1,63.1,51c0,0.1,0,0.1,0,0.1
		C63.1,51.1,63.1,51.1,63.1,51C63.1,51.1,63.1,51.1,63.1,51C63.1,51,63.1,51,63.1,51z"/>
	<path class="st2" d="M64.2,53.5C64.2,53.5,64.2,53.5,64.2,53.5c0-0.1,0-0.1,0-0.1C64.1,53.4,64.1,53.4,64.2,53.5
		C64.1,53.4,64.1,53.4,64.2,53.5C64.1,53.4,64.1,53.5,64.2,53.5C64.2,53.5,64.2,53.5,64.2,53.5z"/>
	<path class="st2" d="M63.1,51.3C63.1,51.3,63.1,51.3,63.1,51.3C63.1,51.3,63.1,51.3,63.1,51.3C63.1,51.3,63.1,51.3,63.1,51.3
		C63.1,51.2,63.1,51.2,63.1,51.3z"/>
	<path class="st2" d="M64,53.1C64,53.1,64,53.1,64,53.1c0-0.1,0-0.1,0-0.1c0,0,0,0,0,0C63.9,53,63.9,53,64,53.1
		C63.9,53,63.9,53.1,64,53.1C63.9,53.1,63.9,53.1,64,53.1z"/>
	<polygon class="st2" points="63.6,52.8 63.7,52.8 63.7,52.7 	"/>
	<path class="st2" d="M55.6,55.2C55.6,55.2,55.6,55.2,55.6,55.2L55.6,55.2C55.6,55.2,55.6,55.2,55.6,55.2
		C55.6,55.2,55.6,55.2,55.6,55.2z"/>
	<path class="st2" d="M56.3,55.1C56.3,55.1,56.3,55.1,56.3,55.1c-0.1,0-0.1,0.1-0.1,0.1c0,0,0,0.1-0.1,0.1c0,0,0,0,0,0
		c0,0-0.1,0-0.1,0.1c0,0.1,0,0.1-0.1,0.1c0,0-0.1,0.1-0.1,0.1c-0.1,0-0.1,0-0.2,0.1c0,0,0,0,0,0c-0.1,0-0.1,0-0.2,0.1
		c0,0,0,0.1-0.1,0.1c0,0.1,0,0.2,0,0.2c0,0,0,0,0,0.1c0,0.1,0,0.1,0,0.2c0,0.1-0.1,0.1-0.1,0.2c-0.1,0.1-0.1,0.2,0,0.2
		c0,0,0,0.1,0,0.1c0,0,0,0.1,0,0.1c0,0,0,0,0,0.1c0,0.1,0.1,0.1,0.2,0.1c0,0,0.1,0,0.1,0c0,0,0.1,0,0.1,0c0.1,0,0.1,0,0.1-0.1
		c0,0,0-0.1,0.1-0.1c0-0.1,0.1-0.2,0.1-0.3c0.1-0.2,0.1-0.3,0.2-0.5c0,0,0-0.1,0-0.1c0-0.1,0-0.1,0.1-0.2c0-0.1,0-0.1,0.1-0.1
		c0,0,0-0.1,0-0.1c0-0.1,0-0.1,0-0.2C56.4,55.3,56.4,55.2,56.3,55.1z"/>
	<path class="st2" d="M56.1,55.3L56.1,55.3C56.1,55.3,56.1,55.3,56.1,55.3L56.1,55.3z"/>
	<path class="st2" d="M55.4,55C55.4,55,55.4,55,55.4,55C55.3,55,55.3,55,55.4,55C55.3,55,55.3,55,55.4,55C55.3,55,55.4,55,55.4,55z"
		/>
	<path class="st2" d="M61.2,51.6C61.1,51.6,61.1,51.6,61.2,51.6C61.1,51.6,61.1,51.7,61.2,51.6c-0.1,0.1,0,0.2-0.1,0.3
		c0,0.1,0,0.2,0.1,0.3c0,0,0.1,0.1,0.1,0.1c0.1,0,0.2-0.1,0.2-0.3C61.4,51.8,61.3,51.7,61.2,51.6C61.2,51.6,61.2,51.6,61.2,51.6z"/>
	<path class="st2" d="M57,51.1C57,51.1,57,51.1,57,51.1C57,51.1,57,51.2,57,51.1C56.9,51.2,57,51.2,57,51.1
		C57,51.2,57.1,51.2,57,51.1C57.1,51.2,57.1,51.1,57,51.1C57.1,51.1,57,51.1,57,51.1z"/>
	<path class="st2" d="M63.1,51.5C63.1,51.5,63.1,51.5,63.1,51.5C63.1,51.5,63.1,51.5,63.1,51.5C63.1,51.5,63.1,51.4,63.1,51.5
		C63.1,51.4,63.1,51.5,63.1,51.5z"/>
	<path class="st2" d="M39.2,50.5C39.1,50.5,39.1,50.5,39.2,50.5C39.1,50.6,39.1,50.6,39.2,50.5C39.2,50.6,39.2,50.6,39.2,50.5
		C39.2,50.5,39.2,50.5,39.2,50.5z"/>
	<polygon class="st2" points="52.4,47.1 52.4,47.1 52.4,47.1 52.4,47.1 	"/>
	<path class="st2" d="M48.1,42.6C48.1,42.6,48.1,42.6,48.1,42.6C48.1,42.6,48.1,42.6,48.1,42.6C48.1,42.6,48.1,42.6,48.1,42.6z"/>
	<path class="st2" d="M52.4,46.4L52.4,46.4C52.4,46.4,52.4,46.4,52.4,46.4C52.4,46.4,52.4,46.4,52.4,46.4z"/>
	<path class="st2" d="M52.8,47.2C52.8,47.2,52.8,47.2,52.8,47.2C52.8,47.2,52.8,47.2,52.8,47.2C52.7,47.2,52.7,47.2,52.8,47.2
		C52.7,47.2,52.7,47.2,52.8,47.2C52.7,47.3,52.8,47.3,52.8,47.2z"/>
	<path class="st2" d="M52.3,47.4C52.3,47.4,52.3,47.4,52.3,47.4c0.1,0,0.1,0,0.2,0c0,0,0,0,0,0c0,0,0,0,0,0c0,0-0.1,0-0.1,0
		c-0.1,0-0.1,0-0.2,0c0,0,0,0,0,0c0,0,0,0,0,0c0,0,0,0,0,0C52.2,47.4,52.3,47.4,52.3,47.4L52.3,47.4z"/>
	<polygon class="st2" points="50.7,47.3 50.7,47.3 50.7,47.3 	"/>
	<path class="st2" d="M55.2,39.6C55.2,39.6,55.2,39.6,55.2,39.6C55.2,39.6,55.2,39.6,55.2,39.6C55.2,39.6,55.2,39.6,55.2,39.6
		C55.2,39.6,55.2,39.6,55.2,39.6z"/>
	<path class="st2" d="M53.7,47.5c0.1,0,0.1-0.1,0.1-0.1c0,0,0,0,0,0c-0.1,0-0.1,0-0.1,0c0,0-0.1,0-0.1,0.1c0,0,0,0,0,0.1
		c0,0,0.1,0,0.1,0C53.6,47.5,53.6,47.5,53.7,47.5z"/>
	<path class="st2" d="M50.1,45.9C50.1,45.9,50.1,45.9,50.1,45.9C50.1,46,50.1,46,50.1,45.9C50.1,46,50.1,46,50.1,45.9z"/>
	<path class="st2" d="M51.3,39.4C51.3,39.4,51.3,39.4,51.3,39.4L51.3,39.4L51.3,39.4C51.3,39.4,51.3,39.4,51.3,39.4z"/>
	<path class="st2" d="M55.2,39.6C55.2,39.6,55.2,39.6,55.2,39.6C55.2,39.6,55.2,39.6,55.2,39.6C55.2,39.6,55.2,39.6,55.2,39.6z"/>
	<path class="st2" d="M41,53.1C41,53.1,41,53.1,41,53.1L41,53.1L41,53.1C41,53.1,41,53.1,41,53.1L41,53.1z"/>
	<path class="st2" d="M40.9,53.1C40.9,53.1,40.9,53.1,40.9,53.1C40.9,53.1,40.9,53.1,40.9,53.1L40.9,53.1
		C40.9,53.1,40.9,53.1,40.9,53.1z"/>
	<path class="st2" d="M52.3,46.5C52.3,46.5,52.3,46.5,52.3,46.5C52.3,46.5,52.3,46.5,52.3,46.5C52.3,46.5,52.3,46.5,52.3,46.5
		C52.3,46.5,52.3,46.5,52.3,46.5z"/>
	<path class="st2" d="M49.9,46.2C49.9,46.2,49.9,46.2,49.9,46.2c0-0.1,0-0.1,0-0.1c0,0,0,0,0-0.1c0,0,0,0,0,0c0,0,0,0-0.1,0
		c0,0,0,0-0.1,0c0,0,0,0,0,0.1C49.8,46.1,49.8,46.2,49.9,46.2C49.9,46.2,49.9,46.2,49.9,46.2z"/>
	<path class="st2" d="M56.8,37.9C56.8,37.9,56.8,37.9,56.8,37.9c0-0.1,0-0.1-0.1-0.1c0,0,0,0,0,0c-0.1,0-0.1,0.1-0.1,0.1
		c0,0,0,0,0,0C56.7,38,56.8,38,56.8,37.9z"/>
	<path class="st2" d="M54.6,39.8c0.1,0,0.1-0.1,0.1-0.1c0,0,0,0,0,0c0,0-0.1-0.1-0.1-0.1c0,0-0.1,0-0.1,0.1c0,0,0,0,0,0.1
		C54.5,39.7,54.5,39.7,54.6,39.8C54.5,39.8,54.5,39.8,54.6,39.8z"/>
	<path class="st2" d="M50.9,39.6C50.9,39.6,50.9,39.6,50.9,39.6C50.9,39.6,50.9,39.6,50.9,39.6C50.9,39.6,50.9,39.6,50.9,39.6z"/>
	<path class="st2" d="M57.2,38C57.2,38,57.2,38,57.2,38C57.2,37.9,57.2,37.9,57.2,38C57.2,37.9,57.2,37.9,57.2,38
		C57.2,37.9,57.2,37.9,57.2,38C57.1,37.9,57.1,37.9,57.2,38C57.2,38,57.2,38,57.2,38z"/>
	<path class="st2" d="M50.3,40.1C50.3,40.1,50.3,40.2,50.3,40.1C50.2,40.2,50.2,40.2,50.3,40.1C50.2,40.2,50.2,40.2,50.3,40.1
		C50.3,40.2,50.3,40.2,50.3,40.1z"/>
	<path class="st2" d="M54.9,39C54.9,39,54.9,39,54.9,39C54.9,39,54.9,38.9,54.9,39C54.9,38.9,54.9,38.9,54.9,39
		C54.8,38.9,54.8,38.9,54.9,39C54.8,38.9,54.8,38.9,54.9,39C54.8,38.9,54.9,39,54.9,39z"/>
	<path class="st2" d="M49.2,46.5C49.2,46.5,49.2,46.5,49.2,46.5C49.2,46.5,49.1,46.5,49.2,46.5C49.1,46.5,49.1,46.5,49.2,46.5
		C49.2,46.5,49.2,46.5,49.2,46.5L49.2,46.5z"/>
	<path class="st2" d="M49,46.6C49,46.6,49,46.6,49,46.6C49,46.6,49,46.6,49,46.6C49,46.6,49,46.6,49,46.6C49,46.6,49,46.6,49,46.6z"
		/>
	<path class="st2" d="M49.9,46.7C50,46.7,50,46.7,49.9,46.7c0-0.1,0-0.1,0-0.2h0c0,0,0,0,0-0.1c0,0,0,0,0-0.1c0-0.1-0.1-0.1-0.1-0.1
		c0,0,0,0-0.1,0c0,0,0,0,0,0c0,0.1,0,0.1,0,0.2C49.8,46.7,49.8,46.8,49.9,46.7z"/>
	<path class="st2" d="M53.1,40.9C53.1,40.9,53.1,40.9,53.1,40.9C53.1,40.9,53.1,40.9,53.1,40.9C53.1,40.9,53.1,40.9,53.1,40.9
		C53.1,40.9,53.1,40.9,53.1,40.9L53.1,40.9z"/>
	<polygon class="st2" points="48.8,46.7 48.8,46.7 48.8,46.7 48.8,46.7 	"/>
	<polygon class="st2" points="55.8,39.4 55.8,39.4 55.8,39.4 	"/>
	<path class="st2" d="M78,29.7l-1.8,6.1c0.2-2.4,0.1-4.7-0.4-6.8l1.3-4.4c-0.5-1.6-1.1-3.1-1.9-4.5l-1.1,3.7
		c-0.1-0.2-0.2-0.4-0.3-0.6c-0.4-0.7-0.8-1.4-1.3-2l1-3.5c-0.8-0.9-1.6-1.7-2.6-2.4l-1,3.2c-0.6-0.5-1.3-1-2-1.4l0.9-3.1
		c-0.9-0.5-1.9-0.9-2.9-1.3l-0.9,3c-0.3-0.1-0.7-0.2-1-0.3c-0.4-0.1-0.8-0.2-1.2-0.3l0.9-2.9c-1-0.2-2.1-0.3-3.2-0.4l-0.8,2.9
		c-0.6,0-1.2-0.1-1.8-0.1h-0.6l0.8-2.8h-3.3l-0.8,2.8h-2.4l0.8-2.8h-3.3l-0.8,2.8h-2.4l0.8-2.8h-3.3l-0.8,2.8h-2.4l0.8-2.8h-3.3
		l-0.8,2.8h-2.4l0.8-2.8h-3.3l-0.8,2.8h-2.4l0.8-2.8h-3.3L26,14.6h-2.4l0.8-2.8h-3.3l-0.8,2.8H18l0.8-2.8h-3.3l-1,3.3H58
		c2.1,0,4.1,0.3,6,0.9c4.1,1.3,7.3,3.9,9.4,7.7c2.1,3.9,2.8,8.6,2.3,13.2c-0.3,2.9-1.1,5.8-2.1,8.5c-0.2,0.5-0.4,1.1-0.7,1.6
		c-0.7,1.6-1.3,2.9-2.3,4.4c0,0.2-0.1,0.4-0.1,0.5c2.8-3.7,5-7.9,6.4-12.3c0.5-1.8,0.9-3.6,1.1-5.3l0-0.1c0-0.2,0-0.3,0.1-0.5l0-0.2
		c0-0.1,0-0.3,0-0.4c0-0.1,0-0.3,0-0.4l0-0.2C78.1,31.6,78.1,30.7,78,29.7z"/>
	<path class="st2" d="M69.3,35.8c-1.5-3.1-3.9-5.3-7-6.6c-2.1-0.9-4.4-1.2-6.7-1.2H10.7l-1.3,4.3h3.3l1.1-3.8h2.4l-1.1,3.8h3.3
		l1.1-3.8h2.4l-1.1,3.8H24l1.1-3.8h2.4l-1.1,3.8h3.3l1.1-3.8h2.4l-1.1,3.8h3.3l1.1-3.8h2.4l-1.1,3.8H41l1.1-3.8h2.4l-1.1,3.8h3.3
		l1.1-3.8h2.4L49,32.2h1.7c0.4,0,0.7,0,1.1,0c0.2,0,0.4,0,0.5,0l1.1-3.8h2.1l0.3,0l-1.2,4c1.1,0.2,2.1,0.4,3.1,0.7l1.3-4.4
		c0.8,0.1,1.5,0.3,2.2,0.6L59.8,34c1,0.5,1.9,1,2.8,1.7l1.5-5.1c0.7,0.4,1.4,0.9,1.9,1.5l-1.5,5.3c0.2,0.2,0.4,0.4,0.6,0.7
		c0.6,0.7,1.2,1.5,1.8,2.4l1.5-5.3c0.2,0.3,0.4,0.6,0.5,1c0.4,0.7,0.6,1.5,0.9,2.3l-1.5,5.1c1,2.6,1.4,5.6,1,8.7
		c-0.1,0.5-0.1,1-0.2,1.5c0.1-0.1,0.2-0.2,0.3-0.3c0.7-2.2,1.3-4.5,1.5-6.7C71.3,42.8,70.9,39,69.3,35.8z"/>
	<path class="st2" d="M72.9,23.9c-2-3.6-5.2-6.2-9.1-7.4C61.9,16,60,15.7,58,15.7H14.4l-3.4,11.6h44.7c2.4,0,4.8,0.4,7,1.3
		c3.2,1.3,5.7,3.7,7.3,6.8c1.6,3.3,2,7.2,1.6,11.1c-0.1,1-0.3,1.9-0.5,2.9c0.8-1.5,1.5-3.1,2.1-4.6v0l0,0c0.9-2.6,1.6-5.3,1.9-7.9
		C75.5,32.3,74.9,27.7,72.9,23.9z M16.7,26.9h-2.4l3.2-10.7h2.4L16.7,26.9z M22.3,26.9H20l3.2-10.7h2.4L22.3,26.9z M28,26.9h-2.4
		l3.2-10.7h2.4L28,26.9z M33.7,26.9h-2.4l3.2-10.7h2.4L33.7,26.9z M39.3,26.9h-2.4l3.2-10.7h2.4L39.3,26.9z M45,26.9h-2.4l3.2-10.7
		h2.4L45,26.9z M50.6,26.9h-2.4l3.2-10.7h2.4L50.6,26.9z M56.3,26.9c-0.2,0-0.4,0-0.5,0h-1.8l3.2-10.7h0.8c0.5,0,1,0,1.5,0
		L56.3,26.9z M61.7,27.7c-0.7-0.2-1.4-0.4-2.2-0.5l3.1-10.5c0.4,0.1,0.7,0.2,1.1,0.3c0.4,0.1,0.8,0.3,1.1,0.4L61.7,27.7z M66.5,30.4
		c-0.6-0.5-1.3-1-2-1.4l3-10.2c0.7,0.5,1.3,1,1.9,1.5L66.5,30.4z M70.6,35.8c-0.1-0.2-0.2-0.4-0.3-0.6c-0.4-0.8-0.8-1.5-1.3-2.1
		l2.9-9.8c0.2,0.3,0.4,0.6,0.6,1c0.4,0.6,0.7,1.3,0.9,2L70.6,35.8z M74.6,36.8c-0.3,2.6-1,5.4-2,8.2c-0.2,0.6-0.5,1.2-0.7,1.7l0-0.3
		c0.2-1.6,0.2-3.1,0.1-4.6l2.8-9.3C74.8,34,74.8,35.4,74.6,36.8z"/>
</g>
</svg>
