<svg width="62" height="62" viewBox="0 0 62 62" fill="none" xmlns="http://www.w3.org/2000/svg">
<g filter="url(#filter0_d_453_1470)">
<rect width="50" height="50" rx="25" transform="matrix(-1 0 0 1 56 3)" fill="white"/>
</g>
<path d="M34.6471 21.1793L34.6471 34.8149C34.6471 35.3894 35.1274 35.879 35.7207 35.879C36.3045 35.879 36.7942 35.3894 36.7942 34.8149L36.7942 21.1793C36.7942 20.6237 36.3045 20.1152 35.7207 20.1152C35.1274 20.1152 34.6471 20.6237 34.6471 21.1793Z" fill="#0346B8" stroke="#0346B8" stroke-width="1.42857"/>
<path d="M25.0002 21.1793L25.0002 34.8149C25.0002 35.3894 25.4804 35.879 26.0737 35.879C26.6575 35.879 27.1472 35.3894 27.1472 34.8149L27.1472 21.1793C27.1472 20.6237 26.6575 20.1152 26.0737 20.1152C25.4804 20.1152 25.0002 20.6237 25.0002 21.1793Z" fill="#0346B8" stroke="#0346B8" stroke-width="1.42857"/>
<defs>
<filter id="filter0_d_453_1470" x="0.285714" y="0.142857" width="61.4286" height="61.4286" filterUnits="userSpaceOnUse" color-interpolation-filters="sRGB">
<feFlood flood-opacity="0" result="BackgroundImageFix"/>
<feColorMatrix in="SourceAlpha" type="matrix" values="0 0 0 0 0 0 0 0 0 0 0 0 0 0 0 0 0 0 127 0" result="hardAlpha"/>
<feOffset dy="2.85714"/>
<feGaussianBlur stdDeviation="2.85714"/>
<feComposite in2="hardAlpha" operator="out"/>
<feColorMatrix type="matrix" values="0 0 0 0 0 0 0 0 0 0 0 0 0 0 0 0 0 0 0.05 0"/>
<feBlend mode="normal" in2="BackgroundImageFix" result="effect1_dropShadow_453_1470"/>
<feBlend mode="normal" in="SourceGraphic" in2="effect1_dropShadow_453_1470" result="shape"/>
</filter>
</defs>
</svg>
