<svg width="63" height="62" viewBox="0 0 63 62" fill="none" xmlns="http://www.w3.org/2000/svg">
<g filter="url(#filter0_d_453_1471)">
<rect width="50" height="50" rx="25" transform="matrix(-1 0 0 1 56.5715 3)" fill="white"/>
</g>
<path d="M26.5618 35.898C26.9573 35.898 27.3057 35.7568 27.7389 35.5025L38.8602 29.0708C39.67 28.6 40.009 28.2327 40.009 27.6394C40.009 27.0462 39.67 26.6883 38.8602 26.2081L27.7389 19.7764C27.3057 19.5221 26.9573 19.3809 26.5618 19.3809C25.7896 19.3809 25.2434 19.9741 25.2434 20.9064V34.3725C25.2434 35.3142 25.7896 35.898 26.5618 35.898ZM27.2586 33.5626C27.2115 33.5626 27.1739 33.5156 27.1739 33.4496V21.8292C27.1739 21.7539 27.2115 21.7162 27.2586 21.7162C27.2963 21.7162 27.3339 21.7351 27.3716 21.7633L37.3723 27.5359C37.41 27.5641 37.4476 27.5924 37.4476 27.6394C37.4476 27.6865 37.41 27.7148 37.3723 27.743L27.3716 33.5156C27.3339 33.5438 27.2963 33.5626 27.2586 33.5626Z" fill="#0346B8" stroke="#0346B8" stroke-width="1.42857"/>
<defs>
<filter id="filter0_d_453_1471" x="0.857247" y="0.142857" width="61.4286" height="61.4286" filterUnits="userSpaceOnUse" color-interpolation-filters="sRGB">
<feFlood flood-opacity="0" result="BackgroundImageFix"/>
<feColorMatrix in="SourceAlpha" type="matrix" values="0 0 0 0 0 0 0 0 0 0 0 0 0 0 0 0 0 0 127 0" result="hardAlpha"/>
<feOffset dy="2.85714"/>
<feGaussianBlur stdDeviation="2.85714"/>
<feComposite in2="hardAlpha" operator="out"/>
<feColorMatrix type="matrix" values="0 0 0 0 0 0 0 0 0 0 0 0 0 0 0 0 0 0 0.05 0"/>
<feBlend mode="normal" in2="BackgroundImageFix" result="effect1_dropShadow_453_1471"/>
<feBlend mode="normal" in="SourceGraphic" in2="effect1_dropShadow_453_1471" result="shape"/>
</filter>
</defs>
</svg>
