<svg width="20" height="20" viewBox="0 0 20 20" fill="none" xmlns="http://www.w3.org/2000/svg">
<path d="M10.835 15.5978C11.1802 15.5978 11.4502 15.4659 11.7829 15.152L16.755 10.4876C16.9999 10.2553 17.094 9.98533 17.094 9.75305C17.094 9.51449 16.9999 9.25082 16.755 9.01854L11.7829 4.38545C11.4188 4.04644 11.1802 3.90833 10.8475 3.90833C10.3453 3.90833 9.98744 4.29756 9.98744 4.78723V7.02216H9.83049C5.49874 7.02216 3.48981 9.80328 3.48981 14.361C3.48981 15.1583 3.82881 15.5727 4.26827 15.5727C4.601 15.5727 4.90861 15.4659 5.15345 15.0077C6.13908 13.1745 7.53905 12.5028 9.83049 12.5028H9.98744V14.7503C9.98744 15.2399 10.3453 15.5978 10.835 15.5978ZM11.2367 13.9781C11.1802 13.9781 11.1426 13.9404 11.1426 13.8776V11.5611C11.1426 11.4167 11.0798 11.3539 10.9354 11.3539H10.1318C7.25655 11.3539 5.4234 12.2642 4.67005 13.8337C4.65122 13.8714 4.63239 13.8902 4.60727 13.8902C4.58216 13.8902 4.56333 13.8714 4.56333 13.8274C4.66377 10.8329 6.08886 8.16474 10.1318 8.16474H10.9354C11.0798 8.16474 11.1426 8.10196 11.1426 7.95757V5.58453C11.1426 5.52802 11.1802 5.49036 11.2367 5.49036C11.2744 5.49036 11.3121 5.50919 11.3435 5.54058L15.6313 9.63377C15.6752 9.68399 15.694 9.71538 15.694 9.75305C15.694 9.79072 15.6815 9.82211 15.6313 9.87233L11.3372 13.9279C11.3058 13.9592 11.2681 13.9781 11.2367 13.9781Z" fill="#1C1C1E"/>
</svg>
