<svg width="20" height="20" viewBox="0 0 20 20" fill="none" xmlns="http://www.w3.org/2000/svg">
<path d="M9.99999 4.89397C9.44754 4.24107 8.21707 3.65723 6.77315 3.65723C4.84583 3.65723 3.28891 4.65541 2.87457 5.60338V15.0265C2.87457 15.6417 3.27636 15.8803 3.72209 15.8803C4.05482 15.8803 4.24316 15.7799 4.4566 15.6229C4.8835 15.2776 5.58035 14.8758 6.77315 14.8758C7.97223 14.8758 8.78836 15.2776 9.15247 15.5852C9.35337 15.7359 9.58565 15.8803 9.99999 15.8803C10.4143 15.8803 10.6403 15.7234 10.8475 15.5852C11.2367 15.2965 12.0278 14.8758 13.2268 14.8758C14.4196 14.8758 15.129 15.2839 15.5434 15.6229C15.7568 15.7799 15.9452 15.8803 16.2779 15.8803C16.7236 15.8803 17.1254 15.6417 17.1254 15.0265V5.60338C16.7111 4.65541 15.1604 3.65723 13.2268 3.65723C11.7829 3.65723 10.5587 4.24107 9.99999 4.89397ZM4.23688 6.03655C4.40638 5.62221 5.33551 4.91908 6.77315 4.91908C8.21079 4.91908 9.17131 5.62849 9.32198 6.03655V14.3171C8.67535 13.8525 7.7525 13.6014 6.77315 13.6014C5.78752 13.6014 4.87095 13.8525 4.23688 14.3359V6.03655ZM15.7631 6.03655V14.3359C15.129 13.8525 14.2125 13.6014 13.2268 13.6014C12.2475 13.6014 11.3246 13.8525 10.678 14.3171V6.03655C10.8287 5.62849 11.7892 4.91908 13.2268 4.91908C14.6645 4.91908 15.5936 5.62221 15.7631 6.03655Z" fill="#1C1C1E"/>
</svg>
