<svg width="20" height="20" viewBox="0 0 20 20" fill="none" xmlns="http://www.w3.org/2000/svg">
<path d="M1.58765 9.30106C1.58765 11.649 3.20107 13.2122 5.61178 13.2122C5.9759 13.2122 6.32118 13.1808 6.64764 13.118C7.35076 13.727 8.39289 14.1225 9.57942 14.1225C10.0377 14.1225 10.5211 14.0597 11.0108 13.9404C11.4753 14.4364 12.1785 14.7126 13.0009 14.7126C13.1264 14.7126 13.2708 14.7063 13.4089 14.7001C13.5784 15.7987 14.2878 16.8094 15.3802 16.8094C16.9685 16.8094 17.8035 14.9512 17.8035 12.9799C17.8035 12.3396 17.7784 11.8624 17.7407 11.4355C18.1676 10.8956 18.4061 10.18 18.4061 9.33245C18.4061 7.70647 17.3075 6.44461 15.6313 6.1056C15.2923 4.58635 14.0179 3.60072 12.5614 3.60072C12.4421 3.60072 12.2789 3.61955 12.1157 3.65094C11.5946 3.03571 10.7722 2.66531 9.89331 2.66531C8.91396 2.66531 8.07272 3.02943 7.50143 3.65722C7.04314 3.45633 6.56602 3.36216 6.10146 3.36216C4.53198 3.36216 3.28268 4.43568 3.28268 5.96749C3.28268 5.9926 3.28268 6.02399 3.28268 6.0491C2.22171 6.77734 1.58765 7.99525 1.58765 9.30106ZM6.67275 5.77288C6.66019 6.14955 6.91759 6.40067 7.25031 6.40067C7.57049 6.40067 7.80905 6.18722 7.8216 5.8231C7.87183 4.66169 8.70679 3.82045 9.88703 3.82045C10.5964 3.82045 11.2179 4.19712 11.4691 4.74958C11.5318 4.86886 11.626 4.88141 11.7767 4.84375C11.9776 4.79352 12.2036 4.76213 12.4233 4.76213C13.5282 4.77469 14.5515 5.60965 14.5515 6.90918C14.5515 9.82212 10.4269 9.48312 10.4269 12.4023C10.4269 12.5656 10.4395 12.7288 10.4709 12.8795C10.2198 12.9297 9.96237 12.9548 9.71125 12.9548C9.11485 12.9548 8.51845 12.8167 8.04761 12.5718C9.0144 11.9629 9.57942 10.9584 9.57942 9.69656C9.57942 9.58984 9.57942 9.48939 9.56686 9.38895C10.948 8.99972 11.6072 8.02664 11.5946 6.61411C11.5883 6.29394 11.3184 6.03027 11.0045 6.03027C10.6843 6.03027 10.4207 6.29394 10.4269 6.61411C10.4395 7.4993 10.1068 8.04548 9.25296 8.27776C9.11485 8.03292 8.95163 7.82575 8.75073 7.65625C8.49962 7.44907 8.34267 7.37374 8.10411 7.37374C7.77138 7.37374 7.54538 7.58091 7.54538 7.88225C7.54538 8.22126 7.7086 8.29659 8.04761 8.61049C8.29872 8.84905 8.43684 9.21944 8.43684 9.67773C8.43684 11.1028 7.31937 12.0571 5.63062 12.0571C3.89791 12.0571 2.74906 10.9521 2.74906 9.29478C2.74906 8.5226 3.06923 7.79436 3.60913 7.27329C4.02975 8.00153 4.82704 8.45354 5.87545 8.45354C6.19563 8.45354 6.4593 8.18987 6.4593 7.87597C6.4593 7.5558 6.19563 7.29213 5.87545 7.29213C4.99027 7.29213 4.44409 6.73967 4.44409 5.96749C4.44409 5.11997 5.14722 4.52357 6.09518 4.52357C6.35257 4.52357 6.62252 4.56752 6.8862 4.66796C6.76064 5.00697 6.6853 5.37737 6.67275 5.77288ZM14.1309 12.0131C14.1309 12.3333 14.382 12.5718 14.7085 12.597C15.4367 12.6409 16.0833 12.5342 16.6232 12.2956C16.6358 12.5028 16.6483 12.7225 16.6483 12.9611C16.6483 14.5117 16.077 15.6417 15.3802 15.6417C14.6582 15.6417 14.3443 14.6749 14.3443 13.8463C14.3443 13.7458 14.2816 13.6768 14.1623 13.6768C14.0053 13.683 13.8044 13.683 13.6161 13.683C12.3982 13.683 11.6197 13.2875 11.6197 12.3647C11.6197 10.2427 15.4367 10.5692 15.7066 7.28585C16.6483 7.49302 17.2447 8.25892 17.2447 9.33245C17.2447 10.7199 16.2403 11.5611 14.721 11.4355C14.3946 11.4104 14.1309 11.6929 14.1309 12.0131Z" fill="#1C1C1E"/>
</svg>
