<svg width="20" height="20" viewBox="0 0 20 20" fill="none" xmlns="http://www.w3.org/2000/svg">
<path d="M5.07811 16.7341C5.43595 16.7341 5.74984 16.5834 6.18302 16.2068L8.19822 14.4113C8.66279 14.8947 9.35964 15.1521 10.2323 15.1521H12.3793L14.4698 16.9475C14.8842 17.2991 15.1793 17.4937 15.5183 17.4937C16.0205 17.4937 16.3156 17.1359 16.3156 16.5897V15.1521H16.6043C18.1864 15.1521 19.2411 14.1853 19.2411 12.5593V8.72349C19.2411 7.07241 18.1675 6.0805 16.5541 6.0805H15.4618V5.67243C15.4618 3.96484 14.4133 2.9541 12.6932 2.9541H3.52747C1.85754 2.9541 0.758911 3.96484 0.758911 5.67243V11.5485C0.758911 13.231 1.83871 14.2292 3.47724 14.2292H4.26826V15.8364C4.26826 16.3888 4.5696 16.7341 5.07811 16.7341ZM5.392 13.614C5.392 13.2373 5.15972 13.0427 4.84583 13.0427H3.67814C2.636 13.0427 2.00821 12.4588 2.00821 11.3728V5.81055C2.00821 4.72447 2.64228 4.13435 3.67814 4.13435H12.5363C13.5784 4.13435 14.2062 4.72447 14.2062 5.81055V6.0805H10.2323C8.56234 6.0805 7.54532 7.07241 7.54532 8.72349V12.5593C7.54532 12.823 7.57043 13.0615 7.62066 13.2875L5.392 15.3718V13.614ZM15.1981 16.1314L13.2331 14.3485C12.9569 14.0974 12.7246 13.9844 12.3542 13.9844H10.3641C9.37847 13.9844 8.78207 13.4382 8.78207 12.3961V8.84277C8.78207 7.8132 9.37847 7.25446 10.3641 7.25446H16.416C17.4079 7.25446 18.0043 7.8132 18.0043 8.84277V12.3961C18.0043 13.4319 17.4016 13.9844 16.416 13.9844H15.738C15.4304 13.9844 15.1981 14.1727 15.1981 14.5494V16.1314Z" fill="#1C1C1E"/>
</svg>
