<svg width="20" height="20" viewBox="0 0 20 20" fill="none" xmlns="http://www.w3.org/2000/svg">
<path d="M5.26239 16.1883H14.7309C16.223 16.1883 17.0001 15.4181 17.0001 13.9466V5.57831C17.0001 4.1068 16.223 3.33667 14.7309 3.33667H5.26239C3.77713 3.33667 3.00012 4.09993 3.00012 5.57831V13.9466C3.00012 15.4181 3.77713 16.1883 5.26239 16.1883ZM5.25551 14.8199C4.68479 14.8199 4.36848 14.5242 4.36848 13.9191V7.59303C4.36848 6.98793 4.68479 6.69225 5.25551 6.69225H14.7378C15.3085 6.69225 15.6248 6.98793 15.6248 7.59303V13.9191C15.6248 14.5242 15.3085 14.8199 14.7378 14.8199H5.25551ZM8.67298 9.06454H9.07868C9.32622 9.06454 9.40873 8.9889 9.40873 8.74823V8.34254C9.40873 8.095 9.32622 8.01936 9.07868 8.01936H8.67298C8.42544 8.01936 8.34292 8.095 8.34292 8.34254V8.74823C8.34292 8.9889 8.42544 9.06454 8.67298 9.06454ZM10.9215 9.06454H11.3272C11.5679 9.06454 11.6504 8.9889 11.6504 8.74823V8.34254C11.6504 8.095 11.5679 8.01936 11.3272 8.01936H10.9215C10.674 8.01936 10.5914 8.095 10.5914 8.34254V8.74823C10.5914 8.9889 10.674 9.06454 10.9215 9.06454ZM13.1631 9.06454H13.5688C13.8164 9.06454 13.8989 8.9889 13.8989 8.74823V8.34254C13.8989 8.095 13.8164 8.01936 13.5688 8.01936H13.1631C12.9225 8.01936 12.84 8.095 12.84 8.34254V8.74823C12.84 8.9889 12.9225 9.06454 13.1631 9.06454ZM6.43134 11.2787H6.83016C7.0777 11.2787 7.16022 11.203 7.16022 10.9555V10.5498C7.16022 10.3091 7.0777 10.2335 6.83016 10.2335H6.43134C6.1838 10.2335 6.10129 10.3091 6.10129 10.5498V10.9555C6.10129 11.203 6.1838 11.2787 6.43134 11.2787ZM8.67298 11.2787H9.07868C9.32622 11.2787 9.40873 11.203 9.40873 10.9555V10.5498C9.40873 10.3091 9.32622 10.2335 9.07868 10.2335H8.67298C8.42544 10.2335 8.34292 10.3091 8.34292 10.5498V10.9555C8.34292 11.203 8.42544 11.2787 8.67298 11.2787ZM10.9215 11.2787H11.3272C11.5679 11.2787 11.6504 11.203 11.6504 10.9555V10.5498C11.6504 10.3091 11.5679 10.2335 11.3272 10.2335H10.9215C10.674 10.2335 10.5914 10.3091 10.5914 10.5498V10.9555C10.5914 11.203 10.674 11.2787 10.9215 11.2787ZM13.1631 11.2787H13.5688C13.8164 11.2787 13.8989 11.203 13.8989 10.9555V10.5498C13.8989 10.3091 13.8164 10.2335 13.5688 10.2335H13.1631C12.9225 10.2335 12.84 10.3091 12.84 10.5498V10.9555C12.84 11.203 12.9225 11.2787 13.1631 11.2787ZM6.43134 13.4859H6.83016C7.0777 13.4859 7.16022 13.4103 7.16022 13.1696V12.7639C7.16022 12.5164 7.0777 12.4408 6.83016 12.4408H6.43134C6.1838 12.4408 6.10129 12.5164 6.10129 12.7639V13.1696C6.10129 13.4103 6.1838 13.4859 6.43134 13.4859ZM8.67298 13.4859H9.07868C9.32622 13.4859 9.40873 13.4103 9.40873 13.1696V12.7639C9.40873 12.5164 9.32622 12.4408 9.07868 12.4408H8.67298C8.42544 12.4408 8.34292 12.5164 8.34292 12.7639V13.1696C8.34292 13.4103 8.42544 13.4859 8.67298 13.4859ZM10.9215 13.4859H11.3272C11.5679 13.4859 11.6504 13.4103 11.6504 13.1696V12.7639C11.6504 12.5164 11.5679 12.4408 11.3272 12.4408H10.9215C10.674 12.4408 10.5914 12.5164 10.5914 12.7639V13.1696C10.5914 13.4103 10.674 13.4859 10.9215 13.4859Z" fill="#1C1C1E"/>
</svg>
