<svg width="20" height="20" viewBox="0 0 20 20" fill="none" xmlns="http://www.w3.org/2000/svg">
<path d="M3.13196 15.1835C3.13196 15.51 3.34541 15.7234 3.67186 15.7234H16.2465C16.5855 15.7234 16.868 15.4597 16.868 15.1082C16.868 14.7566 16.5855 14.4929 16.2465 14.4929H4.53821C4.40637 14.4929 4.36243 14.449 4.36243 14.3172V10.902L7.02426 9.35761C7.23771 9.55851 7.52021 9.68406 7.84038 9.68406C8.11033 9.68406 8.36773 9.5899 8.56862 9.43295L9.74887 10.4374C9.70492 10.563 9.67981 10.7011 9.67981 10.8392C9.67981 11.5047 10.2134 12.0383 10.8726 12.0383C11.5318 12.0383 12.0717 11.5047 12.0717 10.8392C12.0717 10.789 12.0654 10.7325 12.0591 10.6823L14.9344 8.96211C15.1227 9.09394 15.355 9.16928 15.5999 9.16928C16.259 9.16928 16.7989 8.62938 16.7989 7.9702C16.7989 7.31102 16.259 6.77112 15.5999 6.77112C14.9407 6.77112 14.4008 7.31102 14.4008 7.9702C14.4008 8.05181 14.4133 8.13342 14.4259 8.20876L11.6071 9.89751C11.4062 9.74057 11.1488 9.6464 10.8726 9.6464C10.678 9.6464 10.4897 9.69034 10.3202 9.77823L9.02063 8.67332C9.02691 8.61054 9.03319 8.54776 9.03319 8.48499C9.03319 7.82581 8.49956 7.28591 7.84038 7.28591C7.17493 7.28591 6.6413 7.82581 6.6413 8.48499C6.6413 8.50382 6.6413 8.52265 6.6413 8.54149L4.36243 9.85985V4.44829C4.36243 4.10301 4.09875 3.82678 3.74719 3.82678C3.39563 3.82678 3.13196 4.10301 3.13196 4.44829V15.1835Z" fill="#1C1C1E"/>
</svg>
