<svg width="20" height="20" viewBox="0 0 20 20" fill="none" xmlns="http://www.w3.org/2000/svg">
<path d="M9.96865 16.2946C10.0816 16.2946 10.2512 16.257 10.4144 16.1691C14.0242 14.2041 15.2797 13.2938 15.2797 11.0086V6.26882C15.2797 5.51548 14.991 5.24553 14.3569 4.97558C13.6663 4.68052 11.3184 3.86439 10.6404 3.63211C10.4269 3.56305 10.1884 3.5191 9.96865 3.5191C9.7552 3.5191 9.51036 3.57561 9.30319 3.63211C8.62517 3.82672 6.27724 4.68679 5.58667 4.97558C4.9526 5.23925 4.66382 5.51548 4.66382 6.26882V11.0086C4.66382 13.2938 5.9194 14.1915 9.52919 16.1691C9.69242 16.257 9.86192 16.2946 9.96865 16.2946ZM9.96865 14.9637C9.88075 14.9637 9.79286 14.9323 9.6108 14.8193C6.74808 13.0741 5.85662 12.6032 5.85662 10.7764V6.46972C5.85662 6.24371 5.90056 6.15582 6.07635 6.08049C7.00548 5.71009 8.80723 5.11369 9.63592 4.78724C9.78031 4.73702 9.88075 4.71818 9.96865 4.71818C10.0628 4.71818 10.1633 4.73702 10.3077 4.78724C11.1363 5.11369 12.9255 5.74776 13.8609 6.08049C14.043 6.14954 14.0869 6.24371 14.0869 6.46972V10.7764C14.0869 12.6158 13.1578 13.1117 10.3328 14.8193C10.1507 14.9323 10.0628 14.9637 9.96865 14.9637ZM9.29691 12.5593C9.52919 12.5593 9.72381 12.4463 9.85564 12.2391L12.687 7.83202C12.7749 7.70019 12.8439 7.54952 12.8439 7.40512C12.8439 7.09123 12.5677 6.88406 12.2664 6.88406C12.078 6.88406 11.9085 6.99078 11.7767 7.20423L9.27808 11.1907L8.11039 9.71539C7.95972 9.52078 7.80905 9.45172 7.62699 9.45172C7.31309 9.45172 7.06825 9.70284 7.06825 10.0167C7.06825 10.1674 7.12476 10.3055 7.23148 10.4436L8.71306 12.2454C8.88257 12.4588 9.06463 12.5593 9.29691 12.5593Z" fill="#1C1C1E"/>
</svg>
