<svg width="16" height="17" viewBox="0 0 16 17" fill="none" xmlns="http://www.w3.org/2000/svg">
<path d="M12.1067 6C12.5971 6.00001 13 6.39266 13 6.90874C12.9999 7.10003 12.946 7.26694 12.8509 7.40945L12.742 7.54368L12.7399 7.54581L8.68154 11.7017C8.49575 11.8942 8.25943 12 8 12C7.73983 12 7.51391 11.8996 7.3236 11.7028L3.26007 7.54581L3.25802 7.54368C3.09586 7.37409 3.00007 7.15731 3 6.90874C3 6.39266 3.40287 6.00001 3.8933 6C4.13896 6 4.36479 6.09742 4.53577 6.26847L4.53783 6.27166L8.00411 9.8267L11.4622 6.27166L11.4642 6.26847C11.636 6.0966 11.8675 6 12.1067 6Z" fill="#393939"/>
</svg>
