<svg width="34" height="34" viewBox="0 0 34 34" fill="none" xmlns="http://www.w3.org/2000/svg">
<g clip-path="url(#clip0_1_2)">
<mask id="mask0_1_2" style="mask-type:luminance" maskUnits="userSpaceOnUse" x="0" y="0" width="34" height="34">
<path d="M17 -7.43094e-07C26.3888 -3.32694e-07 34 7.61116 34 17C34 26.3888 26.3888 34 17 34C7.61116 34 3.32694e-07 26.3888 7.43094e-07 17C1.15349e-06 7.61116 7.61116 -1.15349e-06 17 -7.43094e-07Z" fill="white"/>
</mask>
<g mask="url(#mask0_1_2)">
<path d="M17 34C26.3888 34 34 26.3888 34 17C34 7.61116 26.3888 -3.32694e-07 17 -7.43094e-07C7.61116 -1.15349e-06 -3.32694e-07 7.61116 -7.43094e-07 17C-1.15349e-06 26.3888 7.61116 34 17 34Z" fill="white"/>
<path d="M11.6451 17.7314L16.4226 12.8472C16.5921 12.6715 16.7804 12.5898 17.0001 12.5898C17.2199 12.5898 17.4208 12.6777 17.584 12.8472L22.3552 17.7314C22.4933 17.8758 22.5686 18.0453 22.5686 18.2525C22.5686 18.6731 22.2422 18.9996 21.8278 18.9996C21.627 18.9996 21.4323 18.918 21.2879 18.7736L17.0064 14.3728L12.7123 18.7736C12.5679 18.918 12.3796 18.9996 12.1724 18.9996C11.7581 18.9996 11.4316 18.6731 11.4316 18.2525C11.4316 18.0516 11.507 17.8758 11.6451 17.7314Z" fill="#0346B8" stroke="#0346B8"/>
</g>
</g>
<defs>
<clipPath id="clip0_1_2">
<rect width="34" height="34" fill="white"/>
</clipPath>
</defs>
</svg>
