<svg width="34" height="34" viewBox="0 0 34 34" fill="none" xmlns="http://www.w3.org/2000/svg">
<g clip-path="url(#clip0_322_1415)">
<rect width="34" height="34" rx="17" fill="white"/>
<path d="M18.7314 22.3549L13.8472 17.5774C13.6715 17.4079 13.5898 17.2196 13.5898 16.9999C13.5898 16.7801 13.6777 16.5792 13.8472 16.416L18.7314 11.6448C18.8758 11.5067 19.0453 11.4314 19.2525 11.4314C19.6731 11.4314 19.9996 11.7578 19.9996 12.1722C19.9996 12.373 19.918 12.5677 19.7736 12.7121L15.3728 16.9936L19.7736 21.2877C19.918 21.4321 19.9996 21.6204 19.9996 21.8276C19.9996 22.2419 19.6731 22.5684 19.2525 22.5684C19.0516 22.5684 18.8758 22.493 18.7314 22.3549Z" fill="#0346B8" stroke="#0346B8"/>
</g>
<defs>
<clipPath id="clip0_322_1415">
<rect width="34" height="34" rx="17" transform="matrix(-1 0 0 1 34 0)" fill="white"/>
</clipPath>
</defs>
</svg>
