<svg width="34" height="34" viewBox="0 0 34 34" fill="none" xmlns="http://www.w3.org/2000/svg">
<g clip-path="url(#clip0_331_1427)">
<rect width="34" height="34" rx="17" transform="matrix(-1 0 0 1 34 0)" fill="white"/>
<path d="M15.2686 22.3549L20.1528 17.5774C20.3285 17.4079 20.4102 17.2196 20.4102 16.9999C20.4102 16.7801 20.3223 16.5792 20.1528 16.416L15.2686 11.6448C15.1242 11.5067 14.9547 11.4314 14.7475 11.4314C14.3269 11.4314 14.0004 11.7578 14.0004 12.1722C14.0004 12.373 14.082 12.5677 14.2264 12.7121L18.6272 16.9936L14.2264 21.2877C14.082 21.4321 14.0004 21.6204 14.0004 21.8276C14.0004 22.2419 14.3269 22.5684 14.7475 22.5684C14.9484 22.5684 15.1242 22.493 15.2686 22.3549Z" fill="#0346B8" stroke="#0346B8"/>
</g>
<defs>
<clipPath id="clip0_331_1427">
<rect width="34" height="34" rx="17" fill="white"/>
</clipPath>
</defs>
</svg>
