<svg width="34" height="34" viewBox="0 0 34 34" fill="none" xmlns="http://www.w3.org/2000/svg">
<g clip-path="url(#clip0_1_9)">
<mask id="mask0_1_9" style="mask-type:luminance" maskUnits="userSpaceOnUse" x="0" y="0" width="34" height="34">
<path d="M17 34C26.3888 34 34 26.3888 34 17C34 7.61116 26.3888 -3.32694e-07 17 -7.43094e-07C7.61116 -1.15349e-06 -3.32694e-07 7.61116 -7.43094e-07 17C-1.15349e-06 26.3888 7.61116 34 17 34Z" fill="white"/>
</mask>
<g mask="url(#mask0_1_9)">
<path d="M17 -7.43094e-07C26.3888 -3.32694e-07 34 7.61116 34 17C34 26.3888 26.3888 34 17 34C7.61116 34 3.32694e-07 26.3888 7.43094e-07 17C1.15349e-06 7.61116 7.61116 -1.15349e-06 17 -7.43094e-07Z" fill="white"/>
<path d="M11.6451 16.2686L16.4226 21.1528C16.5921 21.3285 16.7804 21.4102 17.0001 21.4102C17.2199 21.4102 17.4208 21.3223 17.584 21.1528L22.3552 16.2686C22.4933 16.1242 22.5686 15.9547 22.5686 15.7475C22.5686 15.3269 22.2422 15.0004 21.8278 15.0004C21.627 15.0004 21.4323 15.082 21.2879 15.2264L17.0064 19.6272L12.7123 15.2264C12.5679 15.082 12.3796 15.0004 12.1724 15.0004C11.7581 15.0004 11.4316 15.3269 11.4316 15.7475C11.4316 15.9484 11.507 16.1242 11.6451 16.2686Z" fill="#0346B8" stroke="#0346B8"/>
</g>
</g>
<defs>
<clipPath id="clip0_1_9">
<rect width="34" height="34" fill="white"/>
</clipPath>
</defs>
</svg>
