<svg width="20" height="20" viewBox="0 0 20 20" fill="none" xmlns="http://www.w3.org/2000/svg">
<path d="M3.37681 8.4661C2.88086 8.4661 2.7553 8.84277 3.02525 9.21317L4.55706 11.3351C4.77051 11.6302 5.09696 11.6239 5.30413 11.3351L6.83594 9.20689C7.09961 8.84905 6.98033 8.4661 6.49065 8.4661H5.58036C6.15165 6.21233 8.17941 4.56124 10.6215 4.56124C13.5031 4.56124 15.8133 6.87151 15.8133 9.75307C15.8133 12.6346 13.5031 14.9575 10.6215 14.9512C8.94531 14.9449 7.47628 14.1602 6.5346 12.9234C6.2772 12.6283 5.90053 12.5342 5.59291 12.7602C5.30413 12.9674 5.24763 13.3754 5.53013 13.7207C6.68527 15.2274 8.59375 16.2444 10.6215 16.2444C14.1748 16.2444 17.1129 13.3064 17.1129 9.75307C17.1129 6.19978 14.1748 3.26172 10.6215 3.26172C7.50139 3.26172 4.8584 5.51549 4.25572 8.4661H3.37681ZM10.3892 6.11816C10.0816 6.11816 9.83677 6.363 9.83677 6.66434V10.067C9.83677 10.2176 9.887 10.3557 9.99372 10.5001L11.4879 12.4714C11.7139 12.7665 12.0403 12.8167 12.3103 12.6221C12.5677 12.44 12.5928 12.1073 12.3919 11.8373L10.9354 9.87863V6.66434C10.9354 6.363 10.6906 6.11816 10.3892 6.11816Z" fill="#1C1C1E"/>
</svg>
