<svg width="34" height="34" viewBox="0 0 34 34" fill="none" xmlns="http://www.w3.org/2000/svg">
<rect width="34" height="34" rx="17" transform="matrix(-1 0 0 1 34 0)" fill="white"/>
<path d="M23.4102 12.1719C23.41 11.4789 22.8568 10.9319 22.1631 10.9316C21.817 10.9316 21.5257 11.0635 21.2959 11.2832L21.292 11.2871L17.2051 15.2812L13.1182 11.2871L13.1143 11.2832C12.8845 11.0635 12.5932 10.9316 12.2471 10.9316C11.5534 10.9319 11.0001 11.4789 11 12.1719C11 12.5082 11.1369 12.8293 11.373 13.0654L11.3779 13.0703L15.4111 16.9951L11.377 20.9297L11.373 20.9346C11.1387 21.169 11.0001 21.4826 11 21.8271C11 22.5203 11.5533 23.0681 12.2471 23.0684C12.5847 23.0684 12.8828 22.9373 13.1143 22.7158L13.1182 22.7119L17.2051 18.7148L21.292 22.7119L21.2959 22.7158C21.5274 22.9373 21.8254 23.0684 22.1631 23.0684C22.8569 23.0681 23.4102 22.5203 23.4102 21.8271C23.41 21.4826 23.2715 21.169 23.0371 20.9346L23.0332 20.9297L18.999 16.9951L23.0322 13.0703L23.0371 13.0654C23.2733 12.8293 23.4102 12.5082 23.4102 12.1719Z" fill="#0346B8"/>
</svg>
