<svg width="35" height="35" viewBox="0 0 35 35" fill="none" xmlns="http://www.w3.org/2000/svg">
<path d="M10.3919 22.4182C9.93046 22.8796 9.90849 23.7036 10.4029 24.176C10.8753 24.6704 11.7102 24.6484 12.1717 24.187L17.5 18.8586L22.8284 24.187C23.3008 24.6594 24.1138 24.6704 24.5862 24.176C25.0806 23.7036 25.0696 22.8796 24.5972 22.4072L19.2688 17.0789L24.5972 11.7615C25.0696 11.2781 25.0806 10.4651 24.5862 9.99268C24.1138 9.49829 23.3008 9.50928 22.8284 9.98169L17.5 15.3101L12.1717 9.98169C11.7102 9.52026 10.8753 9.49829 10.4029 9.99268C9.90849 10.4651 9.93046 11.2891 10.3919 11.7505L15.7203 17.0789L10.3919 22.4182Z" fill="#1C1C1E"/>
</svg>
