<svg width="20" height="20" viewBox="0 0 20 20" fill="none" xmlns="http://www.w3.org/2000/svg">
<path d="M4.63245 15.2022H15.3614C16.7237 15.2022 17.4268 14.4928 17.4268 13.1494V6.36923C17.4268 5.02576 16.7237 4.32263 15.3614 4.32263H4.63245C3.27642 4.32263 2.56702 5.02576 2.56702 6.36923V13.1494C2.56702 14.4991 3.27642 15.2022 4.63245 15.2022ZM3.81632 6.48223C3.81632 5.87955 4.13649 5.57821 4.71406 5.57821H15.2798C15.8573 5.57821 16.1775 5.87955 16.1775 6.48223V6.93424H3.81632V6.48223ZM4.71406 13.9467C4.13649 13.9467 3.81632 13.6453 3.81632 13.0426V8.40955H16.1775V13.0426C16.1775 13.6453 15.8573 13.9467 15.2798 13.9467H4.71406ZM5.56785 12.8104H7.10594C7.47634 12.8104 7.72745 12.5655 7.72745 12.214V11.0463C7.72745 10.6947 7.47634 10.4499 7.10594 10.4499H5.56785C5.20374 10.4499 4.95262 10.6947 4.95262 11.0463V12.214C4.95262 12.5655 5.20374 12.8104 5.56785 12.8104Z" fill="#1C1C1E"/>
</svg>
