<svg width="20" height="20" viewBox="0 0 20 20" fill="none" xmlns="http://www.w3.org/2000/svg">
<path d="M6.27096 16.3197H9.83681C9.46014 15.9745 9.16507 15.5476 8.98929 15.0704H6.38396C5.78128 15.0704 5.47995 14.7628 5.47995 14.1853V4.86884C5.47995 4.29756 5.78128 3.9711 6.38396 3.9711H12.8565C13.4403 3.9711 13.7605 4.29128 13.7605 4.86884V10.293C14.2376 10.4687 14.6645 10.7638 15.0098 11.1405V4.78723C15.0098 3.42493 14.313 2.7218 12.9632 2.7218H6.27096C4.92749 2.7218 4.22437 3.4312 4.22437 4.78723V14.2543C4.22437 15.6166 4.92749 16.3197 6.27096 16.3197ZM7.33193 6.52621H11.9148C12.1408 6.52621 12.3103 6.35043 12.3103 6.12442C12.3103 5.9047 12.1408 5.72892 11.9148 5.72892H7.33193C7.09964 5.72892 6.93014 5.9047 6.93014 6.12442C6.93014 6.35043 7.09964 6.52621 7.33193 6.52621ZM7.33193 8.66697H11.9148C12.1408 8.66697 12.3103 8.49119 12.3103 8.26519C12.3103 8.04546 12.1408 7.86968 11.9148 7.86968H7.33193C7.09964 7.86968 6.93014 8.04546 6.93014 8.26519C6.93014 8.49119 7.09964 8.66697 7.33193 8.66697ZM12.2538 16.3197C12.7874 16.3197 13.2834 16.1691 13.704 15.9117L15.0412 17.2489C15.1919 17.3995 15.3425 17.456 15.5246 17.456C15.8448 17.456 16.0896 17.2049 16.0896 16.8596C16.0896 16.709 16.0205 16.552 15.9013 16.4327L14.5578 15.083C14.8466 14.6498 15.0161 14.1225 15.0161 13.5637C15.0161 12.0382 13.7793 10.8015 12.2538 10.8015C10.7345 10.8015 9.49152 12.0445 9.49152 13.5637C9.49152 15.083 10.7345 16.3197 12.2538 16.3197ZM12.2538 15.3655C11.2556 15.3655 10.4458 14.5556 10.4458 13.5637C10.4458 12.5781 11.2556 11.762 12.2538 11.762C13.2394 11.762 14.0493 12.5781 14.0493 13.5637C14.0493 14.5556 13.2457 15.3655 12.2538 15.3655Z" fill="#1C1C1E"/>
</svg>
