<svg width="20" height="20" viewBox="0 0 20 20" fill="none" xmlns="http://www.w3.org/2000/svg">
<path d="M6.6539 16.5583H13.3461C14.6959 16.5583 15.3927 15.8489 15.3927 14.4929V8.79255C15.3927 7.91364 15.2797 7.51186 14.7336 6.95312L11.4502 3.61956C10.9166 3.07966 10.4771 2.9541 9.68612 2.9541H6.6539C5.31042 2.9541 4.6073 3.6635 4.6073 5.02581V14.4929C4.6073 15.8489 5.31042 16.5583 6.6539 16.5583ZM6.76062 15.3027C6.15794 15.3027 5.8566 14.9888 5.8566 14.4113V5.10114C5.8566 4.52985 6.15794 4.20968 6.7669 4.20968H9.42873V7.62486C9.42873 8.53516 9.87446 8.97461 10.7785 8.97461H14.1434V14.4113C14.1434 14.9888 13.8421 15.3027 13.2331 15.3027H6.76062ZM10.8978 7.87598C10.6341 7.87598 10.5211 7.76297 10.5211 7.50558V4.37291L13.9739 7.87598H10.8978ZM12.2098 10.6194H7.67719C7.43863 10.6194 7.26913 10.7889 7.26913 11.0086C7.26913 11.2347 7.43863 11.4104 7.67719 11.4104H12.2098C12.4358 11.4104 12.6053 11.2347 12.6053 11.0086C12.6053 10.7889 12.4358 10.6194 12.2098 10.6194ZM12.2098 12.7162H7.67719C7.43863 12.7162 7.26913 12.892 7.26913 13.118C7.26913 13.3378 7.43863 13.5073 7.67719 13.5073H12.2098C12.4358 13.5073 12.6053 13.3378 12.6053 13.118C12.6053 12.892 12.4358 12.7162 12.2098 12.7162Z" fill="#1C1C1E"/>
</svg>
