<svg width="20" height="20" viewBox="0 0 20 20" fill="none" xmlns="http://www.w3.org/2000/svg">
<path d="M3.45844 15.6731C3.45844 17.0354 4.16156 17.7385 5.50503 17.7385H11.3811C12.7246 17.7385 13.4277 17.0291 13.4277 15.6731V14.5117H14.495C15.8385 14.5117 16.5416 13.8023 16.5416 12.4463V7.48045C16.5416 6.65177 16.3658 6.12442 15.8698 5.61591L12.7435 2.42674C12.2663 1.94334 11.7013 1.755 10.9794 1.755H8.61887C7.2754 1.755 6.57227 2.46441 6.57227 3.82671V4.98185H5.50503C4.16156 4.98185 3.45844 5.69753 3.45844 7.05355V15.6731ZM12.7937 9.06876L9.39105 5.61591C8.91393 5.13252 8.50587 5.00068 7.82158 4.98812V3.90205C7.82158 3.33076 8.12292 3.01059 8.72559 3.01059H11.3435V5.99259C11.3435 6.77105 11.7578 7.17911 12.53 7.17911H15.286V12.3647C15.286 12.9422 14.9847 13.2624 14.382 13.2624H13.4277V10.8517C13.4277 10.0042 13.321 9.60866 12.7937 9.06876ZM12.3793 5.83564V3.5191L14.9596 6.14326H12.687C12.4672 6.14326 12.3793 6.05537 12.3793 5.83564ZM4.70774 15.5915V7.13517C4.70774 6.5576 5.00908 6.23743 5.61803 6.23743H7.53279V9.65261C7.53279 10.5629 7.97852 11.0024 8.88254 11.0024H12.1784V15.5915C12.1784 16.1691 11.8771 16.4892 11.2681 16.4892H5.61176C5.00908 16.4892 4.70774 16.1691 4.70774 15.5915ZM9.00182 9.90372C8.74443 9.90372 8.63143 9.797 8.63143 9.53333V6.47599L12.0089 9.90372H9.00182Z" fill="#1C1C1E"/>
</svg>
