<svg width="20" height="20" viewBox="0 0 20 20" fill="none" xmlns="http://www.w3.org/2000/svg">
<path d="M5.00879 15.2773H15.135C16.3467 15.2773 17.0498 14.5742 17.0498 13.2307V6.29367C17.0498 4.9502 16.3404 4.24707 14.9844 4.24707H4.85812C3.64648 4.24707 2.94336 4.94392 2.94336 6.29367V13.2307C2.94336 14.5742 3.65276 15.2773 5.00879 15.2773ZM9.29032 9.97879L4.72001 5.45871C4.8079 5.43987 4.90834 5.42732 5.01507 5.42732H14.9781C15.0911 5.42732 15.1915 5.43987 15.2857 5.46498L10.7217 9.97879C10.458 10.2362 10.2383 10.3492 10.006 10.3492C9.77372 10.3492 9.55399 10.2299 9.29032 9.97879ZM4.11733 6.38156L7.53251 9.74023L4.11733 13.1177V6.38156ZM12.4795 9.74023L15.8758 6.40039V13.1052L12.4795 9.74023ZM5.01507 14.0908C4.90206 14.0908 4.79534 14.0783 4.70117 14.0594L8.29841 10.4936L8.63742 10.8326C9.0957 11.2783 9.53516 11.4667 10.006 11.4667C10.4706 11.4667 10.9163 11.2783 11.3683 10.8326L11.7136 10.4936L15.3045 14.0532C15.2041 14.0783 15.0974 14.0908 14.9781 14.0908H5.01507Z" fill="#1C1C1E"/>
</svg>
