<svg width="20" height="20" viewBox="0 0 20 20" fill="none" xmlns="http://www.w3.org/2000/svg">
<path d="M10.0064 15.2022C15.1605 15.2022 18.6259 11.0463 18.6259 9.75929C18.6259 8.47232 15.148 4.32263 10.0064 4.32263C4.92756 4.32263 1.37427 8.47232 1.37427 9.75929C1.37427 11.0463 4.915 15.2022 10.0064 15.2022ZM10.0064 13.9718C6.00108 13.9718 2.83074 10.6382 2.83074 9.75929C2.83074 9.02478 6.00108 5.5531 10.0064 5.5531C13.9929 5.5531 17.1695 9.02478 17.1695 9.75929C17.1695 10.6382 13.9929 13.9718 10.0064 13.9718ZM10.0064 13.1305C11.8772 13.1305 13.3776 11.5924 13.3776 9.75929C13.3776 7.8822 11.8772 6.39434 10.0064 6.39434C8.12301 6.39434 6.61632 7.8822 6.62259 9.75929C6.63515 11.5924 8.12301 13.1305 10.0064 13.1305ZM10.0001 10.8454C9.39743 10.8454 8.90775 10.3557 8.90775 9.75929C8.90775 9.16289 9.39743 8.67322 10.0001 8.67322C10.6028 8.67322 11.0925 9.16289 11.0925 9.75929C11.0925 10.3557 10.6028 10.8454 10.0001 10.8454Z" fill="#1C1C1E"/>
</svg>
