<svg width="20" height="20" viewBox="0 0 20 20" fill="none" xmlns="http://www.w3.org/2000/svg">
<g opacity="0.5">
<path d="M14.9541 15.3152C15.155 15.5098 15.4626 15.5223 15.6635 15.3152C15.8707 15.1017 15.8581 14.8004 15.6635 14.6058L5.01618 3.96473C4.82157 3.77012 4.49512 3.76384 4.3005 3.96473C4.11217 4.15307 4.11217 4.47952 4.3005 4.66786L14.9541 15.3152ZM10.0071 4.32257C8.90848 4.32257 7.91657 4.51091 6.99372 4.81853L8.01074 5.83555C8.64481 5.65976 9.29771 5.55304 10.0071 5.55304C13.9999 5.55304 17.1702 9.02472 17.1702 9.75923C17.1702 10.2552 16.1657 11.5296 14.5649 12.5341L15.5066 13.482C17.4778 12.1888 18.6267 10.5 18.6267 9.75923C18.6267 8.47226 15.1613 4.32257 10.0071 4.32257ZM10.0071 15.2022C11.1622 15.2022 12.2232 15.0013 13.1837 14.6686L12.1667 13.6515C11.4887 13.8524 10.773 13.9717 10.0071 13.9717C6.00181 13.9717 2.83147 10.6381 2.83147 9.75923C2.83147 9.33862 3.89244 7.98887 5.59375 6.93418L4.63323 5.97366C2.58664 7.27946 1.375 9.01216 1.375 9.75923C1.375 11.0462 4.91574 15.2022 10.0071 15.2022ZM13.1272 10.9583C13.2905 10.5942 13.3783 10.1799 13.3783 9.75923C13.3783 7.88214 11.8779 6.39428 10.0071 6.39428C9.57394 6.39428 9.17215 6.48217 8.80176 6.63284L13.1272 10.9583ZM10.0071 13.1305C10.4842 13.1305 10.9362 13.0175 11.3443 12.8229L6.93094 8.40949C6.73005 8.81755 6.62333 9.27584 6.62333 9.76551C6.6296 11.5924 8.12374 13.1305 10.0071 13.1305Z" fill="#1C1C1E"/>
</g>
</svg>
