<svg width="20" height="20" viewBox="0 0 20 20" fill="none" xmlns="http://www.w3.org/2000/svg">
<path d="M9.9933 16.2444C13.5529 16.2444 16.4909 13.3064 16.4909 9.75307C16.4909 6.19978 13.5466 3.26172 9.98703 3.26172C6.43373 3.26172 3.50195 6.19978 3.50195 9.75307C3.50195 13.3064 6.44001 16.2444 9.9933 16.2444ZM6.21401 5.81682C6.83552 5.22042 7.60142 4.76214 8.44894 4.50474C8.00321 4.95047 7.62653 5.58454 7.34403 6.35045C6.90458 6.21233 6.52162 6.03027 6.21401 5.81682ZM11.5439 4.51102C12.3915 4.76842 13.1511 5.22042 13.7726 5.8231C13.465 6.03655 13.0883 6.21233 12.6489 6.35672C12.3663 5.58454 11.9897 4.95675 11.5439 4.51102ZM8.21666 6.57017C8.56194 5.64732 9.03278 4.96931 9.55385 4.72447V6.70829C9.07673 6.68945 8.631 6.64551 8.21666 6.57017ZM10.4328 4.72447C10.9538 4.96931 11.4309 5.64732 11.7699 6.57017C11.3619 6.64551 10.9099 6.68945 10.4328 6.70829V4.72447ZM4.53781 9.31362C4.6257 8.25265 5.02121 7.2733 5.63644 6.46973C6.01311 6.75223 6.50907 6.99707 7.08663 7.17913C6.92341 7.82575 6.82296 8.54771 6.79157 9.31362H4.53781ZM13.195 9.31362C13.1699 8.54771 13.0632 7.82575 12.9 7.17913C13.4775 6.99707 13.9735 6.75223 14.3502 6.46973C14.9654 7.2733 15.3609 8.25265 15.4488 9.31362H13.195ZM10.4328 9.31362V7.58719C10.9915 7.56836 11.5314 7.50558 12.0273 7.40513C12.1717 7.98898 12.2722 8.6356 12.2973 9.31362H10.4328ZM7.68931 9.31362C7.7207 8.6356 7.81487 7.98898 7.95926 7.40513C8.4615 7.50558 8.99512 7.56836 9.55385 7.58719V9.31362H7.68931ZM4.53781 10.1925H6.79157C6.81669 10.971 6.92341 11.6992 7.09291 12.3584C6.52162 12.5405 6.02567 12.779 5.649 13.0552C5.02748 12.2454 4.6257 11.2598 4.53781 10.1925ZM7.68931 10.1925H9.55385V11.9503C9.00139 11.9692 8.4615 12.0319 7.96554 12.1324C7.81487 11.536 7.7207 10.8768 7.68931 10.1925ZM10.4328 11.9503V10.1925H12.3036C12.2722 10.8768 12.1717 11.536 12.0211 12.1324C11.5251 12.0319 10.9915 11.9692 10.4328 11.9503ZM12.9 12.3584C13.0632 11.6992 13.1699 10.971 13.2013 10.1925H15.4488C15.3609 11.2598 14.9591 12.2454 14.3376 13.0552C13.9609 12.779 13.4713 12.5405 12.9 12.3584ZM10.4328 12.8292C10.9099 12.8481 11.3493 12.892 11.7637 12.9674C11.4247 13.8714 10.9538 14.5431 10.4328 14.7879V12.8292ZM8.22921 12.9674C8.63728 12.892 9.08301 12.8481 9.55385 12.8292V14.7879C9.03906 14.5431 8.56822 13.8714 8.22921 12.9674ZM6.23284 13.7019C6.54046 13.4947 6.91713 13.3189 7.35031 13.1808C7.62653 13.9342 8.00321 14.5557 8.43638 14.9951C7.60142 14.744 6.84807 14.292 6.23284 13.7019ZM12.6426 13.1808C13.0758 13.3189 13.4524 13.4947 13.76 13.7019C13.1385 14.292 12.3852 14.744 11.5502 14.9951C11.9897 14.5557 12.3601 13.9342 12.6426 13.1808Z" fill="#1C1C1E"/>
</svg>
