<svg width="20" height="20" viewBox="0 0 20 20" fill="none" xmlns="http://www.w3.org/2000/svg">
<path d="M9.9933 16.2505C13.5529 16.2505 16.4909 13.3124 16.4909 9.75284C16.4909 6.639 14.2372 4.00228 11.2928 3.39333V2.47048C11.2928 1.99336 10.935 1.85524 10.5458 2.13775L8.42383 3.63817C8.10365 3.87045 8.10365 4.22201 8.42383 4.44801L10.5395 5.95471C10.9287 6.23722 11.2928 6.11166 11.2928 5.62198V4.71796C13.5403 5.28925 15.1851 7.31702 15.1851 9.75284C15.1851 12.6344 12.8749 14.9509 9.9933 14.9509C7.11175 14.9509 4.7952 12.6344 4.80148 9.75284C4.80776 8.07664 5.59249 6.61389 6.82296 5.66593C7.11802 5.40853 7.21219 5.03814 6.98619 4.73052C6.77902 4.43546 6.37095 4.38524 6.03195 4.66146C4.50642 5.80404 3.50195 7.72508 3.50195 9.75284C3.50195 13.3124 6.44001 16.2505 9.9933 16.2505ZM11.5126 12.4335C12.5359 12.4335 13.2453 11.4542 13.2453 9.91607C13.2453 8.35915 12.5359 7.3798 11.5126 7.3798C10.483 7.3798 9.78613 8.32776 9.78613 9.91607C9.78613 11.4918 10.483 12.4335 11.5126 12.4335ZM8.27316 12.377C8.55566 12.377 8.73772 12.1887 8.73772 11.8873V8.00759C8.73772 7.63719 8.53055 7.42374 8.2041 7.42374C8.00321 7.42374 7.85882 7.48652 7.61398 7.66858L6.79785 8.24615C6.63463 8.37798 6.55929 8.50354 6.55929 8.67932C6.55929 8.90533 6.73507 9.09366 6.96108 9.09366C7.09291 9.09366 7.17453 9.06227 7.30008 8.94927L7.82743 8.52865V11.8873C7.82743 12.1824 8.00321 12.377 8.27316 12.377ZM11.5188 11.5797C11.0166 11.5797 10.709 10.9645 10.709 9.91607C10.709 8.84882 11.0103 8.23359 11.5188 8.23359C12.0211 8.23359 12.3161 8.84255 12.3161 9.91607C12.3161 10.9645 12.0148 11.5797 11.5188 11.5797Z" fill="#393939"/>
</svg>
