<svg width="20" height="20" viewBox="0 0 20 20" fill="none" xmlns="http://www.w3.org/2000/svg">
<path d="M9.9933 16.2511C13.5529 16.2511 16.4909 13.313 16.4909 9.75347C16.4909 7.72571 15.4802 5.80467 13.9609 4.66209C13.6219 4.38587 13.2076 4.43609 13.0004 4.73115C12.7744 5.03877 12.8749 5.40916 13.1636 5.66656C14.4004 6.61452 15.1851 8.07727 15.1914 9.75347C15.1977 12.635 12.8749 14.9516 9.9933 14.9516C7.11175 14.9516 4.80776 12.635 4.80776 9.75347C4.80776 7.31765 6.45257 5.28988 8.70006 4.71859V5.62889C8.70006 6.11229 9.0579 6.24413 9.44713 5.96162L11.5691 4.4612C11.883 4.22892 11.8892 3.87736 11.5691 3.65135L9.4534 2.14466C9.0579 1.86215 8.70006 1.98771 8.70006 2.47738V3.39396C5.74944 4.00291 3.50195 6.63963 3.50195 9.75347C3.50195 13.313 6.44001 16.2511 9.9933 16.2511ZM11.5126 12.4341C12.5359 12.4341 13.2453 11.4548 13.2453 9.9167C13.2453 8.35978 12.5359 7.38043 11.5126 7.38043C10.4893 7.38043 9.78613 8.32839 9.78613 9.9167C9.78613 11.4925 10.4893 12.4341 11.5126 12.4341ZM8.29199 12.3776C8.5745 12.3776 8.75656 12.1893 8.75656 11.888V8.00822C8.75656 7.63782 8.54939 7.42437 8.21666 7.42437C8.02204 7.42437 7.87765 7.48715 7.62653 7.66921L6.81669 8.24678C6.65346 8.37861 6.57812 8.50417 6.57812 8.67995C6.57812 8.90596 6.75391 9.09429 6.97363 9.09429C7.11175 9.09429 7.18708 9.0629 7.31892 8.9499L7.84626 8.52928V11.888C7.84626 12.183 8.02204 12.3776 8.29199 12.3776ZM11.5188 11.5803C11.0166 11.5803 10.709 10.9651 10.709 9.9167C10.709 8.84945 11.0166 8.23422 11.5188 8.23422C12.0211 8.23422 12.3224 8.84318 12.3224 9.9167C12.3224 10.9651 12.0148 11.5803 11.5188 11.5803Z" fill="#393939"/>
</svg>
