<svg width="20" height="20" viewBox="0 0 20 20" fill="none" xmlns="http://www.w3.org/2000/svg">
<path d="M3.78489 12.3835C3.78489 13.3628 4.38757 14.2418 5.44226 14.8884V15.4911C5.09698 15.6041 4.88353 15.9054 4.88353 16.3197V18.0085C4.88353 18.5421 5.23509 18.8937 5.76871 18.8937H6.03238C6.56601 18.8937 6.91757 18.5421 6.91757 18.0085V16.3197C6.91757 15.9117 6.7104 15.6041 6.37139 15.4911V15.3467C7.35702 15.7422 8.59377 15.9745 9.99374 15.9745C13.6851 15.9745 16.2089 14.3799 16.2089 12.3835V9.571L17.9918 8.75487C18.4375 8.5477 18.6824 8.15219 18.6824 7.72529C18.6824 7.30467 18.4375 6.90289 17.9918 6.702L11.7829 3.86438C11.0987 3.55677 10.5462 3.41238 9.99374 3.41865C9.44756 3.41238 8.89511 3.55677 8.20454 3.86438L2.00197 6.702C1.54996 6.90289 1.3114 7.30467 1.3114 7.72529C1.3114 8.15219 1.54996 8.5477 2.00197 8.75487L3.78489 9.571V12.3835ZM9.99374 10.8015C9.59195 10.8015 9.209 10.701 8.68794 10.4562L7.01801 9.70283L9.40989 8.44725C9.59823 8.49748 9.8054 8.52887 10.0189 8.52887C10.7345 8.52887 11.4251 8.19614 11.4251 7.72529C11.4251 7.26701 10.7345 6.94056 10.0189 6.94056C9.29689 6.94056 8.60005 7.26701 8.60005 7.72529C8.60005 7.78807 8.6126 7.84457 8.63144 7.8948L6.01983 9.24455L3.09433 7.91363C2.99388 7.86969 2.94366 7.80691 2.94366 7.72529C2.94366 7.64996 2.99388 7.5809 3.09433 7.53696L8.68794 4.99441C9.209 4.75585 9.59195 4.64912 9.99374 4.64912C10.3955 4.64912 10.7785 4.75585 11.3058 4.99441L16.8994 7.53696C16.9936 7.5809 17.0438 7.64996 17.0438 7.72529C17.0438 7.80691 16.9936 7.86969 16.8994 7.91363L11.3058 10.4562C10.7785 10.701 10.3955 10.8015 9.99374 10.8015ZM4.99653 12.3835V10.1235L5.44226 10.3243V13.4068C5.1472 13.0866 4.99653 12.7413 4.99653 12.3835ZM9.99374 12.0382C10.5462 12.0445 11.0987 11.9001 11.7829 11.5862L14.9972 10.1235V12.3835C14.9972 13.6579 13.0134 14.8319 9.99374 14.8319C8.49332 14.8319 7.24402 14.5368 6.37139 14.0848V10.7512L8.20454 11.5862C8.89511 11.9001 9.44756 12.0445 9.99374 12.0382Z" fill="#1C1C1E"/>
</svg>
