<svg width="20" height="20" viewBox="0 0 20 20" fill="none" xmlns="http://www.w3.org/2000/svg">
<rect width="20" height="20" rx="10" fill="#ECEFF6"/>
<path d="M7.8076 4.7421C7.2443 4.76868 6.85963 4.85858 6.52334 4.99072C6.1753 5.12635 5.88031 5.30836 5.5868 5.60293C5.29329 5.8975 5.11255 6.1927 4.97787 6.54126C4.84752 6.87829 4.75922 7.26328 4.73433 7.82689C4.70945 8.3905 4.70395 8.57167 4.7067 10.0093C4.70945 11.447 4.7158 11.6272 4.74312 12.192C4.77002 12.7552 4.85959 13.1398 4.99174 13.4762C5.12759 13.8242 5.30939 14.1191 5.60406 14.4127C5.89873 14.7063 6.19373 14.8866 6.54314 15.0215C6.87985 15.1516 7.26495 15.2404 7.82846 15.265C8.39197 15.2897 8.57335 15.2954 10.0106 15.2927C11.4479 15.2899 11.6288 15.2836 12.1935 15.2568C12.7582 15.23 13.1407 15.1398 13.4772 15.0083C13.8253 14.8721 14.1204 14.6906 14.4138 14.3959C14.7072 14.1011 14.8878 13.8057 15.0224 13.4569C15.1528 13.1202 15.2415 12.7351 15.2659 12.172C15.2906 11.6069 15.2964 11.4265 15.2937 9.98902C15.2909 8.55155 15.2845 8.37134 15.2577 7.80677C15.2309 7.24221 15.1412 6.85881 15.0092 6.5222C14.8731 6.17417 14.6915 5.8795 14.3969 5.58567C14.1024 5.29185 13.8067 5.11132 13.4581 4.97706C13.1211 4.84672 12.7363 4.75788 12.1728 4.73353C11.6092 4.70917 11.4279 4.70293 9.99007 4.70568C8.55228 4.70843 8.37228 4.71457 7.8076 4.7421ZM7.86944 14.3126C7.35325 14.2902 7.07298 14.2044 6.8862 14.1326C6.63886 14.0373 6.46267 13.9221 6.27653 13.7378C6.09038 13.5535 5.97603 13.3766 5.87946 13.1298C5.80693 12.943 5.71958 12.6631 5.69544 12.1469C5.66918 11.589 5.66367 11.4215 5.6606 10.0081C5.65753 8.59465 5.66293 8.42735 5.68739 7.86924C5.70941 7.35349 5.79571 7.0729 5.86739 6.88623C5.96269 6.63857 6.07747 6.4627 6.26223 6.27666C6.447 6.09063 6.62329 5.97606 6.87032 5.8795C7.05689 5.80665 7.33684 5.72004 7.85281 5.69547C8.41114 5.669 8.57843 5.66371 9.99166 5.66064C11.4049 5.65757 11.5726 5.66286 12.1311 5.68742C12.6469 5.70987 12.9276 5.79532 13.1141 5.86743C13.3615 5.96272 13.5376 6.07718 13.7236 6.26226C13.9097 6.44735 14.0243 6.623 14.1209 6.87056C14.1939 7.05659 14.2805 7.33644 14.3048 7.85273C14.3314 8.41105 14.3374 8.57845 14.34 9.99156C14.3425 11.4047 14.3375 11.5725 14.3131 12.1304C14.2905 12.6466 14.205 12.9269 14.1331 13.1139C14.0378 13.3612 13.9229 13.5375 13.738 13.7234C13.5532 13.9093 13.3771 14.0239 13.1299 14.1205C12.9436 14.1932 12.6633 14.28 12.1478 14.3046C11.5894 14.3308 11.4221 14.3363 10.0084 14.3394C8.59463 14.3425 8.42787 14.3368 7.86954 14.3126M12.1854 7.16968C12.1856 7.29534 12.223 7.41811 12.293 7.52247C12.363 7.62683 12.4624 7.70809 12.5786 7.75598C12.6947 7.80386 12.8225 7.81622 12.9457 7.79148C13.0689 7.76675 13.182 7.70603 13.2707 7.61702C13.3594 7.528 13.4197 7.41468 13.444 7.29139C13.4683 7.1681 13.4554 7.04038 13.4071 6.92438C13.3588 6.80837 13.2772 6.70931 13.1726 6.6397C13.068 6.57009 12.945 6.53307 12.8194 6.53332C12.6509 6.53366 12.4895 6.60089 12.3706 6.72022C12.2517 6.83955 12.1851 7.00122 12.1854 7.16968ZM7.28189 10.0045C7.28485 11.5059 8.50421 12.7203 10.0053 12.7174C11.5064 12.7145 12.7216 11.4953 12.7188 9.99389C12.7159 8.49247 11.4963 7.27778 9.99494 7.28075C8.49362 7.28371 7.27903 8.50327 7.28189 10.0045ZM8.23548 10.0026C8.23479 9.65354 8.33761 9.31214 8.53095 9.02154C8.72429 8.73095 8.99946 8.50421 9.32166 8.37C9.64386 8.2358 9.99863 8.20015 10.3411 8.26756C10.6836 8.33498 10.9983 8.50243 11.2456 8.74875C11.4929 8.99506 11.6616 9.30917 11.7304 9.65137C11.7992 9.99356 11.7649 10.3485 11.632 10.6712C11.4991 10.9939 11.2734 11.27 10.9836 11.4645C10.6938 11.659 10.3528 11.7631 10.0037 11.7638C9.77197 11.7643 9.54238 11.7191 9.32809 11.6309C9.11379 11.5426 8.91897 11.413 8.75477 11.2495C8.59057 11.0859 8.46019 10.8916 8.37109 10.6777C8.28199 10.4637 8.23591 10.2343 8.23548 10.0026Z" fill="#0346B8"/>
</svg>
