<svg width="20" height="20" viewBox="0 0 20 20" fill="none" xmlns="http://www.w3.org/2000/svg">
<rect width="20" height="20" rx="10" fill="#ECEFF6"/>
<g clip-path="url(#clip0_450_1633)">
<path d="M11.0611 13.9842C10.4216 13.9842 9.80953 13.9842 9.18049 13.9842C9.17526 13.9201 9.16611 13.8612 9.16611 13.8024C9.1648 12.9785 9.16611 12.1546 9.16611 11.3307C9.16611 10.2753 9.16611 9.22125 9.16611 8.16588C9.16611 7.9684 9.16611 7.9671 9.35966 7.9671C9.83961 7.9671 10.3183 7.9671 10.7982 7.9671C10.8544 7.9671 10.9094 7.97494 10.98 7.98017C10.9904 8.23911 10.9813 8.49151 10.9865 8.76091C11.0075 8.73476 11.0205 8.72299 11.031 8.70729C11.3475 8.22211 11.8052 7.95009 12.3675 7.85463C12.8161 7.77878 13.2634 7.8167 13.6962 7.96056C14.1736 8.1188 14.511 8.43528 14.7137 8.89431C14.8601 9.22386 14.9386 9.57304 14.9582 9.93137C14.9831 10.3655 14.9948 10.801 14.9988 11.2365C15.0053 12.0827 15.0001 12.9275 15.0001 13.7736C15.0001 13.8377 14.9948 13.9031 14.9922 13.9632C14.8837 13.9946 13.2686 13.9998 13.1195 13.9698C13.1169 13.9188 13.1117 13.8638 13.1117 13.8089C13.1117 13.0242 13.1143 12.2396 13.1103 11.4549C13.109 11.1371 13.0999 10.8193 13.0842 10.5016C13.0737 10.2923 13.0266 10.0883 12.9259 9.89998C12.8135 9.68943 12.6369 9.5665 12.4068 9.51942C12.2028 9.47757 12 9.48934 11.7987 9.54034C11.5266 9.60835 11.337 9.77705 11.2219 10.0295C11.1435 10.2008 11.0977 10.3825 11.0885 10.5709C11.0781 10.784 11.0663 10.9972 11.0663 11.2104C11.0637 12.0735 11.065 12.9366 11.065 13.7998C11.0611 13.8573 11.0611 13.9135 11.0611 13.9842Z" fill="#0346B8"/>
<path d="M6.16885 7.98281C6.21593 7.97889 6.26694 7.96973 6.31794 7.96973C6.83712 7.96842 7.355 7.96842 7.87419 7.96973C7.90427 7.96973 7.93565 7.97104 7.96573 7.97365C8.01804 7.97758 8.0442 8.00504 8.0455 8.05735C8.04681 8.09266 8.04812 8.12666 8.04812 8.16197C8.04812 10.0399 8.04812 11.9192 8.04812 13.7972C8.04812 13.856 8.04027 13.9162 8.03635 13.9829C7.40731 13.9829 6.79004 13.9829 6.1767 13.9829C6.14531 13.8769 6.13877 8.1332 6.16885 7.98281Z" fill="#0346B8"/>
<path d="M8.18398 6.10376C8.20229 6.65041 7.72888 7.19313 7.09591 7.19182C6.49172 7.19052 5.99869 6.69749 6 6.0933C6.00131 5.48911 6.49434 5 7.09984 5C7.73411 5 8.21014 5.54665 8.18398 6.10376Z" fill="#0346B8"/>
</g>
<defs>
<clipPath id="clip0_450_1633">
<rect width="8.99877" height="8.99223" fill="white" transform="translate(6 5)"/>
</clipPath>
</defs>
</svg>
