<svg width="20" height="20" viewBox="0 0 20 20" fill="none" xmlns="http://www.w3.org/2000/svg">
<path d="M6.71537 6.69154C7.09491 6.69154 7.42185 6.82771 7.69542 7.101C7.96899 7.37439 8.10557 7.70308 8.10557 8.08593C8.10551 8.47481 7.96877 8.80453 7.69542 9.07505C7.42185 9.34559 7.09492 9.48102 6.71537 9.48102C6.32692 9.481 5.99642 9.34556 5.72416 9.07435C5.45183 8.80301 5.31539 8.47317 5.31539 8.08593C5.31546 7.70283 5.4519 7.37433 5.72416 7.101C5.99642 6.82783 6.32692 6.69157 6.71537 6.69154Z" fill="#1C1B1F"/>
<path fill-rule="evenodd" clip-rule="evenodd" d="M15.3677 3.89578C16.73 3.89578 17.4394 4.59891 17.4394 5.94238V13.5826C17.4394 14.9261 16.73 15.6292 15.3677 15.6292H4.62622C3.27019 15.6292 2.56079 14.9261 2.56079 13.5826V5.94238C2.56079 4.59263 3.27019 3.89578 4.62622 3.89578H15.3677ZM4.70783 5.14508C4.13027 5.14508 3.81009 5.44642 3.81009 6.05538V13.4696C3.81009 13.7914 3.9007 14.026 4.07028 14.1769C4.07028 14.1769 4.07248 14.1788 4.07377 14.1797C4.31249 14.3471 4.655 14.2866 4.78177 14.0904L6.21802 11.2772C6.28538 11.1512 6.38097 11.0499 6.50471 10.9731C6.62851 10.8961 6.76353 10.8573 6.90928 10.8573C7.06657 10.8573 7.20847 10.9002 7.33479 10.9856C7.46118 11.071 7.55624 11.1867 7.62008 11.3323L8.03861 12.32C8.10593 12.4636 8.25231 12.5277 8.40691 12.5167C8.56138 12.5057 8.69684 12.4261 8.74243 12.2831L9.90803 8.46749C10.0262 8.09661 10.243 7.79773 10.5581 7.57184C10.8734 7.34589 11.2263 7.23356 11.6163 7.23353C12.0037 7.23353 12.3547 7.34157 12.6689 7.55859C12.9831 7.77552 13.2023 8.06947 13.326 8.44029L15.2687 13.9174C15.4369 14.3069 15.7398 14.3154 15.9202 14.1797C16.0919 14.0289 16.1838 13.7935 16.1838 13.4696V6.05538C16.1838 5.44642 15.8637 5.14508 15.2861 5.14508H4.70783Z" fill="#1C1B1F"/>
</svg>
