<svg width="20" height="20" viewBox="0 0 20 20" fill="none" xmlns="http://www.w3.org/2000/svg">
<path d="M9.54336 4.84127C9.66739 4.84127 9.76886 4.74981 9.80269 4.61262C10.0282 3.33221 9.97182 3.30935 11.3587 3.04641C11.494 3.01211 11.5842 2.90922 11.5842 2.78347C11.5842 2.64628 11.494 2.54339 11.3587 2.52053C9.97182 2.24615 10.0169 2.20042 9.80269 0.95431C9.76886 0.817123 9.67866 0.714233 9.54336 0.714233C9.40805 0.714233 9.31785 0.817123 9.28403 0.95431C9.0247 2.20042 9.10362 2.24615 7.72805 2.52053C7.59274 2.54339 7.50254 2.64628 7.50254 2.78347C7.50254 2.92065 7.59274 3.01211 7.73932 3.04641C9.10362 3.28649 9.0247 3.33221 9.28403 4.60119C9.31785 4.74981 9.40805 4.84127 9.54336 4.84127ZM5.89018 10.1573C6.07059 10.1573 6.22844 10.0086 6.26227 9.82572C6.6118 7.87081 6.49905 7.81365 8.58496 7.48211C8.77664 7.43638 8.91194 7.28777 8.91194 7.09342C8.91194 6.89907 8.77664 6.73902 8.58496 6.70472C6.49905 6.37319 6.6118 6.29316 6.26227 4.38398C6.22844 4.1782 6.08186 4.02958 5.89018 4.02958C5.68723 4.02958 5.55193 4.16677 5.50683 4.38398C5.14602 6.28173 5.27005 6.35032 3.18413 6.70472C2.99245 6.73902 2.85715 6.89907 2.85715 7.09342C2.85715 7.2992 2.99245 7.43638 3.21795 7.48211C5.25877 7.80222 5.14602 7.87081 5.50683 9.79142C5.55193 10.0086 5.67595 10.1573 5.89018 10.1573ZM11.0993 18.5714C11.3587 18.5714 11.5616 18.377 11.6067 18.1141C12.3058 14.0328 12.6891 13.4955 16.6693 12.9582C16.9512 12.9239 17.1429 12.7066 17.1429 12.4323C17.1429 12.1693 16.9512 11.9635 16.6693 11.9178C12.7117 11.3805 12.2043 10.8775 11.6067 6.77332C11.5616 6.49894 11.3587 6.30459 11.0993 6.30459C10.84 6.30459 10.6371 6.48751 10.5807 6.76188C9.89289 10.8546 9.49826 11.3805 5.5181 11.9178C5.23622 11.9635 5.04454 12.1693 5.04454 12.4323C5.04454 12.7066 5.23622 12.9239 5.5181 12.9582C9.47571 13.4269 9.99437 13.9985 10.5807 18.1027C10.6258 18.377 10.8175 18.5714 11.0993 18.5714Z" fill="#1C1C1E"/>
</svg>
