<svg width="20" height="20" viewBox="0 0 20 20" fill="none" xmlns="http://www.w3.org/2000/svg">
<g clip-path="url(#clip0_268_11)">
<path d="M3.25753 7.34724C3.25753 12.0808 6.1077 15.1946 10.4708 15.1946C12.1219 15.1946 13.5093 14.617 14.4448 13.6503C14.7838 14.3471 14.947 15.1444 15.2358 16.0547C15.3362 16.3749 15.5622 16.513 15.8196 16.513C16.3281 16.513 16.7425 16.0421 16.7425 15.4771C16.7425 14.7112 15.9766 13.4368 15.2734 12.4386C15.5559 11.8359 15.7066 11.1516 15.7066 10.4109C15.7066 7.71763 13.5156 5.77148 10.496 5.77148C9.4601 5.77148 8.42425 6.06027 7.28795 6.06027C6.33371 6.06027 5.53013 5.77148 4.8584 5.01186C4.43778 4.52218 3.64049 4.52846 3.45215 5.30692C3.2952 5.92215 3.25753 7.00195 3.25753 7.34724ZM6.94266 8.87277C7.32561 10.0467 8.51842 10.5866 10.0439 10.9508C12.078 11.4279 13.0134 11.8234 13.7919 12.6897C13.0699 13.5561 11.9022 14.0709 10.4708 14.0709C6.74177 14.0709 4.38128 11.4593 4.38128 7.34724C4.38128 6.99567 4.38756 6.60017 4.4315 6.31138C4.44406 6.21722 4.49428 6.20466 4.56334 6.26116C5.26018 6.85128 6.31487 7.18401 7.28795 7.18401C7.97224 7.18401 8.59375 7.09612 9.14621 7.02079C9.64216 6.95173 10.0816 6.89523 10.496 6.89523C12.8941 6.89523 14.5829 8.35798 14.5829 10.4109C14.5829 10.7875 14.5264 11.1516 14.4322 11.4844C13.547 10.7499 12.2475 10.2979 10.4018 10.0091C9.13365 9.8019 8.11035 9.49428 7.43234 8.62165C7.20006 8.32659 6.83594 8.52748 6.94266 8.87277Z" fill="#1C1C1E"/>
</g>
<defs>
<clipPath id="clip0_268_11">
<rect width="20" height="20" fill="white"/>
</clipPath>
</defs>
</svg>
