<svg width="20" height="20" viewBox="0 0 20 20" fill="none" xmlns="http://www.w3.org/2000/svg">
<path d="M9.7049 12.3584L10.6654 11.3854C9.92463 11.3226 9.39101 11.0777 9.00806 10.6948C7.94709 9.63383 7.94709 8.13341 9.00178 7.085L11.086 4.99446C12.147 3.93977 13.6411 3.93349 14.7021 4.99446C15.7694 6.0617 15.7568 7.55584 14.7084 8.61053L13.6411 9.67149C13.842 10.1361 13.9111 10.7011 13.7981 11.1907L15.5936 9.40154C17.1379 7.86346 17.1442 5.66619 15.5873 4.10927C14.0241 2.54607 11.8394 2.55863 10.295 4.10299L8.11032 6.2877C6.56595 7.83207 6.55968 10.0231 8.11659 11.58C8.48071 11.9504 8.98295 12.2266 9.7049 12.3584ZM10.2887 7.05361L9.32823 8.02668C10.069 8.09574 10.6026 8.3343 10.9856 8.71725C12.0528 9.77822 12.0466 11.2786 10.9919 12.3333L8.90761 14.4176C7.84664 15.4786 6.3525 15.4786 5.29782 14.4176C4.23057 13.3503 4.23685 11.8625 5.29154 10.8078L6.3525 9.74055C6.15161 9.28226 6.08883 8.71725 6.19556 8.2213L4.40008 10.0168C2.85571 11.5549 2.84943 13.7459 4.40635 15.3028C5.96955 16.866 8.15426 16.8534 9.69863 15.3153L11.8833 13.1243C13.4277 11.58 13.434 9.38899 11.8771 7.83207C11.5129 7.46795 11.017 7.19172 10.2887 7.05361Z" fill="#1C1C1E"/>
</svg>
