<svg width="20" height="20" viewBox="0 0 20 20" fill="none" xmlns="http://www.w3.org/2000/svg">
<path d="M3.93546 8.76117C2.97494 9.20063 3.17583 10.5441 4.27446 10.5504L8.94522 10.5692C9.03939 10.5692 9.07078 10.6069 9.07078 10.701L9.08334 15.3404C9.08334 16.4202 10.4331 16.6651 10.9102 15.6229L15.6626 5.33972C16.1711 4.24108 15.3173 3.51285 14.2689 3.99625L3.93546 8.76117ZM5.4296 9.42035C5.37937 9.42035 5.36054 9.36385 5.41704 9.33246L14.2689 5.28322C14.3442 5.25183 14.3882 5.29577 14.3505 5.37111L10.295 14.1978C10.2699 14.2606 10.2071 14.2481 10.2071 14.1916L10.2322 9.96653C10.2322 9.58358 10.0501 9.39524 9.65462 9.39524L5.4296 9.42035Z" fill="#1C1C1E"/>
</svg>
