<svg width="20" height="20" viewBox="0 0 20 20" fill="none" xmlns="http://www.w3.org/2000/svg">
<path d="M7.04938 15.8803H12.9506C13.9237 15.8803 14.4008 15.3969 14.4008 14.3422V9.87861C14.4008 8.94321 14.0241 8.45981 13.2582 8.35936V6.89661C13.2582 4.51101 11.6699 3.36215 9.99999 3.36215C8.33007 3.36215 6.74176 4.51101 6.74176 6.89661V8.35936C5.97586 8.45981 5.59918 8.94321 5.59918 9.87861V14.3422C5.59918 15.3969 6.0763 15.8803 7.04938 15.8803ZM7.94712 6.78361C7.94712 5.32086 8.87625 4.51729 9.99999 4.51729C11.1175 4.51729 12.0529 5.32086 12.0529 6.78361V8.34053H7.94712V6.78361ZM7.25027 14.744C6.97404 14.744 6.83593 14.6122 6.83593 14.2857V9.93512C6.83593 9.60239 6.97404 9.48311 7.25027 9.48311H12.756C13.0322 9.48311 13.1641 9.60239 13.1641 9.93512V14.2857C13.1641 14.6122 13.0322 14.744 12.756 14.744H7.25027Z" fill="#1C1C1E"/>
</svg>
