<svg width="20" height="20" viewBox="0 0 20 20" fill="none" xmlns="http://www.w3.org/2000/svg">
<path d="M2.55444 9.67775C2.55444 11.2409 3.32663 12.1701 4.77054 12.371L6.19563 15.5099C6.55974 16.3198 7.06825 16.7153 7.82788 16.7153C8.81351 16.7153 9.52291 16.0059 9.30947 14.8947L8.87001 12.597C10.6467 12.9423 12.4359 13.5889 14.0869 14.5368C14.313 15.2149 14.9219 15.6543 15.7192 15.6543C16.7299 15.6543 17.4393 14.9449 17.4393 13.9279V4.44826C17.4393 3.43124 16.7299 2.72183 15.7192 2.72183C14.9031 2.72183 14.2816 3.1864 14.0681 3.8958C12.1282 5.04466 9.64847 5.798 7.67093 6.01145H5.3795C3.54635 6.01145 2.55444 6.97197 2.55444 8.74234V9.67775ZM15.1856 13.9279V4.44826C15.1856 4.13436 15.399 3.91463 15.7192 3.91463C16.0331 3.91463 16.2465 4.13436 16.2465 4.44826V13.9279C16.2465 14.2418 16.0331 14.4615 15.7192 14.4615C15.399 14.4615 15.1856 14.2418 15.1856 13.9279ZM7.86555 11.2472V7.17286C10.0691 6.90919 12.1596 6.2814 13.9928 5.25183V13.1745C12.122 12.1199 10.0503 11.5109 7.86555 11.2472ZM5.3795 11.2158C4.21181 11.2158 3.74724 10.7764 3.74724 9.67775V8.74234C3.74724 7.64371 4.21181 7.20425 5.3795 7.20425H6.67275V11.2158H5.3795ZM7.31309 15.1772L6.00729 12.4086H7.63327C7.6521 12.4086 7.67721 12.4149 7.70232 12.4149L8.21711 15.0454C8.28617 15.3781 8.09783 15.5915 7.81532 15.5915C7.56421 15.5915 7.44493 15.4597 7.31309 15.1772Z" fill="#1C1C1E"/>
</svg>
