<svg width="20" height="20" viewBox="0 0 20 20" fill="none" xmlns="http://www.w3.org/2000/svg">
<path d="M13.4718 11.7499C10.1508 11.7499 8.08538 9.75977 8.08538 6.5392C8.08538 5.63518 8.23605 4.81906 8.46833 4.37333C8.57506 4.16616 8.60645 4.0406 8.60645 3.88365C8.60645 3.61998 8.38672 3.34375 8.06027 3.34375C7.97866 3.34375 7.83426 3.36886 7.63337 3.4442C5.27916 4.40472 3.64062 6.85937 3.64062 9.51493C3.64062 13.3319 6.42174 16.1193 10.2387 16.1193C12.9633 16.1193 15.2108 14.6628 16.2404 12.3023C16.3283 12.1077 16.3534 11.9445 16.3534 11.844C16.3534 11.5239 16.1085 11.323 15.8511 11.323C15.7193 11.323 15.6 11.3418 15.418 11.4234C14.9346 11.6243 14.1938 11.7499 13.4718 11.7499ZM4.87109 9.47726C4.87109 7.70689 5.75628 5.99302 7.2002 5.01995C7.03069 5.52218 6.9428 6.08091 6.9428 6.68987C6.9428 10.5508 9.31585 12.8736 13.2646 12.8736C13.792 12.8736 14.2503 12.8108 14.6835 12.6602C13.7669 14.0539 12.0907 14.8951 10.2764 14.8951C7.14997 14.8951 4.87109 12.6099 4.87109 9.47726Z" fill="#1C1C1E"/>
</svg>
