<svg width="20" height="20" viewBox="0 0 20 20" fill="none" xmlns="http://www.w3.org/2000/svg">
<path d="M2.56738 14.5494C2.56738 15.8489 3.28306 16.5583 4.63281 16.5583H15.3617C16.7241 16.5583 17.4335 15.8552 17.4335 14.5117V5.0007C17.4335 3.65723 16.7241 2.9541 15.3617 2.9541H7.50809C6.14579 2.9541 5.44266 3.65723 5.44266 5.0007V7.79436H4.06152C3.12612 7.79436 2.56738 8.32171 2.56738 9.21945V14.5494ZM6.50991 15.3027C6.62919 15.0767 6.69196 14.8068 6.69196 14.4992V5.1137C6.69196 4.51102 7.00586 4.20968 7.5897 4.20968H15.2801C15.8703 4.20968 16.1779 4.51102 16.1779 5.1137V14.3987C16.1779 15.0014 15.8703 15.3027 15.2801 15.3027H6.50991ZM8.28655 6.87779H14.5958C14.8344 6.87779 15.0165 6.68945 15.0165 6.45089C15.0165 6.21861 14.8344 6.03655 14.5958 6.03655H8.28655C8.03544 6.03655 7.85338 6.21861 7.85338 6.45089C7.85338 6.68945 8.04171 6.87779 8.28655 6.87779ZM8.28655 9.04367H14.5958C14.8344 9.04367 15.0165 8.86161 15.0165 8.62932C15.0165 8.39076 14.8344 8.20243 14.5958 8.20243H8.28655C8.04171 8.20243 7.85338 8.39076 7.85338 8.62932C7.85338 8.86161 8.03544 9.04367 8.28655 9.04367ZM3.81669 14.4803V9.43917C3.81669 9.19434 3.97363 9.04367 4.22475 9.04367H5.44266V14.4803C5.44266 14.9637 5.0911 15.3027 4.63281 15.3027C4.17453 15.3027 3.81669 14.9512 3.81669 14.4803ZM8.63811 13.4005H10.195C10.6847 13.4005 10.986 13.1055 10.986 12.6158V11.1593C10.986 10.6759 10.6847 10.3746 10.195 10.3746H8.63811C8.14844 10.3746 7.8471 10.6759 7.8471 11.1593V12.6158C7.8471 13.1055 8.14844 13.4005 8.63811 13.4005ZM12.0972 11.2158H14.5958C14.8344 11.2158 15.0165 11.0338 15.0165 10.8015C15.0165 10.5629 14.8344 10.3746 14.5958 10.3746H12.0972C11.8461 10.3746 11.6703 10.5629 11.6703 10.8015C11.6703 11.0338 11.8524 11.2158 12.0972 11.2158ZM12.0972 13.4005H14.5958C14.8344 13.4005 15.0165 13.2185 15.0165 12.9862C15.0165 12.7476 14.8344 12.5593 14.5958 12.5593H12.0972C11.8524 12.5593 11.6703 12.7476 11.6703 12.9862C11.6703 13.2185 11.8461 13.4005 12.0972 13.4005Z" fill="#393939"/>
</svg>
