<svg width="43" height="43" viewBox="0 0 43 43" fill="none" xmlns="http://www.w3.org/2000/svg">
<g filter="url(#filter0_d_453_1470)">
<rect width="35" height="35" rx="17.5" transform="matrix(-1 0 0 1 39 2)" fill="white"/>
</g>
<path d="M24.053 14.7253L24.053 24.2703C24.053 24.6724 24.3892 25.0151 24.8044 25.0151C25.2131 25.0151 25.5559 24.6724 25.5559 24.2703L25.5559 14.7253C25.5559 14.3364 25.2131 13.9805 24.8044 13.9805C24.3892 13.9805 24.053 14.3364 24.053 14.7253Z" fill="#0346B8" stroke="#0346B8"/>
<path d="M17.3 14.7253L17.3 24.2703C17.3 24.6724 17.6362 25.0151 18.0515 25.0151C18.4602 25.0151 18.803 24.6724 18.803 24.2703L18.803 14.7253C18.803 14.3364 18.4602 13.9805 18.0515 13.9805C17.6362 13.9805 17.3 14.3364 17.3 14.7253Z" fill="#0346B8" stroke="#0346B8"/>
<defs>
<filter id="filter0_d_453_1470" x="0" y="0" width="43" height="43" filterUnits="userSpaceOnUse" color-interpolation-filters="sRGB">
<feFlood flood-opacity="0" result="BackgroundImageFix"/>
<feColorMatrix in="SourceAlpha" type="matrix" values="0 0 0 0 0 0 0 0 0 0 0 0 0 0 0 0 0 0 127 0" result="hardAlpha"/>
<feOffset dy="2"/>
<feGaussianBlur stdDeviation="2"/>
<feComposite in2="hardAlpha" operator="out"/>
<feColorMatrix type="matrix" values="0 0 0 0 0 0 0 0 0 0 0 0 0 0 0 0 0 0 0.05 0"/>
<feBlend mode="normal" in2="BackgroundImageFix" result="effect1_dropShadow_453_1470"/>
<feBlend mode="normal" in="SourceGraphic" in2="effect1_dropShadow_453_1470" result="shape"/>
</filter>
</defs>
</svg>
