<svg width="20" height="20" viewBox="0 0 20 20" fill="none" xmlns="http://www.w3.org/2000/svg">
<path d="M5.82518 14.0158C7.583 15.7736 9.78654 16.3135 10.8287 16.4202C11.243 16.483 11.5067 16.2633 11.5255 15.9431C11.5506 15.648 11.3686 15.4095 10.9982 15.3341C10.0502 15.1772 8.09778 14.7189 6.6162 13.2247C4.21176 10.8266 3.73464 7.10379 5.71846 5.1137C7.30677 3.53167 9.94349 3.68861 11.8896 4.73702L12.712 3.92718C10.2134 2.40792 6.8987 2.3577 4.93372 4.32268C2.58579 6.6769 2.86201 11.0526 5.82518 14.0158ZM15.3676 4.90653L15.9012 4.36663C16.1774 4.08412 16.2026 3.67606 15.9263 3.41239L15.738 3.23033C15.4932 3.00432 15.0976 3.02316 14.8277 3.28683L14.2878 3.82673L15.3676 4.90653ZM9.23408 11.0338L14.903 5.37109L13.817 4.29129L8.15428 9.95396L7.60811 11.2723C7.53905 11.4481 7.71483 11.6176 7.88433 11.5548L9.23408 11.0338ZM8.21079 12.101C10.2134 14.1853 13.66 14.9637 15.5434 13.0866C17.0752 11.5485 16.9433 8.81766 15.2734 6.45717L14.4699 7.26074C15.7003 9.07505 15.9263 11.1216 14.7524 12.2956C13.3084 13.7395 10.9542 13.0866 9.41614 11.6176L8.21079 12.101Z" fill="#1C1C1E"/>
</svg>
