<svg width="20" height="20" viewBox="0 0 20 20" fill="none" xmlns="http://www.w3.org/2000/svg">
<path d="M4.61981 12.0445H5.0781C5.02788 11.649 4.99649 11.2221 5.05927 10.8517H4.69515C3.20101 10.8517 2.14004 9.80326 2.14004 8.29656C2.14004 6.80242 3.20101 5.74146 4.69515 5.74146H10.2385C11.7327 5.74146 12.7936 6.80242 12.7936 8.29656C12.7936 9.80326 11.7327 10.8517 10.2385 10.8517H8.3175C8.01616 11.0526 8.04127 11.8059 8.4305 12.0445H10.3139C12.4923 12.0445 14.0492 10.5064 14.0492 8.29656C14.0492 6.09302 12.4923 4.55493 10.3139 4.55493H4.61981C2.44138 4.55493 0.88446 6.09302 0.88446 8.29656C0.88446 10.5064 2.44138 12.0445 4.61981 12.0445ZM9.6798 15.0139H15.3676C17.5523 15.0139 19.1092 13.4758 19.1092 11.2723C19.1092 9.06247 17.5523 7.52438 15.3676 7.52438H14.9156C14.9658 7.91989 14.9972 8.34678 14.9344 8.71718H15.2985C16.7927 8.71718 17.8536 9.76559 17.8536 11.2723C17.8536 12.7664 16.7927 13.8274 15.2985 13.8274H9.75514C8.261 13.8274 7.20003 12.7664 7.20003 11.2723C7.20003 9.76559 8.261 8.71718 9.75514 8.71718H11.6762C11.9775 8.51629 11.9524 7.76294 11.5632 7.52438H9.6798C7.49509 7.52438 5.94445 9.06247 5.94445 11.2723C5.94445 13.4758 7.49509 15.0139 9.6798 15.0139Z" fill="#1C1C1E"/>
</svg>
