<svg width="20" height="20" viewBox="0 0 20 20" fill="none" xmlns="http://www.w3.org/2000/svg">
<path d="M13.2771 9.81585C14.7964 9.81585 16.0268 8.47865 16.0268 6.83384C16.0268 5.21415 14.8026 3.9209 13.2771 3.9209C11.7704 3.9209 10.5274 5.23298 10.5274 6.8464C10.5337 8.48493 11.7641 9.81585 13.2771 9.81585ZM6.00101 9.96024C7.32565 9.96024 8.39289 8.78627 8.39289 7.33608C8.39289 5.92355 7.32565 4.78097 6.00101 4.78097C4.68893 4.78097 3.60285 5.94238 3.60913 7.34235C3.60913 8.79255 4.68265 9.96024 6.00101 9.96024ZM13.2771 8.71722C12.4107 8.71722 11.6762 7.90109 11.6762 6.84012C11.6762 5.81682 12.4045 5.01953 13.2771 5.01953C14.156 5.01953 14.878 5.80427 14.878 6.83384C14.878 7.88853 14.1497 8.71722 13.2771 8.71722ZM6.00101 8.87416C5.29161 8.87416 4.68893 8.19615 4.68893 7.34235C4.68893 6.52623 5.28533 5.86077 6.00101 5.86077C6.72925 5.86077 7.31937 6.51367 7.31937 7.33608C7.31937 8.19615 6.71669 8.87416 6.00101 8.87416ZM2.54817 15.7296H7.4261C7.08081 15.5287 6.84853 15.0705 6.89247 14.6561H2.49166C2.37238 14.6561 2.32216 14.5996 2.32216 14.4929C2.32216 13.0552 4.00464 11.6867 5.99473 11.6867C6.69786 11.6867 7.40098 11.8624 7.94088 12.1638C8.15433 11.8562 8.418 11.5925 8.76329 11.3665C7.96599 10.8768 6.97409 10.6131 5.99473 10.6131C3.33918 10.6131 1.19214 12.5091 1.19214 14.5933C1.19214 15.3467 1.64415 15.7296 2.54817 15.7296ZM9.36597 15.7296H17.1882C18.2743 15.7296 18.8017 15.3843 18.8017 14.6436C18.8017 12.9171 16.6421 10.6194 13.2771 10.6194C9.91214 10.6194 7.75255 12.9171 7.75255 14.6436C7.75255 15.3843 8.27989 15.7296 9.36597 15.7296ZM9.16507 14.631C9.02068 14.631 8.96418 14.5808 8.96418 14.4678C8.96418 13.5073 10.5148 11.7181 13.2771 11.7181C16.0394 11.7181 17.59 13.5073 17.59 14.4678C17.59 14.5808 17.5335 14.631 17.3828 14.631H9.16507Z" fill="#1C1C1E"/>
</svg>
