<svg width="20" height="20" viewBox="0 0 20 20" fill="none" xmlns="http://www.w3.org/2000/svg">
<path d="M13.0197 16.0187C14.1183 16.0187 14.8591 15.7048 15.5371 14.9703C15.5811 14.9201 15.6313 14.8636 15.6752 14.8134C16.0393 14.399 16.2214 13.9658 16.2214 13.5641C16.2214 13.0932 15.9766 12.6663 15.4116 12.2834L13.5407 10.9776C12.9506 10.5695 12.2663 10.5381 11.739 11.0654L11.2744 11.53C11.1112 11.6932 10.9605 11.7058 10.7659 11.574C10.4269 11.348 9.78655 10.7829 9.3471 10.3435C8.90137 9.89776 8.44936 9.39553 8.20452 9.01257C8.07268 8.81796 8.08524 8.66729 8.24847 8.50406L8.71303 8.0395C9.24037 7.51215 9.20898 6.82786 8.80092 6.23774L7.47001 4.33554C7.09333 3.79564 6.6476 3.54452 6.17676 3.53824C5.77497 3.53197 5.34807 3.71402 4.93373 4.07814C4.88351 4.12209 4.83329 4.16603 4.78934 4.20998C4.04227 4.89427 3.71582 5.62878 3.71582 6.77136C3.71582 8.62334 4.78934 10.8081 6.87988 12.886C8.95787 14.9515 11.1175 16.0187 13.0197 16.0187ZM11.3937 8.91213C11.5444 8.91213 11.6699 8.8619 11.7766 8.75518L14.3066 6.22518L15.1667 5.2835L15.0663 6.90948V7.81349C15.0663 8.10228 15.286 8.322 15.5748 8.33456C15.8761 8.34712 16.121 8.11483 16.121 7.81977V4.28531C16.121 3.87097 15.9012 3.65125 15.4869 3.65125H11.9273C11.6323 3.65125 11.4 3.89608 11.4125 4.19742C11.4251 4.48621 11.6448 4.70593 11.9336 4.70593H12.8627L14.5013 4.59921L13.547 5.45928L11.017 7.99555C10.904 8.11483 10.8475 8.24667 10.8475 8.40362C10.8475 8.6924 11.0798 8.91213 11.3937 8.91213ZM13.0134 14.9703C11.4125 14.9954 9.42243 13.8591 7.67718 12.1264C5.91936 10.3937 4.75167 8.32828 4.77679 6.72742C4.78934 6.05568 5.0279 5.46556 5.50502 5.05122C5.54897 5.01355 5.59291 4.98216 5.63686 4.94449C5.81264 4.79382 6.00098 4.71221 6.17676 4.71221C6.35882 4.71221 6.52204 4.78755 6.6476 4.97588L7.82785 6.73997C7.97224 6.95342 7.97852 7.19826 7.75879 7.41171L7.25656 7.90766C6.77944 8.37223 6.82338 8.9184 7.12472 9.3453C7.46373 9.81614 8.0978 10.5381 8.63142 11.0654C9.20271 11.6305 9.98117 12.3273 10.4332 12.6538C10.8664 12.9551 11.4063 12.999 11.8708 12.5219L12.3668 12.0197C12.5802 11.8 12.8251 11.8062 13.0385 11.9506L14.7712 13.1058C14.9658 13.2313 15.0349 13.3883 15.0349 13.5703C15.0349 13.7461 14.9595 13.9344 14.8026 14.1165C14.7649 14.1605 14.7335 14.1981 14.6959 14.2483C14.2815 14.7255 13.6914 14.964 13.0134 14.9703Z" fill="#393939"/>
</svg>
