<svg width="20" height="20" viewBox="0 0 20 20" fill="none" xmlns="http://www.w3.org/2000/svg">
<path d="M6.01981 12.6346H9.37221V15.6104C9.37221 16.483 9.82422 17.3807 10 17.3807C10.1695 17.3807 10.6215 16.483 10.6215 15.6104V12.6346H13.9802C14.5766 12.6346 14.9595 12.258 14.9595 11.6867C14.9595 10.3306 13.886 8.99973 12.2412 8.34055L12.0403 5.36483C12.8502 4.83749 13.591 4.24736 13.9111 3.83302C14.0806 3.60702 14.1622 3.38101 14.1622 3.18012C14.1622 2.76578 13.8484 2.45816 13.3712 2.45816H6.62249C6.15165 2.45816 5.83147 2.76578 5.83147 3.18012C5.83147 3.38101 5.91309 3.60702 6.08259 3.83302C6.40276 4.24736 7.14983 4.83749 7.9534 5.36483L7.75251 8.34055C6.11398 8.99973 5.03418 10.3306 5.03418 11.6867C5.03418 12.258 5.42341 12.6346 6.01981 12.6346ZM10 7.91366C9.61705 7.91366 9.24665 7.95132 8.89509 8.0141L9.08343 4.8626C9.0897 4.75587 9.07087 4.70565 8.98926 4.66798C8.14802 4.23481 7.49512 3.73257 7.38839 3.58818C7.33817 3.51913 7.38212 3.46262 7.45117 3.46262H12.5426C12.6116 3.46262 12.6556 3.51913 12.6053 3.58818C12.4986 3.73257 11.8457 4.23481 11.0045 4.66798C10.9229 4.70565 10.904 4.75587 10.9103 4.8626L11.0986 8.0141C10.7471 7.95132 10.3767 7.91366 10 7.91366ZM6.30859 11.5611C6.18304 11.5611 6.12653 11.4921 6.15165 11.3414C6.30232 10.2176 7.7839 8.95579 10 8.95579C12.2098 8.95579 13.6914 10.2176 13.8484 11.3414C13.8672 11.4921 13.8107 11.5611 13.6851 11.5611H6.30859Z" fill="#1C1C1E"/>
</svg>
