<svg width="20" height="20" viewBox="0 0 20 20" fill="none" xmlns="http://www.w3.org/2000/svg">
<path d="M5.94629 15.2653C6.20996 15.2653 6.44224 15.1712 6.73103 15.0017L14.1452 10.7139C14.6851 10.4 14.9111 10.1551 14.9111 9.75963C14.9111 9.36412 14.6851 9.12556 14.1452 8.80538L6.73103 4.51758C6.44224 4.34807 6.20996 4.25391 5.94629 4.25391C5.4315 4.25391 5.06738 4.64941 5.06738 5.27093V14.2483C5.06738 14.8761 5.4315 15.2653 5.94629 15.2653ZM6.41085 13.7084C6.37946 13.7084 6.35435 13.677 6.35435 13.6331V5.88616C6.35435 5.83594 6.37946 5.81083 6.41085 5.81083C6.43597 5.81083 6.46108 5.82338 6.48619 5.84222L13.1533 9.69057C13.1784 9.7094 13.2035 9.72824 13.2035 9.75963C13.2035 9.79102 13.1784 9.80985 13.1533 9.82868L6.48619 13.677C6.46108 13.6959 6.43597 13.7084 6.41085 13.7084Z" fill="#393939"/>
</svg>
