<svg width="28" height="28" viewBox="0 0 28 28" fill="none" xmlns="http://www.w3.org/2000/svg">
<path d="M18.9612 12.3223C20.808 12.3223 22 13.7674 22 15.6279C22 17.6047 20.5058 19 18.5079 19C16.2917 19 14.8311 17.2392 14.8311 14.9635C14.8311 11.0598 18.0546 9 19.8006 9C20.2875 9 20.6569 9.31561 20.6569 9.74751C20.6569 10.1462 20.4554 10.412 19.8846 10.5615C18.659 10.8605 17.4502 11.7409 16.9129 13.0033H17.1144C17.5509 12.4884 18.2392 12.3223 18.9612 12.3223Z" fill="#1C1C1E"/>
<path d="M10.1301 12.3223C11.9769 12.3223 13.1689 13.7674 13.1689 15.6279C13.1689 17.6047 11.6747 19 9.67681 19C7.46065 19 6 17.2392 6 14.9635C6 11.0598 9.22351 9 10.9696 9C11.4565 9 11.809 9.31561 11.809 9.74751C11.809 10.1462 11.6076 10.412 11.0535 10.5615C9.82791 10.8605 8.6191 11.7409 8.08185 13.0033H8.26653C8.70304 12.4884 9.3914 12.3223 10.1301 12.3223Z" fill="#1C1C1E"/>
</svg>
