<svg width="28" height="28" viewBox="0 0 28 28" fill="none" xmlns="http://www.w3.org/2000/svg">
<path d="M9.03882 15.6777C7.19203 15.6777 6 14.2326 6 12.3721C6 10.3953 7.49423 9 9.49213 9C11.7083 9 13.1689 10.7608 13.1689 13.0365C13.1689 16.9402 9.94544 19 8.19937 19C7.71249 19 7.34313 18.6844 7.34313 18.2525C7.34313 17.8538 7.5446 17.588 8.11542 17.4385C9.34103 17.1395 10.5498 16.2591 11.0871 14.9967H10.8856C10.4491 15.5116 9.76076 15.6777 9.03882 15.6777Z" fill="#1C1C1E"/>
<path d="M17.8699 15.6777C16.0231 15.6777 14.8311 14.2326 14.8311 12.3721C14.8311 10.3953 16.3253 9 18.3232 9C20.5393 9 22 10.7608 22 13.0365C22 16.9402 18.7765 19 17.0304 19C16.5435 19 16.191 18.6844 16.191 18.2525C16.191 17.8538 16.3924 17.588 16.9465 17.4385C18.1721 17.1395 19.3809 16.2591 19.9182 14.9967H19.7335C19.297 15.5116 18.6086 15.6777 17.8699 15.6777Z" fill="#1C1C1E"/>
</svg>
