<svg width="20" height="20" viewBox="0 0 20 20" fill="none" xmlns="http://www.w3.org/2000/svg">
<path d="M0.978664 15.648H4.9463C4.92119 15.805 4.90863 15.9619 4.90863 16.1126C4.90863 17.2238 5.53642 17.9834 6.77945 17.9834C8.17942 17.9834 9.31572 17.0982 10.0753 15.648H19.0276C19.329 15.648 19.5738 15.3906 19.5738 15.0893C19.5738 14.788 19.329 14.5368 19.0276 14.5368H10.5525C10.8977 13.5135 11.1049 12.3145 11.1489 11.0024C11.5507 10.9208 11.9587 10.8706 12.3856 10.8706C12.5739 10.8706 12.687 10.9584 12.687 11.0966C12.687 11.6176 12.3793 12.0382 12.3793 12.6033C12.3793 13.1118 12.756 13.4257 13.2582 13.4257C14.564 13.4257 16.1335 11.2786 16.6044 11.2786C17.0313 11.2786 16.5416 13.1934 18.1299 13.1934C18.4061 13.1934 18.7577 13.1243 19.0214 12.9423C19.1971 12.8293 19.3164 12.6535 19.3164 12.4338C19.3164 12.1575 19.1281 11.919 18.8393 11.919C18.6258 11.919 18.4438 12.0822 18.2492 12.0822C17.6402 12.0822 18.2303 10.023 16.9183 10.023C15.8008 10.023 14.1623 12.0508 13.7542 12.0508C13.704 12.0508 13.6663 12.0194 13.6663 11.9504C13.6663 11.7432 13.8923 11.3163 13.8923 10.8831C13.8923 10.1925 13.3524 9.76564 12.4923 9.76564C12.0278 9.76564 11.582 9.80959 11.1426 9.8912C10.9731 6.54508 9.35339 3.97742 6.95523 3.97742C5.26019 3.97742 4.00461 5.35856 4.00461 7.17915C4.00461 9.25713 5.34808 11.0149 6.93011 12.1764C6.18304 12.9109 5.61803 13.7396 5.27275 14.5368H0.978664C0.671047 14.5368 0.426208 14.788 0.426208 15.0893C0.426208 15.3906 0.677325 15.648 0.978664 15.648ZM5.10952 7.17287C5.10952 5.98635 5.90054 5.08861 6.95523 5.08861C8.75698 5.08861 9.96862 7.34237 10.044 10.1925C9.19644 10.4939 8.41798 10.9396 7.73996 11.4607C6.47811 10.5567 5.10952 9.08763 5.10952 7.17287ZM0.740104 13.2185C0.922163 13.4005 1.19839 13.3943 1.37417 13.2185L2.1338 12.4651L2.88715 13.2185C3.06921 13.4005 3.33915 13.4005 3.52121 13.2185C3.70327 13.0427 3.70327 12.7602 3.52121 12.5844L2.76787 11.8311L3.52121 11.0777C3.70327 10.9019 3.70327 10.6257 3.52121 10.4437C3.34543 10.2616 3.06921 10.2679 2.88715 10.4437L2.1338 11.197L1.37417 10.4437C1.19211 10.2679 0.922163 10.2679 0.740104 10.4437C0.558044 10.6257 0.558044 10.9082 0.740104 11.084L1.49345 11.8311L0.740104 12.5844C0.558044 12.7665 0.558044 13.0364 0.740104 13.2185ZM8.34264 13.0239C8.43681 13.0741 8.53098 13.0929 8.62515 13.0929C8.91393 13.0929 9.13366 12.8732 9.13366 12.6095C9.13366 12.4338 9.05205 12.2642 8.84487 12.145C8.80093 12.1261 8.76326 12.101 8.71932 12.0822C9.1211 11.7997 9.55428 11.5548 10.0251 11.3602C9.94351 12.5593 9.71123 13.6454 9.35966 14.5368H6.48438C6.792 13.953 7.26284 13.3315 7.85924 12.7728C8.02247 12.8606 8.17942 12.9485 8.34264 13.0239ZM6.05749 15.9494C6.05749 15.8552 6.07004 15.7548 6.0826 15.648H8.78837C8.26731 16.4202 7.62696 16.8785 6.905 16.8785C6.33371 16.8785 6.05749 16.5018 6.05749 15.9494Z" fill="#1C1C1E"/>
</svg>
