<svg width="20" height="20" viewBox="0 0 20 20" fill="none" xmlns="http://www.w3.org/2000/svg">
<path d="M5.78754 11.7055C4.50684 11.7055 3.81 11.0337 3.81 9.75303V5.50289C3.81 4.21592 4.55707 3.54419 5.78754 3.54419H14.2062C15.4869 3.54419 16.1837 4.21592 16.1837 5.50289V9.75303C16.1837 11.0337 15.4869 11.7055 14.2062 11.7055H5.78754ZM5.81893 10.5566H14.1748C14.6708 10.5566 14.9282 10.2929 14.9282 9.79698V5.45895C14.9282 4.963 14.6708 4.69932 14.1748 4.69932H5.81893C5.32297 4.69932 5.0593 4.963 5.0593 5.45895V9.79698C5.0593 10.2929 5.32297 10.5566 5.81893 10.5566ZM12.3605 15.8489C11.6699 15.8489 11.0735 15.4157 10.835 14.813H4.4064C4.07367 14.813 3.81 14.5368 3.81 14.2103C3.81 13.8776 4.07367 13.6014 4.4064 13.6014H10.835C11.0735 12.9987 11.6699 12.5718 12.3605 12.5718C13.0511 12.5718 13.6412 12.9987 13.886 13.6014H15.6062C15.9201 13.6014 16.1837 13.8713 16.1837 14.2103C16.1837 14.5368 15.9201 14.813 15.6062 14.813H13.886C13.6412 15.422 13.0511 15.8489 12.3605 15.8489ZM12.3605 14.9825C12.8 14.9825 13.1327 14.6372 13.1327 14.2103C13.1327 13.7709 12.8 13.4319 12.3605 13.4319C11.9273 13.4319 11.582 13.7709 11.582 14.2103C11.582 14.6372 11.9273 14.9825 12.3605 14.9825Z" fill="#1C1C1E"/>
</svg>
