<svg width="20" height="20" viewBox="0 0 20 20" fill="none" xmlns="http://www.w3.org/2000/svg">
<path d="M12.0968 11.3916H16.4035C17.4268 11.3916 18.0357 10.789 18.0357 9.78449V5.45902C18.0357 4.45456 17.4268 3.85815 16.4035 3.85815H12.0968C11.0735 3.85815 10.4708 4.45456 10.4708 5.45902V9.78449C10.4708 10.789 11.0735 11.3916 12.0968 11.3916ZM12.2161 10.1549C11.8771 10.1549 11.7076 9.97911 11.7076 9.63382V5.60969C11.7076 5.2644 11.8771 5.0949 12.2161 5.0949H16.2842C16.6295 5.0949 16.7927 5.2644 16.7927 5.60969V9.63382C16.7927 9.97911 16.6295 10.1549 16.2842 10.1549H12.2161ZM2.54185 13.6015C2.22795 13.6015 1.96428 13.8714 1.96428 14.2104C1.96428 14.5369 2.22795 14.8131 2.54185 14.8131H4.24316C4.488 15.4158 5.07812 15.8489 5.76869 15.8489C6.45926 15.8489 7.05566 15.422 7.29422 14.8131H17.4393C17.772 14.8131 18.0357 14.5369 18.0357 14.2104C18.0357 13.8777 17.772 13.6015 17.4393 13.6015H7.29422C7.04938 12.9988 6.45926 12.5719 5.76869 12.5719C5.07812 12.5719 4.488 12.9988 4.24316 13.6015H2.54185ZM5.76869 14.9826C5.32923 14.9826 4.99651 14.6373 4.99651 14.2104C4.99651 13.771 5.32923 13.432 5.76869 13.432C6.20186 13.432 6.54087 13.771 6.54087 14.2104C6.54087 14.6373 6.20186 14.9826 5.76869 14.9826Z" fill="#1C1C1E"/>
<path fill-rule="evenodd" clip-rule="evenodd" d="M7.93262 3.8584C8.9559 3.8584 9.56444 4.45454 9.56445 5.45898V9.78418C9.56445 10.7886 8.95592 11.3916 7.93262 11.3916H3.62598C2.60268 11.3916 2 10.7886 2 9.78418V5.45898C2.00001 4.45454 2.60269 3.8584 3.62598 3.8584H7.93262ZM3.74512 5.09473C3.40628 5.09477 3.23641 5.26431 3.23633 5.60938V9.63379C3.23633 9.97902 3.4062 10.1552 3.74512 10.1553H7.81348C8.15866 10.1552 8.32226 9.97901 8.32227 9.63379V5.60938C8.32218 5.26431 8.15857 5.09477 7.81348 5.09473H3.74512Z" fill="#1C1C1E"/>
</svg>
