<svg width="20" height="20" viewBox="0 0 20 20" fill="none" xmlns="http://www.w3.org/2000/svg">
<path d="M5.61775 12.4404H7.39439C7.44462 12.4404 7.49484 12.453 7.53251 12.4907L10.2885 14.9516C10.6087 15.2467 10.8661 15.3848 11.1925 15.3848C11.6634 15.3848 12.0149 15.0332 12.0149 14.5686V4.98228C12.0149 4.51144 11.6634 4.13477 11.1862 4.13477C10.8661 4.13477 10.6401 4.27916 10.2885 4.59933L7.53251 7.04143C7.49484 7.0791 7.44462 7.09166 7.39439 7.09166H5.61775C4.68862 7.09166 4.21777 7.58133 4.21777 8.56069V10.9714C4.21777 11.957 4.69489 12.4404 5.61775 12.4404ZM5.73075 11.3167C5.52358 11.3167 5.42313 11.2162 5.42313 11.0091V8.5293C5.42313 8.31585 5.52358 8.2154 5.73075 8.2154H7.68945C7.85896 8.2154 7.98451 8.18401 8.12891 8.05218L10.6275 5.7733C10.6589 5.74819 10.6903 5.72935 10.728 5.72935C10.7782 5.72935 10.8158 5.76074 10.8158 5.81724V13.696C10.8158 13.7588 10.7782 13.7902 10.7342 13.7902C10.6966 13.7902 10.6652 13.7776 10.6275 13.7462L8.12891 11.4799C7.98451 11.3481 7.85896 11.3167 7.68945 11.3167H5.73075ZM14.1494 12.5597C14.4194 12.7292 14.7709 12.6727 14.9655 12.3965C15.4741 11.7122 15.7754 10.758 15.7754 9.75977C15.7754 8.76158 15.4741 7.80734 14.9655 7.11677C14.7709 6.84682 14.4194 6.78404 14.1494 6.9661C13.8418 7.16699 13.7853 7.53739 14.0301 7.89523C14.3754 8.39118 14.57 9.05664 14.57 9.75977C14.57 10.4566 14.3754 11.1158 14.0301 11.618C13.7853 11.9821 13.8418 12.3525 14.1494 12.5597Z" fill="#393939"/>
</svg>
