<svg width="20" height="20" viewBox="0 0 20 20" fill="none" xmlns="http://www.w3.org/2000/svg">
<path d="M4.09919 12.4404H5.87584C5.92606 12.4404 5.97628 12.453 6.01395 12.4907L8.76995 14.9516C9.0964 15.2467 9.34752 15.3848 9.68025 15.3848C10.1448 15.3848 10.4964 15.0332 10.4964 14.5686V4.98228C10.4964 4.51144 10.1448 4.13477 9.66769 4.13477C9.34752 4.13477 9.12151 4.27916 8.76995 4.59933L6.01395 7.04143C5.97628 7.0791 5.92606 7.09166 5.87584 7.09166H4.09919C3.17006 7.09166 2.69922 7.58133 2.69922 8.56069V10.9714C2.69922 11.957 3.17634 12.4404 4.09919 12.4404ZM15.1609 14.2359C15.4496 14.4117 15.8012 14.3489 16.0021 14.0539C16.8182 12.8987 17.2953 11.3481 17.2953 9.75349C17.2953 8.1589 16.8245 6.60198 16.0021 5.45313C15.8012 5.15806 15.4496 5.08901 15.1609 5.27107C14.8595 5.4594 14.8156 5.83608 15.0416 6.16881C15.707 7.14816 16.09 8.42257 16.09 9.75349C16.09 11.0781 15.7008 12.3525 15.0416 13.3382C14.8218 13.6709 14.8595 14.0413 15.1609 14.2359ZM4.21219 11.3167C4.00502 11.3167 3.90458 11.2162 3.90458 11.0091V8.5293C3.90458 8.31585 4.00502 8.2154 4.21219 8.2154H6.1709C6.3404 8.2154 6.46596 8.18401 6.61035 8.05218L9.10896 5.7733C9.14035 5.74819 9.17174 5.72935 9.2094 5.72935C9.25963 5.72935 9.29729 5.76074 9.29729 5.81724V13.696C9.29729 13.7588 9.25963 13.7902 9.21568 13.7902C9.17801 13.7902 9.14662 13.7776 9.10896 13.7462L6.61035 11.4799C6.46596 11.3481 6.3404 11.3167 6.1709 11.3167H4.21219ZM12.6371 12.5534C12.9071 12.7292 13.2586 12.6664 13.4533 12.3902C13.9618 11.7122 14.2631 10.7517 14.2631 9.75349C14.2631 8.7553 13.9618 7.80106 13.4533 7.11677C13.2586 6.84054 12.9071 6.77776 12.6371 6.95982C12.3295 7.16071 12.2667 7.53111 12.5179 7.89523C12.8631 8.39118 13.0578 9.05664 13.0578 9.75349C13.0578 10.4503 12.8569 11.1095 12.5179 11.6117C12.273 11.9759 12.3295 12.3463 12.6371 12.5534Z" fill="#393939"/>
</svg>
