<svg width="20" height="20" viewBox="0 0 20 20" fill="none" xmlns="http://www.w3.org/2000/svg">
<path d="M16.1897 15.9364C16.466 16.1185 16.8364 16.0369 17.0372 15.7356C18.1422 14.0782 18.8076 12.019 18.8076 9.75899C18.8076 7.49267 18.1296 5.4398 17.0372 3.77615C16.8364 3.46854 16.466 3.3932 16.1897 3.57526C15.8884 3.76987 15.8444 4.14027 16.0516 4.473C17.0121 5.93575 17.6085 7.75006 17.6085 9.75899C17.6085 11.7554 17.0121 13.5822 16.0516 15.0387C15.8444 15.3714 15.8884 15.7418 16.1897 15.9364ZM2.58552 12.4397H4.36217C4.41239 12.4397 4.46261 12.4522 4.50028 12.4899L7.25628 14.9508C7.58273 15.2459 7.83385 15.384 8.16657 15.384C8.63114 15.384 8.9827 15.0324 8.9827 14.5679V4.98151C8.9827 4.51067 8.63114 4.13399 8.15402 4.13399C7.83385 4.13399 7.60784 4.27838 7.25628 4.59856L4.50028 7.04066C4.46261 7.07833 4.41239 7.09088 4.36217 7.09088H2.58552C1.65639 7.09088 1.18555 7.58056 1.18555 8.55991V10.9706C1.18555 11.9563 1.66267 12.4397 2.58552 12.4397ZM13.6472 14.2351C13.936 14.4109 14.2875 14.3481 14.4821 14.0531C15.3045 12.8979 15.7754 11.3473 15.7754 9.75272C15.7754 8.15813 15.3108 6.60121 14.4821 5.45235C14.2875 5.15729 13.936 5.08823 13.6472 5.27029C13.3458 5.45863 13.3019 5.8353 13.5216 6.16803C14.1934 7.14739 14.5763 8.4218 14.5763 9.75272C14.5763 11.0774 14.1808 12.3518 13.5216 13.3374C13.3082 13.6701 13.3458 14.0405 13.6472 14.2351ZM2.69852 11.3159C2.49135 11.3159 2.3909 11.2155 2.3909 11.0083V8.52852C2.3909 8.31508 2.49135 8.21463 2.69852 8.21463H4.65723C4.82673 8.21463 4.95229 8.18324 5.09668 8.0514L7.59528 5.77253C7.62667 5.74741 7.65806 5.72858 7.69573 5.72858C7.74595 5.72858 7.78362 5.75997 7.78362 5.81647V13.6952C7.78362 13.758 7.74595 13.7894 7.70201 13.7894C7.66434 13.7894 7.63295 13.7769 7.59528 13.7455L5.09668 11.4791C4.95229 11.3473 4.82673 11.3159 4.65723 11.3159H2.69852ZM11.1235 12.5527C11.3934 12.7284 11.745 12.6657 11.9396 12.3894C12.4481 11.7114 12.7494 10.7509 12.7494 9.75272C12.7494 8.75453 12.4481 7.80029 11.9396 7.116C11.745 6.83977 11.3934 6.77699 11.1235 6.95905C10.8158 7.15994 10.7531 7.53034 11.0042 7.89446C11.3495 8.39041 11.5441 9.05587 11.5441 9.75272C11.5441 10.4496 11.3432 11.1087 11.0042 11.611C10.7593 11.9751 10.8158 12.3455 11.1235 12.5527Z" fill="#393939"/>
</svg>
