<svg width="20" height="20" viewBox="0 0 20 20" fill="none" xmlns="http://www.w3.org/2000/svg">
<path d="M6.81696 12.4404H8.59989C8.65011 12.4404 8.69406 12.453 8.738 12.4907L11.4877 14.9516C11.8142 15.2467 12.0653 15.3848 12.398 15.3848C12.8689 15.3848 13.2204 15.0332 13.2204 14.5686V4.98228C13.2204 4.51144 12.8689 4.13477 12.3917 4.13477C12.0653 4.13477 11.8393 4.27916 11.4877 4.59933L8.738 7.04143C8.69406 7.0791 8.65011 7.09166 8.59989 7.09166H6.81696C5.89411 7.09166 5.41699 7.58133 5.41699 8.56069V10.9714C5.41699 11.957 5.89411 12.4404 6.81696 12.4404ZM6.92997 11.3167C6.7228 11.3167 6.62235 11.2162 6.62235 11.0091V8.5293C6.62235 8.31585 6.7228 8.2154 6.92997 8.2154H8.88867C9.05818 8.2154 9.18373 8.18401 9.3344 8.05218L11.8267 5.7733C11.8581 5.74819 11.8895 5.72935 11.9335 5.72935C11.9774 5.72935 12.0151 5.76074 12.0151 5.81724V13.696C12.0151 13.7588 11.9774 13.7902 11.9335 13.7902C11.8958 13.7902 11.8644 13.7776 11.833 13.7462L9.3344 11.4799C9.19001 11.3481 9.05818 11.3167 8.88867 11.3167H6.92997Z" fill="#393939"/>
</svg>
