<svg width="20" height="20" viewBox="0 0 20 20" fill="none" xmlns="http://www.w3.org/2000/svg">
<path d="M13.2207 11.2853V4.98228C13.2207 4.51144 12.8692 4.13477 12.3921 4.13477C12.0656 4.13477 11.8396 4.27916 11.488 4.59933L8.87015 6.92215L9.67372 7.732L11.827 5.7733C11.8584 5.74819 11.8898 5.72935 11.9338 5.72935C11.9777 5.72935 12.0154 5.76074 12.0154 5.81724V10.0799L13.2207 11.2853ZM15.3113 15.9874C15.5059 16.1758 15.8261 16.1821 16.0144 15.9874C16.209 15.7866 16.2153 15.4727 16.0144 15.278L5.01552 4.28544C4.82091 4.09082 4.50073 4.08454 4.30612 4.28544C4.1115 4.47377 4.1115 4.80022 4.30612 4.98856L15.3113 15.9874ZM6.81728 12.4404H8.6002C8.65043 12.4404 8.70065 12.453 8.73832 12.4907L11.4943 14.9516C11.8208 15.2467 12.0719 15.3848 12.4046 15.3848C12.6997 15.3848 12.9508 15.2341 13.1015 14.9893L12.0405 13.9346L9.30333 11.4611C9.17149 11.3418 9.0836 11.3167 8.9141 11.3167H6.93028C6.72311 11.3167 6.62266 11.2162 6.62266 11.0091V8.51046L5.69353 7.58761C5.51775 7.80734 5.41731 8.13379 5.41731 8.56069V10.9714C5.41731 11.957 5.89443 12.4404 6.81728 12.4404Z" fill="#393939"/>
</svg>
