<svg width="20" height="20" viewBox="0 0 20 20" fill="none" xmlns="http://www.w3.org/2000/svg">
<path d="M4.12988 7.22907H5.37919V6.05511C5.37919 5.44615 5.69936 5.14481 6.27693 5.14481H7.44462V3.89551H6.19531C4.83929 3.89551 4.12988 4.59235 4.12988 5.9421V7.22907ZM8.36747 5.14481H11.6257V3.89551H8.36747V5.14481ZM14.614 7.22907H15.8633V5.9421C15.8633 4.59863 15.1539 3.89551 13.7979 3.89551H12.5485V5.14481H13.7162C14.2875 5.14481 14.614 5.44615 14.614 6.05511V7.22907ZM14.614 11.3725H15.8633V8.15193H14.614V11.3725ZM4.12988 11.3725H5.37919V8.15193H4.12988V11.3725ZM12.5485 15.6289H13.7979C15.1539 15.6289 15.8633 14.9258 15.8633 13.5823V12.2891H14.614V13.4693C14.614 14.0783 14.2875 14.3796 13.7162 14.3796H12.5485V15.6289ZM6.19531 15.6289H7.44462V14.3796H6.27693C5.69936 14.3796 5.37919 14.0783 5.37919 13.4693V12.2891H4.12988V13.5823C4.12988 14.9258 4.83929 15.6289 6.19531 15.6289ZM8.36747 15.6289H11.6257V14.3796H8.36747V15.6289Z" fill="#393939"/>
</svg>
