<svg width="20" height="20" viewBox="0 0 20 20" fill="none" xmlns="http://www.w3.org/2000/svg">
<path d="M4.60686 15.8676H15.386C16.7358 15.8676 17.4201 15.1896 17.4201 13.8587V7.71261C17.4201 6.3817 16.7358 5.70368 15.386 5.70368H13.804V5.22028C13.804 4.03376 13.1636 3.46875 11.9834 3.46875H8.01576C6.89202 3.46875 6.19517 4.03376 6.19517 5.22028V5.70368H4.60686C3.26967 5.70368 2.5791 6.3817 2.5791 7.71261V13.8587C2.5791 15.1896 3.26967 15.8676 4.60686 15.8676ZM7.33147 5.16378C7.33147 4.73689 7.58887 4.5046 8.02832 4.5046H11.9708C12.4103 4.5046 12.6677 4.73689 12.6677 5.16378V5.70368H7.33147V5.16378ZM4.65709 14.6811C4.10463 14.6811 3.80957 14.3923 3.80957 13.821V7.75656C3.80957 7.17899 4.10463 6.89648 4.65709 6.89648H5.37905V14.6811H4.65709ZM6.54674 14.6811V6.89648H13.4524V14.6811H6.54674ZM15.3421 6.89648C15.8945 6.89648 16.1896 7.17899 16.1896 7.75656V13.821C16.1896 14.3923 15.8945 14.6811 15.3421 14.6811H14.6201V6.89648H15.3421Z" fill="#393939"/>
</svg>
