<svg width="20" height="20" viewBox="0 0 20 20" fill="none" xmlns="http://www.w3.org/2000/svg">
<path d="M7.0053 16.7466C7.35686 16.7466 7.62054 16.5771 8.04743 16.2004L10.2008 14.2919H13.9989C15.8885 14.2919 16.9495 13.2121 16.9495 11.3476V6.47595C16.9495 4.61142 15.8885 3.53162 13.9989 3.53162H5.99456C4.10491 3.53162 3.04395 4.61142 3.04395 6.47595V11.3476C3.04395 13.2121 4.13002 14.2919 5.95061 14.2919H6.20801V15.8426C6.20801 16.4013 6.50307 16.7466 7.0053 16.7466ZM7.31292 15.3655V13.5763C7.31292 13.2059 7.15597 13.0615 6.79813 13.0615H6.02595C4.83943 13.0615 4.27441 12.4651 4.27441 11.3099V6.51362C4.27441 5.35849 4.83943 4.76208 6.02595 4.76208H13.9612C15.1477 4.76208 15.719 5.35849 15.719 6.51362V11.3099C15.719 12.4651 15.1477 13.0615 13.9612 13.0615H10.1317C9.75502 13.0615 9.56669 13.1242 9.30301 13.4005L7.31292 15.3655ZM6.79813 7.26069H13.1263C13.3397 7.26069 13.5155 7.08491 13.5155 6.86518C13.5155 6.65801 13.3397 6.48223 13.1263 6.48223H6.79813C6.58468 6.48223 6.41518 6.65801 6.41518 6.86518C6.41518 7.08491 6.58468 7.26069 6.79813 7.26069ZM6.79813 9.26334H13.1263C13.3397 9.26334 13.5155 9.08128 13.5155 8.86783C13.5155 8.65438 13.3397 8.4786 13.1263 8.4786H6.79813C6.58468 8.4786 6.41518 8.65438 6.41518 8.86783C6.41518 9.08128 6.58468 9.26334 6.79813 9.26334ZM6.79813 11.2597H10.9227C11.1362 11.2597 11.3057 11.0839 11.3057 10.8705C11.3057 10.6508 11.1362 10.4813 10.9227 10.4813H6.79813C6.58468 10.4813 6.41518 10.6508 6.41518 10.8705C6.41518 11.0839 6.58468 11.2597 6.79813 11.2597Z" fill="#1C1C1E"/>
</svg>
