<svg width="20" height="20" viewBox="0 0 20 20" fill="none" xmlns="http://www.w3.org/2000/svg">
<path d="M9.99367 16.4516C13.5658 16.4516 16.4913 13.5261 16.4913 9.954C16.4913 6.38815 13.5721 3.46265 9.99995 3.46265C9.61072 3.46265 9.39099 3.69493 9.39099 4.0716V6.38187C9.39099 6.70204 9.617 6.95316 9.93717 6.95316C10.2573 6.95316 10.4833 6.70204 10.4833 6.38187V4.76845C13.1389 5.01329 15.1855 7.23567 15.1855 9.954C15.1855 12.8293 12.8815 15.1521 9.99367 15.1521C7.11211 15.1521 4.79557 12.8293 4.80184 9.954C4.80812 8.71725 5.2413 7.56839 5.96953 6.68321C6.20809 6.35676 6.24576 6.01147 5.97581 5.74152C5.70586 5.47157 5.27269 5.49669 4.99018 5.86708C4.06733 6.98455 3.50232 8.40963 3.50232 9.954C3.50232 13.5261 6.42782 16.4516 9.99367 16.4516ZM11.0044 10.9208C11.5192 10.3746 11.4125 9.63382 10.7972 9.2132L7.60807 7.02222C7.23139 6.7711 6.86727 7.1415 7.11839 7.51817L9.30938 10.7011C9.73 11.3226 10.4708 11.4356 11.0044 10.9208Z" fill="#1C1C1E"/>
</svg>
