<svg width="28" height="28" viewBox="0 0 28 28" fill="none" xmlns="http://www.w3.org/2000/svg">
<path d="M13.9917 28C14.2898 28 14.7368 27.9174 15.1674 27.7248C24.6884 23.4182 28 21.4231 28 16.4147V6.02654C28 4.37543 27.2383 3.78378 25.5659 3.19214C23.7445 2.54545 17.5517 0.756757 15.7635 0.247666C15.2005 0.0963145 14.5713 0 13.9917 0C13.4287 0 12.783 0.123833 12.2365 0.247666C10.4483 0.674201 4.25547 2.55921 2.43406 3.19214C0.761679 3.77002 0 4.37543 0 6.02654V16.4147C0 21.4231 3.31165 23.3907 12.8326 27.7248C13.2632 27.9174 13.7102 28 13.9917 28ZM13.9917 25.083C13.7599 25.083 13.5281 25.0143 13.0479 24.7666C5.49734 20.9415 3.14607 19.9096 3.14607 15.9057V6.46683C3.14607 5.9715 3.26198 5.77887 3.72561 5.61376C6.17623 4.80197 10.9284 3.49484 13.1141 2.77936C13.495 2.66929 13.7599 2.62801 13.9917 2.62801C14.2401 2.62801 14.505 2.66929 14.8859 2.77936C17.0716 3.49484 21.7907 4.88452 24.2578 5.61376C24.738 5.76511 24.8539 5.9715 24.8539 6.46683V15.9057C24.8539 19.9371 22.4033 21.0241 14.9521 24.7666C14.4719 25.0143 14.2401 25.083 13.9917 25.083ZM12.22 19.8133C12.8326 19.8133 13.3459 19.5656 13.6937 19.1115L21.1614 9.45258C21.3933 9.16364 21.5754 8.83342 21.5754 8.51695C21.5754 7.82899 20.8468 7.37494 20.052 7.37494C19.5553 7.37494 19.1082 7.60885 18.7605 8.07666L12.1703 16.8138L9.09048 13.5803C8.69308 13.1538 8.29568 13.0025 7.81549 13.0025C6.98758 13.0025 6.34181 13.5528 6.34181 14.2408C6.34181 14.571 6.49083 14.8737 6.77232 15.1764L10.6801 19.1253C11.1271 19.5931 11.6073 19.8133 12.22 19.8133Z" fill="#007AFF"/>
</svg>
